<svg viewBox="0 0 24 24" xmlns="http://www.w3.org/2000/svg"><path d="M20 0H4a4 4 0 0 0-4 4v12a4 4 0 0 0 4 4h2.758l3.121 3.121a3 3 0 0 0 4.242 0L17.242 20H20a4 4 0 0 0 4-4V4a4 4 0 0 0-4-4Zm2 16a2 2 0 0 1-2 2h-3.172a1 1 0 0 0-.707.293l-3.414 3.414a1 1 0 0 1-1.414 0l-3.414-3.414A1 1 0 0 0 7.172 18H4a2 2 0 0 1-2-2V4a2 2 0 0 1 2-2h16a2 2 0 0 1 2 2Z" fill="#454545" class="fill-232323"></path><path d="M18 5H6a1 1 0 0 0 0 2h12a1 1 0 0 0 0-2ZM18 9H6a1 1 0 0 0 0 2h12a1 1 0 0 0 0-2ZM18 13H6a1 1 0 0 0 0 2h12a1 1 0 0 0 0-2Z" fill="#454545" class="fill-232323"></path></svg>