<svg width="349" height="349" viewBox="0 0 349 349" fill="none" xmlns="http://www.w3.org/2000/svg">
<g clip-path="url(#clip0_38_123)">
<rect width="349" height="349" fill="white"/>
<path d="M138.252 65.0674C138.252 65.0674 73.1078 44.6846 35.4198 77.0978C-2.2673 109.511 26.5604 160.066 81.2934 181.401C136.026 202.735 107.727 294.586 177.955 283.284C248.186 271.983 260.548 181.56 307.832 140.58C355.114 99.6008 321.213 51.3988 290.567 39.9193C259.921 28.4419 171.338 76.1329 138.252 65.0674Z" fill="#FFF4EF"/>
<rect x="80" y="46" width="200" height="200" rx="40" fill="#E9E5E5"/>
<ellipse cx="180" cy="146.5" rx="50" ry="49.5" fill="white"/>
<circle cx="179.5" cy="146.5" r="35.5" fill="#373847"/>
<circle cx="112.5" cy="77.5" r="10.5" fill="#F55572"/>
<path d="M287.027 20.7419C286.338 20.7419 285.747 20.271 285.592 19.5971C285.025 17.1521 284.246 16.3717 281.8 15.8075C281.126 15.6505 280.655 15.0611 280.655 14.371C280.655 13.6823 281.126 13.0914 281.8 12.9359C284.246 12.3702 285.025 11.5898 285.592 9.14475C285.748 8.47093 286.338 8 287.027 8C287.716 8 288.307 8.47093 288.463 9.14475C289.029 11.5898 289.808 12.3702 292.254 12.9359C292.928 13.0929 293.399 13.6823 293.399 14.371C293.399 15.0611 292.928 15.652 292.254 15.8075C289.808 16.3732 289.029 17.1521 288.464 19.5971C288.307 20.271 287.717 20.7419 287.027 20.7419ZM283.171 14.371C285.267 15.0374 286.36 16.1303 287.027 18.2258C287.694 16.1303 288.787 15.0374 290.883 14.371C288.787 13.7031 287.694 12.6101 287.027 10.5146C286.36 12.6116 285.268 13.7031 283.171 14.371Z" fill="#FF4B61"/>
<path d="M307.379 33.0249C304.877 33.0249 302.84 30.9871 302.84 28.4844C302.84 25.9816 304.877 23.9453 307.379 23.9453C309.882 23.9453 311.918 25.9816 311.918 28.4844C311.918 30.9871 309.882 33.0249 307.379 33.0249ZM307.379 25.6928C305.839 25.6928 304.587 26.9457 304.587 28.4844C304.587 30.0245 305.84 31.2774 307.379 31.2774C308.92 31.2774 310.172 30.026 310.172 28.4844C310.172 26.9442 308.919 25.6928 307.379 25.6928Z" fill="#FFB109"/>
<path d="M22.0061 182.512C21.0322 182.512 20.1967 181.828 19.9771 180.849C19.1767 177.297 18.0755 176.163 14.6182 175.343C13.666 175.115 13 174.259 13 173.256C13 172.256 13.666 171.397 14.6182 171.171C18.0755 170.349 19.1767 169.215 19.9771 165.663C20.1981 164.684 21.0322 164 22.0061 164C22.9798 164 23.8154 164.684 24.0352 165.663C24.8354 169.215 25.9367 170.349 29.3939 171.171C30.346 171.399 31.0121 172.256 31.0121 173.256C31.0121 174.259 30.346 175.117 29.3939 175.343C25.9367 176.165 24.8354 177.297 24.0364 180.849C23.8154 181.828 22.9813 182.512 22.0061 182.512ZM16.5564 173.256C19.5185 174.224 21.0634 175.812 22.0061 178.857C22.9486 175.812 24.4936 174.224 27.4557 173.256C24.4936 172.286 22.9486 170.698 22.0061 167.653C21.0634 170.7 19.52 172.286 16.5564 173.256Z" fill="#FF4B61"/>
<path d="M51.0254 200.024C47.4392 200.024 44.5211 197.105 44.5211 193.519C44.5211 189.933 47.4392 187.016 51.0254 187.016C54.6117 187.016 57.5298 189.933 57.5298 193.519C57.5298 197.105 54.6117 200.024 51.0254 200.024ZM51.0254 189.519C48.8184 189.519 47.0239 191.314 47.0239 193.519C47.0239 195.726 48.8199 197.521 51.0254 197.521C53.2326 197.521 55.027 195.728 55.027 193.519C55.027 191.312 53.2311 189.519 51.0254 189.519Z" fill="#FFB109"/>
<path d="M180 347C226.392 347 264 344.985 264 342.5C264 340.015 226.392 338 180 338C133.608 338 96 340.015 96 342.5C96 344.985 133.608 347 180 347Z" fill="#DAD7D5"/>
</g>
<defs>
<clipPath id="clip0_38_123">
<rect width="349" height="349" fill="white"/>
</clipPath>
</defs>
</svg>
