<svg width="430" height="283" viewBox="0 0 430 283" fill="none" xmlns="http://www.w3.org/2000/svg">
<path d="M1.13941 101.049C-6.06707 74.9002 22.3717 53.3727 45.5831 67.4066L105.713 103.762C120.461 112.679 139.672 107.366 147.743 92.1383L188.12 15.9515C199.392 -5.31719 229.863 -5.31717 241.135 15.9515L281.556 92.2198C289.61 107.417 308.766 112.745 323.511 103.889L384.489 67.2616C407.751 53.2895 436.134 74.9219 428.829 101.055L384.256 260.512C380.633 273.474 368.822 282.436 355.364 282.436H73.9783C60.4795 282.436 48.643 273.42 45.0566 260.407L1.13941 101.049Z" fill="url(#paint0_linear_1969_65)"/>
<defs>
<linearGradient id="paint0_linear_1969_65" x1="-18.8721" y1="124.186" x2="449.128" y2="124.186" gradientUnits="userSpaceOnUse">
<stop offset="0.5" stop-color="#FFB743"/>
<stop offset="0.5" stop-color="#CF9D4C"/>
</linearGradient>
</defs>
</svg>
