<svg width="348" height="393" viewBox="0 0 348 393" fill="none" xmlns="http://www.w3.org/2000/svg">
<path d="M163.238 148.107C163.238 148.107 115.277 83.971 57.1218 88.8802C-1.03214 93.7896 -8.38035 161.647 29.0191 219.535C66.4187 277.42 -23.6898 345.271 50.9039 382.787C125.499 420.305 199.462 342.859 272.64 336.401C345.816 329.944 346.719 260.837 325.457 228.868C304.195 196.902 187.105 181.359 163.238 148.107Z" fill="#EFD5CA"/>
<path d="M345.573 287.715C345.487 287.715 345.397 287.706 345.309 287.689C344.56 287.543 344.072 286.81 344.217 286.057C344.266 285.806 348.938 260.484 336.656 233.668C330.28 219.748 318.651 210.703 310.019 205.565C300.635 199.979 292.708 197.691 292.63 197.668C291.897 197.459 291.47 196.692 291.676 195.953C291.883 195.214 292.648 194.783 293.379 194.992C293.716 195.088 301.733 197.402 311.422 203.169C320.393 208.508 332.487 217.931 339.161 232.501C345.782 246.956 347.543 260.871 347.856 269.996C348.195 279.904 346.979 286.322 346.927 286.591C346.797 287.253 346.22 287.715 345.573 287.715Z" fill="#EFD5CA"/>
<path d="M74.8 71.9333C74.8 71.9333 79.893 60.7386 93.8006 64.0753C107.551 67.3749 113.473 47.7997 125.718 49.0583C137.961 50.3171 133.571 61.5567 149.192 64.0753C164.813 66.594 169.336 60.4667 175.915 71.9333H74.8Z" fill="#EFD5CA"/>
<path d="M87.2067 265.384L71.0053 275.684L78.1037 281.724L92.5075 271.897L87.2067 265.384Z" fill="#FCC9A7"/>
<path d="M74.852 270.678C75.51 270.656 75.9717 271.201 75.7544 271.788C75.3215 272.922 74.9785 274.787 76.0682 276.947C77.1947 279.189 80.5383 279.706 81.6419 279.663C82.2191 279.637 82.6869 280.041 82.624 280.564L84.9842 298.536C84.8794 299.563 84.3219 300.539 83.4519 301.26C82.6346 301.932 81.3817 301.686 81.0664 300.793L66.6878 274.137C66.3558 273.163 67.0097 272.059 68.1457 271.734L73.7265 270.761C73.8186 270.735 73.9204 270.719 74.0116 270.713L74.852 270.678Z" fill="#1F252A"/>
<path d="M65.9983 178.671L47.9445 172.14L47.501 181.45L64.0814 186.847L65.9983 178.671Z" fill="#FCC9A7"/>
<path d="M55.7609 173.331C56.0433 173.926 55.7269 174.566 55.1019 174.601C53.8897 174.655 52.0421 175.084 50.4955 176.943C48.8879 178.87 49.7448 182.143 50.2243 183.138C50.4778 183.657 50.2933 184.247 49.7887 184.398L34.2441 193.721C33.2609 194.034 32.143 193.911 31.1355 193.401C30.1932 192.919 29.9197 191.671 30.6131 191.027L49.3358 167.22C50.0974 166.528 51.3705 166.688 52.1212 167.6L55.2365 172.332C55.2973 172.406 55.3524 172.493 55.3944 172.574L55.7609 173.331Z" fill="#1F252A"/>
<path d="M145.572 162.736C146.647 152.853 155.864 145.947 165.651 147.691V147.691C175.437 149.435 181.701 159.101 179.295 168.746L164.248 229.07C162.602 235.666 156.129 239.861 149.436 238.668V238.668C142.743 237.476 138.117 231.302 138.852 224.544L145.572 162.736Z" fill="#734270"/>
<circle cx="151.931" cy="226.128" r="12.8641" transform="rotate(10.1058 151.931 226.128)" fill="#734270"/>
<path d="M143.797 216.039C149.747 211.443 158.342 212.82 162.558 219.045V219.045C166.79 225.295 164.846 233.822 158.323 237.619L97.1216 273.251C93.3007 275.475 88.4097 274.36 85.9305 270.699V270.699C83.4409 267.024 84.2386 262.046 87.752 259.332L143.797 216.039Z" fill="#734270"/>
<circle cx="151.928" cy="226.292" r="12.8641" transform="rotate(55.8917 151.928 226.292)" fill="#734270"/>
<path d="M149.546 174.7C147.742 173.698 146.172 172.316 144.927 170.631C143.682 168.947 142.785 166.994 142.288 164.885C141.791 162.775 141.703 160.549 142.03 158.334C142.356 156.12 143.091 153.96 144.192 151.978C145.293 149.996 146.738 148.231 148.445 146.783C150.153 145.336 152.089 144.234 154.143 143.541C156.197 142.848 158.328 142.578 160.416 142.745C162.504 142.912 164.507 143.514 166.311 144.516L157.929 159.608L149.546 174.7Z" fill="#864F82"/>
<path d="M150.044 151.906C154.904 142.697 166.88 140.074 175.145 146.409V146.409C182.291 151.887 183.854 162.022 178.69 169.399L142.466 221.137C138.549 226.733 130.939 228.288 125.14 224.678V224.678C119.413 221.113 117.416 213.728 120.564 207.763L150.044 151.906Z" fill="#864F82"/>
<circle cx="131.804" cy="213.673" r="12.8641" transform="rotate(31.9024 131.804 213.673)" fill="#7D1D61"/>
<path d="M136.602 201.247C143.631 203.831 146.981 211.844 143.882 218.662V218.662C140.771 225.508 132.481 228.243 125.907 224.592L62.9465 189.63C59.6956 187.825 58.3217 183.865 59.7564 180.434V180.434C61.2636 176.83 65.3412 175.052 69.0077 176.4L136.602 201.247Z" fill="#864F82"/>
<circle cx="132.154" cy="213.378" r="12.8641" transform="rotate(114.442 132.154 213.378)" fill="#864F82"/>
<path d="M193.975 89.979C192.201 90.433 190.136 90.1825 188.55 89.8303C186.983 89.487 185.758 88.2613 185.354 86.701L178.241 58.1845L190.696 55.0095L197.738 83.1702C198.552 86.389 196.823 89.2423 193.975 89.979Z" fill="#FCC9A7"/>
<path d="M195.755 75.2536L188.725 69.3258C188.725 69.3258 187.739 78.4424 196.651 78.8572L195.755 75.2536Z" fill="#F2C09E"/>
<path d="M201.722 52.1884C203.89 60.6669 198.767 69.3026 190.283 71.4557C181.805 73.6234 173.169 68.5006 171.016 60.0165C168.848 51.538 173.971 42.9023 182.455 40.7491C190.934 38.5815 199.555 43.7098 201.722 52.1884Z" fill="#FCC9A7"/>
<path d="M196.877 75.0523C192.857 76.0765 188.749 73.6502 187.72 69.615L185.046 59.0988L201.717 52.1739L204.341 62.476C205.753 68.0135 202.415 73.6406 196.877 75.0523Z" fill="#FCC9A7"/>
<path d="M202.148 55.7407L206.763 59.8207C207.445 60.5065 207.072 61.6513 206.099 61.8947L202.403 63.6268L202.148 55.7407Z" fill="#FCC9A7"/>
<path d="M188.568 62.7686L191.699 61.2555L190.711 55.0039C190.711 55.0039 204.869 52.2198 204.423 45.1745C204.423 45.1745 188.595 27.0355 173.26 42.4442C161.883 53.8694 171.677 67.4452 178.372 71.3026C180.604 72.5885 182.252 74.7338 182.975 77.204C183.058 77.5051 183.147 77.8208 183.227 78.1565L183.872 63.7709L188.568 62.7686Z" fill="url(#paint0_linear_37_2)"/>
<path d="M181.897 58.285C183.613 56.6035 186.375 56.6337 188.062 58.3638C189.743 60.0795 189.713 62.8417 187.983 64.5288C186.267 66.2103 183.505 66.1801 181.818 64.45C180.131 62.7198 180.167 59.9721 181.897 58.285Z" fill="#FCC9A7"/>
<path d="M172.694 47.7812C172.694 47.7812 162.567 31.4508 149.487 42.052C135.077 53.7355 149.714 69.9189 150.673 74.3315C151.806 79.4935 151.221 85.5548 144.532 89.2459C144.532 89.2459 165.977 86.0392 161.742 71.7937C158.181 59.8043 161.859 52.9454 169.87 54.9928L172.694 47.7812Z" fill="#FF7C60"/>
<path d="M189.293 78.2577C182.743 76.1098 175.597 78.5983 171.827 83.9202C168.638 88.4044 165.353 95.1821 165.57 103.876C166.205 130.486 161.739 143.023 161.739 143.023L182.3 161.855L197.936 119.296C197.936 119.296 200.968 115.723 203.247 110.697C206.443 103.665 206.008 102.573 202.759 95.0949L195.287 81.8822C195.302 81.8853 193.49 79.6251 189.293 78.2577Z" fill="#FFD686"/>
<path d="M191.516 351.427L186.01 357.298C186.01 357.298 174.627 361.606 175.732 367.446L211.294 362.099L201.698 344.852L191.516 351.427Z" fill="#43424B"/>
<path d="M211.961 355.198L203.703 367.972C203.703 367.972 199.59 370.001 198.534 373.355C198.108 374.709 199.263 376.031 200.684 375.818L221.696 372.658C222.91 372.476 223.893 371.588 224.182 370.413L227.516 356.889C227.647 356.358 227.577 355.802 227.316 355.322C226.475 353.78 224.405 350.268 222.048 348.359L211.961 355.198Z" fill="#43424B"/>
<path fill-rule="evenodd" clip-rule="evenodd" d="M179.901 196.477L214.327 206.236L188.451 281.28L205.762 347.173L188.987 352.709L164.42 291.318C162.475 288.38 161.268 284.341 161.253 279.88C161.241 276.19 162.047 272.784 163.416 270.047L179.901 196.477Z" fill="#128BAD"/>
<path fill-rule="evenodd" clip-rule="evenodd" d="M179.945 194.444L223.856 198.041L202.603 271.424C203.028 272.464 203.335 273.534 203.498 274.625C203.666 275.742 203.677 276.832 203.554 277.889L225.236 350.588L206.932 357.06L178.963 290.095C175.865 287.226 173.486 282.638 172.674 277.239C172.043 273.042 172.461 269.035 173.673 265.743L179.945 194.444Z" fill="#00BBF0"/>
<path d="M186.488 230.746C189.923 232.089 193.589 232.742 197.277 232.669C200.965 232.595 204.603 231.796 207.982 230.317C211.361 228.838 214.415 226.707 216.971 224.048C219.527 221.388 221.533 218.251 222.877 214.815C224.22 211.38 224.874 207.714 224.8 204.026C224.727 200.338 223.927 196.701 222.448 193.322C220.969 189.943 218.839 186.888 216.179 184.332C213.519 181.777 210.382 179.77 206.947 178.426L196.717 204.586L186.488 230.746Z" fill="#00BBF0"/>
<path d="M227.495 92.5229L228.717 92.5931C232.77 92.8365 235.629 97.338 235.956 93.2541L238.843 58.5944L224.263 57.7215L221.957 86.081C221.691 89.4471 224.17 92.3288 227.495 92.5229Z" fill="#FCC9A7"/>
<path d="M212.783 56.018C211.006 64.7061 216.559 73.0277 225.149 74.6084C233.75 76.1988 242.158 70.4388 243.926 61.7626C246.06 51.2951 241.076 44.9219 231.56 43.1721C222.959 41.5818 214.551 47.3418 212.783 56.018Z" fill="#FCC9A7"/>
<path d="M218.392 80.1714C222.47 80.9261 226.472 78.2001 227.308 74.0697L230.382 59.0228L212.833 55.7826L210.322 68.0536C209.176 73.7064 212.785 79.1406 218.392 80.1714Z" fill="#FCC9A7"/>
<path d="M212.522 59.624L208.088 64.0504C207.438 64.7908 207.86 65.9136 208.854 66.0969L212.642 67.5842L212.522 59.624Z" fill="#FCC9A7"/>
<path d="M233.133 66.8397L237.58 73.7874C237.58 73.7874 258.123 57.5924 245.128 43.2184C245.128 43.2184 233.224 32.506 220.043 39.4929C216.287 41.4912 212.631 46.3221 215.491 49.7625C215.491 49.7625 215.304 50.0461 215.491 49.7625C217.4 46.9005 220.233 45.3453 220.233 45.3453C220.233 45.3453 217.477 54.7671 223.924 58.7878L223.531 62.7806C223.385 64.2956 225.663 65.4828 227.147 65.7422L228.811 66.0469L229.702 61.7245L233.133 66.8397Z" fill="#0B1226"/>
<path d="M223.183 46.4108C223.183 46.4108 203.921 52.4204 209.969 38.9197C216.016 25.4189 231.941 43.5646 231.941 43.5646L223.183 46.4108Z" fill="#0B1226"/>
<path d="M230.367 58.5978C227.986 59.0192 226.352 61.3143 226.718 63.6904C227.097 66.076 229.322 67.6737 231.712 67.2404C234.093 66.819 235.727 64.5239 235.361 62.1478C234.983 59.7622 232.757 58.1644 230.367 58.5978Z" fill="#FCC9A7"/>
<path d="M205.239 91.8438C205.981 88.2098 215.938 84.7759 215.938 84.7759C215.938 84.7759 208.504 84.0982 205.256 87.641C202.008 91.1837 202.486 92.9639 202.486 92.9639C202.486 92.9639 200.605 98.0481 197.67 104.179C194.735 110.309 188.009 148 187.081 150.153C186.154 152.303 183.879 155.203 184.109 158.194C184.339 161.186 184.743 161.269 182.789 164.655C180.835 168.042 179.37 177.064 179.631 178.976C179.892 180.889 183.518 183.733 183.188 185.348C183.188 185.348 183.967 186.769 188.143 186.361C192.32 185.952 205.161 188.997 205.161 188.997C205.161 188.997 219.452 193.179 223.251 193.114C227.051 193.049 227.776 193.617 227.776 193.617C227.776 193.617 230.079 188.523 230.179 181.859C230.278 175.196 233.448 159.001 237.061 150.914C240.674 142.827 244.374 128.86 244.977 119.73C245.581 110.599 240.795 94.8984 240.795 94.8984L205.24 91.8398L205.239 91.8438Z" fill="#EDCBB7"/>
<path d="M204.453 92.6003C204.453 92.6003 222.349 82.8468 234.205 83.9358C246.06 85.0249 249.244 86.1213 249.244 86.1213C249.244 86.1213 250.88 86.4555 250.354 89.0276C249.829 91.5997 249.508 93.2505 248.134 93.6763C246.759 94.1022 245.181 95.5674 246.471 97.6145C247.756 99.6648 251.966 104.096 250.183 108.645C248.399 113.194 244.457 113.73 244.457 113.73C244.457 113.73 242.646 114.252 240.949 112.121C239.252 109.987 237.119 97.4913 230.747 95.2976C224.376 93.104 224.113 94.388 221.163 94.231C218.212 94.074 204.448 92.6035 204.448 92.6035L204.453 92.6003Z" fill="#EDCBB7"/>
<path d="M218.796 97.5584C218.796 97.5584 224.152 92.7975 228.748 95.6125C233.343 98.4276 237.933 102.731 236.778 108.384C235.623 114.037 234.78 122.277 234.78 122.277C234.78 122.277 233.849 127.496 224.666 131.959C215.483 136.422 203.518 143.341 203.518 143.341C203.518 143.341 198.767 146.534 197.513 149.399C196.259 152.264 191.083 152.889 191.083 152.889C191.083 152.889 187.522 153.844 182.658 157.057C177.795 160.269 172.371 162.106 172.371 162.106C172.371 162.106 167.352 164.025 162.992 162.713C158.632 161.402 157.659 162.044 157.659 162.044C157.659 162.044 153.004 153.942 152.765 153.052L163.869 146.067C163.869 146.067 178.451 138.53 181.616 135.391C184.782 132.252 191.174 128.229 191.174 128.229C191.174 128.229 200.18 122.779 201.079 120.439C201.978 118.099 206.94 114.01 209.117 111.986C211.713 109.572 213.346 105.699 213.346 105.699C213.346 105.699 215.391 99.8073 218.796 97.5584Z" fill="#F4DBCC"/>
<path d="M143.519 171.081C147.199 169.049 148.57 164.497 146.581 160.908C144.592 157.32 139.987 156.043 136.307 158.075C132.627 160.107 131.256 164.659 133.245 168.247C135.234 171.836 139.84 173.113 143.519 171.081Z" fill="#FCC9A7"/>
<path d="M143.047 157.376C143.047 157.376 143.277 160.367 144.159 162.23C145.04 164.093 147.537 166.286 147.537 166.286L158.145 161.723C155.788 159.155 154.033 156.235 153.19 152.785C153.19 152.785 145.552 157.467 143.047 157.376Z" fill="#D3B4A2"/>
<path d="M227.542 191.677C227.542 191.677 228.662 194.429 228.406 197.742C228.15 201.055 228.11 203.306 227.235 203.472C226.36 203.634 222.405 202.405 219.256 201.341C216.108 200.277 195.825 198.657 195.825 198.657C195.825 198.657 189.198 198.144 184.838 196.832C180.479 195.521 179.83 194.661 179.83 194.661C179.83 194.661 178.946 194.787 180.496 191.318C182.046 187.849 182.459 185.83 182.459 185.83C182.459 185.83 181.898 184.454 185.533 185.196C189.168 185.939 201.366 188.011 205.165 187.946C208.965 187.881 214.454 189.844 219.704 190.916C224.953 191.989 226.981 190.3 227.542 191.677Z" fill="#D3B4A2"/>
<path d="M201.346 205.238L187.331 273.307C186.951 275.151 187.1 277.066 187.76 278.829L215.032 351.687" stroke="#3FC8EF" stroke-width="2"/>
<path d="M256.849 89.377C261.288 87.7298 263.578 82.8882 261.963 78.5575C260.348 74.2267 255.432 72.0335 250.992 73.6807C246.553 75.3279 244.263 80.1695 245.878 84.5002C247.493 88.831 252.409 91.0242 256.849 89.377Z" fill="#FCC9A7"/>
<path d="M250.715 86.424L248.258 78.1692L232.741 82.788L235.198 91.0428L250.715 86.424Z" fill="#FCC9A7"/>
<path d="M191.272 107.731L244.502 89.9875C246.542 89.2978 247.706 86.875 247.037 84.6638L246.581 75.6316L228.559 77.4949L187.654 87.0229C181.62 88.0991 177.811 95.0241 179.753 101.327C181.364 106.57 186.403 109.359 191.272 107.731Z" fill="#FFD686"/>
<defs>
<linearGradient id="paint0_linear_37_2" x1="180.862" y1="37.3072" x2="194.931" y2="73.6228" gradientUnits="userSpaceOnUse">
<stop stop-color="#FF7C60"/>
<stop offset="1" stop-color="#994A3A"/>
</linearGradient>
</defs>
</svg>
