<svg width="385" height="400" viewBox="0 0 385 400" fill="none" xmlns="http://www.w3.org/2000/svg">
<path d="M140.524 128.067C140.524 128.067 75.3789 107.684 37.6909 140.098C0.00387934 172.51 28.8316 223.066 83.5646 244.401C138.297 265.735 109.998 357.586 180.226 346.284C250.457 334.983 262.819 244.56 310.103 203.58C357.385 162.601 323.484 114.399 292.838 102.919C262.193 91.4417 173.609 139.133 140.524 128.067Z" fill="#FFE9E0"/>
<path d="M227.152 361.834L227.152 373.842L212.142 373.842L212.142 361.834L227.152 361.834Z" fill="#FCC9A7"/>
<path d="M207.798 299.792C195.038 281.074 160.592 238.376 171.2 232.749L199.71 217.627L207.798 232.876C207.798 232.876 222.689 264.038 227.192 285.456C233.512 315.522 227.152 363.107 227.152 363.107L212.142 363.107C212.142 363.107 208.672 348.517 206.138 335.816L206.091 335.578C203.601 323.105 203.414 322.166 207.798 299.792Z" fill="#7137C5"/>
<path d="M217.646 293.038C204.885 274.319 167.761 223.137 178.369 217.51C188.977 211.883 199.93 217.51 199.93 217.51L208.019 232.759C208.019 232.759 222.91 263.921 227.412 285.338C233.733 315.404 227.152 363.107 227.152 363.107L220.648 363.107C220.648 363.107 216.427 341.512 213.893 328.812C211.359 316.111 221.2 315.222 217.646 293.038Z" fill="#4B2386"/>
<path d="M176.835 394.384C274.498 394.384 353.67 390.088 353.67 384.79C353.67 379.492 274.498 375.196 176.835 375.196C79.1718 375.196 0 379.492 0 384.79C0 390.088 79.1718 394.384 176.835 394.384Z" fill="#DAD7D5"/>
<path d="M209.899 368.738C210.292 368.002 211.183 367.841 211.689 368.451C212.659 369.645 214.488 371.203 217.547 371.377C220.721 371.561 223.719 369.69 224.37 368.451C224.708 367.802 227.589 366.583 228.123 366.983L246.884 375.278C247.943 376.044 248.661 377.274 248.901 378.685C249.12 380.008 248.056 381.227 246.877 381.007L208.52 379.887C207.241 379.634 206.444 378.217 206.807 376.764L209.277 370.025C209.307 369.907 209.354 369.786 209.405 369.682L209.899 368.738Z" fill="#1F252A"/>
<rect x="64.8113" y="323.113" width="12.0616" height="13.0009" transform="rotate(58.5072 64.8113 323.113)" fill="#FCC9A7"/>
<path d="M61.057 323.889C61.7428 324.364 61.8 325.268 61.1353 325.7C59.8382 326.526 58.0795 328.163 57.5552 331.182C57.0061 334.313 58.5201 337.507 59.6751 338.297C60.2815 338.707 61.1608 341.709 60.7015 342.194L50.3015 359.874C49.419 360.839 48.1139 361.41 46.6846 361.486C45.3453 361.551 44.2572 360.354 44.6116 359.208L50.1407 321.235C50.5397 319.993 52.0391 319.365 53.4399 319.893L59.8499 323.123C59.9634 323.166 60.0789 323.226 60.1764 323.289L61.057 323.889Z" fill="#1F252A"/>
<path d="M111.575 281.53C125.834 266.166 137.709 209.852 148.23 215.639L176.507 231.192L168.187 246.317C168.187 246.317 150.289 275.854 134.845 291.361C113.165 313.129 69.1051 334.574 69.1051 334.574L64.0429 323.558C64.0429 323.558 73.3227 314.128 82.5553 305.046C91.788 295.964 91.5613 294.435 111.575 281.53Z" fill="#7137C5"/>
<path d="M125.584 284.532C131.588 259.265 152.087 218.204 162.609 223.991C173.13 229.779 176.726 231.313 176.726 231.313L168.406 246.437C168.406 246.437 150.508 275.975 135.064 291.481C113.384 313.25 69.1051 334.574 69.1051 334.574L67.0448 330.062C67.0448 330.062 83.5558 317.804 91.0608 307.797C98.5659 297.791 108.979 299.667 125.584 284.532Z" fill="#4B2386"/>
<path d="M360.109 104.895C359.42 104.895 358.829 104.424 358.673 103.75C358.107 101.305 357.328 100.525 354.882 99.9606C354.208 99.8036 353.737 99.2142 353.737 98.5241C353.737 97.8355 354.208 97.2446 354.882 97.0891C357.328 96.5234 358.107 95.7429 358.673 93.2979C358.83 92.6241 359.42 92.1531 360.109 92.1531C360.798 92.1531 361.389 92.6241 361.545 93.2979C362.111 95.7429 362.89 96.5234 365.336 97.0891C366.01 97.2461 366.481 97.8355 366.481 98.5241C366.481 99.2142 366.01 99.8051 365.336 99.9606C362.89 100.526 362.111 101.305 361.545 103.75C361.389 104.424 360.799 104.895 360.109 104.895ZM356.253 98.5241C358.349 99.1905 359.442 100.283 360.109 102.379C360.776 100.283 361.869 99.1905 363.965 98.5241C361.869 97.8562 360.776 96.7633 360.109 94.6677C359.442 96.7647 358.35 97.8562 356.253 98.5241Z" fill="#FF4B61"/>
<path d="M380.461 117.178C377.958 117.178 375.922 115.14 375.922 112.637C375.922 110.135 377.958 108.098 380.461 108.098C382.964 108.098 385 110.135 385 112.637C385 115.14 382.964 117.178 380.461 117.178ZM380.461 109.846C378.921 109.846 377.668 111.099 377.668 112.637C377.668 114.177 378.922 115.43 380.461 115.43C382.001 115.43 383.254 114.179 383.254 112.637C383.254 111.097 382 109.846 380.461 109.846Z" fill="#FFB109"/>
<path d="M131.088 112.167C130.114 112.167 129.278 111.482 129.059 110.503C128.258 106.951 127.157 105.817 123.7 104.997C122.748 104.769 122.082 103.913 122.082 102.91C122.082 101.91 122.748 101.051 123.7 100.825C127.157 100.004 128.258 98.8696 129.059 95.3173C129.28 94.3383 130.114 93.6541 131.088 93.6541C132.061 93.6541 132.897 94.3383 133.117 95.3173C133.917 98.8696 135.018 100.004 138.476 100.825C139.428 101.054 140.094 101.91 140.094 102.91C140.094 103.913 139.428 104.771 138.476 104.997C135.018 105.819 133.917 106.951 133.118 110.503C132.897 111.482 132.063 112.167 131.088 112.167ZM125.638 102.91C128.6 103.879 130.145 105.466 131.088 108.511C132.03 105.466 133.575 103.879 136.537 102.91C133.575 101.94 132.03 100.352 131.088 97.3076C130.145 100.354 128.602 101.94 125.638 102.91Z" fill="#FF4B61"/>
<path d="M160.107 129.678C156.521 129.678 153.603 126.759 153.603 123.173C153.603 119.587 156.521 116.67 160.107 116.67C163.693 116.67 166.611 119.587 166.611 123.173C166.611 126.759 163.693 129.678 160.107 129.678ZM160.107 119.173C157.9 119.173 156.106 120.968 156.106 123.173C156.106 125.379 157.902 127.175 160.107 127.175C162.314 127.175 164.109 125.382 164.109 123.173C164.109 120.966 162.313 119.173 160.107 119.173Z" fill="#FFB109"/>
<path d="M281.688 186.811C284.745 182.454 289.282 182.897 291.776 182.481C292.207 182.409 292.595 182.3 292.871 182.176C293.915 181.706 295.631 180.315 296.675 179.066C298.717 176.625 299.569 175.82 299.569 175.82L303.203 172.707C303.203 172.707 302.908 173.685 302.463 177.768C302.02 181.85 299.071 183.985 297.614 186.248C296.155 188.511 283.94 193.721 283.94 193.721C283.94 193.721 282.843 192.548 281.188 191.47C281.205 191.453 281.676 186.831 281.688 186.811Z" fill="#FCC9A7"/>
<path d="M219.647 186.32C219.647 176.198 221.398 178.314 221.398 178.314C221.398 178.314 207.912 156.438 221.398 153.047C237.616 148.97 245.664 201.476 245.664 201.476C245.664 201.476 248.666 196.577 265.177 191.698L281.688 186.82L284.69 193.555C284.69 193.555 275.684 199.078 250.668 215.089C247.595 217.055 240.419 220.738 237.909 218.091C219.647 198.828 219.647 188.591 219.647 186.32Z" fill="#E7B85E"/>
<path d="M290.044 182.827C288.62 184.696 289.958 184.353 288.943 186.466C288.872 186.024 286.815 186.816 285.529 187.271C279.545 189.385 284.705 182.214 285.802 180.989C286.899 179.762 291.291 176.127 292.243 174.731C293.194 173.336 294.26 174.913 293.35 177.313C292.476 179.626 289.514 179.718 290.044 182.827Z" fill="#F1B78F"/>
<path d="M304.88 171.11C302.433 173.587 293.7 182.392 288.26 187.482C287.964 187.757 287.604 187.796 287.418 187.571L285.304 185.018C285.087 184.756 285.192 184.243 285.532 183.915L301.969 167.953C302.247 167.683 302.594 167.625 302.792 167.815L305.059 169.988C305.311 170.228 305.225 170.76 304.88 171.11Z" fill="#383856"/>
<path d="M300.58 178.329C300.58 178.329 301.693 175.249 300.94 174.207C300.188 173.165 299.721 173.644 298.52 176.699C297.32 179.756 293.697 182.213 293.697 182.213C293.697 182.213 298.596 181.912 300.58 178.329Z" fill="#FCC9A7"/>
<path d="M245.664 201.476C244.586 202.861 243.224 205.163 242.269 208.885C242.269 208.885 242.439 202.607 245.164 198.724C245.582 199.561 245.664 200.726 245.664 201.476Z" fill="#BF994F"/>
<path d="M229.862 181.773C229.862 192.677 221.697 194.081 214.596 197.689C205.311 202.407 203.386 220.843 203.386 220.843C181.371 241.356 133.84 224.345 133.84 224.345C133.84 224.345 142.624 216.994 155.523 195.259C159.527 188.516 163.605 182.722 167.638 177.615C169.384 175.402 171.12 173.317 172.842 171.341C178.009 165.395 168.288 163.632 172.842 159.051C182.372 144.792 222.433 145.794 232.504 158.477C233.977 160.328 234.814 161.967 234.959 163.007C236.363 172.971 229.862 173.331 229.862 181.773Z" fill="#FFD686"/>
<path d="M155.29 218.736C155.29 218.736 163.464 218.369 166.582 219.639C167.871 220.162 169.252 221.397 170.429 222.666C171.642 223.972 170.604 226.085 168.83 225.923L167.69 225.818C167.69 225.818 172.564 234.034 173.113 235.626C173.664 237.218 170.754 238.323 168.717 236.256C168.717 236.256 169.179 240.784 164.333 236.014C164.333 236.014 163.669 239.029 160.563 235.521C160.563 235.521 159.363 239.152 155.587 233.939L148.746 223.417C148.746 223.417 152.365 219.364 155.29 218.736Z" fill="#FCC9A7"/>
<path d="M215.419 157.459C213.839 155.824 212.386 154.032 211.642 151.876C217.278 145.236 220.904 140.686 220.904 140.686L229.654 147.94L227.813 154.056L229.646 157.548C229.652 157.556 229.654 157.561 229.654 157.561C229.654 157.561 228.569 159.2 227.393 161.144C226.69 162.313 225.952 163.595 225.394 164.702C221.627 163.058 218.209 160.345 215.419 157.459Z" fill="#FCC9A7"/>
<path d="M223.142 167.838C223.126 167.838 223.108 167.837 223.092 167.835C217.846 167.313 213.253 164.382 209.806 159.359C207.221 155.592 206.2 152.033 206.158 151.883C206.085 151.62 206.236 151.348 206.5 151.274C206.763 151.201 207.035 151.353 207.108 151.616C207.149 151.756 211.214 165.659 223.191 166.853C223.462 166.88 223.659 167.122 223.632 167.394C223.607 167.647 223.393 167.837 223.142 167.838Z" fill="white"/>
<path d="M190.878 166.556C190.672 166.764 187.876 173.061 163.609 183.067C165.592 179.938 164.407 181.858 166.361 179.065C173.643 178.594 182.197 172.614 190.878 166.556Z" fill="#E7B85E"/>
<path d="M128.244 174.872C148.543 157.768 166.978 154.375 169.113 153.602C169.113 153.602 191.021 145.767 194.142 162.195C197.264 178.624 144.273 183.58 144.273 183.58C144.273 183.58 134.192 188.821 144.273 201.079C154.353 213.338 154.854 219.092 154.854 219.092L148.85 223.344C148.85 223.344 145.013 213.695 130.494 187.784C128.711 184.602 125.455 177.222 128.244 174.872Z" fill="white"/>
<path d="M229.044 158.521L229.469 147.921C229.469 147.921 220.465 153.475 226.395 161.888L229.044 158.521Z" fill="#F2C09E"/>
<path d="M254.28 147.634C248.09 155.609 236.597 157.054 228.631 150.848C220.656 144.658 219.211 133.165 225.417 125.199C231.607 117.224 243.1 115.779 251.066 121.985C259.042 128.175 260.471 139.659 254.28 147.634Z" fill="#FCC9A7"/>
<path d="M230.021 159.401C226.242 156.463 225.546 151.004 228.494 147.21L236.182 137.331L254.289 147.619L246.761 157.3C242.715 162.505 235.226 163.447 230.021 159.401Z" fill="#FCC9A7"/>
<path d="M251.345 150.536L250.894 157.628C250.752 158.735 249.445 159.205 248.535 158.491L244.341 156.349L251.345 150.536Z" fill="#FCC9A7"/>
<path d="M233.425 141.165L237.019 142.947L242.015 137.623C242.015 137.623 254.571 148.551 260.674 143.159C260.674 143.159 265.998 115.901 241.107 112.835C222.647 110.556 217.21 129.086 218.434 137.916C218.842 140.859 218.053 143.879 216.315 146.286C216.1 146.575 215.875 146.879 215.626 147.19L229.188 137.597L233.425 141.165Z" fill="url(#paint0_linear_37_3)"/>
<path d="M234.695 133.887C237.441 134.26 239.369 136.798 238.986 139.559C238.613 142.305 236.076 144.233 233.314 143.85C230.568 143.477 228.641 140.939 229.023 138.178C229.405 135.416 231.934 133.505 234.695 133.887Z" fill="#FCC9A7"/>
<path d="M237.752 118.068C237.752 118.068 245.462 97.285 226.548 92.8715C205.705 88.0114 201.32 112.8 197.979 116.797C194.078 121.482 188.141 125.238 180.045 121.757C180.045 121.757 198.143 139.025 208.124 125.085C216.527 113.356 225.379 111.852 229.183 120.6L237.752 118.068Z" fill="#FF7C60"/>
<path d="M216.054 197.897C216.008 197.897 215.963 197.89 215.915 197.877C200.996 193.511 182.334 194.709 182.148 194.721C181.876 194.74 181.64 194.534 181.623 194.262C181.603 193.989 181.809 193.754 182.08 193.736C182.268 193.723 201.103 192.513 216.194 196.929C216.456 197.006 216.605 197.278 216.528 197.54C216.466 197.758 216.268 197.897 216.054 197.897Z" fill="white"/>
<path d="M126.743 174.371C147.042 157.268 165.477 153.874 167.612 153.102C167.612 153.102 189.52 145.267 192.641 161.695C195.763 178.123 142.772 183.079 142.772 183.079C142.772 183.079 149.886 190.936 151.494 203.137C153.103 215.339 154.854 217.841 154.854 217.841L148.499 222.508C148.499 222.508 143.512 213.195 128.993 187.284C127.21 184.102 123.954 176.722 126.743 174.371Z" fill="#FFD686"/>
<path d="M262.175 82.6454C262.175 81.5408 263.071 80.6454 264.175 80.6454H306.206C307.311 80.6454 308.206 81.5408 308.206 82.6454V108.665C308.206 109.77 307.311 110.665 306.206 110.665H292.471C291.972 110.665 291.491 110.852 291.122 111.188L282.981 118.622C281.795 119.705 279.88 119.018 279.653 117.428L278.932 112.383C278.791 111.397 277.947 110.665 276.952 110.665H264.175C263.071 110.665 262.175 109.77 262.175 108.665V82.6454Z" fill="#7137C5"/>
<path d="M295.125 97.7102C294.885 98.0548 294.632 98.3741 294.382 98.6738C294.322 98.7444 294.261 98.8159 294.198 98.8853C292.543 100.76 289.951 102.522 287.268 104.365C287.156 104.442 287.044 104.518 286.933 104.596C286.34 105.003 285.748 105.415 285.159 105.83C281.644 103.422 277.917 101.239 275.822 98.8268C274.671 97.5041 273.476 95.7349 273.488 93.3835C273.497 91.6191 273.92 90.1336 275.219 88.8395C276.397 87.6666 277.859 87.5184 279.227 87.5085C279.274 87.5079 279.322 87.5055 279.371 87.5078C279.546 87.5181 279.716 87.5307 279.881 87.5485C281.187 87.6814 282.264 88.0791 283.801 89.6071L285.039 91.0563L286.252 89.5872C287 88.7347 287.824 88.1312 288.774 87.7783L288.776 87.7785C289.349 87.566 289.969 87.4451 290.647 87.4163C290.695 87.4138 290.744 87.4142 290.791 87.4137C292.159 87.4019 293.63 87.566 294.821 88.6787C296.158 89.9309 296.588 91.4311 296.626 93.1938C296.665 95.0204 295.969 96.508 295.125 97.7102Z" fill="white"/>
<path d="M295.198 146.824C295.198 145.72 296.093 144.824 297.198 144.824H312.711C313.815 144.824 314.711 145.72 314.711 146.824V155.55C314.711 156.655 313.815 157.55 312.711 157.55H308.487C307.988 157.55 307.507 157.737 307.138 158.073L305.111 159.924C304.144 160.808 302.582 160.247 302.397 158.95C302.282 158.147 301.594 157.55 300.782 157.55H297.198C296.093 157.55 295.198 156.655 295.198 155.55V146.824Z" fill="#C23E3E"/>
<path d="M309.165 152.058C309.064 152.204 308.956 152.34 308.85 152.467C308.825 152.497 308.799 152.527 308.772 152.556C308.071 153.351 306.972 154.098 305.835 154.879C305.787 154.912 305.74 154.944 305.692 154.977C305.441 155.15 305.19 155.324 304.941 155.501C303.451 154.48 301.871 153.554 300.983 152.532C300.494 151.971 299.988 151.221 299.993 150.224C299.997 149.476 300.176 148.846 300.727 148.298C301.226 147.801 301.846 147.738 302.426 147.734C302.446 147.733 302.466 147.732 302.487 147.733C302.561 147.738 302.633 147.743 302.703 147.751C303.257 147.807 303.713 147.975 304.365 148.623L304.89 149.238L305.404 148.615C305.721 148.253 306.07 147.998 306.473 147.848L306.474 147.848C306.717 147.758 306.98 147.707 307.267 147.694C307.287 147.693 307.308 147.694 307.328 147.693C307.908 147.688 308.532 147.758 309.036 148.23C309.603 148.76 309.785 149.396 309.801 150.144C309.818 150.918 309.523 151.549 309.165 152.058Z" fill="white"/>
<path d="M311.208 121.575C311.208 120.471 312.104 119.575 313.208 119.575H336.941C338.046 119.575 338.941 120.471 338.941 121.575V135.662C338.941 136.766 338.046 137.662 336.941 137.662H329.769C329.27 137.662 328.789 137.848 328.421 138.185L324.854 141.442C323.667 142.525 321.752 141.838 321.525 140.247L321.401 139.379C321.26 138.394 320.417 137.662 319.421 137.662H313.208C312.104 137.662 311.208 136.766 311.208 135.662V121.575Z" fill="#3EC289"/>
<path d="M331.06 129.856C330.916 130.064 330.763 130.256 330.612 130.437C330.576 130.48 330.539 130.523 330.502 130.564C329.505 131.694 327.943 132.755 326.326 133.866C326.259 133.912 326.191 133.958 326.124 134.005C325.767 134.25 325.41 134.498 325.056 134.749C322.938 133.298 320.692 131.983 319.43 130.529C318.736 129.732 318.017 128.666 318.024 127.25C318.029 126.187 318.284 125.292 319.067 124.512C319.777 123.805 320.658 123.716 321.481 123.71C321.51 123.71 321.539 123.708 321.568 123.71C321.674 123.716 321.776 123.723 321.876 123.734C322.662 123.814 323.311 124.054 324.237 124.974L324.983 125.848L325.714 124.962C326.165 124.449 326.661 124.085 327.234 123.873L327.235 123.873C327.58 123.745 327.954 123.672 328.362 123.655C328.391 123.653 328.42 123.653 328.449 123.653C329.273 123.646 330.159 123.745 330.877 124.415C331.682 125.17 331.941 126.073 331.964 127.135C331.988 128.236 331.568 129.132 331.06 129.856Z" fill="white"/>
<defs>
<linearGradient id="paint0_linear_37_3" x1="252.574" y1="118.098" x2="229.445" y2="156.616" gradientUnits="userSpaceOnUse">
<stop stop-color="#FF7C60"/>
<stop offset="1" stop-color="#994A3A"/>
</linearGradient>
</defs>
</svg>
