<svg viewBox="0 0 32 32" xmlns="http://www.w3.org/2000/svg"><g data-name="Layer 33"><path d="M27 5.58H6.46a1.79 1.79 0 0 0-1.79 1.78v20.55a1.79 1.79 0 0 0 1.78 1.78H27a1.79 1.79 0 0 0 1.78-1.78V7.36A1.79 1.79 0 0 0 27 5.58Zm-20.54 1H27a.78.78 0 0 1 .78.78V18.7l-2.23-2.45a.48.48 0 0 0-.4-.16.5.5 0 0 0-.38.21l-3.28 4.63-8.78-9.54a.5.5 0 0 0-.4-.16.5.5 0 0 0-.38.21l-6.26 8.71V7.36a.78.78 0 0 1 .79-.78ZM27 28.69H6.46a.78.78 0 0 1-.78-.78v-6l6.72-9.37L21.18 22a.49.49 0 0 0 .4.16A.5.5 0 0 0 22 22l3.28-4.62 2.55 2.81v7.72a.78.78 0 0 1-.83.78Z" fill="#454545" class="fill-000000"></path><path d="M22.29 12.7a2.62 2.62 0 1 0-2.62-2.62 2.62 2.62 0 0 0 2.62 2.62Zm0-4.24a1.62 1.62 0 1 1-1.62 1.62 1.62 1.62 0 0 1 1.62-1.62Z" fill="#454545" class="fill-000000"></path></g></svg>