<svg width="196" height="140" viewBox="0 0 196 140" fill="none" xmlns="http://www.w3.org/2000/svg">
<g clip-path="url(#clip0_1689_233)">
<mask id="path-1-inside-1_1689_233" fill="white">
<path fill-rule="evenodd" clip-rule="evenodd" d="M74.0269 28.6638C80.5702 18.97 89.7689 10.8902 101.171 5.64628C134.011 -9.45731 172.817 4.62697 188.391 37.0978C219.208 94.3427 143.806 180.388 143.806 180.388C143.806 180.388 29.3676 181.636 5.98715 120.954C-8.5086 88.0025 6.05483 49.3914 38.8854 34.2922C50.2874 29.0482 62.4086 27.3228 74.0269 28.6638Z"/>
</mask>
<path d="M74.0269 28.6638L71.7338 48.5319L83.8053 49.9251L90.6038 39.8533L74.0269 28.6638ZM188.391 37.0978L170.358 45.7472L170.56 46.1676L170.781 46.5781L188.391 37.0978ZM143.806 180.388L144.024 200.387L152.959 200.289L158.848 193.569L143.806 180.388ZM5.98715 120.954L24.6498 113.763L24.482 113.327L24.294 112.9L5.98715 120.954ZM90.6038 39.8533C95.156 33.1093 101.546 27.4875 109.528 23.8167L92.8141 -12.5241C77.9915 -5.70704 65.9844 4.83075 57.45 17.4743L90.6038 39.8533ZM109.528 23.8167C132.431 13.2832 159.499 23.1061 170.358 45.7472L206.424 28.4484C186.135 -13.8521 135.591 -32.1978 92.8141 -12.5241L109.528 23.8167ZM170.781 46.5781C175.755 55.8167 176.951 67.0737 174.708 80.2905C172.449 93.5989 166.885 107.653 159.934 120.938C153.042 134.112 145.184 145.778 138.992 154.203C135.913 158.391 133.287 161.721 131.461 163.97C130.548 165.094 129.838 165.944 129.373 166.493C129.141 166.768 128.971 166.967 128.867 167.087C128.816 167.147 128.781 167.187 128.763 167.207C128.755 167.217 128.75 167.222 128.75 167.222C128.75 167.222 128.752 167.221 128.754 167.218C128.755 167.217 128.758 167.214 128.758 167.213C128.761 167.21 128.764 167.206 143.806 180.388C158.848 193.569 158.851 193.565 158.855 193.56C158.857 193.558 158.861 193.553 158.865 193.549C158.872 193.541 158.88 193.532 158.889 193.522C158.907 193.501 158.93 193.474 158.958 193.443C159.012 193.38 159.085 193.296 159.175 193.191C159.355 192.982 159.604 192.691 159.917 192.322C160.542 191.583 161.421 190.528 162.511 189.187C164.687 186.507 167.712 182.667 171.22 177.895C178.203 168.397 187.27 154.974 195.376 139.481C203.424 124.099 210.932 105.909 214.144 86.9836C217.371 67.9668 216.437 47.0014 206.002 27.6175L170.781 46.5781ZM143.806 180.388C143.588 160.389 143.592 160.389 143.597 160.389C143.598 160.389 143.602 160.389 143.603 160.389C143.607 160.389 143.609 160.389 143.609 160.389C143.609 160.389 143.602 160.389 143.589 160.389C143.562 160.389 143.509 160.389 143.43 160.39C143.271 160.39 143.009 160.39 142.649 160.387C141.93 160.383 140.821 160.368 139.374 160.33C136.477 160.253 132.239 160.079 127.054 159.691C116.624 158.909 102.65 157.281 88.1594 153.938C73.5467 150.568 59.2538 145.644 47.6808 138.694C36.1879 131.793 28.423 123.556 24.6498 113.763L-12.6755 128.144C-4.75843 148.693 10.5491 163.055 27.0891 172.987C43.5491 182.871 62.2496 189.012 79.1691 192.915C96.211 196.846 112.307 198.698 124.066 199.579C129.974 200.021 134.86 200.224 138.312 200.316C140.039 200.362 141.413 200.38 142.381 200.386C142.865 200.39 143.248 200.39 143.524 200.389C143.662 200.389 143.773 200.389 143.857 200.388C143.899 200.388 143.933 200.387 143.961 200.387C143.975 200.387 143.988 200.387 143.998 200.387C144.003 200.387 144.01 200.387 144.012 200.387C144.019 200.387 144.024 200.387 143.806 180.388ZM24.294 112.9C14.1865 89.9242 24.3457 62.993 47.2423 52.4626L30.5286 16.1218C-12.236 35.7898 -31.2037 86.0809 -12.3197 129.007L24.294 112.9ZM47.2423 52.4626C55.2237 48.7918 63.6509 47.599 71.7338 48.5319L76.32 8.79567C61.1663 7.04665 45.3512 9.30468 30.5286 16.1218L47.2423 52.4626Z" fill="url(#paint0_linear_1689_233)" mask="url(#path-1-inside-1_1689_233)"/>
<mask id="path-3-inside-2_1689_233" fill="white">
<path fill-rule="evenodd" clip-rule="evenodd" d="M71.5712 36.0705C76.2572 26.4044 83.5677 17.8597 93.2511 11.6063C121.143 -6.40619 158.264 1.34585 176.653 28.8447C212.119 76.8769 154.782 164.923 154.782 164.923C154.782 164.923 50.9138 180.967 21.7416 128.855C4.26024 100.784 12.4687 63.7744 40.3539 45.7665C50.0373 39.5131 60.8331 36.365 71.5712 36.0705Z"/>
</mask>
<path d="M71.5712 36.0705L71.7082 41.0686L74.7451 40.9853L76.0703 38.2516L71.5712 36.0705ZM176.653 28.8447L172.497 31.6241L172.562 31.7209L172.631 31.8146L176.653 28.8447ZM154.782 164.923L155.545 169.864L157.752 169.523L158.971 167.651L154.782 164.923ZM21.7416 128.855L26.1045 126.412L26.0475 126.31L25.9859 126.211L21.7416 128.855ZM76.0703 38.2516C80.3682 29.3862 87.0709 21.5493 95.9636 15.8066L90.5386 7.406C80.0645 14.17 72.1461 23.4226 67.072 33.8893L76.0703 38.2516ZM95.9636 15.8066C121.559 -0.722395 155.623 6.39112 172.497 31.6241L180.81 26.0652C160.905 -3.69942 120.728 -12.09 90.5386 7.406L95.9636 15.8066ZM172.631 31.8146C180.642 42.6642 183.569 55.9673 183.2 70.2412C182.83 84.5383 179.155 99.5009 174.303 113.23C169.461 126.929 163.521 139.197 158.778 148.055C156.411 152.478 154.35 156.034 152.887 158.476C152.156 159.697 151.574 160.638 151.18 161.268C150.982 161.583 150.831 161.82 150.732 161.976C150.682 162.054 150.645 162.111 150.622 162.148C150.61 162.166 150.601 162.179 150.596 162.187C150.594 162.191 150.592 162.193 150.591 162.195C150.591 162.195 150.591 162.195 150.591 162.195C150.591 162.195 150.592 162.194 154.782 164.923C158.971 167.651 158.972 167.65 158.974 167.648C158.974 167.647 158.976 167.645 158.977 167.643C158.98 167.639 158.983 167.633 158.988 167.626C158.996 167.613 159.009 167.594 159.024 167.57C159.056 167.521 159.1 167.452 159.158 167.361C159.273 167.181 159.44 166.918 159.654 166.577C160.082 165.894 160.698 164.896 161.465 163.615C162.999 161.055 165.141 157.357 167.594 152.775C172.494 143.624 178.672 130.878 183.731 116.562C188.78 102.275 192.79 86.2203 193.196 70.4997C193.603 54.7559 190.397 39.0412 180.676 25.8747L172.631 31.8146ZM154.782 164.923C154.018 159.981 154.019 159.981 154.02 159.981C154.019 159.981 154.019 159.981 154.019 159.981C154.017 159.982 154.014 159.982 154.01 159.983C154.001 159.984 153.985 159.986 153.964 159.99C153.921 159.996 153.853 160.006 153.762 160.019C153.579 160.046 153.3 160.086 152.932 160.136C152.195 160.237 151.098 160.379 149.684 160.544C146.856 160.873 142.765 161.288 137.759 161.627C127.732 162.305 114.103 162.672 99.6223 161.448C85.1104 160.222 69.9588 157.414 56.7755 151.866C43.6136 146.328 32.6939 138.183 26.1045 126.412L17.3787 131.297C25.3754 145.582 38.3787 154.974 52.8967 161.084C67.3933 167.184 83.6785 170.137 98.78 171.413C113.913 172.692 128.074 172.305 138.434 171.604C143.621 171.253 147.873 170.822 150.839 170.477C152.322 170.304 153.485 170.153 154.284 170.044C154.683 169.99 154.992 169.946 155.204 169.915C155.31 169.9 155.391 169.887 155.449 169.879C155.477 169.875 155.499 169.871 155.516 169.869C155.524 169.867 155.53 169.866 155.535 169.866C155.537 169.865 155.54 169.865 155.541 169.865C155.543 169.864 155.545 169.864 154.782 164.923ZM25.9859 126.211C9.94496 100.453 17.4779 66.4915 43.0663 49.9668L37.6414 41.5662C7.45958 61.0572 -1.42449 101.114 17.4974 131.498L25.9859 126.211ZM43.0663 49.9668C51.9591 44.224 61.8595 41.3387 71.7082 41.0686L71.4341 31.0724C59.8066 31.3913 48.1155 34.8021 37.6414 41.5662L43.0663 49.9668Z" fill="white" mask="url(#path-3-inside-2_1689_233)"/>
</g>
<defs>
<linearGradient id="paint0_linear_1689_233" x1="70.0275" y1="19.9695" x2="143.806" y2="180.388" gradientUnits="userSpaceOnUse">
<stop stop-color="#78C291"/>
<stop offset="1" stop-color="#78C291"/>
</linearGradient>
<clipPath id="clip0_1689_233">
<rect width="196" height="140" fill="white"/>
</clipPath>
</defs>
</svg>
