<svg width="332" height="305" viewBox="0 0 332 305" fill="none" xmlns="http://www.w3.org/2000/svg">
<path d="M157.238 59.4951C157.238 59.4951 109.277 -4.64109 51.1218 0.2681C-7.03214 5.17746 -14.3803 73.0352 23.0191 130.922C60.4187 188.808 -29.6898 256.659 44.9039 294.175C119.499 331.693 193.462 254.247 266.64 247.789C339.816 241.332 340.718 172.225 319.457 140.256C298.194 108.29 181.105 92.7466 157.238 59.4951Z" fill="#E7EDFB"/>
<circle cx="235.5" cy="250.5" r="25" stroke="white"/>
<rect x="114.5" y="77.5" width="100" height="193" rx="7.5" fill="white" stroke="#4F5777" stroke-width="5"/>
<rect x="126" y="213" width="78" height="11" fill="#D9D9D9"/>
<rect x="126" y="230" width="78" height="11" fill="#D9D9D9"/>
<rect x="126" y="247" width="78" height="11" fill="#D9D9D9"/>
<path d="M197 198.5C197 198.224 196.92 198 196.821 198H127.217C127.097 198 127 198.224 127 198.5C127 198.776 127.097 199 127.217 199H196.821C196.92 199 197 198.776 197 198.5Z" fill="#3E3D51"/>
<path d="M123 88C123 87.4477 123.448 87 124 87H135C135.552 87 136 87.4477 136 88V88C136 88.5523 135.552 89 135 89H124C123.448 89 123 88.5523 123 88V88Z" fill="#D9D9D9"/>
<path d="M123 92C123 91.4477 123.448 91 124 91H135C135.552 91 136 91.4477 136 92V92C136 92.5523 135.552 93 135 93H124C123.448 93 123 92.5523 123 92V92Z" fill="#D9D9D9"/>
<path d="M123 96C123 95.4477 123.448 95 124 95H135C135.552 95 136 95.4477 136 96V96C136 96.5523 135.552 97 135 97H124C123.448 97 123 96.5523 123 96V96Z" fill="#D9D9D9"/>
<path d="M195.709 198C203.412 193.042 203.915 169.006 189.019 163.38C174.122 157.754 176.882 143.557 164.35 132.945C152.926 123.272 134.028 131.471 127.733 156.628C123.245 174.566 128.482 197.069 132.056 198C166.81 198 195.709 198 195.709 198Z" fill="#ECE1EF"/>
<path d="M184.795 192.052C182.932 198.679 150.479 201.188 144.236 192.052C137.994 182.916 125.316 158.393 139.378 151.921C152.626 145.823 157.588 150.775 162.653 153.273C167.718 155.771 154.296 168.595 169.896 172.581C188.902 177.437 186.666 185.395 184.805 192.015L184.795 192.052Z" fill="#FFAA0C"/>
<path d="M181.601 184.675L184.588 187.633L185.533 185.824L182.734 183.226L181.601 184.675Z" fill="#FCC9A7"/>
<path d="M183.332 187.055C183.296 186.916 183.39 186.791 183.526 186.809C183.789 186.846 184.204 186.829 184.612 186.491C185.036 186.141 184.983 185.402 184.921 185.168C184.887 185.046 184.95 184.927 185.065 184.915L188.788 183.537C189.012 183.509 189.248 183.581 189.444 183.731C189.627 183.873 189.636 184.153 189.46 184.263L184.468 188.63C184.276 188.749 184.009 188.663 183.884 188.436L183.405 187.292C183.395 187.273 183.386 187.252 183.381 187.233L183.332 187.055Z" fill="#1F252A"/>
<path d="M171.66 195.513L173.432 199.326L174.947 197.958L173.227 194.549L171.66 195.513Z" fill="#FCC9A7"/>
<path d="M172.411 197.927C172.46 197.792 172.608 197.742 172.71 197.834C172.905 198.014 173.257 198.235 173.785 198.188C174.332 198.14 174.708 197.502 174.789 197.274C174.831 197.155 174.951 197.092 175.052 197.147L178.9 198.123C179.1 198.228 179.254 198.42 179.33 198.656C179.4 198.877 179.249 199.112 179.042 199.103L172.453 199.869C172.228 199.857 172.056 199.635 172.082 199.377L172.337 198.163C172.339 198.142 172.344 198.12 172.35 198.101L172.411 197.927Z" fill="#1F252A"/>
<path d="M156.843 177.207C154.68 177.458 152.757 175.826 152.654 173.651V173.651C152.55 171.477 154.309 169.669 156.486 169.713L170.098 169.991C171.587 170.022 172.798 171.2 172.869 172.687V172.687C172.939 174.174 171.846 175.462 170.367 175.634L156.843 177.207Z" fill="#734270"/>
<circle cx="170.07" cy="172.764" r="2.81722" transform="rotate(-92.7303 170.07 172.764)" fill="#734270"/>
<path d="M168.311 174.992C167.04 173.945 166.916 172.043 168.04 170.84V170.84C169.169 169.632 171.084 169.632 172.212 170.84L182.798 182.175C183.459 182.883 183.459 183.981 182.798 184.689V184.689C182.134 185.399 181.032 185.471 180.282 184.853L168.311 174.992Z" fill="#734270"/>
<circle cx="170.105" cy="172.757" r="2.81722" transform="rotate(-46.9443 170.105 172.757)" fill="#734270"/>
<path d="M159.807 174.999C159.531 175.358 159.181 175.653 158.776 175.868C158.371 176.083 157.919 176.214 157.446 176.254C156.973 176.293 156.488 176.24 156.019 176.097C155.55 175.955 155.106 175.726 154.712 175.423C154.319 175.121 153.983 174.75 153.725 174.334C153.467 173.917 153.291 173.462 153.207 172.995C153.123 172.527 153.134 172.057 153.238 171.61C153.342 171.163 153.537 170.749 153.812 170.391L156.81 172.695L159.807 174.999Z" fill="#864F82"/>
<path d="M153.041 177.087C150.94 176.202 150.14 173.639 151.365 171.715V171.715C152.425 170.052 154.606 169.519 156.314 170.505L168.289 177.426C169.585 178.175 170.068 179.805 169.391 181.139V181.139C168.722 182.456 167.149 183.032 165.787 182.459L153.041 177.087Z" fill="#864F82"/>
<circle cx="166.863" cy="179.894" r="2.81722" transform="rotate(-63.0707 166.863 179.894)" fill="#7D1D61"/>
<path d="M164.27 181.059C163.587 179.568 164.315 177.811 165.852 177.24V177.24C167.396 176.667 169.101 177.532 169.548 179.117L173.834 194.295C174.055 195.079 173.652 195.904 172.897 196.21V196.21C172.105 196.532 171.199 196.173 170.843 195.396L164.27 181.059Z" fill="#864F82"/>
<circle cx="166.842" cy="179.878" r="2.81722" transform="rotate(-20.3691 166.842 179.878)" fill="#864F82"/>
<path d="M170.286 168.563C169.724 169.131 168.367 170.262 167.704 169.816C167.704 169.816 158.069 159.492 160.647 157.872C165.368 154.905 168.565 165.894 168.565 165.894C168.565 165.894 168.689 165.198 171.983 163.364C175.278 161.531 175.706 161.831 175.706 161.831L175.816 162.926C175.816 162.926 174.865 163.943 170.286 168.563Z" fill="#DFBB73"/>
<path d="M163.744 160.37C163.344 160.342 162.933 160.147 162.627 159.964C162.326 159.784 162.156 159.445 162.18 159.093L162.676 152.675L165.483 152.878L164.998 159.216C164.944 159.941 164.387 160.415 163.744 160.37Z" fill="#FCC9A7"/>
<path d="M165.133 157.434L164.083 155.716C164.083 155.716 163.247 157.542 165.07 158.245L165.133 157.434Z" fill="#F2C09E"/>
<path d="M167.97 153.055C167.833 154.966 166.171 156.406 164.26 156.266C162.348 156.13 160.908 154.468 161.048 152.556C161.184 150.644 162.846 149.205 164.758 149.344C166.67 149.481 168.106 151.143 167.97 153.055Z" fill="#FCC9A7"/>
<path d="M165.38 157.47C164.474 157.404 163.789 156.616 163.854 155.706L164.026 153.336L167.969 153.051L167.802 155.373C167.712 156.622 166.629 157.56 165.38 157.47Z" fill="#FCC9A7"/>
<path d="M167.812 153.822L168.489 154.989C168.583 155.179 168.426 155.391 168.207 155.374L167.32 155.478L167.812 153.822Z" fill="#FCC9A7"/>
<path d="M164.504 154.343L165.259 154.245L165.487 152.878C165.487 152.878 168.621 153.279 169.016 151.784C169.016 151.784 166.983 146.92 162.73 149.06C159.576 150.647 160.671 154.145 161.795 155.41C162.17 155.832 162.364 156.392 162.343 156.955C162.339 157.023 162.336 157.095 162.329 157.17L163.459 154.226L164.504 154.343Z" fill="url(#paint0_linear_35_1225)"/>
<path d="M163.428 152.949C163.901 152.719 164.473 152.916 164.704 153.392C164.935 153.865 164.737 154.437 164.261 154.668C163.788 154.898 163.216 154.701 162.985 154.225C162.755 153.749 162.952 153.18 163.428 152.949Z" fill="#FCC9A7"/>
<path d="M162.243 150.13C162.243 150.13 161.269 146.036 157.818 147.333C154.015 148.764 155.937 153.139 155.831 154.122C155.709 155.273 155.167 156.492 153.522 156.796C153.522 156.796 158.2 157.614 158.306 154.361C158.396 151.624 159.635 150.453 161.157 151.433L162.243 150.13Z" fill="#FF7C60"/>
<path d="M163.583 157.611C162.37 156.711 160.713 156.734 159.562 157.579C158.589 158.29 157.437 159.471 156.88 161.292C155.171 166.865 150.925 172.137 150.925 172.137L159.062 172.015L162.538 166.736C162.538 166.736 163.415 166.203 164.237 165.317C165.388 164.077 165.373 163.82 165.215 162.041L164.577 158.779C164.58 158.781 164.36 158.186 163.583 157.611Z" fill="#FFD686"/>
<path d="M174.973 162.668C175.565 161.664 176.564 161.684 177.101 161.55C177.194 161.527 177.277 161.497 177.335 161.465C177.555 161.345 177.906 161.012 178.112 160.721C178.517 160.153 178.689 159.963 178.689 159.963L179.429 159.221C179.429 159.221 179.381 159.44 179.354 160.339C179.327 161.238 178.72 161.754 178.44 162.273C178.16 162.792 175.582 164.138 175.582 164.138C175.582 164.138 175.323 163.901 174.943 163.693C174.946 163.69 174.97 162.672 174.973 162.668Z" fill="#FCC9A7"/>
<path d="M168.874 169.316C168.236 169.798 166.732 170.725 166.139 170.19C166.139 170.19 158.069 158.601 160.852 157.364C165.947 155.098 167.549 166.43 167.549 166.43C167.549 166.43 168.121 165.309 171.642 163.962L175.164 162.615L175.934 164.034C175.934 164.034 174.062 165.394 168.874 169.316Z" fill="#FFD686"/>
<path d="M176.729 161.655C176.45 162.088 176.736 161.99 176.551 162.469C176.528 162.373 176.092 162.581 175.819 162.703C174.549 163.266 175.553 161.613 175.771 161.326C175.99 161.04 176.887 160.171 177.071 159.85C177.255 159.529 177.514 159.855 177.357 160.395C177.205 160.915 176.56 160.986 176.729 161.655Z" fill="#F1B78F"/>
<path d="M179.768 158.844C179.276 159.427 177.52 161.498 176.419 162.702C176.359 162.767 176.281 162.782 176.236 162.736L175.731 162.215C175.68 162.161 175.694 162.047 175.762 161.97L179.079 158.204C179.135 158.141 179.209 158.122 179.256 158.16L179.788 158.596C179.847 158.644 179.837 158.762 179.768 158.844Z" fill="#383856"/>
<path d="M178.952 160.494C178.952 160.494 179.143 159.802 178.961 159.587C178.779 159.373 178.685 159.485 178.475 160.173C178.265 160.861 177.516 161.459 177.516 161.459C177.516 161.459 178.58 161.31 178.952 160.494Z" fill="#FCC9A7"/>
<path d="M184 92C184 89.7909 185.791 88 188 88H200C202.209 88 204 89.7909 204 92V92C204 94.2091 202.209 96 200 96H188C185.791 96 184 94.2091 184 92V92Z" fill="#D9D9D9"/>
<defs>
<linearGradient id="paint0_linear_35_1225" x1="164.665" y1="148.519" x2="165.075" y2="157.038" gradientUnits="userSpaceOnUse">
<stop stop-color="#FF7C60"/>
<stop offset="1" stop-color="#994A3A"/>
</linearGradient>
</defs>
</svg>
