<svg width="512" height="512" viewBox="0 0 512 512" fill="none" xmlns="http://www.w3.org/2000/svg">
<g clip-path="url(#clip0_1423_42)">
<rect width="512" height="512" fill="#984D71"/>
<rect width="512" height="512" fill="#984D71"/>
<circle cx="256" cy="256" r="244" fill="#984D71"/>
<g filter="url(#filter0_d_1423_42)">
<rect x="196.261" y="201.479" width="42" height="221" rx="5" transform="rotate(-32.5897 196.261 201.479)" fill="white"/>
<rect width="42" height="42" rx="5" transform="matrix(0.842549 -0.538619 -0.538619 -0.842549 184.411 182.943)" fill="white"/>
</g>
<path d="M143.939 249.758C143.878 247.497 146.244 245.984 148.27 246.989L161.539 253.567C162.267 253.928 163.11 253.978 163.876 253.706L177.832 248.75C179.963 247.994 182.133 249.777 181.804 252.014L179.648 266.666C179.529 267.47 179.742 268.287 180.237 268.931L189.263 280.673C190.641 282.466 189.616 285.081 187.387 285.459L172.785 287.936C171.984 288.072 171.273 288.527 170.813 289.197L162.435 301.409C161.156 303.274 158.352 303.107 157.304 301.104L150.436 287.983C150.059 287.263 149.406 286.727 148.627 286.497L134.424 282.303C132.255 281.662 131.547 278.944 133.129 277.328L143.485 266.741C144.053 266.16 144.361 265.374 144.339 264.562L143.939 249.758Z" fill="white"/>
<path d="M319.709 147.758C319.648 145.497 322.015 143.984 324.041 144.989L337.31 151.567C338.037 151.928 338.881 151.978 339.646 151.706L353.602 146.75C355.733 145.994 357.903 147.777 357.574 150.014L355.418 164.666C355.3 165.47 355.513 166.287 356.008 166.931L365.034 178.673C366.412 180.466 365.386 183.081 363.157 183.459L348.556 185.936C347.755 186.072 347.043 186.527 346.584 187.197L338.206 199.409C336.927 201.274 334.123 201.107 333.074 199.104L326.206 185.983C325.829 185.263 325.177 184.727 324.398 184.497L310.194 180.303C308.025 179.662 307.318 176.944 308.899 175.328L319.256 164.741C319.824 164.16 320.132 163.374 320.11 162.562L319.709 147.758Z" fill="white"/>
<path d="M319.269 250.11C319.208 247.85 321.575 246.337 323.601 247.341L328.004 249.524C328.732 249.885 329.575 249.936 330.341 249.664L334.973 248.019C337.104 247.262 339.274 249.046 338.945 251.283L338.229 256.146C338.111 256.949 338.324 257.767 338.819 258.411L341.814 262.308C343.192 264.1 342.167 266.716 339.938 267.094L335.092 267.916C334.291 268.052 333.579 268.507 333.12 269.177L330.339 273.23C329.06 275.095 326.256 274.928 325.207 272.924L322.928 268.569C322.551 267.85 321.899 267.313 321.119 267.083L316.405 265.691C314.237 265.051 313.529 262.333 315.11 260.716L318.548 257.203C319.116 256.622 319.424 255.836 319.402 255.024L319.269 250.11Z" fill="white"/>
<path d="M190.707 356.424C190.651 354.348 192.824 352.959 194.685 353.881V353.881C195.353 354.212 196.127 354.259 196.83 354.009V354.009C198.787 353.314 200.78 354.952 200.478 357.006V357.006C200.369 357.744 200.565 358.495 201.019 359.086V359.086C202.285 360.733 201.343 363.134 199.296 363.482V363.482C198.56 363.607 197.907 364.024 197.485 364.639V364.639C196.31 366.352 193.735 366.198 192.772 364.359V364.359C192.426 363.698 191.827 363.205 191.111 362.994V362.994C189.12 362.406 188.47 359.91 189.922 358.425V358.425C190.444 357.892 190.727 357.17 190.707 356.424V356.424Z" fill="white"/>
<path d="M292.707 223.95C292.651 221.874 294.824 220.485 296.685 221.407V221.407C297.353 221.738 298.127 221.784 298.83 221.535V221.535C300.787 220.84 302.78 222.478 302.478 224.532V224.532C302.369 225.27 302.565 226.021 303.019 226.612V226.612C304.285 228.259 303.343 230.66 301.296 231.008V231.008C300.56 231.132 299.907 231.55 299.485 232.165V232.165C298.31 233.878 295.735 233.724 294.772 231.885V231.885C294.426 231.224 293.827 230.731 293.111 230.52V230.52C291.12 229.932 290.47 227.435 291.922 225.951V225.951C292.444 225.418 292.727 224.696 292.707 223.95V223.95Z" fill="white"/>
</g>
<defs>
<filter id="filter0_d_1423_42" x="159.694" y="126.839" width="193.083" height="266.938" filterUnits="userSpaceOnUse" color-interpolation-filters="sRGB">
<feFlood flood-opacity="0" result="BackgroundImageFix"/>
<feColorMatrix in="SourceAlpha" type="matrix" values="0 0 0 0 0 0 0 0 0 0 0 0 0 0 0 0 0 0 127 0" result="hardAlpha"/>
<feOffset dy="4"/>
<feGaussianBlur stdDeviation="2"/>
<feComposite in2="hardAlpha" operator="out"/>
<feColorMatrix type="matrix" values="0 0 0 0 0 0 0 0 0 0 0 0 0 0 0 0 0 0 0.25 0"/>
<feBlend mode="normal" in2="BackgroundImageFix" result="effect1_dropShadow_1423_42"/>
<feBlend mode="normal" in="SourceGraphic" in2="effect1_dropShadow_1423_42" result="shape"/>
</filter>
<clipPath id="clip0_1423_42">
<rect width="512" height="512" fill="white"/>
</clipPath>
</defs>
</svg>
