<svg width="197" height="141" viewBox="0 0 197 141" fill="none" xmlns="http://www.w3.org/2000/svg">
<g clip-path="url(#clip0_1695_259)">
<mask id="path-1-inside-1_1695_259" fill="white">
<path fill-rule="evenodd" clip-rule="evenodd" d="M74.0269 29.6638C80.5702 19.97 89.7689 11.8902 101.171 6.64628C134.011 -8.45731 172.817 5.62697 188.391 38.0978C219.208 95.3427 143.806 181.388 143.806 181.388C143.806 181.388 29.3676 182.636 5.98715 121.954C-8.5086 89.0025 6.05483 50.3914 38.8854 35.2922C50.2874 30.0482 62.4086 28.3228 74.0269 29.6638Z"/>
</mask>
<path d="M74.0269 29.6638L71.7338 49.5319L83.8053 50.9251L90.6038 40.8533L74.0269 29.6638ZM188.391 38.0978L170.358 46.7472L170.56 47.1676L170.781 47.5781L188.391 38.0978ZM143.806 181.388L144.024 201.387L152.959 201.289L158.848 194.569L143.806 181.388ZM5.98715 121.954L24.6498 114.763L24.482 114.327L24.294 113.9L5.98715 121.954ZM90.6038 40.8533C95.156 34.1093 101.546 28.4875 109.528 24.8167L92.8141 -11.5241C77.9915 -4.70704 65.9844 5.83075 57.45 18.4743L90.6038 40.8533ZM109.528 24.8167C132.431 14.2832 159.499 24.1061 170.358 46.7472L206.424 29.4484C186.135 -12.8521 135.591 -31.1978 92.8141 -11.5241L109.528 24.8167ZM170.781 47.5781C175.755 56.8167 176.951 68.0737 174.708 81.2905C172.449 94.5989 166.885 108.653 159.934 121.938C153.042 135.112 145.184 146.778 138.992 155.203C135.913 159.391 133.287 162.721 131.461 164.97C130.548 166.094 129.838 166.944 129.373 167.493C129.141 167.768 128.971 167.967 128.867 168.087C128.816 168.147 128.781 168.187 128.763 168.207C128.755 168.217 128.75 168.222 128.75 168.222C128.75 168.222 128.752 168.221 128.754 168.218C128.755 168.217 128.758 168.214 128.758 168.213C128.761 168.21 128.764 168.206 143.806 181.388C158.848 194.569 158.851 194.565 158.855 194.56C158.857 194.558 158.861 194.553 158.865 194.549C158.872 194.541 158.88 194.532 158.889 194.522C158.907 194.501 158.93 194.474 158.958 194.443C159.012 194.38 159.085 194.296 159.175 194.191C159.355 193.982 159.604 193.691 159.917 193.322C160.542 192.583 161.421 191.528 162.511 190.187C164.687 187.507 167.712 183.667 171.22 178.895C178.203 169.397 187.27 155.974 195.376 140.481C203.424 125.099 210.932 106.909 214.144 87.9836C217.371 68.9668 216.437 48.0014 206.002 28.6175L170.781 47.5781ZM143.806 181.388C143.588 161.389 143.592 161.389 143.597 161.389C143.598 161.389 143.602 161.389 143.603 161.389C143.607 161.389 143.609 161.389 143.609 161.389C143.609 161.389 143.602 161.389 143.589 161.389C143.562 161.389 143.509 161.389 143.43 161.39C143.271 161.39 143.009 161.39 142.649 161.387C141.93 161.383 140.821 161.368 139.374 161.33C136.477 161.253 132.239 161.079 127.054 160.691C116.624 159.909 102.65 158.281 88.1594 154.938C73.5467 151.568 59.2538 146.644 47.6808 139.694C36.1879 132.793 28.423 124.556 24.6498 114.763L-12.6755 129.144C-4.75843 149.693 10.5491 164.055 27.0891 173.987C43.5491 183.871 62.2496 190.012 79.1691 193.915C96.211 197.846 112.307 199.698 124.066 200.579C129.974 201.021 134.86 201.224 138.312 201.316C140.039 201.362 141.413 201.38 142.381 201.386C142.865 201.39 143.248 201.39 143.524 201.389C143.662 201.389 143.773 201.389 143.857 201.388C143.899 201.388 143.933 201.387 143.961 201.387C143.975 201.387 143.988 201.387 143.998 201.387C144.003 201.387 144.01 201.387 144.012 201.387C144.019 201.387 144.024 201.387 143.806 181.388ZM24.294 113.9C14.1865 90.9242 24.3457 63.993 47.2423 53.4626L30.5286 17.1218C-12.236 36.7898 -31.2037 87.0809 -12.3197 130.007L24.294 113.9ZM47.2423 53.4626C55.2237 49.7918 63.6509 48.599 71.7338 49.5319L76.32 9.79567C61.1663 8.04665 45.3512 10.3047 30.5286 17.1218L47.2423 53.4626Z" fill="#FFBFBF" mask="url(#path-1-inside-1_1695_259)"/>
<mask id="path-3-inside-2_1695_259" fill="white">
<path fill-rule="evenodd" clip-rule="evenodd" d="M71.5712 37.0705C76.2572 27.4044 83.5677 18.8597 93.2511 12.6063C121.143 -5.40619 158.264 2.34585 176.653 29.8447C212.119 77.8769 154.782 165.923 154.782 165.923C154.782 165.923 50.9138 181.967 21.7416 129.855C4.26024 101.784 12.4687 64.7744 40.3539 46.7665C50.0373 40.5131 60.8331 37.365 71.5712 37.0705Z"/>
</mask>
<path d="M71.5712 37.0705L71.7082 42.0686L74.7451 41.9853L76.0703 39.2516L71.5712 37.0705ZM176.653 29.8447L172.497 32.6241L172.562 32.7209L172.631 32.8146L176.653 29.8447ZM154.782 165.923L155.545 170.864L157.752 170.523L158.971 168.651L154.782 165.923ZM21.7416 129.855L26.1045 127.412L26.0475 127.31L25.9859 127.211L21.7416 129.855ZM76.0703 39.2516C80.3682 30.3862 87.0709 22.5493 95.9636 16.8066L90.5386 8.406C80.0645 15.17 72.1461 24.4226 67.072 34.8893L76.0703 39.2516ZM95.9636 16.8066C121.559 0.277605 155.623 7.39112 172.497 32.6241L180.81 27.0652C160.905 -2.69942 120.728 -11.09 90.5386 8.406L95.9636 16.8066ZM172.631 32.8146C180.642 43.6642 183.569 56.9673 183.2 71.2412C182.83 85.5383 179.155 100.501 174.303 114.23C169.461 127.929 163.521 140.197 158.778 149.055C156.411 153.478 154.35 157.034 152.887 159.476C152.156 160.697 151.574 161.638 151.18 162.268C150.982 162.583 150.831 162.82 150.732 162.976C150.682 163.054 150.645 163.111 150.622 163.148C150.61 163.166 150.601 163.179 150.596 163.187C150.594 163.191 150.592 163.193 150.591 163.195C150.591 163.195 150.591 163.195 150.591 163.195C150.591 163.195 150.592 163.194 154.782 165.923C158.971 168.651 158.972 168.65 158.974 168.648C158.974 168.647 158.976 168.645 158.977 168.643C158.98 168.639 158.983 168.633 158.988 168.626C158.996 168.613 159.009 168.594 159.024 168.57C159.056 168.521 159.1 168.452 159.158 168.361C159.273 168.181 159.44 167.918 159.654 167.577C160.082 166.894 160.698 165.896 161.465 164.615C162.999 162.055 165.141 158.357 167.594 153.775C172.494 144.624 178.672 131.878 183.731 117.562C188.78 103.275 192.79 87.2203 193.196 71.4997C193.603 55.7559 190.397 40.0412 180.676 26.8747L172.631 32.8146ZM154.782 165.923C154.018 160.981 154.019 160.981 154.02 160.981C154.019 160.981 154.019 160.981 154.019 160.981C154.017 160.982 154.014 160.982 154.01 160.983C154.001 160.984 153.985 160.986 153.964 160.99C153.921 160.996 153.853 161.006 153.762 161.019C153.579 161.046 153.3 161.086 152.932 161.136C152.195 161.237 151.098 161.379 149.684 161.544C146.856 161.873 142.765 162.288 137.759 162.627C127.732 163.305 114.103 163.672 99.6223 162.448C85.1104 161.222 69.9588 158.414 56.7755 152.866C43.6136 147.328 32.6939 139.183 26.1045 127.412L17.3787 132.297C25.3754 146.582 38.3787 155.974 52.8967 162.084C67.3933 168.184 83.6785 171.137 98.78 172.413C113.913 173.692 128.074 173.305 138.434 172.604C143.621 172.253 147.873 171.822 150.839 171.477C152.322 171.304 153.485 171.153 154.284 171.044C154.683 170.99 154.992 170.946 155.204 170.915C155.31 170.9 155.391 170.887 155.449 170.879C155.477 170.875 155.499 170.871 155.516 170.869C155.524 170.867 155.53 170.866 155.535 170.866C155.537 170.865 155.54 170.865 155.541 170.865C155.543 170.864 155.545 170.864 154.782 165.923ZM25.9859 127.211C9.94496 101.453 17.4779 67.4915 43.0663 50.9668L37.6414 42.5662C7.45958 62.0572 -1.42449 102.114 17.4974 132.498L25.9859 127.211ZM43.0663 50.9668C51.9591 45.224 61.8595 42.3387 71.7082 42.0686L71.4341 32.0724C59.8066 32.3913 48.1155 35.8021 37.6414 42.5662L43.0663 50.9668Z" fill="white" mask="url(#path-3-inside-2_1695_259)"/>
</g>
<defs>
<clipPath id="clip0_1695_259">
<rect width="197" height="141" fill="white"/>
</clipPath>
</defs>
</svg>
