<svg width="200" height="200" viewBox="0 0 200 200" fill="none" xmlns="http://www.w3.org/2000/svg">
<g clip-path="url(#clip0_1169_2)">
<rect width="200" height="200" fill="white"/>
<path fill-rule="evenodd" clip-rule="evenodd" d="M100 90C124.853 90 145 69.8528 145 45C145 20.1472 124.853 0 100 0C75.1472 0 55 20.1472 55 45C55 69.8528 75.1472 90 100 90ZM159.259 193.231C183.755 201.18 200 206.451 200 186C200 150.93 154.728 95 99.5 95C44.2715 95 0 150.93 0 186C0 206.141 13.7771 201.334 35.968 193.591C52.4171 187.852 73.4892 180.5 97 180.5C120.022 180.5 141.749 187.55 159.259 193.231Z" fill="url(#paint0_linear_1169_2)"/>
</g>
<defs>
<linearGradient id="paint0_linear_1169_2" x1="46.5" y1="61.5" x2="196.5" y2="200" gradientUnits="userSpaceOnUse">
<stop stop-color="#FCA3CD"/>
<stop offset="1" stop-color="#DC6FA3"/>
</linearGradient>
<clipPath id="clip0_1169_2">
<rect width="200" height="200" fill="white"/>
</clipPath>
</defs>
</svg>
