<?xml version="1.0" encoding="utf-8"?>
<!-- Generator: Adobe Illustrator 27.5.0, SVG Export Plug-In . SVG Version: 6.00 Build 0)  -->
<svg version="1.1" xmlns="http://www.w3.org/2000/svg" xmlns:xlink="http://www.w3.org/1999/xlink" x="0px" y="0px"
	 viewBox="0 0 500 500" style="enable-background:new 0 0 500 500;" xml:space="preserve">
<g id="BACKGROUND">
	<rect style="fill:#FFFFFF;" width="500" height="500"/>
</g>
<g id="OBJECTS">
	<g>
		<g>
			<path style="fill:#EECFDC;" d="M423.504,365.842c-2.698,5.073-5.653,10.119-8.894,15.137c-1.97,3.075-4.051,6.141-6.243,9.189
				c-2.348,3.287-4.825,6.556-7.43,9.806c-1.851,2.329-3.784,4.641-5.773,6.943c-1.123,1.298-2.265,2.596-3.434,3.885
				c-8.664,9.622-18.488,19.013-29.556,28.083l-67.159,0.35l-98.096,0.506l-70.041,0.359c0,0-8.02-9.115-18.148-24.584
				c-3.361-5.119-6.942-10.948-10.552-17.365c-2.992-5.331-5.994-11.067-8.894-17.172c-1.528-3.223-3.029-6.556-4.475-9.972
				c-16.592-39.076-31.345-92.485-3.25-140.321c36.371-61.928,113.657-52.372,113.657-52.372s44.868-7.771,119.522-37.99
				C400.209,105.723,489.568,241.726,423.504,365.842z"/>
			<g>
				<g>
					<rect x="188.323" y="365.155" style="fill:#D98DA6;" width="41.747" height="55.884"/>
					<rect x="261.982" y="345.747" style="fill:#C6587C;" width="41.747" height="55.884"/>
					<path style="fill:#D98DA6;" d="M423.504,365.842c-2.698,5.073-5.653,10.119-8.894,15.137c-1.97,3.075-4.051,6.141-6.243,9.189
						c-2.348,3.287-4.825,6.556-7.43,9.806c-1.851,2.329-3.784,4.641-5.773,6.943c-1.123,1.298-2.265,2.596-3.434,3.885v-44.96
						H423.504z"/>
					<path style="fill:#D98DA6;" d="M414.61,380.979c-1.97,3.075-4.051,6.141-6.243,9.189c-2.348,3.287-4.825,6.556-7.43,9.806
						c-1.851,2.329-3.784,4.641-5.773,6.943c-1.123,1.298-2.265,2.596-3.434,3.885c-8.664,9.622-18.488,19.013-29.556,28.083
						l-67.159,0.35l-98.096,0.506l-70.041,0.359c0,0-8.02-9.115-18.148-24.584c-3.361-5.119-6.942-10.948-10.552-17.365
						c-2.992-5.331-5.994-11.067-8.894-17.172H414.61z"/>
					<path style="fill:#D98DA6;" d="M108.729,342.262v55.889H98.178c-2.992-5.331-5.994-11.067-8.894-17.172
						c-1.528-3.223-3.029-6.556-4.475-9.972v-28.746H108.729z"/>
				</g>
				<g>
					<ellipse style="fill:#D98DA6;" cx="153.542" cy="260.983" rx="15.747" ry="16.381"/>
					<rect x="126.319" y="257.514" style="fill:#E3AEBE;" width="54.446" height="30.541"/>
					<path style="fill:#E3AEBE;" d="M196.918,276.18v163.561l-70.041,0.359c0,0-8.02-9.115-18.148-24.584V276.18H196.918z"/>
					<g>
						<g>
							<rect x="121.69" y="288.055" style="fill:#D98DA6;" width="7.791" height="21.674"/>
							<rect x="149.646" y="288.055" style="fill:#D98DA6;" width="7.79" height="21.674"/>
							<rect x="177.603" y="288.055" style="fill:#D98DA6;" width="7.791" height="21.674"/>
						</g>
						<g>
							<rect x="121.69" y="319.457" style="fill:#D98DA6;" width="7.791" height="21.675"/>
							<rect x="149.646" y="319.457" style="fill:#D98DA6;" width="7.79" height="21.675"/>
							<rect x="177.603" y="319.457" style="fill:#D98DA6;" width="7.791" height="21.675"/>
						</g>
						<g>
							<rect x="121.69" y="350.858" style="fill:#D98DA6;" width="7.791" height="21.675"/>
							<rect x="149.646" y="350.858" style="fill:#D98DA6;" width="7.79" height="21.675"/>
							<rect x="177.603" y="350.858" style="fill:#D98DA6;" width="7.791" height="21.675"/>
						</g>
						<g>
							<rect x="121.69" y="382.26" style="fill:#D98DA6;" width="7.791" height="21.675"/>
							<rect x="149.646" y="382.26" style="fill:#D98DA6;" width="7.79" height="21.675"/>
							<rect x="177.603" y="382.26" style="fill:#D98DA6;" width="7.791" height="21.675"/>
						</g>
					</g>
				</g>
				<g>
					<rect x="343.677" y="235.914" style="fill:#D98DA6;" width="16.029" height="52.993"/>
					<rect x="326.365" y="271.565" style="fill:#D98DA6;" width="50.652" height="9.884"/>
					<polygon style="fill:#E3AEBE;" points="295.014,304.64 308.88,277.568 393.834,277.568 408.368,304.64 					"/>
					<path style="fill:#E3AEBE;" d="M408.367,311.62v78.549c-2.348,3.287-4.825,6.556-7.43,9.806
						c-1.851,2.329-3.784,4.641-5.773,6.943c-1.123,1.298-2.265,2.596-3.434,3.885c-8.664,9.622-18.488,19.013-29.556,28.083
						l-67.159,0.35V311.62H408.367z"/>
					<rect x="290.781" y="301.247" style="fill:#D98DA6;" width="121.821" height="10.374"/>
					<g>
						<rect x="302.448" y="320.804" style="fill:#D98DA6;" width="5.773" height="94.144"/>
						<rect x="317.9" y="320.804" style="fill:#D98DA6;" width="5.773" height="94.144"/>
						<rect x="333.353" y="320.804" style="fill:#D98DA6;" width="5.773" height="94.144"/>
						<rect x="348.805" y="320.804" style="fill:#D98DA6;" width="5.773" height="94.144"/>
						<rect x="364.257" y="320.804" style="fill:#D98DA6;" width="5.773" height="94.144"/>
						<rect x="379.709" y="320.804" style="fill:#D98DA6;" width="5.773" height="94.144"/>
						<path style="fill:#D98DA6;" d="M400.937,320.809v79.165c-1.851,2.329-3.784,4.641-5.773,6.943v-86.108H400.937z"/>
					</g>
				</g>
			</g>
			<g>
				<path style="fill:#FFFFFF;" d="M171.724,223.042h-49.589c0,0,0.24-2.147,5.749-3.864c5.51-1.718,9.463,2.683,15.691,0
					c6.228-2.683,9.532-6.533,17.557-4.387C169.158,216.938,171.724,223.042,171.724,223.042z"/>
				<path style="fill:#FFFFFF;" d="M442.284,247.208h-66.2c0,0,0.32-3.327,7.675-5.988c7.356-2.662,12.632,4.159,20.947,0
					c8.315-4.159,12.725-10.126,23.439-6.799C438.859,237.748,442.284,247.208,442.284,247.208z"/>
			</g>
		</g>
		
			<line style="fill:none;stroke:#D98DA6;stroke-width:2;stroke-linecap:round;stroke-linejoin:round;stroke-miterlimit:10;" x1="65.783" y1="440.1" x2="446.418" y2="440.1"/>
	</g>
	<g>
		<g>
			<g>
				<path style="fill:#D68099;" d="M359.503,157.497L359.503,157.497c-1.041-2.373-5.123-2.243-6.919-1.351l0,0.001
					c-0.709-1.958-3.31-5.069-5.653-4.273l0,0c-1.926,0.554-2.452,2.486-2.483,4.49c-0.074,4.753,3.264,8.563,3.854,9.199
					c0.139,0.139,0.135,0.161,0.164,0.172c1.113,0.028,5.938-0.103,9.399-3.369C359.324,160.988,360.395,159.294,359.503,157.497z"
					/>
				<path style="fill:#D68099;" d="M256.315,105.511L256.315,105.511c-1.041-2.373-5.123-2.243-6.919-1.351l0,0.001
					c-0.709-1.958-3.31-5.07-5.653-4.273h0c-1.925,0.554-2.452,2.486-2.483,4.49c-0.074,4.753,3.264,8.563,3.854,9.2
					c0.139,0.139,0.135,0.161,0.164,0.172c1.113,0.028,5.939-0.103,9.399-3.369C256.136,109.002,257.207,107.307,256.315,105.511z"
					/>
				<path style="fill:#D68099;" d="M289.99,73.895L289.99,73.895c-1.767-4.027-8.692-3.806-11.74-2.293c0,0-0.001,0.001-0.001,0.001
					c-1.203-3.322-5.616-8.602-9.591-7.251l0,0c-3.267,0.94-4.16,4.219-4.214,7.618c-0.126,8.065,5.538,14.53,6.54,15.61
					c0.237,0.236,0.23,0.272,0.279,0.291c1.888,0.047,10.076-0.175,15.948-5.717C289.685,79.818,291.503,76.943,289.99,73.895z"/>
				<path style="fill:#D68099;" d="M341.737,114.483L341.737,114.483c0.712-2.492-2.514-4.995-4.466-5.454l-0.001,0
					c0.703-1.96,0.685-6.016-1.627-6.897h0c-1.836-0.802-3.474,0.351-4.776,1.874c-3.089,3.613-2.949,8.677-2.9,9.543
					c0.019,0.196,0.002,0.21,0.017,0.237c0.839,0.731,4.639,3.709,9.388,3.401C339.372,117.057,341.278,116.436,341.737,114.483z"/>
			</g>
		</g>
		<g>
			<g>
				<g>
					<g>
						<polygon style="fill:#D98A66;" points="184.445,417.129 179.467,438.771 146.354,438.771 146.354,436.155 165.183,425.215 
							167.492,417.526 						"/>
						<path style="fill:#994843;" d="M165.183,425.215c1.09-0.697,19.262-8.086,19.262-8.086l-16.953,0.397L165.183,425.215z"/>
						<path style="fill:#FFFFFF;" d="M164.945,425.215l5.605,5.997c1.474,1.577,3.808,1.627,5.336,0.115l7.013-6.35l-3.433,14.412
							h-33.113l-0.238-3.234L164.945,425.215z"/>
					</g>
				</g>
				<g>
					<g>
						<polygon style="fill:#D98A66;" points="238.245,416.892 242.13,438.533 275.243,438.533 275.243,435.917 256.414,424.978 
							256.064,417.288 						"/>
						<polygon style="fill:#994843;" points="256.414,424.978 256.064,417.288 238.245,416.892 						"/>
						<path style="fill:#FFFFFF;" d="M256.775,424.978l-5.605,5.997c-1.474,1.577-3.808,1.627-5.337,0.115l-6.182-6.364l2.44,14.406
							l33.87-0.175l-0.357-3.04L256.775,424.978z"/>
					</g>
				</g>
				<g>
					<path style="fill:#1A4E5C;" d="M186.373,224.703l-25.192,193.064l23.219-0.476l29.34-121.593c1.636-4.956,7.123-4.906,8.878,0
						l13.151,122.309l21.845-0.317c0,0,5.896-119.168-15.971-200.947L186.373,224.703z"/>
					<path style="opacity:0.14;fill:#253450;" d="M184.931,245.759c0,0,1.731,13.845,31.151,10.383
						c29.42-3.461,31.728-16.729,31.728-16.729L184.931,245.759z"/>
					<g>
						<path style="fill:none;stroke:#FFFFFF;stroke-width:0.5367;stroke-miterlimit:10;" d="M223.678,221.434l6.429,21.372
							c1.938,6.442,8.205,10.834,15.257,10.691l4.183,0.027"/>
						<path style="fill:none;stroke:#FFFFFF;stroke-width:0.5231;stroke-miterlimit:10;" d="M196.078,220.826l1.811,22.153
							c0.546,6.678-3.478,12.884-9.798,15.11l-6.328,2.228"/>
						
							<line style="fill:none;stroke:#FFFFFF;stroke-width:0.5231;stroke-miterlimit:10;" x1="234.742" y1="410.457" x2="257.616" y2="410.457"/>
						
							<line style="fill:none;stroke:#FFFFFF;stroke-width:0.5231;stroke-miterlimit:10;" x1="162.433" y1="410.457" x2="186.085" y2="410.457"/>
					</g>
				</g>
			</g>
			<g>
				<path style="fill:#D98A66;" d="M153.992,135.084c-0.451-1.354-2.189-36.052-2.82-48.903c-0.149-3.036-1.747-5.812-4.303-7.456
					c-4.344-2.793-10.511-6.37-9.785-3.647c1.109,4.157,3.88,6.652,3.88,6.652l-17.659,2.363c0,0,4.454,8.073,12.539,11.577
					c0,0-4.51,63.111,5.676,69.348c10.186,6.236,37.832-2.493,37.832-2.493l9.771-28.063
					C189.122,134.461,154.547,136.747,153.992,135.084z"/>
			</g>
			<g>
				<path style="fill:#7C2969;" d="M242.346,134.395c-28.174-0.346-72.386-0.166-72.386-0.166s-11.801,31.377-12.633,34.079
					l20.175,1.284l1.183,81.904l75.787-1.694c0,0-3.123-63.047-3.428-76.207c-0.018-0.78,18.215-0.588,18.215-0.588
					c-0.019,0.292-2.388-10.348-4.623-20.469C262.32,142.045,253.092,134.527,242.346,134.395z"/>
				
					<path style="fill:none;stroke:#FFFFFF;stroke-width:0.5231;stroke-linecap:round;stroke-miterlimit:10;stroke-dasharray:1.8565;" d="
					M179.689,234.193c0,0,60.706-0.092,71.105,0.007"/>
				<g>
					<g>
						<g>
							<path style="fill:#21263D;" d="M188.848,228.244c2.223,0,2.227-3.455,0-3.455
								C186.624,224.789,186.621,228.244,188.848,228.244L188.848,228.244z"/>
						</g>
					</g>
					<g>
						<g>
							<path style="fill:#21263D;" d="M212.981,241.369c2.223,0,2.227-3.455,0-3.455
								C210.757,237.914,210.754,241.369,212.981,241.369L212.981,241.369z"/>
						</g>
					</g>
					<g>
						<g>
							<path style="fill:#21263D;" d="M203.243,207.074c2.223,0,2.227-3.455,0-3.455
								C201.02,203.619,201.016,207.074,203.243,207.074L203.243,207.074z"/>
						</g>
					</g>
					<g>
						<g>
							<path style="fill:#21263D;" d="M185.461,186.752c2.223,0,2.227-3.455,0-3.455
								C183.237,183.296,183.234,186.752,185.461,186.752L185.461,186.752z"/>
						</g>
					</g>
					<g>
						<g>
							<path style="fill:#21263D;" d="M205.783,160.501c2.223,0,2.227-3.455,0-3.455
								C203.56,157.046,203.556,160.501,205.783,160.501L205.783,160.501z"/>
						</g>
					</g>
					<g>
						<g>
							<path style="fill:#21263D;" d="M179.956,153.304c2.223,0,2.227-3.455,0-3.455
								C177.733,149.849,177.729,153.304,179.956,153.304L179.956,153.304z"/>
						</g>
					</g>
					<g>
						<g>
							<path style="fill:#21263D;" d="M232.88,146.106c2.223,0,2.227-3.455,0-3.455C230.657,142.651,230.653,146.106,232.88,146.106
								L232.88,146.106z"/>
						</g>
					</g>
					<g>
						<g>
							<path style="fill:#21263D;" d="M226.106,180.824c2.223,0,2.227-3.455,0-3.455
								C223.883,177.369,223.879,180.824,226.106,180.824L226.106,180.824z"/>
						</g>
					</g>
					<g>
						<g>
							<path style="fill:#21263D;" d="M230.34,217.236c2.223,0,2.227-3.455,0-3.455C228.117,213.781,228.113,217.236,230.34,217.236
								L230.34,217.236z"/>
						</g>
					</g>
					<g>
						<g>
							<path style="fill:#21263D;" d="M246.429,242.216c2.223,0,2.227-3.455,0-3.455
								C244.205,238.76,244.202,242.216,246.429,242.216L246.429,242.216z"/>
						</g>
					</g>
					<g>
						<g>
							<path style="fill:#21263D;" d="M244.312,198.183c2.223,0,2.227-3.455,0-3.455
								C242.088,194.728,242.085,198.183,244.312,198.183L244.312,198.183z"/>
						</g>
					</g>
					<g>
						<g>
							<path style="fill:#21263D;" d="M244.735,164.735c2.223,0,2.227-3.455,0-3.455
								C242.512,161.28,242.508,164.735,244.735,164.735L244.735,164.735z"/>
						</g>
					</g>
					<g>
						<g>
							<path style="fill:#21263D;" d="M257.437,147.376c2.223,0,2.227-3.455,0-3.455
								C255.214,143.921,255.21,147.376,257.437,147.376L257.437,147.376z"/>
						</g>
					</g>
					<g>
						<g>
							<path style="fill:#21263D;" d="M192.235,139.332c2.223,0,2.227-3.455,0-3.455
								C190.011,135.877,190.008,139.332,192.235,139.332L192.235,139.332z"/>
						</g>
					</g>
				</g>
			</g>
			<g>
				<g>
					<path style="fill:#D98A66;" d="M213.425,112.719l-5.9,21.725c0,0,8.565,15.244,23.84,3.864l-0.271-22.611L213.425,112.719z"/>
				</g>
			</g>
			<path style="fill:#A94D3C;" d="M231.095,115.697c0,0-9.95,17.253-22.518,15.373l4.429-18.235c0,0,17.026,2.096,17.122,2.237"/>
			<g>
				<path style="fill:#171828;" d="M212.341,79.566c-4.83,3.043-7.432,8.545-4.585,12.811c0.479,0.989,1.12,1.861,1.912,2.476
					c0.536,0.792,1.307,1.718,2.192,2.086c1.84,0.763,4.242-0.69,6.352-2.213c2.071-1.496,3.647,1.989,4.244,2.413l6.599,14.03
					l-0.371,0.184l0.264,0.53l4.758-2.365l0.039-0.116c1.464-4.346,2.388-7.901,2.827-10.811c0.753-4.994-2.413-9.74-7.282-11.083
					L212.341,79.566z M231.87,110.138l-1.035,0.514c0.739-0.701,1.53-1.028,2.078-1.183L231.87,110.138z"/>
				<path style="fill:#171828;stroke:#171828;stroke-width:0.3572;stroke-miterlimit:10;" d="M209.948,93.994"/>
				<path style="fill:#D98A66;" d="M230.232,109.356c0.141,0.392,0.629,0.517,0.935,0.237c1.04-0.952,3.095-2.242,3.731,1.659
					c0.864,5.298-4.748,4.259-5.213,4.959c-0.944,1.419-3.976,6.189-8.372,7.965c-2.679,1.083-6.612,1.174-9.446-1.612
					c-2.834-2.785-4.263,0.358-2.374-28.67c0,0,2.424-0.757,4.317-0.067c1.894,0.689,3.947,0.151,6.134-0.391
					c1.776-0.44,3.263,0.52,5.215,6.567C226.055,102.781,229.4,107.049,230.232,109.356z"/>
				<path style="fill:#A94D3C;" d="M234.062,110.839l-3.026,2.122C231.036,112.961,232.268,107.687,234.062,110.839z"/>
				<path style="fill:#171828;" d="M214.775,105.972c-0.015,0.635,0.231,1.155,0.548,1.163c0.317,0.007,0.587-0.501,0.601-1.136
					c0.015-0.635-0.231-1.155-0.548-1.162C215.059,104.829,214.79,105.338,214.775,105.972z"/>
				<path style="fill:#171828;" d="M209.373,105.528c-0.015,0.635,0.23,1.155,0.548,1.163c0.317,0.007,0.587-0.501,0.601-1.136
					c0.015-0.635-0.231-1.155-0.548-1.163C209.657,104.385,209.388,104.893,209.373,105.528z"/>
				<path style="fill:#171828;" d="M218.088,102.627c0.786,0.667-0.263-2.087-1.384-2.499c-1.121-0.412-2.318,0.038-2.674,1.005
					C214.03,101.133,216.2,101.024,218.088,102.627z"/>
				<path style="fill:#171828;" d="M208.957,101.774c-0.796,0.655-0.695-1.24,0.464-1.527c1.159-0.288,2.3,0.29,2.548,1.291
					C211.969,101.537,209.283,101.506,208.957,101.774z"/>
				<path style="fill:#A94D3C;" d="M212.078,106.064l-1.865,4.828c-0.03,0.079,0.019,0.166,0.098,0.174l2.064,0.201
					c0.072,0.007,0.133-0.055,0.13-0.131l-0.199-5.029C212.301,105.971,212.127,105.939,212.078,106.064z"/>
				<path style="fill:#FFFFFF;" d="M216.904,112.961l-4.934,0.896c0,0,0.826,2.958,2.573,2.516
					C216.095,115.98,216.904,112.961,216.904,112.961z"/>
			</g>
			<g>
				<g>
					<g>
						<g>
							<g>
								<g>
									<g>
										<path style="fill:#E2ABB3;" d="M294.88,419.547l0.272,8.444c0,0-2.473,10.733-4.252,7.099
											c-1.779-3.634-5.554-4.92-5.554-4.92l-2.724-10.623H294.88z"/>
										<path style="fill:#1A4E5C;" d="M284.452,429.462l-12.738,8.179c-0.57,0.366-0.27,1.142,0.444,1.143
											c5.852,0.01,21.618-0.051,25.763-0.079c0.503-0.003,0.852-0.419,0.697-0.827c-0.859-2.256-3.209-8.521-3.475-10.248
											c-0.046-0.303-3.642,4.849-5.363,4.283C288.298,431.426,284.786,429.164,284.452,429.462z"/>
									</g>
								</g>
								<g>
									<g>
										<path style="fill:#E2ABB3;" d="M345.215,419.73l3.844,8.261c0,0-2.473,10.733-4.252,7.099
											c-1.78-3.634-5.554-4.92-5.554-4.92l-6.296-10.44H345.215z"/>
										<path style="fill:#1A4E5C;" d="M338.358,429.462l-12.738,8.179c-0.57,0.366-0.27,1.142,0.444,1.143
											c5.852,0.01,21.618-0.051,25.763-0.079c0.503-0.003,0.852-0.419,0.697-0.827c-0.859-2.256-3.209-8.521-3.475-10.248
											c-0.047-0.303-3.642,4.849-5.364,4.283C342.205,431.426,338.693,429.164,338.358,429.462z"/>
									</g>
								</g>
								<g>
									<path style="fill:#632056;" d="M295.701,268.742c1.085,4.703,10.956,142.551,8.717,155.902
										c-2.01,1.181-31.393,0.803-33.715,0.467c-1.964-24.454-11.111-114.104-11.543-162.158
										c-0.123-13.741,6.07-29.262,6.874-34.008"/>
									<path style="fill:none;stroke:#FFFFFF;stroke-width:1.1518;stroke-miterlimit:10;" d="M294.88,419.547
										c-1.349-2.611-13.733-178.53-13.733-178.53"/>
									<path style="fill:#7C2969;" d="M288.827,287.917c0.236,1.022,31.686,111.214,39.393,136.699
										c2.422,0.155,30.96,0.134,34.794-0.932c-1.467-25.536-39.854-159.311-44.158-173.031
										c-5.789-18.451-14.846-24.392-16.642-24.602c-9.13-1.066-24.178,4.417-36.902,4.703
										C264.587,232.202,288.827,287.917,288.827,287.917z"/>
									<path style="fill:none;stroke:#FFFFFF;stroke-width:1.1518;stroke-miterlimit:10;" d="M297.659,226.093
										c0,0,9.844,6.986,14.924,26.674c5.081,19.688,42.233,162.582,42.233,162.582"/>
									<g>
										<g>
											<g>
												
													<line style="fill:none;stroke:#FFFFFF;stroke-width:0.5971;stroke-miterlimit:10;" x1="271.258" y1="417.235" x2="272.153" y2="417.235"/>
												
													<line style="fill:none;stroke:#FFFFFF;stroke-width:0.5971;stroke-miterlimit:10;stroke-dasharray:1.7975,1.7975;" x1="273.951" y1="417.235" x2="301.812" y2="417.235"/>
												
													<line style="fill:none;stroke:#FFFFFF;stroke-width:0.5971;stroke-miterlimit:10;" x1="302.711" y1="417.235" x2="303.607" y2="417.235"/>
											</g>
										</g>
										
											<line style="fill:none;stroke:#FFFFFF;stroke-width:0.5971;stroke-miterlimit:10;stroke-dasharray:1.7913;" x1="327.318" y1="417.606" x2="362.136" y2="415.384"/>
									</g>
								</g>
							</g>
						</g>
					</g>
					<g>
						<g>
							<g>
								<path style="fill:#21263D;" d="M265.185,152.284c0.122,0.524-5.577,13.694,2.254,15.583l13.757,0.034l-4.124-14.245
									L265.185,152.284z"/>
								<path style="fill:#21263D;" d="M278.608,166.79l-14.499-28.556c-0.529-2.275,2.893-8.235,4.717-9.606
									c4.996-3.755,11.524-4.673,17.711-4.292c3.158,0.195,6.351,0.712,9.217,2.118c2.866,1.405,21.065,18.548,22.733,27.387
									c0,0-16.015,15.055-31.561,14.506C286.927,168.347,281.36,168.226,278.608,166.79z"/>
								<g>
									<g>
										<path style="fill:#21263D;" d="M320.76,149.588c-5.933-9.498-14.346-17.305-24.273-22.493
											c-0.661-0.345-1.248,0.655-0.585,1.002c9.755,5.099,18.024,12.74,23.857,22.077
											C320.153,150.805,321.157,150.224,320.76,149.588L320.76,149.588z"/>
									</g>
								</g>
							</g>
							
								<path style="fill:none;stroke:#CA485E;stroke-width:0.654;stroke-linecap:round;stroke-linejoin:round;stroke-miterlimit:10;" d="
								M265.89,149.549c-1.902,1.075-3.179,3.122-3.161,5.461c0.026,3.432,2.829,6.194,6.261,6.168
								c3.432-0.026,6.194-2.829,6.168-6.261c-0.023-3.02-2.196-5.521-5.056-6.06"/>
							<path style="fill:#E2ABB3;" d="M288.642,144.933c0.025,0.308,0.287,0.536,0.583,0.502c1.239-0.141,4.233-0.121,5.004,3.194
								c0.779,3.351-3.717,4.456-5.584,4.768c-0.539,0.09-1.015,0.397-1.337,0.852c-0.991,1.397-4.609,4.591-3.822,8.096
								c1.286,5.73,3.136,9.442,3.136,9.442s-11.102,8.436-17.277,4.927c0,0,3.56-17.58,1.575-18.57
								c-6.045-3.017-10.393-3.401-7.712-16.117c2.695-12.784,10.991-12.594,13.197-12.433
								C278.267,129.729,287.416,129.64,288.642,144.933z"/>
							
								<path style="fill:none;stroke:#CA485E;stroke-width:0.654;stroke-linecap:round;stroke-linejoin:round;stroke-miterlimit:10;" d="
								M294.261,150.868c2.86,0.539,5.033,3.04,5.056,6.06c0.026,3.432-2.736,6.235-6.168,6.261
								c-3.432,0.026-6.235-2.736-6.261-6.168c-0.018-2.339,1.26-4.387,3.161-5.461"/>
							<g>
								<path style="fill:#D06579;" d="M292.667,148.633c0,0-2.312-3.877-4.084,1.85"/>
								<path style="fill:#DA8DA3;" d="M274.92,145.574c-1.869,0.162-3.254,1.808-3.092,3.678c0.162,1.87,1.808,3.254,3.678,3.092
									c1.87-0.162,3.254-1.808,3.092-3.678C278.437,146.796,276.79,145.412,274.92,145.574z"/>
								<path style="fill:#DA8DA3;" d="M263.047,142.685c1.073,0.494,1.858,1.534,1.967,2.796c0.141,1.636-1.14,2.948-2.655,3.397
									C262.359,148.877,262.041,147.819,263.047,142.685z"/>
								<path style="fill:#D06579;" d="M268.392,143.691l-0.773,3.064l-1.875-0.595c-0.346-0.11-0.448-0.55-0.186-0.801
									L268.392,143.691z"/>
								<path style="fill:#171828;" d="M274.077,141.185c0.498,0.59,0.064-1.573-0.712-2.017c-0.776-0.443-1.716-0.259-2.099,0.411
									C271.266,139.579,272.881,139.767,274.077,141.185z"/>
								<path style="fill:#171828;" d="M265.443,138.773c-0.731,0.248,0.759-1.38,1.652-1.358c0.894,0.022,1.603,0.665,1.584,1.437
									C268.679,138.852,267.199,138.178,265.443,138.773z"/>
								<path style="fill:#171828;" d="M271.338,143.903c-0.181,0.643-0.581,1.092-0.892,1.004c-0.311-0.088-0.417-0.68-0.236-1.322
									c0.181-0.643,0.581-1.092,0.892-1.004C271.413,142.668,271.519,143.26,271.338,143.903z"/>
								<path style="fill:#171828;" d="M266.867,142.414c-0.173,0.614-0.554,1.043-0.852,0.959c-0.298-0.084-0.398-0.65-0.225-1.263
									c0.173-0.614,0.555-1.043,0.852-0.959C266.939,141.234,267.04,141.8,266.867,142.414z"/>
								<path style="fill:#FFFFFF;" d="M264.317,146.548l4.763,1.429c0,0-1.102,2.248-3.017,1.588
									C264.529,149.036,264.317,146.548,264.317,146.548z"/>
							</g>
							<path style="fill:#171828;" d="M270.922,158.143c0,0,4.705,1.134,6.585,0.439c1.88-0.694-6.574,7.285-6.228,5.316
								c0.402-2.289-0.37-5.374-0.37-5.374"/>
							<g>
								<path style="fill:#21263D;" d="M268.423,131.796c0,0-0.658,0.941,2.694,0.792c3.352-0.149,6.518-2.994,9.277,1.377
									c2.759,4.37,8.247,10.968,8.247,10.968l7.83-10.008l-15.705-8.497l-11.145,2.413L268.423,131.796z"/>
								<g>
									<g>
										<path style="fill:#21263D;" d="M279.512,132.316c2.028,2.939,2.217,6.652,3.64,9.861c0.668,1.507,1.684,2.968,3.356,3.426
											c1.654,0.454,3.411-0.081,4.857-0.901c0.649-0.368,0.065-1.371-0.585-1.001c-1.332,0.755-3.093,1.31-4.549,0.555
											c-1.393-0.723-2.06-2.467-2.539-3.864c-0.999-2.912-1.393-6.075-3.178-8.662
											C280.093,131.12,279.087,131.699,279.512,132.316L279.512,132.316z"/>
									</g>
								</g>
							</g>
						</g>
						<g>
							<path style="fill:#F3EFF7;" d="M249.625,191.922c-0.723-44.138,18.791-19.658,18.837-19.576
								c4.636,8.352,17.063-2.777,17.063-2.777c0.047-0.001,0.097,0,0.146,0c0.001-0.005,0.002-0.011,0.003-0.016
								c0,0,0.064,0.006,0.183,0.018c0.32,0.01,1.994-4.925,9.354-3.939c6.754,0.904,15.468,26.801,15.468,26.801
								s0.9,0.318-4.604-0.794c-0.362,7.56,2.593,32.76,2.593,32.76s-32.491,10.408-46.996,9.738
								c-2.324-13.439-3.063-27.793-5.775-35.22C254.327,197.42,250.469,193.369,249.625,191.922z"/>
							<g>
								<path style="fill:#D98A66;" d="M306.868,197.938c0,0,6.245,3.599,1.482,13.654c0,0-7.198,1.164-7.515-1.164
									C300.517,208.099,304.221,198.996,306.868,197.938z"/>
								<g>
									<g>
										<path style="fill:#A94D3C;" d="M302.316,204.713c0.379-0.265,0.769-0.481,1.156-0.701
											c0.384-0.225,0.779-0.421,1.169-0.628c0.396-0.195,0.785-0.401,1.192-0.581c0.405-0.185,0.808-0.375,1.245-0.527
											c-0.303,0.35-0.655,0.638-1.02,0.908c-0.362,0.275-0.756,0.5-1.156,0.712c-0.406,0.2-0.819,0.387-1.254,0.52
											C303.217,204.555,302.777,204.671,302.316,204.713z"/>
									</g>
									<g>
										<path style="fill:#A94D3C;" d="M301.574,208.409c0.544-0.216,1.086-0.397,1.618-0.595c0.53-0.205,1.062-0.393,1.585-0.607
											c0.527-0.202,1.044-0.429,1.57-0.644c0.524-0.22,1.043-0.459,1.587-0.674c-0.415,0.416-0.889,0.758-1.383,1.067
											c-0.492,0.314-1.022,0.564-1.562,0.785c-0.545,0.208-1.102,0.389-1.677,0.497
											C302.741,208.352,302.161,208.428,301.574,208.409z"/>
									</g>
									<g>
										<path style="fill:#A94D3C;" d="M304.221,211.486c0.108-0.2,0.248-0.345,0.392-0.482c0.141-0.143,0.305-0.246,0.469-0.349
											c0.171-0.091,0.342-0.182,0.536-0.234c0.191-0.057,0.386-0.106,0.614-0.099c-0.108,0.201-0.247,0.346-0.392,0.483
											c-0.141,0.142-0.305,0.246-0.47,0.348c-0.171,0.091-0.342,0.181-0.536,0.233
											C304.644,211.443,304.449,211.492,304.221,211.486z"/>
									</g>
								</g>
							</g>
							<path style="fill:#E2ABB3;" d="M238.913,184.336l1.905,1.588c0,0,42.813,49.071,53.807,39.611
								c10.994-9.46,12.044-33.773,12.044-33.773l-18.537-2.187c0,0-0.797,15.816-7.939,10.32
								c-7.142-5.496-33.977-24.927-33.977-24.927s-5.239-11.59-6.192-9.844c-0.953,1.747,0.794,7.621,0.794,7.621
								s-9.526-8.256-11.114-7.78c-1.588,0.476,6.192,7.462,6.192,7.462s-8.256-7.145-9.05-5.24
								c-0.683,1.639,7.621,6.668,7.939,7.145c0.317,0.476-7.145-4.446-8.097-3.652c-0.953,0.794,6.668,5.398,7.145,6.033
								c0.476,0.635-5.557-3.334-6.192-2.223C227.006,175.604,237.008,182.431,238.913,184.336z"/>
						</g>
					</g>
				</g>
			</g>
			<path style="fill:#21263D;" d="M132.66,50.736l-5.028,29.353c-0.094,0.549,0.234,1.082,0.766,1.245l15.579,4.799
				c0.643,0.198,1.312-0.218,1.419-0.882l4.844-29.925c0.09-0.558-0.255-1.095-0.8-1.245l-15.394-4.227
				C133.413,49.681,132.77,50.09,132.66,50.736z"/>
			<path style="fill:none;stroke:#E5B2BE;stroke-width:0.5;stroke-miterlimit:10;" d="M143.285,55.25l-1.141,6.234
				c-0.037,0.2,0.085,0.394,0.281,0.449l3.101,0.862c0.225,0.063,0.455-0.084,0.492-0.316l1.016-6.279
				c0.032-0.198-0.09-0.388-0.284-0.441l-2.977-0.817C143.553,54.882,143.327,55.024,143.285,55.25z"/>
			<path style="fill:#D98A66;" d="M124.881,86.483c0,0-2.133-1.926-2.782-5.916c-0.65-3.99,1.018-5.403,2.782-6.46
				c1.765-1.057,9.931-1.521,10.116,0.521c0.186,2.042-2.413,4.083-5.939,4.083c0,0,2.605,1.307,4.968,3.948
				c2.363,2.641-0.606,3.824-0.606,3.824H124.881z"/>
			<path style="fill:#D98A66;" d="M125.244,75.172c0,0-0.928-3.279,0.99-6.187c1.918-2.908,11.012-3.155,12.187-1.299
				c1.175,1.856-3.279,3.217-4.887,3.402C131.925,71.275,125.244,75.172,125.244,75.172z"/>
			<path style="fill:#D98A66;" d="M127.523,70.037c0,0-0.928-3.279,0.99-6.187c1.918-2.908,11.012-3.155,12.187-1.299
				c1.175,1.856-3.279,3.217-4.887,3.403C134.205,66.14,127.523,70.037,127.523,70.037z"/>
			<path style="fill:none;stroke:#E5B2BE;stroke-width:0.5;stroke-miterlimit:10;" d="M145.923,57.558
				c-0.092,0.787-0.642,1.37-1.227,1.301c-0.585-0.069-0.985-0.763-0.893-1.55c0.092-0.787,0.642-1.37,1.227-1.301
				C145.616,56.077,146.016,56.771,145.923,57.558z"/>
		</g>
	</g>
</g>
</svg>
