<svg width="217" height="209" viewBox="0 0 217 209" fill="none" xmlns="http://www.w3.org/2000/svg">
<g clip-path="url(#clip0_1166_211)">
<rect width="217" height="209" fill="white"/>
<circle cx="100" cy="109" r="100" fill="url(#paint0_linear_1166_211)"/>
<path fill-rule="evenodd" clip-rule="evenodd" d="M24 173.982C42.6764 153.125 69.8111 140 100.011 140C130.212 140 157.346 153.125 176.023 173.982C157.682 195.416 130.433 209 100.011 209C69.5898 209 42.341 195.416 24 173.982Z" fill="url(#paint1_linear_1166_211)"/>
<circle cx="100.5" cy="81.5" r="48.5" fill="url(#paint2_linear_1166_211)"/>
<path fill-rule="evenodd" clip-rule="evenodd" d="M143.476 59H57.5237C65.6325 43.5437 81.8349 33 100.5 33C119.165 33 135.368 43.5437 143.476 59Z" fill="#323030"/>
<path d="M154.5 17.5C132.5 -1.29998 112.333 23.3333 105 38L131 50.5C125 43.8333 122.1 33.6 158.5 46C194.9 58.4 213 20.5 217.5 0C205.667 13.6667 176.5 36.3 154.5 17.5Z" fill="#323030"/>
<path fill-rule="evenodd" clip-rule="evenodd" d="M112 109C109.736 113.316 105.212 116.26 100 116.26C94.7883 116.26 90.2642 113.316 88 109L112 109Z" fill="#323030"/>
<rect x="84" y="69" width="4" height="17" fill="#323030"/>
<rect x="112" y="69" width="4" height="17" fill="#323030"/>
</g>
<defs>
<linearGradient id="paint0_linear_1166_211" x1="100" y1="9" x2="100" y2="209" gradientUnits="userSpaceOnUse">
<stop stop-color="#3070F3"/>
<stop offset="1" stop-color="#19397C"/>
</linearGradient>
<linearGradient id="paint1_linear_1166_211" x1="100" y1="140" x2="176" y2="140" gradientUnits="userSpaceOnUse">
<stop offset="0.0175931" stop-color="#B9E0F3"/>
<stop offset="1" stop-color="#5387BA"/>
</linearGradient>
<linearGradient id="paint2_linear_1166_211" x1="149" y1="33" x2="63" y2="130" gradientUnits="userSpaceOnUse">
<stop stop-color="#FDE4DE"/>
<stop offset="1" stop-color="#FDC0AB"/>
</linearGradient>
<clipPath id="clip0_1166_211">
<rect width="217" height="209" fill="white"/>
</clipPath>
</defs>
</svg>
