<?xml version="1.0" encoding="utf-8"?>
<!-- Generator: Adobe Illustrator 27.5.0, SVG Export Plug-In . SVG Version: 6.00 Build 0)  -->
<svg version="1.1" xmlns="http://www.w3.org/2000/svg" xmlns:xlink="http://www.w3.org/1999/xlink" x="0px" y="0px"
	 viewBox="0 0 500 500" style="enable-background:new 0 0 500 500;" xml:space="preserve">
<g id="BACKGROUND">
</g>
<g id="OBJECTS">
	<g>
		<path style="fill:#CDFFEB;" d="M437.936,325.923c-2.173,26.638-9.643,52.835-21.282,77.02
			c-5.688,11.834-12.377,23.192-19.932,33.871c-0.424,0.611-0.857,1.214-1.29,1.817c-0.382,0.535-0.773,1.061-1.163,1.596H107.843
			C70.008,391.78,51.256,321.636,67.436,262.332c2.895-10.577,6.757-21.112,13.48-29.788c6.715-8.676,16.647-15.348,27.598-16.078
			c11.146-0.739,21.851,4.635,30.739,11.409c17.224,13.115,27.937,33.166,33.413,54.117c-0.153-47.334,12.266-94.643,35.662-135.798
			c14.618-25.713,34.847-50.059,62.623-60.221c26.087-9.542,56.961-4.652,78.828,12.487c26.494,20.772,37.827,56.375,37.25,90.042
			c-0.586,33.659-8.183,68.226-18.93,100.127c7.411-11.307,21.239-18.082,34.728-17.003c13.48,1.078,26.061,9.958,31.579,22.309
			C438.827,303.834,438.819,315.116,437.936,325.923z"/>
		<g>
			<path style="fill:#F25292;" d="M119.821,271.15c0,0-4.062-6.854-11.424-8.124c0,0-10.155,11.678-14.217,20.056
				c-4.062,8.378-4.062,14.724,0,17.771c4.062,3.046,18.025-18.279,18.025-18.279L119.821,271.15z"/>
			<path style="fill:#F25292;" d="M153.712,396.053c0,0,2.919,14.978,4.95,20.817c2.031,5.839-2.475,8.632-2.475,8.632
				s-7.68,2.285-9.203-7.87c-1.523-10.155-12.947-22.594-9.647-29.449l7.235-4.823L153.712,396.053z"/>
			<path style="fill:#494591;" d="M269.684,416.87l-10.771,8.632c0,0-20.281,4.443-19.9,14.724h61.309l-11.805-31.988
				L269.684,416.87z"/>
			<g>
				<path style="fill:#FFFFFF;" d="M291.182,411.158c-0.027,2.06-0.599,4.094-1.498,5.96c-0.457,0.932-1.037,1.808-1.709,2.6
					c-0.668,0.799-1.498,1.455-2.378,1.975c0.703-0.754,1.352-1.511,1.916-2.334c0.55-0.829,1.073-1.674,1.5-2.574
					C289.896,414.999,290.574,413.114,291.182,411.158z"/>
			</g>
			<g>
				<path style="fill:#FFFFFF;" d="M290.421,409.635c-0.719,1.343-1.657,2.559-2.674,3.696c-1.011,1.146-2.152,2.175-3.367,3.106
					c-1.219,0.924-2.51,1.762-3.893,2.418c-1.361,0.697-2.814,1.198-4.283,1.57c1.367-0.667,2.732-1.289,4.009-2.078
					c1.289-0.759,2.532-1.591,3.712-2.506c1.196-0.894,2.32-1.881,3.41-2.91C288.419,411.896,289.449,410.8,290.421,409.635z"/>
			</g>
			<path style="fill:#6C5070;" d="M213.796,211.236c0,0-11.595,6.401-15.276,12.213c-3.681,5.812-8.251,28.279-8.251,28.279
				l-28.56,44.935l-41.888-25.514c0,0-8.758,6.093-7.616,11.424l45.512,36.055c7.34,5.815,17.959,4.81,24.078-2.279l81.786-94.749
				l-13.145-12.523L213.796,211.236z"/>
			<path style="opacity:0.5;fill:#6C5070;" d="M213.796,211.236c0,0,21.947,16.075,46.777,13.849l3.008-3.485L213.796,211.236z"/>
			<path style="fill:#5C3E61;" d="M263.581,221.601L228.046,329.24c-0.833,2.522-2.335,4.77-4.347,6.503l-69.987,60.31
				c0,0-8.124-3.554-9.139-12.693l56.246-59.837l10.971-41.922L263.581,221.601z"/>
			<path style="fill:#009FCC;" d="M262.749,225.453l-25.796,96.557c-1.218,4.56-0.942,9.391,0.788,13.783l31.943,81.077
				c0,0,11.344,0,18.833-8.632l-18.833-82.254l49.685-101.537l-2.372-13.085l-47.313,6.41L262.749,225.453z"/>
			<path style="fill:#59569D;" d="M294.99,425.502l-17.203,19.802c0,0-7.466,2.422-10.103,7.91
				c-1.064,2.214,0.551,4.783,3.007,4.783h36.317c2.097,0,3.984-1.271,4.772-3.214l9.072-22.362c0.356-0.878,0.379-1.85,0.059-2.741
				c-1.029-2.865-3.635-9.43-7.134-13.317L294.99,425.502z"/>
			<path style="fill:#00BBF0;" d="M262.749,225.453l-12.261,86.398c-1.344,9.47,0.106,19.127,4.173,27.785l40.33,85.866
				c0,0,13.201-2.539,18.786-9.139l-23.356-96.978l18.786-63.975c0,0,11.311-15.21,10.162-30.961l-2.372-13.085l-47.313,6.41
				L262.749,225.453z"/>
			<g>
				<path style="fill:#FFFFFF;" d="M293.902,217.774l-5.769,26.002l-5.87,25.979l-5.936,25.964l-2.981,12.979l-1.49,6.489
					c-0.24,1.09-0.529,2.156-0.677,3.219c-0.157,1.07-0.226,2.153-0.206,3.235c0.045,2.167,0.446,4.309,1.2,6.358l2.201,6.284
					l4.403,12.568l8.782,25.144l8.716,25.167l8.617,25.202l-9.079-25.039l-8.98-25.074l-8.915-25.097l-4.446-12.553l-2.223-6.276
					c-0.785-2.116-1.228-4.392-1.275-6.664c-0.017-1.138,0.059-2.276,0.228-3.401c0.164-1.137,0.462-2.216,0.702-3.292l1.513-6.484
					l3.025-12.969l6.076-25.931l6.142-25.916L293.902,217.774z"/>
			</g>
			<path style="fill:#00BBF0;" d="M319.368,229.023c0.103-1.511,0.112-3.04,0-4.574l-2.372-13.085l-47.313,6.41l-6.935,7.679
				C262.749,225.453,311.251,222.438,319.368,229.023z"/>
			<path style="fill:#FCC2C2;" d="M336.868,61.499c-3.262-7.049-9.358-13.938-19.222-12.61c-9.864,1.328-28.548-2.534-33.25-6.886
				c0,0-0.328,16.007,7.652,18.787c0,0-0.228,6.701-1.078,12.393l0,0c0,0-3.31,6.368-5.976,8.367l3.75,2.296l0.004-0.001
				c-0.504,5.872,0.868,13.499,7.863,17.626c9.433,5.564,20.596-3.387,20.596-3.387s0.547,7.702-0.437,14.466
				c0,0,8.858,1.003,15.107-2.328c0,0-1.175-20.084,2.84-28.36S340.13,68.547,336.868,61.499z"/>
			<polygon style="fill:#FCC2C2;" points="318.124,90.268 309.365,100.334 309.365,111.498 316.986,110.818 			"/>
			<g>
				<path style="fill:#3E2723;" d="M336.868,61.499c-3.262-7.049-9.358-13.938-19.222-12.61c-9.864,1.328-28.548-2.534-33.25-6.886
					c0,0-0.328,16.007,7.652,18.787l11.232,0.562l7.14,17.474c0,0,2.048-6.955,6.669-7.283c4.621-0.328,4.232,7.011,4.232,7.011
					s-0.51,5.925-3.566,6.073c2.021,0.285,5.56,0.147,7.47-3.682l7.191,10.004l0,0c0.45-3.491,1.169-6.757,2.299-9.087
					C338.731,73.584,340.13,68.547,336.868,61.499z"/>
			</g>
			<path style="fill:#F25292;" d="M218.564,197.954c0,0-0.915,6.936-4.767,13.283c0,0,16.852,12.098,49.785,10.365l19.477-31.436
				l-9.901-9.647l-24.73,9.901l-25.536,3.046L218.564,197.954z"/>
			<path style="fill:#DB4A84;" d="M277.776,192.198L277.776,192.198l0.357-6.832l-4.28-4.17l-3.815,0.571l-21.611,8.652
				l-25.536,3.046l-4.328,4.488c0,0-0.115,0.849-0.42,2.207l35.972,0.715C262.81,201.049,271.254,197.952,277.776,192.198z"/>
			<path style="fill:#E38A8A;" d="M212.62,209.079c0,0,0.77,3.681,0.443,5.141c0,0,3.533-0.232,3.793-4.083l-0.896-6.58
				l-3.668-3.554l-2.094,2.539l1.269,4.57L212.62,209.079z"/>
			<path style="fill:#E39A9A;" d="M213.063,202.534c0,0,2.847,4.831,2.847,7.687c0,0,2.848,0.5,2.947-3.843l-2.376-8.318
				l-1.559,0.08l-1.125,0.057L213.063,202.534z"/>
			<path style="fill:#E3A6A6;" d="M214.922,198.139c0,0,3.09,6.37,3.261,8.464c0,0,1.916-0.063,1.662-3.046
				c-0.254-2.983-1.281-5.603-1.281-5.603L214.922,198.139z"/>
			<path style="fill:#FCC2C2;" d="M213.796,198.197c0,0-1.695,8.216-1.06,12.024l-4.707-3.708c-1.024-0.807-1.76-1.921-2.101-3.179
				l-2.458-9.082c-0.732-2.706-0.522-5.606,0.727-8.116c0.931-1.871,2.438-3.796,4.872-4.951L213.796,198.197z"/>
			<path style="fill:#59569D;" d="M316.77,112.549l-18.733,10.277l-40.746,46.648L209.5,180.518c0,0-6.855,9.52,0,17.898
				l52.558-2.682c2.238-0.114,4.402-0.836,6.261-2.087l7.06-4.752c0,0-10.091,22.594-12.63,36.557c0,0,32.495-4.316,44.427-3.808
				c11.932,0.508,20.056,7.362,20.056,7.362s-2.285-17.009,0-31.48c2.285-14.471,13.963-55.344,13.963-55.344
				s6.497-28.638-9.318-31.963L316.77,112.549z"/>
			<path style="opacity:0.3;fill:#59569D;" d="M331.876,110.221l-15.107,2.328l-18.733,10.277l-6.379,7.303l18.369-9.397
				c0,0,17.669-4.752,24.104-9.789C333.431,110.646,332.69,110.392,331.876,110.221z"/>
			<path style="fill:#F25292;" d="M249.103,120.732l42.636-18.916c5.63-2.498,11.59-4.161,17.702-4.923
				c6.889-0.859,16.314-2.221,22.682-3.891c4.139-1.085,8.476,1.098,9.937,5.12c0.717,1.975,0.975,4.378,0.204,7.188
				c-0.423,1.544-1.655,2.735-3.188,3.197c-4.607,1.389-14.78,6.229-29.049,7.742l-11.99,6.578l-40.746,46.648l-38.727,8.949
				l4.645-23.229l11.043-25.704L249.103,120.732z"/>
			<polygon style="fill:#DB4A84;" points="291.658,130.13 281.566,134.844 284.725,130.13 298.037,122.827 			"/>
			<g>
				<path style="fill:#FFFFFF;" d="M270.472,192.198c3.778-3.2,7.624-6.314,11.48-9.414c3.854-3.102,7.764-6.134,11.643-9.204
					c3.929-3.007,7.832-6.047,11.785-9.021l5.943-4.446c2.004-1.453,3.986-2.933,6.008-4.363c-1.883,1.608-3.806,3.165-5.707,4.749
					l-5.772,4.666c-3.856,3.1-7.764,6.134-11.645,9.203c-3.931,3.004-7.831,6.048-11.787,9.02
					C278.468,186.363,274.504,189.324,270.472,192.198z"/>
			</g>
			<g>
				<path style="fill:#263238;" d="M310.027,116.248c-3.433,2.119-6.92,4.142-10.414,6.15c-3.493,2.01-7.029,3.942-10.542,5.917
					c-3.551,1.904-7.082,3.845-10.653,5.714l-5.366,2.785c-1.806,0.896-3.596,1.823-5.417,2.692c1.712-1.069,3.455-2.08,5.181-3.122
					l5.232-3.03c3.494-2.008,7.029-3.943,10.543-5.915c3.553-1.901,7.082-3.846,10.654-5.712
					C302.816,119.859,306.395,118.006,310.027,116.248z"/>
			</g>
			<g>
				<path style="fill:#263238;" d="M284.725,130.13c-1.605,3.265-3.619,6.305-5.874,9.159c-1.143,1.415-2.334,2.798-3.665,4.051
					c-1.316,1.259-2.749,2.432-4.36,3.287c1.389-1.175,2.597-2.501,3.799-3.829c1.191-1.338,2.331-2.725,3.445-4.133
					c1.131-1.395,2.22-2.827,3.323-4.253C282.484,132.978,283.602,131.558,284.725,130.13z"/>
			</g>
			<path style="fill:#FCC2C2;" d="M336.477,88.225l-2.432,1.142c-0.921,0.432-1.492,1.37-1.456,2.386
				c0.037,1.028,0.039,2.318-0.116,3.208c0,0,3.075,2.039,4.624-1.869l1.404,2.611c2.307,4.291,2.923,9.164,2.638,14.028
				c-0.112,1.917,1.622,3.248,2.807,3.948l0.541-2.929l7.205-0.549c0,0,1.128-5.454,1.299-7.875c0,0-3.596-8.627-4.077-12.404
				c0,0-2.536-2.386-5.444-2.798C339.124,86.508,336.477,88.225,336.477,88.225z"/>
			<g>
				<path style="fill:#263238;" d="M343.946,113.679c0.167-1.453,0.397-2.892,0.617-4.332c0.223-1.435,0.496-2.878,0.669-4.297
					l0.008,0.085c-0.503-1.891-0.971-3.792-1.353-5.717c0.675,1.843,1.263,3.71,1.817,5.587l0.012,0.043l-0.004,0.043
					c-0.152,1.479-0.435,2.9-0.726,4.333C344.673,110.851,344.35,112.273,343.946,113.679z"/>
			</g>
			<g>
				<path style="fill:#263238;" d="M346.156,98.649c0.764,1.821,1.396,3.683,1.995,5.555l0.017,0.052l-0.008,0.056
					c-0.146,1.046-0.302,2.091-0.49,3.132c-0.189,1.04-0.382,2.08-0.635,3.111c0.04-1.061,0.14-2.114,0.245-3.166
					c0.105-1.052,0.242-2.1,0.39-3.146l0.009,0.108C347.104,102.472,346.564,100.581,346.156,98.649z"/>
			</g>
			<g>
				<path style="fill:#263238;" d="M349.37,110.378c0.094-1.132,0.249-2.254,0.407-3.374c0.161-1.12,0.351-2.235,0.555-3.347
					l0.007,0.116c-0.577-1.944-1.12-3.899-1.534-5.892c0.766,1.887,1.404,3.812,2.008,5.748l0.017,0.056l-0.011,0.06
					c-0.198,1.113-0.41,2.224-0.65,3.33C349.925,108.179,349.679,109.284,349.37,110.378z"/>
			</g>
			<path style="fill:#3E2723;" d="M261.226,67.547c0,0-11.551-7.87-23.356,4.824c-11.805,12.693-8.949,29.893-4.951,35.605
				c3.998,5.712,9.711,8.378,9.711,8.378s-21.896,2.666-25.704,28.37c-3.808,25.704,1.638,33.701,1.638,33.701
				s4.455-7.045,11.309-10.853c6.854-3.808,2.666-18.279,5.141-22.848c2.475-4.57,15.232-17.898,14.09-23.991l29.283-12.751
				c0,0-9.482-3.052-13.099-5.908l6.791-9.52l-6.029-12.186L261.226,67.547z"/>
			<path style="fill:#F2AEC9;" d="M239.46,114.436L239.46,114.436c1.83,1.288,3.169,1.917,3.169,1.917s5.902-0.571,6.474,4.379
				l4.009-1.779C253.112,118.954,250.381,110.995,239.46,114.436z"/>
			<path style="fill:#FCC2C2;" d="M261.226,67.547c0,0,9.901,12.44,15.486,12.693h5.585l-3.046,6.347c0,0,6.601,4.57,6.981,8.885
				c0.381,4.316-4.062,10.091-4.062,10.091s-9.076,9.044-16.882-3.491c0,0-5.839,4.189-10.789-1.142
				c-4.951-5.331,4.95-8.758,4.95-8.758s2.793,2.285,3.681,4.824c0,0,0.381-8.529-3.173-13.15
				C259.956,83.845,263.257,75.036,261.226,67.547z"/>
			<g>
				<path d="M214.922,198.139c0.829,1.284,1.493,2.655,2.087,4.055c0.284,0.706,0.557,1.418,0.77,2.152
					c0.208,0.732,0.409,1.486,0.404,2.256c-0.201-0.736-0.486-1.429-0.767-2.129l-0.869-2.089
					C215.976,200.988,215.399,199.59,214.922,198.139z"/>
			</g>
			<g>
				<path d="M213.063,202.534c0.427,0.551,0.786,1.144,1.127,1.748c0.346,0.601,0.637,1.232,0.91,1.871
					c0.263,0.643,0.497,1.302,0.65,1.985c0.153,0.678,0.274,1.388,0.16,2.083c-0.095-0.688-0.306-1.334-0.53-1.976
					c-0.234-0.638-0.474-1.274-0.743-1.902C214.124,205.078,213.56,203.832,213.063,202.534z"/>
			</g>
			<g>
				<path style="fill:#FFFFFF;" d="M306.19,164.417c2.252-0.402,4.463-0.817,6.664-1.314c2.206-0.479,4.373-1.072,6.597-1.625
					c-2.008,1.107-4.201,1.851-6.434,2.357C310.78,164.316,308.48,164.604,306.19,164.417z"/>
			</g>
			<g>
				<path style="fill:#FFFFFF;" d="M322.408,201.145c-1.502,0.182-3.001,0.343-4.495,0.555c-1.496,0.181-2.991,0.374-4.48,0.601
					c-2.978,0.445-5.953,0.894-8.898,1.487c-2.947,0.571-5.883,1.216-8.761,2.056c-0.729,0.183-1.439,0.42-2.149,0.661
					c-0.709,0.242-1.433,0.454-2.118,0.755c-0.694,0.281-1.412,0.52-2.092,0.838c-0.671,0.335-1.351,0.66-2.04,0.98
					c2.477-1.757,5.307-2.959,8.167-3.968c2.866-1.026,5.833-1.706,8.804-2.304c2.978-0.574,5.981-1,8.997-1.266
					C316.358,201.27,319.381,201.085,322.408,201.145z"/>
			</g>
			<g>
				<path style="fill:#FFFFFF;" d="M321.392,197.954c-2.052-0.323-4.105-0.512-6.155-0.669c-2.051-0.138-4.103-0.238-6.155-0.214
					c-2.051,0-4.104,0.072-6.153,0.238c-2.053,0.14-4.095,0.401-6.162,0.645c1.979-0.623,4.008-1.147,6.076-1.42
					c2.062-0.327,4.152-0.444,6.238-0.462c2.088-0.004,4.176,0.14,6.24,0.44C317.384,196.803,319.432,197.254,321.392,197.954z"/>
			</g>
			<g>
				<path style="fill:#FFFFFF;" d="M319.148,231.233c-0.858-0.399-1.729-0.756-2.618-1.053c-0.892-0.286-1.781-0.561-2.689-0.747
					c-0.909-0.181-1.826-0.269-2.733-0.29c-0.909-0.006-1.802,0.117-2.66,0.342l0.322-0.296c-0.905,2.646-1.656,5.377-2.313,8.113
					c-0.681,2.738-1.176,5.514-1.565,8.333c-0.039-1.421-0.009-2.852,0.132-4.271c0.148-1.418,0.324-2.838,0.59-4.24
					c0.528-2.81,1.274-5.563,2.254-8.268l0.087-0.239l0.235-0.058c0.973-0.239,1.967-0.316,2.947-0.275
					c0.978,0.067,1.932,0.258,2.86,0.512c0.922,0.275,1.827,0.592,2.684,1.016C317.536,230.23,318.377,230.679,319.148,231.233z"/>
			</g>
			<g>
				<path style="fill:#FFFFFF;" d="M277.787,445.304c1.804-0.612,3.678-0.999,5.563-1.282c1.886-0.295,3.796-0.415,5.706-0.437
					c1.91-0.014,3.824,0.099,5.712,0.392c1.894,0.25,3.751,0.73,5.554,1.327c-0.948-0.119-1.865-0.351-2.81-0.434l-1.402-0.193
					l-1.409-0.126c-1.877-0.155-3.758-0.246-5.64-0.215c-1.882,0.003-3.764,0.102-5.644,0.258
					C281.537,444.754,279.662,444.993,277.787,445.304z"/>
			</g>
			<path style="fill:none;stroke:#263238;stroke-width:0.5;stroke-linecap:round;stroke-miterlimit:10;" d="M293.277,73.703
				c0,0,4.094-2.761,5.188,1.999"/>
			<path style="fill:none;stroke:#263238;stroke-width:0.5;stroke-linecap:round;stroke-miterlimit:10;" d="M297.28,67.241
				c1.639-0.666,3.604-0.46,5.07,0.53c1.466,0.99,2.391,2.736,2.386,4.505"/>
			<g>
				<path style="fill:#263238;" d="M288.66,86.457c1.943,0.011,3.868,0.02,5.78-0.133c1.91-0.149,3.812-0.416,5.595-1.197
					c-0.789,0.579-1.72,0.942-2.662,1.211c-0.945,0.279-1.923,0.396-2.895,0.484c-0.975,0.073-1.953,0.079-2.925,0.014
					C290.581,86.772,289.611,86.67,288.66,86.457z"/>
			</g>
			<path style="fill:none;stroke:#263238;stroke-width:0.5;stroke-linecap:round;stroke-miterlimit:10;" d="M318.058,75.981
				c0,0-2.914,1.689-3.012,5.179"/>
			<path style="fill:none;stroke:#263238;stroke-width:0.5;stroke-linecap:round;stroke-miterlimit:10;" d="M267.213,82.852
				c0.148-1.034,0.825-1.977,1.757-2.447c0.932-0.47,2.094-0.455,3.013,0.041"/>
			<path style="fill:none;stroke:#263238;stroke-width:0.5;stroke-linecap:round;stroke-miterlimit:10;" d="M264.64,79.393
				c-0.963,0.048-1.868,0.706-2.21,1.607c-0.342,0.901-0.101,1.995,0.588,2.669"/>
			<g>
				<path style="fill:#263238;" d="M281.21,88.133c-0.037,0.709-0.284,1.393-0.587,2.035c-0.303,0.647-0.714,1.236-1.162,1.788
					c-0.462,0.542-0.972,1.04-1.533,1.472c-0.277,0.219-0.576,0.411-0.862,0.615c-0.308,0.175-0.61,0.354-0.926,0.51
					c0.517-0.482,1.044-0.929,1.535-1.414c0.487-0.488,0.967-0.976,1.403-1.503c0.44-0.523,0.84-1.075,1.209-1.651
					C280.647,89.402,280.971,88.793,281.21,88.133z"/>
			</g>
		</g>
		<g>
			<defs>
				<path id="SVGID_1_" d="M437.936,325.923c-2.173,26.638-9.643,52.835-21.282,77.02c-5.688,11.834-12.377,23.192-19.932,33.871
					c-0.424,0.611-0.857,1.214-1.29,1.817c-0.382,0.535-0.773,1.061-1.163,1.596H107.843
					C70.008,391.78,51.256,321.636,67.436,262.332c2.895-10.577,6.757-21.112,13.48-29.788c6.715-8.676,16.647-15.348,27.598-16.078
					c11.146-0.739,21.851,4.635,30.739,11.409c17.224,13.115,27.937,33.166,33.413,54.117
					c-0.153-47.334,12.266-94.643,35.662-135.798c14.618-25.713,34.847-50.059,62.623-60.221
					c26.087-9.542,56.961-4.652,78.828,12.487c26.494,20.772,37.827,56.375,37.25,90.042c-0.586,33.659-8.183,68.226-18.93,100.127
					c7.411-11.307,21.239-18.082,34.728-17.003c13.48,1.078,26.061,9.958,31.579,22.309
					C438.827,303.834,438.819,315.116,437.936,325.923z"/>
			</defs>
			<clipPath id="SVGID_00000112614377996829451120000014086950224389824152_">
				<use xlink:href="#SVGID_1_"  style="overflow:visible;"/>
			</clipPath>
			<g style="clip-path:url(#SVGID_00000112614377996829451120000014086950224389824152_);">
				<path style="fill:#865BE3;" d="M408.986,433.577c0,0-27.83-63.118-80.097-75.502
					C328.889,358.075,353.994,420.794,408.986,433.577z"/>
				<g>
					<path style="fill:#FFFFFF;" d="M408.986,433.577c-5.598-5.127-11.116-10.338-16.617-15.565
						c-5.503-5.226-10.941-10.519-16.405-15.786c-5.409-5.323-10.841-10.623-16.199-15.998c-5.344-5.388-10.725-10.747-15.83-16.368
						c2.686,2.681,5.43,5.301,8.17,7.925l8.199,7.894l16.357,15.832l16.241,15.952C398.292,422.804,403.675,428.154,408.986,433.577
						z"/>
				</g>
				<path style="fill:#7446D9;" d="M84.732,443.917c0,0,34.342-59.824,13.338-109.262C98.07,334.655,62.434,392.048,84.732,443.917z
					"/>
				<g>
					<path style="fill:#FFFFFF;" d="M84.732,443.917c0.811-7.548,1.738-15.08,2.688-22.609c0.947-7.53,1.988-15.047,2.991-22.569
						c1.082-7.511,2.131-15.028,3.284-22.529c1.173-7.497,2.299-15.007,3.801-22.451c-0.568,3.752-1.051,7.515-1.541,11.278
						l-1.498,11.283L91.4,398.876l-3.222,22.535C87.07,428.919,85.952,436.424,84.732,443.917z"/>
				</g>
				<path style="fill:#E04E69;" d="M395.432,438.63c-0.382,0.535-0.773,1.061-1.163,1.596h-28.608
					c-0.679-0.229-1.409-0.34-2.114-0.348c-1.044-0.008-2.08,0.161-3.115,0.348c-1.019,0.187-2.02,0.374-3.048,0.433
					c-0.993,0.051-2.046-0.076-2.98-0.433c-1.01-0.382-1.876-1.027-2.351-2.003c-1.8-3.718,3.497-8.362,1.307-11.868
					c-0.951-1.528-3.005-2.012-4.779-1.732c-1.774,0.289-3.387,1.18-5.051,1.868c-2.08,0.866-4.38,1.418-6.604,0.993
					c-2.216-0.424-4.312-2.003-4.839-4.202c-0.543-2.275,0.62-4.55,1.409-6.749c2.665-7.368-6.392-11.333-4.287-19.049
					c1.121-4.083,5.246-7.301,9.448-6.834c5.238,0.577,9.092,6.138,14.355,6.129c2.088-0.009,4.058-0.908,6.104-1.307
					c2.046-0.391,4.516-0.093,5.654,1.655c2.233,3.413-2.657,7.895-1.299,11.732c0.806,2.275,3.514,3.285,5.925,3.319
					c2.419,0.034,4.83-0.603,7.224-0.323c2.394,0.289,4.932,1.952,5,4.363c0.077,2.623-2.776,4.881-2.148,7.436
					c0.374,1.536,1.944,2.521,3.506,2.767c1.562,0.246,3.141-0.085,4.703-0.289c2.156-0.28,4.423-0.314,6.435,0.509
					c2.012,0.823,3.727,2.666,3.863,4.839C398.14,434.029,396.238,436.194,395.432,438.63z"/>
				<path style="fill:#865BE3;" d="M411.646,423.32c0,0-18.496-57.095-13.658-104.394
					C397.988,318.926,421.234,359.333,411.646,423.32z"/>
				<g>
					<path style="fill:#FFFFFF;" d="M411.646,423.32c-0.909-6.853-1.734-13.713-2.557-20.573l-2.419-20.584l-2.371-20.587
						l-1.226-10.289l-0.633-5.143l-0.682-5.138c1.342,6.783,2.347,13.627,3.304,20.471c0.949,6.847,1.773,13.709,2.6,20.57
						c0.749,6.87,1.524,13.737,2.188,20.616C410.515,409.543,411.148,416.425,411.646,423.32z"/>
				</g>
				<path style="fill:#865BE3;" d="M69.061,443.917c0,0,29.561-52.231,67.681-80.647C136.742,363.27,122.688,407.717,69.061,443.917
					z"/>
				<g>
					<path style="fill:#FFFFFF;" d="M69.061,443.917c4.434-5.303,8.931-10.549,13.428-15.794l13.531-15.7l13.566-15.666l6.752-7.859
						l3.361-3.943l3.324-3.977c-4.091,5.575-8.453,10.943-12.849,16.275c-4.403,5.328-8.902,10.576-13.398,15.824
						c-4.556,5.197-9.091,10.411-13.711,15.551C78.447,433.769,73.804,438.888,69.061,443.917z"/>
				</g>
				<path style="fill:#F96B85;" d="M416.654,402.943c-5.688,11.834-12.377,23.192-19.932,33.871
					c-0.153-0.28-0.323-0.552-0.501-0.815c-4.211-6.146-14.491-6.494-17.377-13.362c-3.243-7.716,5.883-16.528,2.827-24.321
					c-1.401-3.582-5.025-5.755-8.591-7.19c-3.565-1.443-7.402-2.47-10.391-4.89s-4.839-6.842-2.937-10.178
					c2.003-3.506,6.766-4.728,7.759-8.973c1.061-4.525-2.131-8.99-0.789-13.752c1.121-3.973,4.856-7.385,8.973-7.097
					c7.131,0.492,9.677,10.034,15.883,13.565c4.771,2.708,11.732,1.859,14.805,6.401c2.216,3.277,1.138,7.691-0.272,11.392
					c-1.401,3.693-3.073,7.725-1.791,11.46c2.037,5.934,10.365,7.852,12.309,13.811
					C416.637,402.892,416.646,402.917,416.654,402.943z"/>
				<g>
					<path style="fill:#FFFFFF;" d="M378.689,361.471l7.455,17.011c2.485,5.668,4.913,11.361,7.449,17.005
						c2.466,5.675,4.99,11.324,7.548,16.957c1.271,2.82,2.554,5.636,3.878,8.432c1.276,2.82,2.647,5.593,3.967,8.396
						c-3.056-5.389-5.837-10.929-8.541-16.502c-2.706-5.573-5.226-11.232-7.766-16.881c-2.462-5.683-4.905-11.374-7.241-17.109
						C383.107,373.043,380.819,367.288,378.689,361.471z"/>
				</g>
				<g>
					<path style="fill:#FFFFFF;" d="M342.936,402.418c4.128,3.252,8.169,6.608,12.191,9.986c4.023,3.377,7.976,6.835,11.945,10.276
						c3.915,3.501,7.848,6.984,11.692,10.566c3.842,3.583,7.658,7.198,11.311,10.977l-23.663-20.793l-11.786-10.447l-5.869-5.253
						L342.936,402.418z"/>
				</g>
				<g>
					<polygon style="fill:#FFFFFF;" points="383.374,373.996 385.68,360.073 384.366,374.124 					"/>
				</g>
				<g>
					<polygon style="fill:#FFFFFF;" points="386.145,380.434 373.895,374.06 386.575,379.53 					"/>
				</g>
				<g>
					<polygon style="fill:#FFFFFF;" points="390.813,391.445 393.838,374.06 391.803,391.588 					"/>
				</g>
				<g>
					<polygon style="fill:#FFFFFF;" points="395.248,401.431 383.87,394.743 395.721,400.55 					"/>
				</g>
				<g>
					<polygon style="fill:#FFFFFF;" points="399.216,410.222 401.759,395.826 400.207,410.362 					"/>
				</g>
				<g>
					<polygon style="fill:#FFFFFF;" points="403.282,418.673 387.818,413.06 403.595,417.723 					"/>
				</g>
				<g>
					<polygon style="fill:#FFFFFF;" points="352.44,411.161 348.928,400.021 353.38,410.819 					"/>
				</g>
				<g>
					<polygon style="fill:#FFFFFF;" points="357.604,415.56 343.934,415.06 357.604,414.56 					"/>
				</g>
				<g>
					<polygon style="fill:#FFFFFF;" points="363.258,420.58 359.914,410.292 364.193,420.227 					"/>
				</g>
				<g>
					<polygon style="fill:#FFFFFF;" points="368.967,425.489 357.604,425.647 368.909,424.491 					"/>
				</g>
				<g>
					<polygon style="fill:#FFFFFF;" points="373.402,429.471 372.098,418.198 374.389,429.312 					"/>
				</g>
				<g>
					<polygon style="fill:#FFFFFF;" points="380.128,435.495 364.508,434.995 380.128,434.495 					"/>
				</g>
				<g>
					<polygon style="fill:#FFFFFF;" points="383.383,438.526 380.91,425.647 384.357,438.3 					"/>
				</g>
				<path style="fill:#F96B85;" d="M58.672,412.171c5.112-5.367,12.456-8.538,19.868-8.577c7.412-0.039,14.79,3.054,19.958,8.366
					c3.2,3.289,5.526,7.314,8.382,10.906c2.856,3.592,6.498,6.887,10.993,7.809c7.877,1.617,16.253-4.384,23.759-1.5
					c7.729,2.97,10.369,13.918,18.347,16.136c6.059,1.684,12.043-2.521,18.217-3.719c9.777-1.898,20.417,5.11,22.534,14.843H58.672
					V412.171z"/>
			</g>
		</g>
	</g>
</g>
</svg>
