<svg  width="100%" height="100%" viewBox="0 0 404 398" fill="none" xmlns="http://www.w3.org/100%0/svg">
<g id="icon-completo-profile" clip-path="url(#clip0_1195_1543)">
<rect width="404" height="398" fill="white"/>
<g id="Background_Simple">
<path id="Vector" d="M382.536 92.998C411.128 149.968 402.084 221.879 366.349 274.662C330.614 327.445 271.162 361.619 208.647 374.063C164.021 382.946 116.013 381.137 75.238 360.944C34.463 340.751 2.39997 300.125 -0.0450283 254.689C-0.969028 237.527 2.67097 219.304 14.124 206.49C32.411 186.029 63.629 185.308 91.058 186.153C118.487 186.997 149.685 186.357 168.061 165.976C182.181 150.316 184.26 127.6 191.7 107.87C204.351 74.323 234.874 48.129 269.952 40.715C274.824 39.685 279.762 39.022 284.722 38.713C323.303 36.304 359.896 56.157 380.135 89.092L382.536 92.998Z" fill="#EBEBEB"/>
</g>
<g id="plants">
<g id="Group">
<g id="Group_2">
<g id="Group_3">
<path id="Vector_2" d="M280.599 359.651C263.667 343.163 263.388 317.659 267.794 295.496C268.529 291.797 268.762 287.808 271.066 284.833C273.371 281.86 277.865 280.304 280.939 282.418C283.489 284.171 284.167 287.582 285.277 290.492C286.754 294.365 289.339 297.793 292.638 300.254C294.806 301.871 297.614 303.103 300.163 302.196C303.662 300.951 304.766 296.579 305.349 292.875C306.435 285.971 307.521 279.068 308.607 272.166C309.19 268.462 309.797 264.683 311.523 261.359C313.249 258.036 316.326 255.19 320.007 254.78C323.689 254.371 327.709 257.113 327.859 260.856C327.922 262.414 327.359 263.928 327.21 265.48C327.061 267.033 327.499 268.85 328.887 269.516C330.293 270.192 331.945 269.385 333.228 268.483C337.659 265.372 341.038 260.984 344.244 256.595C347.45 252.205 350.603 247.69 354.735 244.183C358.867 240.675 364.189 238.231 369.537 238.799C374.886 239.367 379.996 243.562 380.483 248.983C380.972 254.419 377.062 259.214 373.059 262.894C367.12 268.355 360.401 272.943 353.179 276.47C351.877 277.107 350.466 277.794 349.796 279.092C348.588 281.427 350.525 284.26 352.827 285.469C355.435 286.839 358.474 287.043 361.304 287.855C364.133 288.667 367.05 290.451 367.695 293.357C368.591 297.387 364.779 300.833 361.242 302.92C354.159 307.099 346.37 310.041 338.324 311.579C335.439 312.129 332.432 312.534 329.924 314.087C327.416 315.641 325.547 318.749 326.446 321.572C327.346 324.399 330.613 325.79 333.551 325.727C336.487 325.666 339.294 324.535 342.178 323.955C347.577 322.868 354.086 324.294 356.624 329.222C358.292 332.461 357.822 336.514 356.175 339.78C354.529 343.046 351.848 345.653 349.069 348.006C339.354 356.233 327.661 362.223 315.195 364.381C302.73 366.54 291.619 365.858 280.599 359.651Z" fill="#E8505B"/>
</g>
</g>
<g id="Group_4">
<g id="Group_5">
<g id="Group_6">
<path id="Vector_3" d="M277.601 376.126C279.854 367.429 283.497 357.319 288.639 346.621C293.761 335.911 300.348 324.636 307.644 313.08C309.478 310.198 311.291 307.35 313.077 304.544C314.867 301.747 316.641 298.972 318.545 296.366C322.33 291.136 326.368 286.396 330.341 282.017C334.314 277.634 338.244 273.62 341.945 269.893C345.657 266.173 349.181 262.771 352.526 259.807C359.2 253.852 365.14 249.696 369.334 247.009C371.429 245.658 373.089 244.664 374.223 244.005C374.768 243.693 375.195 243.448 375.517 243.264C375.81 243.101 375.964 243.022 375.969 243.033C375.976 243.044 375.834 243.143 375.552 243.326C375.239 243.525 374.822 243.789 374.293 244.126C373.184 244.824 371.548 245.854 369.477 247.237C365.334 249.991 359.46 254.194 352.847 260.177C349.532 263.156 346.036 266.57 342.348 270.303C338.666 274.045 334.758 278.067 330.807 282.45C326.857 286.831 322.846 291.562 319.089 296.769C317.2 299.364 315.444 302.115 313.651 304.921C311.866 307.726 310.056 310.573 308.223 313.454C300.934 325.001 294.346 336.238 289.207 346.901C284.051 357.551 280.375 367.602 278.07 376.252" fill="#263238"/>
</g>
</g>
</g>
<g id="Group_7">
<g id="Group_8">
<g id="Group_9">
<path id="Vector_4" d="M318.744 296.372C318.697 296.372 318.663 295.789 318.641 294.734C318.614 293.68 318.625 292.154 318.667 290.268C318.747 286.498 319.035 281.296 319.375 275.562C319.715 269.825 319.928 264.634 319.951 260.873C319.967 258.993 319.966 257.471 319.951 256.419C319.942 255.366 319.96 254.782 320.007 254.779C320.055 254.776 320.127 255.355 320.218 256.406C320.316 257.456 320.392 258.982 320.437 260.867C320.54 264.64 320.403 269.856 320.063 275.599C319.714 281.257 319.397 286.375 319.155 290.286C319.057 292.053 318.976 293.543 318.91 294.738C318.848 295.79 318.793 296.373 318.744 296.372Z" fill="#263238"/>
</g>
</g>
</g>
<g id="Group_10">
<g id="Group_11">
<g id="Group_12">
<path id="Vector_5" d="M367.771 295.271C367.764 295.318 367.075 295.286 365.836 295.188C364.598 295.097 362.806 294.955 360.588 294.851C356.154 294.608 350.017 294.487 343.241 294.649C336.463 294.824 330.335 295.243 325.913 295.674C323.699 295.874 321.912 296.084 320.676 296.221C319.44 296.364 318.753 296.42 318.745 296.373C318.738 296.325 319.412 296.178 320.639 295.952C321.866 295.732 323.649 295.447 325.863 295.183C330.286 294.625 336.429 294.127 343.228 293.951C350.024 293.789 356.183 293.988 360.622 294.359C362.843 294.527 364.634 294.743 365.867 294.919C367.099 295.1 367.776 295.222 367.771 295.271Z" fill="#263238"/>
</g>
</g>
</g>
<g id="Group_13">
<g id="Group_14">
<g id="Group_15">
<path id="Vector_6" d="M289.367 345.842C289.344 345.848 289.265 345.63 289.136 345.209C288.992 344.708 288.817 344.096 288.604 343.355C288.149 341.743 287.553 339.393 286.853 336.48C285.45 330.654 283.766 322.547 282.028 313.575C280.288 304.599 278.682 296.487 277.402 290.641C276.772 287.798 276.252 285.459 275.867 283.72C275.704 282.966 275.57 282.345 275.46 281.834C275.374 281.402 275.34 281.171 275.364 281.164C275.387 281.159 275.466 281.377 275.595 281.799C275.739 282.3 275.914 282.911 276.127 283.652C276.582 285.264 277.179 287.614 277.878 290.527C279.281 296.352 280.965 304.46 282.704 313.436C284.443 322.409 286.05 330.521 287.329 336.368C287.961 339.21 288.479 341.55 288.864 343.287C289.027 344.041 289.161 344.664 289.271 345.173C289.357 345.606 289.391 345.836 289.367 345.842Z" fill="#263238"/>
</g>
</g>
</g>
<g id="Group_16">
<g id="Group_17">
<g id="Group_18">
<path id="Vector_7" d="M355.918 335.818C355.92 335.842 355.689 335.895 355.248 335.974C354.726 336.059 354.087 336.162 353.311 336.289C351.525 336.561 349.115 336.929 346.182 337.374C340.163 338.292 331.865 339.655 322.697 341.174C313.526 342.695 305.207 343.982 299.167 344.775C296.147 345.173 293.701 345.47 292.006 345.64C291.223 345.714 290.578 345.775 290.053 345.825C289.606 345.86 289.369 345.866 289.367 345.842C289.365 345.818 289.596 345.765 290.037 345.685C290.557 345.601 291.197 345.497 291.973 345.371C293.759 345.099 296.168 344.732 299.1 344.285C305.119 343.368 313.419 342.004 322.589 340.485C331.757 338.965 340.075 337.678 346.115 336.884C349.135 336.486 351.581 336.189 353.277 336.019C354.06 335.945 354.704 335.883 355.23 335.834C355.678 335.8 355.914 335.794 355.918 335.818Z" fill="#263238"/>
</g>
</g>
</g>
</g>
<g id="Group_19">
<path id="Vector_8" d="M112.377 134.79C109.286 132.393 107.904 128.148 108.55 124.29C109.196 120.432 111.686 117.017 114.913 114.805C116.405 113.782 118.253 112.971 119.989 113.482C121.611 113.959 122.741 115.537 123.069 117.195C123.397 118.854 123.043 120.576 122.49 122.174C120.592 127.654 117.751 132.609 112.377 134.79Z" fill="#455A64"/>
<path id="Vector_9" d="M107.306 144.151C101.213 138.593 92.327 136.267 84.292 138.127C82.246 138.601 79.943 139.682 79.606 141.755C79.269 143.832 81.123 145.592 82.943 146.647C90.515 151.037 100.773 150.212 107.546 144.667" fill="#455A64"/>
<path id="Vector_10" d="M77.95 100.813C81.327 99.887 85.029 100.72 88.018 102.545C91.007 104.37 93.345 107.108 95.218 110.067C98.842 115.792 100.118 123.486 100.279 130.259C92.76 129.955 86.336 124.046 83.265 120.843C78.412 115.782 72.713 103.687 77.95 100.813Z" fill="#455A64"/>
<g id="Group_20">
<path id="Vector_11" d="M118.678 154.379C118.237 153.579 117.519 153.014 116.802 151.545C115.391 148.611 113.489 144.439 112.567 139.473C111.649 134.499 112.271 129.806 113.506 126.739C114.108 125.198 114.782 124.033 115.325 123.288C115.863 122.54 116.22 122.175 116.254 122.202C116.384 122.286 115.054 123.864 114.011 126.921C112.94 129.948 112.422 134.491 113.314 139.337C114.212 144.185 116.006 148.34 117.289 151.32" fill="#263238"/>
</g>
<g id="Group_21">
<path id="Vector_12" d="M118.748 154.47C117.742 153.172 116.423 151.472 114.833 149.421C111.538 145.15 106.972 139.261 101.843 132.823C96.7139 126.389 91.9939 120.624 88.5659 116.459C86.9209 114.451 85.5579 112.786 84.5179 111.515C83.5689 110.341 83.0629 109.676 83.1029 109.641C83.1429 109.607 83.7239 110.207 84.7419 111.322C85.7619 112.436 87.2089 114.072 88.9759 116.112C92.5109 120.192 97.3019 125.908 102.437 132.349C107.571 138.794 112.074 144.741 115.262 149.097C116.856 151.275 118.128 153.051 118.986 154.294" fill="#263238"/>
</g>
<g id="Group_22">
<path id="Vector_13" d="M88.9869 142.576C88.9749 142.525 89.4379 142.386 90.2909 142.177C90.7159 142.064 91.2419 141.948 91.8619 141.877C92.4809 141.798 93.1839 141.666 93.9719 141.651C95.5429 141.528 97.4269 141.594 99.4949 141.861C101.556 142.172 103.798 142.71 106.05 143.57C108.292 144.459 110.309 145.576 112.038 146.74C113.744 147.941 115.177 149.166 116.252 150.318C116.822 150.861 117.252 151.434 117.654 151.91C118.063 152.382 118.372 152.822 118.609 153.193C119.097 153.924 119.028 154.266 118.985 154.295C118.865 154.382 118.099 152.843 115.873 150.698C114.771 149.616 113.334 148.462 111.647 147.32C109.936 146.215 107.961 145.145 105.774 144.277C103.577 143.439 101.398 142.894 99.3899 142.552C97.3759 142.254 95.5359 142.134 93.9929 142.187C90.9039 142.264 89.0169 142.721 88.9869 142.576Z" fill="#263238"/>
</g>
</g>
</g>
<g id="Device">
<g id="Group_23">
<g id="Group_24">
<g id="Group_25">
<g id="Group_26">
<g id="Group_27">
<path id="Vector_14" d="M256.744 397.735L141.244 397.201C127.353 397.138 116.142 385.827 116.201 371.936L117.425 82.374C117.484 68.475 128.801 57.256 142.701 57.32L258.202 57.854C272.093 57.918 283.304 69.229 283.245 83.12L282.021 372.683C281.961 386.581 270.643 397.799 256.744 397.735Z" fill="#263238"/>
</g>
<g id="Group_28">
<path id="Vector_15" d="M258.036 67.847L235.643 67.744C232.64 67.731 230.194 70.265 230.182 73.403L230.164 77.465C230.152 80.605 227.706 83.139 224.703 83.125L181.053 82.923C178.05 82.909 175.626 80.353 175.639 77.213L175.656 73.151C175.669 70.012 173.245 67.455 170.242 67.441L162.366 67.404L142.766 67.314C133.032 67.269 125.106 75.126 125.064 84.86L123.869 367.494C123.828 377.224 131.679 385.145 141.408 385.19L256.678 385.722C266.411 385.767 274.338 377.911 274.379 368.176L275.574 85.541C275.615 75.813 267.765 67.892 258.036 67.847Z" fill="white"/>
</g>
</g>
</g>
<g id="Group_29">
<path id="Vector_16" d="M192.8 358.663C192.795 359.791 191.726 360.701 190.413 360.695C189.1 360.688 188.039 359.769 188.043 358.64C188.048 357.512 189.117 356.601 190.43 356.608C191.743 356.614 192.804 357.534 192.8 358.663Z" fill="#455A64"/>
</g>
<g id="Group_30">
<path id="Vector_17" d="M200.169 358.697C200.164 359.825 199.096 360.735 197.782 360.729C196.469 360.723 195.408 359.803 195.412 358.674C195.417 357.546 196.486 356.636 197.799 356.642C199.112 356.648 200.174 357.567 200.169 358.697Z" fill="#455A64"/>
</g>
<g id="Group_31">
<path id="Vector_18" d="M207.539 358.73C207.535 359.858 206.466 360.769 205.152 360.762C203.839 360.756 202.778 359.837 202.782 358.708C202.787 357.58 203.856 356.67 205.169 356.676C206.482 356.681 207.544 357.601 207.539 358.73Z" fill="#455A64"/>
</g>
</g>
</g>
<path id="Vector_19" d="M159.517 204.1C161.395 204.368 274.702 226.591 274.702 226.591V204.1H159.517Z" fill="#EBEBEB"/>
<path id="Vector_20" d="M123.869 346.895C123.869 346.895 247.125 329.457 246.052 329.994C244.979 330.531 123.869 329.994 123.869 329.994V346.895Z" fill="#EBEBEB"/>
<g id="Group_32">
<path id="Vector_21" d="M267.009 16.905C267.153 16.905 267.269 23.137 267.269 30.822C267.269 38.51 267.152 44.74 267.009 44.74C266.866 44.74 266.749 38.51 266.749 30.822C266.748 23.137 266.865 16.905 267.009 16.905Z" fill="#263238"/>
</g>
<g id="Group_33">
<path id="Vector_22" d="M316.33 48.935C316.388 49.067 310.734 51.689 303.703 54.792C296.67 57.896 290.923 60.305 290.865 60.173C290.807 60.041 296.46 57.419 303.493 54.315C310.524 51.213 316.272 48.804 316.33 48.935Z" fill="#263238"/>
</g>
<g id="Group_34">
<path id="Vector_23" d="M315.084 0.363022C315.099 0.372022 315.007 0.556023 314.816 0.896023C314.592 1.28202 314.309 1.77002 313.961 2.37102C313.214 3.64902 312.096 5.47602 310.699 7.72402C307.899 12.217 303.869 18.322 299.305 24.981C294.74 31.642 290.666 37.707 287.789 42.146C286.382 44.324 285.23 46.107 284.389 47.407C284.007 47.986 283.697 48.457 283.451 48.83C283.232 49.152 283.109 49.317 283.094 49.308C283.079 49.299 283.171 49.115 283.362 48.775C283.586 48.389 283.869 47.901 284.217 47.3C284.964 46.022 286.082 44.195 287.479 41.947C290.279 37.454 294.31 31.348 298.875 24.687C303.439 18.028 307.512 11.964 310.389 7.52502C311.796 5.34702 312.948 3.56402 313.789 2.26302C314.171 1.68402 314.481 1.21302 314.727 0.840024C314.946 0.518024 315.068 0.354022 315.084 0.363022Z" fill="#263238"/>
</g>
</g>
<g id="man">
<g id="Group_35">
<path id="Vector_24" d="M382.226 119.092H156.782C151.913 119.092 147.966 123.039 147.966 127.908V197.839C147.966 202.708 151.913 206.655 156.782 206.655H173.578C174.931 213.958 176.514 223.172 176.514 223.172L191.716 206.655H382.227C387.096 206.655 391.044 202.708 391.044 197.839V127.908C391.042 123.039 387.095 119.092 382.226 119.092Z" fill="#E8505B"/>
<g id="Group_36">
<g id="Group_37">
<path id="Vector_25" d="M289.212 157.025C289.212 157.169 262.38 157.285 229.288 157.285C196.185 157.285 169.358 157.168 169.358 157.025C169.358 156.881 196.185 156.765 229.288 156.765C262.38 156.765 289.212 156.881 289.212 157.025Z" fill="#F5F5F5"/>
</g>
<g id="Group_38">
<path id="Vector_26" d="M289.212 146.276C289.212 146.42 262.38 146.536 229.288 146.536C196.185 146.536 169.358 146.419 169.358 146.276C169.358 146.132 196.185 146.016 229.288 146.016C262.38 146.015 289.212 146.132 289.212 146.276Z" fill="#F5F5F5"/>
</g>
<g id="Group_39">
<path id="Vector_27" d="M289.212 167.656C289.212 167.8 262.38 167.916 229.288 167.916C196.185 167.916 169.358 167.799 169.358 167.656C169.358 167.512 196.185 167.396 229.288 167.396C262.38 167.396 289.212 167.512 289.212 167.656Z" fill="#F5F5F5"/>
</g>
<g id="Group_40">
<path id="Vector_28" d="M247.865 178.668C247.865 178.812 230.289 178.928 208.614 178.928C186.931 178.928 169.359 178.811 169.359 178.668C169.359 178.525 186.931 178.408 208.614 178.408C230.289 178.408 247.865 178.525 247.865 178.668Z" fill="#F5F5F5"/>
</g>
</g>
</g>
<g id="Character_2">
<g id="Group_41">
<g id="Group_42">
<path id="Vector_29" d="M327.553 88.431C327.687 86.593 326.048 84.058 324.528 82.601C323.009 81.144 322.068 79.168 322.859 76.23C323.471 73.959 324.911 74.129 325.48 72.794C325.901 71.806 325.724 70.679 325.811 69.608C326.11 65.931 330.155 63.049 333.727 63.968C334.733 60.471 337.993 57.74 341.612 57.364C345.231 56.987 348.984 58.988 350.688 62.203C352.753 61.129 355.356 61.166 357.39 62.298C359.424 63.43 360.827 65.622 361.003 67.943C363.016 66.489 366.105 67.049 367.699 68.954C369.292 70.859 369.39 73.776 368.181 75.945C366.972 78.114 364.626 79.526 362.171 79.903C359.716 80.28 357.178 79.7 354.955 78.592C352.732 77.484 350.797 75.871 349.035 74.12" fill="#263238"/>
<path id="Vector_30" d="M343.903 203.343C367.811 203.343 387.193 184.416 387.193 161.068C387.193 137.72 367.811 118.793 343.903 118.793C319.995 118.793 300.613 137.72 300.613 161.068C300.613 184.416 319.995 203.343 343.903 203.343Z" fill="#E0E0E0"/>
<g id="Group_43">
<g id="Group_44">
<path id="Vector_31" d="M387.37 161.104L382.579 148.817L365.406 159.606L380.708 183.202C380.708 183.202 386.932 175.118 387.37 161.104Z" fill="#EB996E"/>
<g id="Group_45">
<g id="Group_46">
<g id="Group_47">
<g id="Group_48">
<g id="Group_49">
<g id="Group_50">
<g id="Group_51">
<path id="Vector_32" d="M339.961 134.501C346.132 134.511 351.224 129.717 351.529 123.608C351.783 118.52 351.996 113.621 351.996 113.621C351.996 113.621 361.443 112.936 362.314 103.701C363.185 94.4661 363.305 73.1081 363.305 73.1081C352.883 67.6381 340.293 68.1841 330.398 74.5371L329.499 75.1141L328.408 122.907C328.338 129.283 333.529 134.492 339.961 134.501Z" fill="#FFBE9D"/>
</g>
<g id="Group_52">
<g id="Group_53">
<path id="Vector_33" d="M345.382 87.3152C346.094 87.5492 346.481 88.3122 346.244 89.0172C346.008 89.7232 345.239 90.1052 344.526 89.8712C343.814 89.6372 343.428 88.8742 343.664 88.1692C343.9 87.4632 344.669 87.0812 345.382 87.3152Z" fill="#263238"/>
</g>
<g id="Group_54">
<g id="Group_55">
<path id="Vector_34" d="M347.97 87.7951C347.814 87.9471 346.939 87.1921 345.653 87.1101C344.368 87.0091 343.393 87.6311 343.261 87.4581C343.196 87.3811 343.359 87.1011 343.785 86.8181C344.203 86.5361 344.907 86.2831 345.709 86.3401C346.51 86.3971 347.171 86.7481 347.544 87.0861C347.925 87.4281 348.046 87.7291 347.97 87.7951Z" fill="#263238"/>
</g>
</g>
</g>
<g id="Group_56">
<g id="Group_57">
<path id="Vector_35" d="M359.481 87.315C360.193 87.549 360.58 88.312 360.343 89.017C360.107 89.723 359.338 90.105 358.625 89.871C357.913 89.637 357.527 88.874 357.763 88.169C357.999 87.463 358.768 87.081 359.481 87.315Z" fill="#263238"/>
</g>
<g id="Group_58">
<g id="Group_59">
<path id="Vector_36" d="M362.242 87.824C362.086 87.976 361.211 87.221 359.925 87.139C358.64 87.038 357.665 87.66 357.533 87.488C357.468 87.411 357.631 87.131 358.057 86.848C358.475 86.566 359.179 86.313 359.981 86.37C360.782 86.427 361.442 86.778 361.816 87.116C362.196 87.456 362.317 87.757 362.242 87.824Z" fill="#263238"/>
</g>
</g>
</g>
<g id="Group_60">
<g id="Group_61">
<path id="Vector_37" d="M352.539 97.81C352.538 97.71 353.346 97.614 354.652 97.541C354.991 97.532 355.261 97.478 355.3 97.301C355.377 97.104 355.276 96.738 355.137 96.328C354.875 95.459 354.61 94.58 354.333 93.659C353.231 89.86 352.496 86.736 352.69 86.681C352.885 86.626 353.935 89.66 355.038 93.459C355.296 94.385 355.543 95.27 355.787 96.144C355.879 96.539 356.076 97.008 355.857 97.543C355.742 97.811 355.461 97.988 355.234 98.028C355.006 98.077 354.816 98.062 354.655 98.056C353.348 97.997 352.539 97.91 352.539 97.81Z" fill="#263238"/>
</g>
</g>
<g id="Group_62">
<path id="Vector_38" d="M352.021 113.489C352.021 113.489 346.087 113.489 340.141 109.083C340.141 109.083 342.471 115.968 351.847 115.886L352.021 113.489Z" fill="#EB996E"/>
</g>
</g>
</g>
<g id="Group_63">
<g id="Group_64">
<path id="Vector_39" d="M329.273 88.6801C329.282 87.9331 328.706 87.2881 327.953 87.2531C326.212 87.1711 323.348 87.8011 322.987 92.5621C322.472 99.3631 329.113 97.7931 329.14 97.5991C329.161 97.4471 329.24 91.3261 329.273 88.6801Z" fill="#FFBE9D"/>
</g>
<g id="Group_65">
<g id="Group_66">
<path id="Vector_40" d="M327.678 94.8942C327.649 94.8702 327.552 94.9682 327.343 95.0452C327.139 95.1192 326.796 95.1562 326.448 94.9962C325.743 94.6782 325.219 93.4922 325.279 92.2642C325.308 91.6442 325.484 91.0642 325.742 90.5932C325.989 90.1112 326.34 89.7882 326.71 89.7512C327.079 89.6952 327.322 89.9312 327.391 90.1292C327.468 90.3262 327.415 90.4592 327.45 90.4732C327.468 90.4922 327.606 90.3702 327.572 90.0852C327.554 89.9482 327.485 89.7812 327.334 89.6392C327.179 89.4942 326.942 89.4082 326.686 89.4162C326.154 89.4132 325.641 89.8602 325.357 90.3772C325.044 90.8952 324.832 91.5452 324.799 92.2422C324.739 93.6162 325.35 94.9512 326.32 95.3092C326.793 95.4702 327.207 95.3562 327.427 95.2112C327.654 95.0572 327.701 94.9082 327.678 94.8942Z" fill="#EB996E"/>
</g>
</g>
</g>
</g>
<g id="Group_67">
<path id="Vector_41" d="M341.883 84.173C342.222 84.609 343.405 84.405 344.941 84.34C346.474 84.217 347.674 84.275 347.953 83.801C348.27 83.307 346.786 82.174 344.809 82.336C342.828 82.417 341.504 83.722 341.883 84.173Z" fill="#263238"/>
</g>
<g id="Group_68">
<path id="Vector_42" d="M356.858 83.7211C357.043 84.3151 358.17 84.4931 359.42 84.4851C360.67 84.4601 361.792 84.2521 361.963 83.6541C362.139 83.0731 361.004 82.2381 359.393 82.2611C357.783 82.2801 356.668 83.1441 356.858 83.7211Z" fill="#263238"/>
</g>
</g>
<path id="Vector_43" d="M364.617 76.0331C364.617 76.0331 359.013 78.7461 351.72 75.1061C346.934 72.7171 341.355 71.5501 340.126 72.5131C338.896 73.4751 338.636 78.4071 333.896 79.8461C333.896 79.8461 334.222 89.2551 330.47 88.9191C326.719 88.5831 329.063 74.0111 329.063 74.0111L338.24 69.5291L348.255 67.6371L357.691 68.9671L364.992 70.9661L364.617 76.0331Z" fill="#263238"/>
</g>
</g>
<g id="Group_69">
<g id="Group_70">
<path id="Vector_44" d="M301.812 130.477C311.618 120.392 328.88 121.492 328.88 121.492L343.187 131.735L351.3 122.289C351.3 122.289 359.827 123.225 367.816 127.4L368.366 127.57L368.359 127.684C374.635 131.092 383.522 139.266 391.988 147.198L381.857 156.6L370.644 166.554C370.644 166.554 370.688 166.626 370.663 166.753C370.546 167.356 372.222 181.048 373.938 191.454C363.726 201.199 350.709 205.371 336.257 202.839C331.67 202.035 329.451 200.917 325.203 199.803C318.925 198.156 314.375 192.713 313.812 186.247C313.048 177.525 312.465 166.727 312.465 166.727" fill="#455A64"/>
<g id="Group_71">
<path id="Vector_45" d="M360.272 124.048C360.306 124.037 360.524 124.61 360.888 125.657C361.255 126.703 361.754 128.227 362.344 130.119C363.525 133.902 365.029 139.171 366.451 145.05C367.87 150.933 368.936 156.307 369.612 160.213C369.951 162.166 370.202 163.749 370.353 164.848C370.507 165.946 370.574 166.555 370.539 166.561C370.504 166.567 370.368 165.969 370.153 164.882C369.923 163.71 369.618 162.159 369.25 160.281C368.482 156.398 367.361 151.045 365.945 145.173C364.526 139.304 363.08 134.03 361.991 130.224C361.462 128.385 361.025 126.865 360.695 125.717C360.39 124.654 360.238 124.059 360.272 124.048Z" fill="#263238"/>
</g>
<g id="Group_72">
<path id="Vector_46" d="M369.484 160.101C369.393 159.99 373.671 156.354 379.037 151.982C384.405 147.608 388.829 144.154 388.92 144.266C389.011 144.377 384.734 148.012 379.365 152.386C374 156.757 369.575 160.212 369.484 160.101Z" fill="#263238"/>
</g>
<path id="Vector_47" opacity="0.2" d="M314.757 144.32L305.979 173.194L309.245 174.893L312.466 166.727C312.466 166.727 315.775 149.572 314.757 144.32Z" fill="black"/>
<g id="Group_73" opacity="0.2">
<path id="Vector_48" d="M359.321 124.066C364.052 126.561 352.194 132.563 346.838 132.401L350.727 122.139C350.727 122.139 357.733 123.229 359.321 124.066Z" fill="black"/>
</g>
</g>
<path id="Vector_49" d="M327.468 122.139V114.493C327.468 114.493 342.403 118.336 342.944 127.272C342.944 127.272 344.844 117.395 352.538 116.921L353.625 130.815L344.672 138.606H335.596L328.407 132.405L327.468 122.757" fill="#455A64"/>
<g id="Group_74">
<path id="Vector_50" d="M346.306 170.132C346.27 170.13 346.263 169.544 346.28 168.487C346.302 167.431 346.321 165.902 346.326 164.014C346.339 160.238 346.221 155.021 345.747 149.281C345.267 143.54 344.522 138.374 343.886 134.652C343.567 132.86 343.303 131.377 343.102 130.248C342.911 129.209 342.821 128.63 342.856 128.622C342.891 128.614 343.047 129.178 343.3 130.206C343.557 131.233 343.884 132.729 344.248 134.586C344.978 138.3 345.783 143.476 346.265 149.238C346.74 154.998 346.801 160.236 346.693 164.019C346.641 165.911 346.565 167.441 346.481 168.496C346.402 169.552 346.341 170.134 346.306 170.132Z" fill="#263238"/>
</g>
<g id="Group_75">
<path id="Vector_51" d="M342.258 124.7C342.252 124.744 341.919 124.571 341.372 124.782C340.801 124.966 340.291 125.677 339.873 126.691C338.956 128.679 337.822 131.543 337.032 134.953L336.953 135.294L336.652 135.112C335.759 134.573 334.844 133.99 333.923 133.365C332.138 132.15 330.506 130.912 329.081 129.686C328.364 129.07 327.772 128.322 327.433 127.528C327.097 126.733 326.967 125.938 326.93 125.222C326.872 123.783 327.108 122.649 327.262 121.878C327.429 121.106 327.556 120.688 327.589 120.695C327.626 120.702 327.566 121.135 327.461 121.913C327.368 122.688 327.194 123.821 327.297 125.198C327.355 125.883 327.502 126.627 327.827 127.352C328.159 128.076 328.697 128.738 329.398 129.326C330.81 130.506 332.45 131.734 334.216 132.935C335.129 133.555 336.035 134.136 336.917 134.677L336.537 134.836C337.361 131.387 338.571 128.511 339.576 126.547C339.823 126.057 340.063 125.603 340.361 125.26C340.654 124.912 341.009 124.7 341.314 124.614C341.948 124.437 342.282 124.692 342.258 124.7Z" fill="#263238"/>
</g>
<g id="Group_76">
<path id="Vector_52" d="M352.539 116.921C352.575 116.92 352.621 117.345 352.679 118.115C352.743 118.992 352.823 120.08 352.918 121.369C353.03 122.74 353.196 124.369 353.477 126.163C353.586 127.048 353.898 128.01 353.656 129.098C353.347 130.167 352.543 130.964 351.692 131.607C350.496 132.496 349.245 133.161 348.406 134.103L348.008 134.549L347.969 133.954C347.761 130.796 346.707 128.197 345.763 126.507C344.814 124.804 344.031 123.928 344.093 123.878C344.114 123.86 344.327 124.061 344.682 124.468C345.035 124.877 345.518 125.503 346.036 126.348C347.073 128.023 348.222 130.666 348.468 133.92L348.031 133.771C348.945 132.733 350.237 132.046 351.378 131.192C352.191 130.586 352.909 129.835 353.162 128.971C353.375 128.095 353.111 127.14 353.002 126.233C352.745 124.419 352.616 122.774 352.55 121.393C352.485 120.012 352.473 118.894 352.476 118.122C352.481 117.349 352.503 116.922 352.539 116.921Z" fill="#263238"/>
</g>
</g>
</g>
<g id="Group_77">
<g id="Group_78">
<path id="Vector_53" d="M400.607 118.839C400 119.554 378.014 148.953 378.014 148.953L381.109 150.707L403.671 121.682L400.607 118.839Z" fill="#263238"/>
<path id="Vector_54" d="M312.284 142.083C312.284 142.083 335.413 175.377 336.807 176.032C339.552 177.32 371.195 149.976 374.212 147.36C374.627 146.805 375.486 145.632 377.172 143.3C377.172 143.3 379.668 131.876 382.333 132.754C384.997 133.632 380.873 138.559 382.608 142.899C384.343 147.239 392.289 136.887 392.607 135.958L394.656 133.281C394.656 133.281 396.805 139.374 396.659 141.918C396.193 150.068 388.482 159.761 388.482 159.761C388.482 159.761 353.852 202.659 330.132 203.99C323.3 204.373 311.159 184.988 303.042 170.452C298.14 161.674 300.586 150.615 308.71 144.691L312.284 142.083Z" fill="#FFBE9D"/>
<g id="Group_79">
<path id="Vector_55" d="M392.767 143.365C392.69 143.318 393.431 142.008 394.249 140.349C395.072 138.691 395.663 137.309 395.748 137.341C395.825 137.369 395.36 138.814 394.53 140.488C393.703 142.163 392.836 143.409 392.767 143.365Z" fill="#EB996E"/>
</g>
</g>
<g id="Group_80">
<path id="Vector_56" d="M308.368 125.835C308.368 125.835 283.542 134.661 302 176.409L330.659 159.112L326.582 149.35L308.368 125.835Z" fill="#455A64"/>
<g id="Group_81">
<path id="Vector_57" d="M306.466 126.557C306.466 126.557 307.549 126.378 309.455 126.808C310.395 127.05 311.525 127.466 312.711 128.182C313.898 128.893 315.13 129.893 316.328 131.149C318.737 133.66 320.986 137.165 323.071 141.224C325.171 145.283 327.131 149.906 329.14 154.764C329.742 156.219 330.335 157.653 330.897 159.012L330.986 159.227L330.782 159.338C322.49 163.858 315.27 168.091 310.167 171.259C307.614 172.84 305.58 174.139 304.184 175.042C303.517 175.47 302.983 175.813 302.576 176.075C302.207 176.307 302.009 176.422 302 176.408C301.99 176.394 302.17 176.253 302.521 175.994C302.874 175.738 303.394 175.357 304.079 174.885C305.444 173.932 307.45 172.587 309.983 170.965C315.043 167.715 322.242 163.423 330.535 158.884L330.42 159.21C329.857 157.852 329.262 156.418 328.659 154.963C326.65 150.107 324.709 145.491 322.644 141.443C320.593 137.394 318.398 133.906 316.06 131.402C314.898 130.149 313.705 129.149 312.558 128.43C311.412 127.705 310.318 127.272 309.403 127.004C307.551 126.521 306.461 126.629 306.466 126.557Z" fill="#263238"/>
</g>
</g>
</g>
</g>
<g id="Group_82">
<path id="Vector_58" d="M359.871 64.6611C359.889 64.6571 359.93 64.8061 359.994 65.0971C360.041 65.3891 360.102 65.8271 360.066 66.3931C360.011 67.5031 359.607 69.2221 358.173 70.7221C356.786 72.2251 354.149 73.1741 351.491 72.4091C350.189 72.0291 348.875 71.2361 348.07 69.9291C347.679 69.2821 347.445 68.4771 347.558 67.6711C347.666 66.8821 348.064 66.0821 348.786 65.6071C349.508 65.1181 350.456 65.1321 351.187 65.4531C351.928 65.7681 352.541 66.3721 352.828 67.1021C353.414 68.5701 352.982 70.1561 352.172 71.2581C350.449 73.5381 347.338 73.7221 345.615 72.6831C344.704 72.2651 343.901 71.8711 343.145 71.7351C342.392 71.5811 341.724 71.7121 341.234 71.9361C340.253 72.4081 339.857 72.9301 339.811 72.8731C339.798 72.8611 339.898 72.7431 340.104 72.5291C340.206 72.4211 340.331 72.2861 340.512 72.1611C340.684 72.0261 340.885 71.8711 341.148 71.7521C341.65 71.4851 342.38 71.3091 343.193 71.4471C344.009 71.5651 344.855 71.9541 345.761 72.3441C346.217 72.5291 346.694 72.7301 347.204 72.8211C347.703 72.9071 348.263 72.8971 348.815 72.7911C349.917 72.5931 351.047 71.9881 351.785 70.9721C352.508 69.9781 352.867 68.5311 352.357 67.2961C351.91 66.0891 350.229 65.2721 349.072 66.0401C348.507 66.4071 348.164 67.0701 348.072 67.7371C347.977 68.4091 348.166 69.0871 348.509 69.6651C349.213 70.8271 350.421 71.5841 351.627 71.9461C354.097 72.6821 356.578 71.8411 357.912 70.4601C359.3 69.0771 359.752 67.4451 359.865 66.3741C359.982 65.2801 359.813 64.6681 359.871 64.6611Z" fill="#455A64"/>
</g>
<g id="Group_83">
<path id="Vector_59" d="M354.464 102.371C354.475 102.434 354.157 102.566 353.607 102.589C353.061 102.615 352.287 102.493 351.531 102.114C350.776 101.732 350.218 101.182 349.913 100.728C349.605 100.272 349.521 99.938 349.579 99.91C349.71 99.831 350.376 100.97 351.765 101.649C353.138 102.361 354.45 102.218 354.464 102.371Z" fill="#263238"/>
</g>
<g id="Group_84">
<path id="Vector_60" d="M328.24 97.95C328.286 97.907 328.567 98.39 328.204 99.078C328.027 99.4 327.692 99.748 327.184 99.887C326.674 100.03 326.067 99.862 325.632 99.48C325.193 99.101 324.949 98.537 324.974 98.028C324.99 97.521 325.203 97.11 325.43 96.831C325.91 96.266 326.399 96.214 326.407 96.27C326.444 96.345 326.054 96.522 325.729 97.046C325.393 97.541 325.262 98.495 325.974 99.087C326.302 99.372 326.725 99.496 327.075 99.42C327.43 99.349 327.719 99.115 327.893 98.882C328.256 98.395 328.158 97.961 328.24 97.95Z" fill="#263238"/>
</g>
<g id="Group_85">
<path id="Vector_61" d="M361.517 68.03C361.564 68.006 361.933 68.67 361.998 69.867C362.073 71.039 361.732 72.782 360.514 74.195C359.287 75.602 357.61 76.185 356.439 76.277C355.245 76.382 354.536 76.111 354.553 76.061C354.565 75.972 355.28 76.1041 356.39 75.9121C357.485 75.7341 359.003 75.136 360.12 73.853C361.23 72.565 361.608 70.9781 361.629 69.8691C361.662 68.7431 361.431 68.054 361.517 68.03Z" fill="#455A64"/>
</g>
</g>
<g id="Group_86">
<path id="Vector_62" d="M327.7 151.699C327.764 151.828 321.17 155.218 312.974 159.271C304.775 163.325 298.079 166.506 298.016 166.377C297.952 166.248 304.545 162.858 312.744 158.804C320.939 154.751 327.636 151.57 327.7 151.699Z" fill="#E0E0E0"/>
</g>
<g id="Group_87">
<path id="Vector_63" d="M321.69 140.357C321.758 140.484 315.888 143.766 308.581 147.688C301.272 151.611 295.293 154.687 295.225 154.561C295.157 154.434 301.025 151.152 308.335 147.229C315.642 143.308 321.622 140.231 321.69 140.357Z" fill="#E0E0E0"/>
</g>
<g id="Group_88">
<path id="Vector_64" d="M315.885 131.186C315.919 131.252 314.788 131.9 312.949 132.923C310.983 134.02 308.508 135.401 305.77 136.928C303.046 138.481 300.583 139.886 298.627 141.001C296.8 142.045 295.66 142.678 295.621 142.615C295.584 142.555 296.656 141.812 298.437 140.685C300.218 139.558 302.712 138.055 305.513 136.474C308.314 134.895 310.891 133.538 312.776 132.597C314.662 131.656 315.853 131.124 315.885 131.186Z" fill="#E0E0E0"/>
</g>
<g id="Group_89">
<path id="Vector_65" d="M337.845 129.017C337.832 129.077 337.062 128.976 335.914 128.497C334.765 128.028 333.279 127.125 331.87 125.865C330.46 124.605 329.368 123.294 328.609 122.333C327.853 121.367 327.427 120.74 327.481 120.695C327.538 120.648 328.066 121.194 328.89 122.095C329.718 122.991 330.841 124.247 332.217 125.476C333.592 126.705 334.992 127.622 336.07 128.163C337.144 128.713 337.868 128.938 337.845 129.017Z" fill="#E0E0E0"/>
</g>
<g id="Group_90">
<path id="Vector_66" d="M352.433 123.601C352.56 123.638 351.954 125.265 350.356 126.598C348.77 127.946 347.063 128.265 347.048 128.134C346.998 127.985 348.536 127.466 350.02 126.199C351.521 124.954 352.294 123.526 352.433 123.601Z" fill="#E0E0E0"/>
</g>
<g id="Group_91">
<path id="Vector_67" d="M378.436 138.65C378.438 138.668 378.246 138.703 377.879 138.754C377.454 138.806 376.922 138.872 376.271 138.952C374.872 139.107 372.845 139.302 370.337 139.497C365.321 139.897 358.381 140.289 350.711 140.568C343.038 140.836 336.087 140.94 331.055 140.899C328.539 140.883 326.504 140.833 325.098 140.779C324.443 140.745 323.907 140.718 323.48 140.696C323.11 140.671 322.916 140.65 322.917 140.632C322.918 140.614 323.112 140.601 323.483 140.591C323.911 140.587 324.446 140.582 325.102 140.576C326.58 140.565 328.596 140.549 331.055 140.531C336.081 140.478 343.025 140.316 350.693 140.048C358.358 139.769 365.295 139.435 370.312 139.13C372.766 138.973 374.778 138.845 376.253 138.751C376.908 138.71 377.442 138.677 377.869 138.65C378.238 138.632 378.434 138.632 378.436 138.65Z" fill="#E0E0E0"/>
</g>
<g id="Group_92">
<path id="Vector_68" d="M370.539 150.507C370.543 150.543 369.958 150.633 368.896 150.766C367.834 150.898 366.295 151.065 364.39 151.235C360.581 151.586 355.307 151.949 349.476 152.186C343.642 152.42 338.356 152.484 334.531 152.441C332.618 152.424 331.071 152.383 330.002 152.336C328.933 152.289 328.343 152.246 328.343 152.21C328.344 152.174 328.935 152.149 330.004 152.133C331.162 152.117 332.687 152.097 334.529 152.072C338.35 152.02 343.627 151.898 349.454 151.665C355.279 151.428 360.548 151.124 364.36 150.867C366.199 150.743 367.72 150.641 368.876 150.563C369.943 150.494 370.535 150.472 370.539 150.507Z" fill="#E0E0E0"/>
</g>
<g id="Group_93">
<path id="Vector_69" d="M352.614 165.134C352.62 165.204 351.355 165.39 349.3 165.601C347.245 165.813 344.399 166.04 341.251 166.198C338.101 166.354 335.247 166.41 333.181 166.404C331.115 166.398 329.837 166.338 329.837 166.268C329.836 166.194 331.112 166.124 333.174 166.036C335.384 165.938 338.158 165.815 341.226 165.679C344.292 165.51 347.064 165.357 349.272 165.235C351.33 165.117 352.607 165.06 352.614 165.134Z" fill="#E0E0E0"/>
</g>
<g id="Group_94">
<path id="Vector_70" d="M329.698 130.427C329.694 130.576 326.627 130.609 322.852 130.767C319.075 130.919 316.016 131.138 316 130.989C315.984 130.852 319.034 130.399 322.831 130.246C326.626 130.088 329.703 130.289 329.698 130.427Z" fill="#E0E0E0"/>
</g>
<g id="Group_95">
<path id="Vector_71" d="M371.885 129.887C371.884 130.031 367.906 130.132 362.999 130.114C358.091 130.095 354.114 129.964 354.114 129.82C354.115 129.676 358.093 129.575 363.001 129.593C367.908 129.611 371.885 129.743 371.885 129.887Z" fill="#E0E0E0"/>
</g>
<g id="Group_96">
<path id="Vector_72" d="M373.421 190.737C373.436 190.77 373.111 190.954 372.51 191.26C371.911 191.571 371.022 191.978 369.909 192.445C367.684 193.381 364.522 194.486 360.926 195.317C357.328 196.143 354.001 196.534 351.591 196.667C350.386 196.735 349.409 196.757 348.734 196.74C348.059 196.728 347.686 196.704 347.686 196.668C347.685 196.585 349.173 196.527 351.563 196.299C353.952 196.073 357.242 195.628 360.81 194.809C364.375 193.984 367.527 192.944 369.774 192.101C372.022 191.261 373.385 190.661 373.421 190.737Z" fill="#E0E0E0"/>
</g>
</g>
</g>
</g>
<g id="woman">
<g id="Speech_Bubbles">
<g id="Group_97">
<path id="Vector_73" d="M282.365 243.816H55.07C51.663 243.816 48.902 246.578 48.902 249.984V323.97C48.902 327.377 51.664 330.138 55.07 330.138H220.149L235.176 346.466C235.176 346.466 236.753 337.289 238.08 330.138H282.365C285.771 330.138 288.533 327.376 288.533 323.97V249.984C288.533 246.578 285.771 243.816 282.365 243.816Z" fill="#455A64"/>
<g id="Group_98">
<g id="Group_99">
<path id="Vector_74" d="M273.449 281.968C273.449 282.112 246.617 282.228 213.525 282.228C180.422 282.228 153.595 282.111 153.595 281.968C153.595 281.824 180.421 281.708 213.525 281.708C246.616 281.707 273.449 281.824 273.449 281.968Z" fill="#F5F5F5"/>
</g>
<g id="Group_100">
<path id="Vector_75" d="M273.449 271.219C273.449 271.363 246.617 271.479 213.525 271.479C180.422 271.479 153.595 271.362 153.595 271.219C153.595 271.076 180.421 270.959 213.525 270.959C246.616 270.958 273.449 271.075 273.449 271.219Z" fill="#F5F5F5"/>
</g>
<g id="Group_101">
<path id="Vector_76" d="M273.449 292.599C273.449 292.743 246.617 292.859 213.525 292.859C180.422 292.859 153.595 292.742 153.595 292.599C153.595 292.456 180.421 292.339 213.525 292.339C246.616 292.339 273.449 292.455 273.449 292.599Z" fill="#F5F5F5"/>
</g>
<g id="Group_102">
<path id="Vector_77" d="M232.101 303.611C232.101 303.755 214.525 303.871 192.85 303.871C171.167 303.871 153.595 303.754 153.595 303.611C153.595 303.467 171.167 303.351 192.85 303.351C214.525 303.351 232.101 303.467 232.101 303.611Z" fill="#F5F5F5"/>
</g>
</g>
</g>
</g>
<g id="Character_1">
<g id="Group_103">
<path id="Vector_78" d="M103.294 326.846C127.202 326.846 146.584 308.357 146.584 285.55C146.584 262.743 127.202 244.254 103.294 244.254C79.3856 244.254 60.004 262.743 60.004 285.55C60.004 308.357 79.3856 326.846 103.294 326.846Z" fill="#E0E0E0"/>
<g id="Group_104">
<path id="Vector_79" d="M94.4741 185.982C87.6061 186.34 84.9101 193.499 84.0891 195.097C83.2681 196.695 83.1391 198.546 82.9891 200.336C82.8381 202.126 82.6261 203.985 81.6711 205.508C80.1591 207.92 76.9841 209.167 76.1181 211.88C75.1391 214.947 77.6511 218.228 76.9821 221.377C76.6231 223.067 75.3891 224.458 74.9521 226.131C74.4971 227.877 74.9711 229.764 75.8791 231.323C78.1351 235.197 82.8101 237.143 87.2911 237.303C91.7711 237.463 96.1541 236.123 100.436 234.797" fill="#263238"/>
<path id="Vector_80" d="M124.694 194.88C124.022 196.334 124.657 198.099 125.711 199.305C126.765 200.511 128.181 201.33 129.428 202.334C130.675 203.338 131.821 204.663 131.966 206.258C132.099 207.722 131.363 209.175 131.563 210.632C132.076 214.376 138.046 215.499 138.364 219.264C138.576 221.771 136.003 224.074 136.716 226.487C136.989 227.412 137.705 228.128 138.203 228.954C139.897 231.767 138.748 235.648 136.293 237.829C133.838 240.01 130.425 240.779 127.145 240.926C124.386 241.05 121.252 240.599 119.628 238.366C118.141 236.323 118.446 233.536 118.743 231.027C120.13 219.309 119.894 207.466 119.656 195.669" fill="#263238"/>
<g id="Group_105">
<g id="Group_106">
<g id="Group_107">
<g id="Group_108">
<g id="Group_109">
<path id="Vector_81" d="M96.2781 249.111C96.3301 242.954 96.2731 236.472 96.2731 236.472C96.2731 236.472 88.3571 235.063 86.8341 224.697C85.3811 214.811 87.8451 193.547 87.8451 193.547C99.3131 189.024 112.226 190.774 120.26 200.004L119.01 250C118.865 255.804 113.759 260.302 107.546 260.099C101.27 259.894 96.2281 254.977 96.2781 249.111Z" fill="#FFBE9D"/>
</g>
<g id="Group_110">
<g id="Group_111">
<path id="Vector_82" d="M90.0002 209.874C89.9672 210.575 90.5332 211.18 91.2642 211.228C91.9942 211.276 92.6131 210.748 92.6461 210.047C92.6791 209.347 92.1131 208.74 91.3831 208.692C90.6521 208.645 90.0332 209.174 90.0002 209.874Z" fill="#263238"/>
</g>
<g id="Group_112">
<g id="Group_113">
<path id="Vector_83" d="M87.8651 208.848C88.0271 209.023 89.0421 208.291 90.4701 208.311C93.1571 208.7 93.1081 209.111 93.0931 208.884C93.1701 208.807 93.0061 208.493 92.5531 208.156C92.1081 207.82 91.3451 207.489 90.4561 207.483C89.5661 207.478 88.8141 207.796 88.3811 208.127C87.9371 208.458 87.7851 208.77 87.8651 208.848Z" fill="#263238"/>
</g>
</g>
</g>
<g id="Group_114">
<g id="Group_115">
<path id="Vector_84" d="M104.615 210.296C104.582 210.997 105.148 211.602 105.879 211.65C106.609 211.698 107.228 211.17 107.261 210.469C107.294 209.769 106.728 209.162 105.998 209.114C105.268 209.066 104.648 209.595 104.615 210.296Z" fill="#263238"/>
</g>
<g id="Group_116">
<g id="Group_117">
<path id="Vector_85" d="M102.759 209.341C102.922 209.516 103.937 208.784 105.364 208.804C106.791 208.804 107.83 209.551 107.987 209.377C108.064 209.3 107.901 208.986 107.447 208.649C107.002 208.313 106.239 207.982 105.35 207.976C104.46 207.971 103.708 208.289 103.274 208.62C102.833 208.952 102.68 209.263 102.759 209.341Z" fill="#263238"/>
</g>
</g>
</g>
<g id="Group_118">
<g id="Group_119">
<path id="Vector_86" d="M97.4541 219.585C97.4621 219.504 96.5761 219.34 95.1391 219.14C94.7751 219.098 94.4311 219.022 94.3721 218.772C94.2891 218.508 94.4461 218.116 94.6281 217.694C94.9811 216.815 95.3511 215.895 95.7391 214.93C97.2821 210.994 98.4041 207.756 98.2451 207.695C98.0861 207.634 96.7061 210.775 95.1631 214.711C94.7911 215.682 94.4361 216.607 94.0981 217.492C93.9551 217.905 93.7121 218.372 93.8921 218.921C93.9871 219.195 94.2521 219.396 94.4851 219.461C94.7181 219.535 94.9231 219.541 95.1031 219.554C96.5501 219.649 97.4481 219.666 97.4541 219.585Z" fill="#263238"/>
</g>
</g>
<g id="Group_120">
<path id="Vector_87" d="M96.2731 236.472C96.2731 236.472 103.229 237.001 110.173 232.936C110.173 232.936 106.729 240.005 96.3841 238.917L96.2731 236.472Z" fill="#EB996E"/>
</g>
<g id="Group_121">
<path id="Vector_88" d="M98.0181 223.034C98.5391 222.361 99.4431 221.999 100.336 222.105C100.955 222.179 101.578 222.485 101.948 222.994C102.319 223.503 102.389 224.22 102.042 224.697C101.65 225.234 100.844 225.35 100.164 225.149C99.4851 224.947 98.9031 224.492 98.3511 224.038C98.1981 223.913 98.0421 223.782 97.9481 223.611C97.8541 223.44 97.8361 223.218 97.9561 223.079" fill="#EB996E"/>
</g>
<g id="Group_122">
<g id="Group_123">
<path id="Vector_89" d="M101.646 220.622C101.414 220.606 101.393 222.156 100.054 223.241C98.7171 224.33 97.0661 224.136 97.0521 224.353C97.0291 224.45 97.4161 224.658 98.1141 224.685C98.7981 224.716 99.7991 224.508 100.619 223.845C101.436 223.18 101.795 222.284 101.855 221.648C101.92 221 101.752 220.614 101.646 220.622Z" fill="#263238"/>
</g>
</g>
</g>
<g id="Group_124">
<path id="Vector_90" d="M115.765 192.619C111.979 198.019 101.955 203.571 94.777 204.86C95.615 203.757 100.024 201.039 100.862 199.935C97.608 202.365 92.952 205.615 88.635 205.835C88.125 205.861 87.572 205.86 87.151 205.604C86.579 205.255 86.4621 204.578 86.3961 203.978C86.1171 201.448 86.292 197.111 86.695 194.601C87.097 192.091 88.251 189.593 90.429 187.91C93.195 185.774 97.1531 185.246 100.882 185.157C104.01 185.082 107.234 185.267 110.093 186.396C112.952 187.525 115.397 189.755 115.816 192.437" fill="#263238"/>
</g>
<g id="Group_125">
<path id="Vector_91" d="M126.62 216.81C127.141 214.132 127.557 211.59 127.654 209.893C127.959 204.553 126.417 184.844 108.006 186.43L107.263 192.037C107.263 192.037 104.418 211.231 116.327 211.373C116.327 211.373 116.985 217.091 122.378 222.654C122.378 222.654 125.501 222.56 126.62 216.81Z" fill="#263238"/>
</g>
<g id="Group_126">
<path id="Vector_92" d="M116.327 211.373C117.436 211.172 118.605 211.216 119.655 211.625C120.705 212.034 121.624 212.829 122.067 213.865C122.512 214.904 122.452 216.115 122.057 217.173C121.662 218.232 120.953 219.15 120.14 219.934C119.556 220.497 118.893 221.01 118.116 221.244C117.339 221.478 116.429 221.391 115.815 220.86" fill="#FFBE9D"/>
</g>
<g id="Group_127">
<g id="Group_128">
<path id="Vector_93" d="M116.861 218.088C116.734 218.128 117.207 218.803 118.222 218.542C118.71 218.419 119.191 217.997 119.485 217.465C119.781 216.925 119.976 216.331 120.057 215.635C120.135 214.945 119.986 214.209 119.612 213.682C119.255 213.145 118.666 212.823 118.168 212.807C117.128 212.772 116.797 213.489 116.915 213.511C116.997 213.596 117.405 213.229 118.085 213.401C118.736 213.528 119.367 214.435 119.213 215.551C119.076 216.688 118.627 217.725 118.018 217.978C117.383 218.292 116.931 217.997 116.861 218.088Z" fill="#EB996E"/>
</g>
</g>
</g>
</g>
</g>
<path id="Vector_94" d="M118.336 190.595C119.745 191.399 121.472 191.626 123.04 191.213C124.609 190.801 126.001 189.754 126.832 188.362C127.369 187.463 127.677 186.373 127.414 185.36C127.054 183.975 125.707 183.039 124.322 182.679C122.312 182.156 120.035 182.657 118.517 184.073C116.998 185.489 116.344 187.806 117.018 189.77C117.692 191.734 119.72 193.184 121.793 193.065" fill="#263238"/>
<path id="Vector_95" d="M120.015 220.445C118.99 221.184 117.954 221.935 117.153 222.913C116.352 223.891 115.802 225.137 115.918 226.395C115.983 227.099 116.252 227.794 116.15 228.494C116.01 229.456 115.22 230.168 114.699 230.989C113.352 233.111 113.931 236.09 115.634 237.938C117.337 239.787 119.924 240.621 122.437 240.703C123.894 240.751 125.424 240.546 126.618 239.71C128.34 238.505 129.002 236.246 129.046 234.144" fill="#263238"/>
<g id="Group_129">
<path id="Vector_96" d="M121.265 194.725C121.319 194.757 120.954 195.509 120.18 196.612C119.409 197.715 118.196 199.147 116.634 200.493C115.068 201.836 113.469 202.82 112.263 203.416C111.056 204.015 110.258 204.263 110.234 204.205C110.159 204.054 113.233 202.755 116.294 200.098C119.38 197.473 121.127 194.628 121.265 194.725Z" fill="#455A64"/>
</g>
<g id="Group_130">
<path id="Vector_97" d="M123.175 194.624C123.232 194.63 123.195 195.61 122.836 197.147C122.481 198.682 121.74 200.762 120.497 202.836C119.247 204.907 117.756 206.536 116.566 207.568C115.375 208.606 114.528 209.097 114.495 209.05C114.372 208.921 117.622 206.662 120.051 202.567C122.529 198.506 123.003 194.575 123.175 194.624Z" fill="#455A64"/>
</g>
<g id="Group_131">
<path id="Vector_98" d="M83.201 202.958C83.354 202.947 83.551 204.68 84.149 206.725C84.733 208.775 85.49 210.346 85.354 210.418C85.24 210.489 84.253 208.984 83.648 206.869C83.033 204.758 83.067 202.959 83.201 202.958Z" fill="#455A64"/>
</g>
<g id="Group_132">
<path id="Vector_99" d="M127.305 238.337C127.332 238.274 127.769 238.804 128.828 238.826C129.341 238.831 129.988 238.683 130.59 238.271C131.19 237.866 131.682 237.139 131.924 236.25C132.166 235.356 132.171 234.315 131.943 233.236C131.727 232.151 131.306 231.028 130.935 229.804C130.574 228.585 130.259 227.214 130.491 225.774C130.721 224.308 131.671 223.12 132.134 221.804C132.606 220.49 132.416 219.035 131.838 217.858C131.246 216.665 130.251 215.798 129.097 215.353C128.524 215.108 127.932 214.902 127.381 214.602C126.834 214.308 126.323 213.899 126.012 213.375C125.371 212.321 125.396 211.176 125.393 210.229C125.411 209.26 125.463 208.412 125.29 207.686C125.135 206.96 124.864 206.366 124.54 205.964C123.868 205.14 123.157 205.198 123.191 205.13C123.19 205.121 123.345 205.097 123.627 205.163C123.908 205.224 124.32 205.416 124.694 205.832C125.068 206.245 125.383 206.863 125.574 207.62C125.784 208.381 125.756 209.285 125.761 210.228C125.781 211.165 125.803 212.249 126.376 213.141C126.936 214.059 128.1 214.44 129.283 214.908C130.503 215.358 131.658 216.333 132.294 217.627C132.932 218.908 133.149 220.51 132.625 221.973C132.105 223.407 131.192 224.55 130.993 225.856C130.773 227.159 131.052 228.468 131.395 229.665C131.745 230.869 132.159 232.016 132.366 233.15C132.585 234.279 132.562 235.394 132.277 236.348C131.992 237.301 131.433 238.083 130.75 238.509C130.074 238.936 129.371 239.061 128.82 239.024C128.262 238.992 127.859 238.794 127.623 238.632C127.384 238.473 127.305 238.337 127.305 238.337Z" fill="#455A64"/>
</g>
<g id="Group_133">
<path id="Vector_100" d="M120.086 237.634C120.132 237.605 120.217 237.955 120.702 238.175C121.138 238.386 122.111 238.4 122.642 237.649C123.183 236.893 123.099 235.62 122.48 234.519C121.91 233.388 120.777 232.282 120.488 230.63C120.335 229.832 120.526 228.923 121.045 228.323C121.533 227.72 122.109 227.317 122.483 226.824C123.237 225.827 123.301 224.578 123.179 223.631C123.051 222.66 122.773 221.894 122.606 221.362C122.43 220.83 122.341 220.53 122.375 220.517C122.407 220.504 122.56 220.776 122.795 221.289C123.021 221.804 123.359 222.56 123.543 223.577C123.714 224.572 123.714 225.933 122.865 227.114C122.44 227.687 121.858 228.109 121.445 228.639C121.018 229.153 120.878 229.839 121.001 230.546C121.236 231.983 122.3 233.074 122.905 234.298C123.552 235.503 123.638 236.969 122.939 237.866C122.601 238.326 122.088 238.517 121.67 238.56C121.242 238.602 120.868 238.511 120.608 238.355C120.074 238.029 120.067 237.619 120.086 237.634Z" fill="#455A64"/>
</g>
<g id="Group_134">
<path id="Vector_101" d="M80.8871 235.021C80.8611 235.043 80.5661 234.761 80.0731 234.208C79.5951 233.649 78.8671 232.829 78.3281 231.579C78.0621 230.955 77.8881 230.207 77.9081 229.396C77.9261 228.593 78.1651 227.69 78.7891 226.973C79.4091 226.254 80.3081 225.883 80.8501 225.209C81.4101 224.543 81.4811 223.565 81.2641 222.636C81.0481 221.689 80.6121 220.84 80.1671 219.993C79.7361 219.143 79.3401 218.279 79.1951 217.369C79.0351 216.466 79.2351 215.517 79.7101 214.844C80.1711 214.162 80.7491 213.696 81.2341 213.256C82.2431 212.427 82.8141 211.523 82.9411 210.82C83.0811 210.117 82.8401 209.732 82.8981 209.718C82.9101 209.712 82.9771 209.795 83.0491 209.982C83.1231 210.167 83.1881 210.469 83.1411 210.852C83.0741 211.624 82.4821 212.649 81.4831 213.528C81.0111 213.986 80.4661 214.462 80.0721 215.081C79.6681 215.692 79.5181 216.479 79.6681 217.293C79.8101 218.109 80.1901 218.929 80.6211 219.762C81.0621 220.586 81.5411 221.5 81.7721 222.523C82.0131 223.524 81.9431 224.715 81.2461 225.533C80.5661 226.332 79.6721 226.678 79.1491 227.292C78.6081 227.891 78.3741 228.68 78.3391 229.414C78.3031 230.154 78.4411 230.849 78.6691 231.443C79.1331 232.642 79.8021 233.489 80.2291 234.08C80.6721 234.668 80.9161 234.997 80.8871 235.021Z" fill="#455A64"/>
</g>
<g id="Group_135">
<path id="Vector_102" d="M122.59 191.902C122.449 191.974 121.753 190.442 120.152 189.254C118.572 188.036 116.909 187.784 116.94 187.628C116.919 187.495 118.751 187.525 120.466 188.838C122.197 190.132 122.724 191.886 122.59 191.902Z" fill="#E8505B"/>
</g>
<g id="Group_136">
<path id="Vector_103" d="M124.035 182.327C124.087 182.294 124.422 182.685 124.693 183.462C124.965 184.227 125.12 185.406 124.781 186.635C124.441 187.864 123.702 188.796 123.076 189.313C122.446 189.84 121.957 190.004 121.93 189.949C121.888 189.879 122.297 189.606 122.823 189.046C123.348 188.493 123.971 187.61 124.279 186.497C124.586 185.383 124.505 184.306 124.338 183.562C124.174 182.811 123.963 182.366 124.035 182.327Z" fill="#455A64"/>
</g>
</g>
<path id="Vector_104" opacity="0.3" d="M73.254 305.343C73.254 305.343 98.099 328.936 112.868 324.664C127.637 320.392 132.008 309.313 132.008 309.313L132.366 305.344L130.886 304.376L74.026 299.772L73.254 305.343Z" fill="black"/>
<g id="Group_137">
<g id="Group_138">
<path id="Vector_105" d="M58.5551 283.243L63.3461 270.956L80.5191 281.745L65.2171 305.342C65.2171 305.342 58.9931 297.258 58.5551 283.243Z" fill="#EB996E"/>
<g id="Group_139">
<g id="Group_140">
<path id="Vector_106" d="M77.935 249.296C85.925 245.122 96.273 243.919 96.273 243.919C99.277 249.931 108.742 250.694 114.473 246.591L119.306 243.324C119.306 243.324 120.054 243.294 121.331 243.407C132.636 244.407 141.889 252.85 144.194 263.962C145.033 268.007 145.65 272.65 145.402 276.954C144.774 287.878 133.46 288.866 133.46 288.866C133.46 288.866 132.878 299.664 132.114 308.386V308.387C131.546 314.904 128.165 319.772 122.219 322.499C117.794 324.529 115.352 325.468 109.606 326.387C95.117 328.704 81.2 323.204 72.023 313.374C73.739 302.968 75.379 289.496 75.262 288.893C75.237 288.766 75.281 288.694 75.281 288.694L64.068 278.74L57.713 273.403C57.713 273.403 71.659 252.704 77.935 249.296Z" fill="#E8505B"/>
</g>
</g>
</g>
<g id="Group_141">
<path id="Vector_107" d="M91.829 256.028C91.787 256.131 90.872 255.26 89.057 255.261C88.179 255.264 87.091 255.518 86.198 256.253C85.753 256.611 85.374 257.116 84.925 257.62C84.486 258.113 83.917 258.676 83.11 258.824C82.303 258.976 81.556 258.62 80.998 258.258C80.422 257.89 79.929 257.486 79.423 257.196C78.434 256.59 77.309 256.647 76.489 256.94C75.654 257.233 75.1 257.734 74.784 258.116C74.469 258.505 74.355 258.77 74.312 258.752C74.289 258.745 74.338 258.449 74.62 257.997C74.903 257.554 75.46 256.964 76.358 256.596C77.226 256.228 78.52 256.114 79.658 256.778C80.216 257.084 80.722 257.488 81.267 257.826C81.805 258.166 82.41 258.428 83.016 258.312C83.622 258.206 84.114 257.756 84.544 257.279C84.981 256.802 85.381 256.279 85.896 255.879C86.919 255.077 88.118 254.85 89.061 254.894C90.018 254.938 90.755 255.232 91.203 255.505C91.656 255.783 91.845 256.01 91.829 256.028Z" fill="#FAFAFA"/>
</g>
<g id="Group_142">
<path id="Vector_108" d="M103.223 270.957C103.15 271.041 102.562 269.923 100.841 269.345C100.008 269.067 98.896 268.96 97.815 269.371C97.279 269.568 96.759 269.926 96.172 270.26C95.598 270.587 94.879 270.938 94.068 270.821C93.255 270.707 92.661 270.131 92.247 269.61C91.819 269.077 91.481 268.537 91.095 268.1C90.352 267.21 89.267 266.905 88.397 266.92C87.512 266.931 86.827 267.228 86.406 267.49C85.984 267.758 85.79 267.973 85.755 267.942C85.735 267.928 85.876 267.664 86.289 267.325C86.699 266.996 87.416 266.614 88.383 266.553C89.323 266.481 90.585 266.787 91.452 267.78C91.883 268.248 92.234 268.793 92.642 269.287C93.044 269.781 93.532 270.223 94.145 270.306C94.753 270.399 95.363 270.13 95.923 269.815C96.489 269.502 97.035 269.134 97.651 268.92C98.877 268.487 100.085 268.654 100.965 268.997C101.858 269.344 102.463 269.859 102.8 270.261C103.137 270.669 103.245 270.944 103.223 270.957Z" fill="#FAFAFA"/>
</g>
<g id="Group_143">
<path id="Vector_109" d="M128.531 249.097C128.511 249.206 127.433 248.549 125.659 248.934C124.802 249.123 123.792 249.601 123.075 250.509C122.716 250.953 122.453 251.527 122.12 252.115C121.795 252.69 121.358 253.36 120.601 253.676C119.844 253.995 119.039 253.805 118.417 253.57C117.776 253.333 117.209 253.042 116.653 252.865C115.559 252.482 114.471 252.776 113.732 253.236C112.978 253.699 112.542 254.306 112.315 254.746C112.09 255.193 112.034 255.476 111.988 255.467C111.964 255.465 111.95 255.166 112.129 254.664C112.312 254.171 112.732 253.476 113.531 252.927C114.301 252.383 115.542 251.999 116.795 252.406C117.405 252.587 117.986 252.874 118.59 253.089C119.188 253.307 119.834 253.436 120.402 253.193C120.971 252.961 121.357 252.417 121.677 251.86C122.003 251.301 122.283 250.705 122.702 250.205C123.532 249.205 124.656 248.728 125.587 248.572C126.532 248.412 127.314 248.543 127.81 248.716C128.31 248.893 128.543 249.075 128.531 249.097Z" fill="#FAFAFA"/>
</g>
<g id="Group_144">
<path id="Vector_110" d="M116.853 265.504C116.779 265.573 116.353 264.706 115.057 264.217C114.43 263.982 113.587 263.868 112.756 264.145C112.345 264.277 111.935 264.533 111.468 264.773C111.013 265.006 110.434 265.261 109.789 265.138C109.143 265.017 108.695 264.537 108.392 264.118C108.078 263.688 107.839 263.26 107.561 262.914C107.033 262.214 106.228 261.943 105.564 261.918C104.179 261.877 103.539 262.661 103.493 262.571C103.472 262.554 103.585 262.349 103.913 262.094C104.239 261.847 104.809 261.568 105.567 261.549C106.302 261.52 107.285 261.801 107.932 262.609C108.252 262.989 108.506 263.421 108.801 263.812C109.092 264.203 109.442 264.545 109.888 264.626C110.807 264.787 111.651 263.96 112.611 263.686C113.587 263.393 114.524 263.571 115.195 263.874C116.586 264.516 116.905 265.515 116.853 265.504Z" fill="#FAFAFA"/>
</g>
<g id="Group_145">
<path id="Vector_111" d="M91.0971 279.325C91.0241 279.394 90.597 278.527 89.301 278.038C88.674 277.803 87.8311 277.689 87.0001 277.966C86.5901 278.098 86.179 278.354 85.712 278.594C85.257 278.827 84.678 279.082 84.033 278.959C83.387 278.838 82.9391 278.358 82.6361 277.939C82.3221 277.509 82.0831 277.082 81.8051 276.735C81.2771 276.035 80.471 275.764 79.808 275.739C78.423 275.698 77.783 276.482 77.737 276.392C77.716 276.375 77.829 276.17 78.157 275.915C78.483 275.668 79.053 275.389 79.811 275.37C80.546 275.341 81.5291 275.622 82.1761 276.43C82.4961 276.81 82.75 277.242 83.045 277.633C83.336 278.024 83.6861 278.366 84.1321 278.447C85.0521 278.608 85.8951 277.781 86.8551 277.507C87.8311 277.214 88.768 277.392 89.439 277.695C90.83 278.337 91.1501 279.336 91.0971 279.325Z" fill="#FAFAFA"/>
</g>
<g id="Group_146">
<path id="Vector_112" d="M115.174 279.636C115.127 279.725 114.442 279.043 113.059 279C112.39 278.98 111.555 279.146 110.859 279.677C110.513 279.934 110.207 280.31 109.844 280.688C109.489 281.056 109.023 281.484 108.374 281.577C107.724 281.671 107.144 281.362 106.722 281.064C106.286 280.759 105.921 280.432 105.546 280.194C104.82 279.703 103.97 279.706 103.335 279.898C102.011 280.307 101.659 281.256 101.587 281.186C101.562 281.177 101.602 280.947 101.83 280.599C102.059 280.259 102.508 279.812 103.219 279.548C103.906 279.283 104.926 279.231 105.8 279.786C106.226 280.041 106.606 280.368 107.012 280.643C107.414 280.919 107.856 281.13 108.304 281.062C109.226 280.917 109.757 279.861 110.576 279.291C111.405 278.698 112.349 278.564 113.082 278.633C114.601 278.788 115.227 279.63 115.174 279.636Z" fill="#FAFAFA"/>
</g>
<g id="Group_147">
<path id="Vector_113" d="M107.221 290.619C107.174 290.708 106.489 290.026 105.106 289.983C104.437 289.963 103.602 290.128 102.906 290.66C102.56 290.917 102.254 291.293 101.891 291.671C101.536 292.039 101.07 292.467 100.421 292.56C99.7711 292.654 99.1911 292.345 98.7691 292.047C98.3331 291.742 97.9681 291.415 97.5931 291.177C96.8671 290.686 96.0171 290.689 95.3821 290.881C94.0581 291.29 93.7061 292.24 93.6341 292.169C93.6091 292.16 93.6491 291.93 93.8771 291.582C94.1061 291.242 94.5551 290.795 95.2661 290.531C95.9531 290.266 96.9731 290.214 97.8471 290.769C98.2731 291.024 98.6531 291.351 99.0591 291.626C99.4611 291.902 99.9031 292.112 100.351 292.044C101.273 291.899 101.804 290.843 102.623 290.273C103.452 289.68 104.396 289.546 105.129 289.615C106.648 289.771 107.274 290.612 107.221 290.619Z" fill="#FAFAFA"/>
</g>
<g id="Group_148">
<path id="Vector_114" d="M90.4261 317.879C90.3531 317.949 89.9141 317.088 88.6121 316.618C87.9821 316.392 87.1371 316.29 86.3101 316.579C85.9011 316.716 85.4941 316.979 85.0311 317.225C84.5791 317.465 84.0041 317.728 83.3571 317.614C82.7091 317.502 82.2541 317.028 81.9461 316.614C81.6261 316.188 81.3801 315.764 81.0971 315.422C80.5591 314.73 79.7501 314.469 79.0871 314.455C77.7021 314.433 77.0731 315.227 77.0251 315.137C77.0041 315.12 77.1141 314.914 77.4381 314.654C77.7611 314.402 78.3271 314.116 79.0841 314.086C79.8191 314.047 80.8051 314.314 81.4641 315.113C81.7901 315.488 82.0491 315.917 82.3501 316.303C82.6471 316.69 83.0011 317.027 83.4491 317.102C84.3711 317.25 85.2031 316.411 86.1591 316.124C87.1311 315.817 88.0701 315.982 88.7451 316.276C90.1451 316.896 90.4791 317.89 90.4261 317.879Z" fill="#FAFAFA"/>
</g>
<g id="Group_149">
<path id="Vector_115" d="M110.078 323.678C110.029 323.766 109.355 323.075 107.972 323.012C107.303 322.983 106.466 323.137 105.762 323.658C105.412 323.911 105.102 324.282 104.733 324.655C104.373 325.018 103.901 325.44 103.251 325.524C102.599 325.609 102.024 325.292 101.607 324.988C101.175 324.677 100.815 324.345 100.443 324.102C99.724 323.601 98.874 323.593 98.236 323.775C96.907 324.166 96.542 325.11 96.47 325.039C96.445 325.029 96.488 324.8 96.722 324.456C96.955 324.119 97.411 323.678 98.125 323.425C98.815 323.169 99.836 323.131 100.702 323.698C101.125 323.959 101.5 324.292 101.902 324.572C102.3 324.854 102.739 325.07 103.188 325.008C104.112 324.876 104.658 323.828 105.485 323.269C106.322 322.687 107.268 322.566 108 322.646C109.517 322.822 110.131 323.672 110.078 323.678Z" fill="#FAFAFA"/>
</g>
<g id="Group_150">
<g id="Group_151">
<g id="Group_152">
<path id="Vector_116" d="M45.318 240.979C45.925 241.694 67.911 271.093 67.911 271.093L64.816 272.847L42.254 243.822L45.318 240.979Z" fill="#263238"/>
<path id="Vector_117" d="M131.134 261.954C131.134 261.954 110.512 297.516 109.118 298.171C106.373 299.459 74.73 272.115 71.713 269.499C71.297 268.944 70.439 267.771 68.753 265.439C68.753 265.439 66.2571 254.015 63.5921 254.893C60.9281 255.771 65.0521 260.698 63.3171 265.039C61.5821 269.379 53.6361 259.027 53.3171 258.098L51.268 255.42C51.268 255.42 49.1191 261.513 49.2651 264.057C49.7311 272.207 57.4421 281.9 57.4421 281.9C57.4421 281.9 88.776 321.164 112.497 322.495C119.329 322.878 132.379 303.21 140.496 288.673C145.398 279.895 143.123 270.977 134.999 265.054L131.134 261.954Z" fill="#FFBE9D"/>
<g id="Group_153">
<path id="Vector_118" d="M53.158 265.504C53.089 265.549 52.222 264.302 51.396 262.627C50.565 260.953 50.1 259.508 50.178 259.48C50.262 259.448 50.853 260.83 51.676 262.488C52.494 264.148 53.235 265.457 53.158 265.504Z" fill="#EB996E"/>
</g>
</g>
</g>
<path id="Vector_119" d="M130.164 252.061C129.349 252.55 110.173 288.15 110.173 288.15L134.857 307.485C134.857 307.485 141.278 291.667 144.665 278.807C145.584 275.317 145.11 265.99 143.813 262.392C141.969 257.279 139.188 258.552 135.024 255.557L130.164 252.061Z" fill="#E8505B"/>
<g id="Group_154" opacity="0.7">
<path id="Vector_120" d="M138.273 252.061C138.258 252.083 138.031 251.924 137.569 251.692C137.114 251.459 136.373 251.177 135.399 251.236C134.426 251.268 133.281 251.741 132.178 252.581C131.07 253.421 129.988 254.61 128.965 256.042C127.922 257.464 127.061 259.197 126.008 261.005C124.974 262.821 123.871 264.759 122.711 266.796C120.376 270.874 117.815 275.349 115.125 280.048C113.484 282.9 111.891 285.67 110.393 288.274L110.329 287.95C117.015 293.234 122.834 297.833 127.03 301.148C129.064 302.781 130.702 304.096 131.876 305.038C132.407 305.477 132.833 305.828 133.161 306.098C133.45 306.343 133.597 306.477 133.587 306.489C133.578 306.501 133.413 306.391 133.106 306.169C132.765 305.916 132.322 305.587 131.769 305.176C130.573 304.262 128.904 302.986 126.831 301.403C122.607 298.123 116.749 293.575 110.017 288.348L109.844 288.214L109.953 288.024C111.446 285.418 113.035 282.647 114.671 279.793C117.373 275.103 119.946 270.636 122.291 266.565C123.465 264.537 124.582 262.608 125.63 260.799C126.693 259.012 127.588 257.26 128.668 255.827C129.726 254.387 130.848 253.191 132.006 252.348C133.157 251.505 134.369 251.036 135.392 251.034C136.415 251.005 137.172 251.332 137.619 251.599C137.856 251.716 138.006 251.856 138.119 251.929C138.226 252.009 138.278 252.054 138.273 252.061Z" fill="black"/>
</g>
</g>
<g id="Group_155">
<path id="Vector_121" d="M130.903 285.442C130.829 285.511 130.403 284.644 129.107 284.155C128.48 283.92 127.637 283.806 126.806 284.083C126.396 284.215 125.985 284.471 125.518 284.711C125.063 284.944 124.484 285.199 123.839 285.076C123.193 284.955 122.744 284.475 122.442 284.056C122.128 283.626 121.889 283.198 121.611 282.852C121.083 282.152 120.278 281.881 119.615 281.856C118.23 281.815 117.59 282.599 117.544 282.509C117.523 282.492 117.636 282.287 117.964 282.032C118.29 281.785 118.86 281.506 119.618 281.487C120.353 281.458 121.336 281.739 121.983 282.547C122.303 282.927 122.557 283.359 122.852 283.75C123.143 284.141 123.493 284.483 123.939 284.564C124.859 284.725 125.702 283.898 126.662 283.624C127.638 283.331 128.575 283.51 129.246 283.812C130.635 284.454 130.955 285.453 130.903 285.442Z" fill="#FAFAFA"/>
</g>
<g id="Group_156">
<path id="Vector_122" d="M142.185 280.837C142.096 280.883 141.918 279.933 140.803 279.114C140.263 278.718 139.482 278.381 138.607 278.424C138.176 278.44 137.711 278.576 137.198 278.681C136.697 278.783 136.07 278.872 135.483 278.58C134.894 278.289 134.591 277.706 134.413 277.221C134.227 276.722 134.111 276.246 133.937 275.837C133.617 275.021 132.915 274.542 132.283 274.34C130.961 273.927 130.133 274.509 130.112 274.41C130.097 274.388 130.26 274.221 130.645 274.064C131.026 273.914 131.65 273.8 132.385 273.986C133.101 274.157 133.971 274.692 134.376 275.645C134.582 276.097 134.71 276.582 134.888 277.038C135.063 277.493 135.307 277.917 135.715 278.115C136.557 278.518 137.593 277.95 138.591 277.945C139.61 277.926 140.464 278.351 141.028 278.823C142.194 279.814 142.232 280.862 142.185 280.837Z" fill="#FAFAFA"/>
</g>
<g id="Group_157">
<path id="Vector_123" d="M142.764 266.121C142.675 266.167 142.497 265.217 141.382 264.398C140.842 264.002 140.061 263.665 139.186 263.708C138.755 263.724 138.29 263.86 137.777 263.965C137.276 264.067 136.649 264.156 136.062 263.864C135.473 263.573 135.17 262.99 134.992 262.505C134.806 262.006 134.69 261.53 134.516 261.121C134.196 260.305 133.494 259.826 132.862 259.624C131.54 259.211 130.712 259.793 130.691 259.694C130.675 259.672 130.839 259.505 131.224 259.348C131.605 259.198 132.229 259.084 132.964 259.27C133.68 259.441 134.55 259.976 134.955 260.929C135.161 261.381 135.288 261.866 135.467 262.322C135.642 262.777 135.887 263.201 136.294 263.399C137.136 263.802 138.172 263.234 139.17 263.229C140.189 263.21 141.043 263.635 141.607 264.107C142.774 265.098 142.812 266.147 142.764 266.121Z" fill="#FAFAFA"/>
</g>
<g id="Group_158">
<path id="Vector_124" d="M137.303 299.952C137.214 299.998 137.037 299.048 135.921 298.229C135.381 297.833 134.6 297.497 133.725 297.539C133.294 297.555 132.829 297.691 132.316 297.796C131.815 297.898 131.188 297.987 130.601 297.695C130.012 297.404 129.709 296.821 129.531 296.336C129.345 295.837 129.229 295.361 129.055 294.952C128.735 294.136 128.033 293.657 127.401 293.455C126.078 293.042 125.251 293.624 125.23 293.525C125.214 293.503 125.378 293.336 125.763 293.179C126.144 293.029 126.768 292.915 127.503 293.101C128.219 293.272 129.089 293.807 129.494 294.76C129.7 295.212 129.828 295.697 130.007 296.153C130.182 296.608 130.426 297.032 130.834 297.23C131.676 297.633 132.712 297.065 133.71 297.059C134.729 297.04 135.583 297.465 136.147 297.937C137.312 298.929 137.35 299.977 137.303 299.952Z" fill="#FAFAFA"/>
</g>
</g>
</g>
</g>
</g>
</g>
<defs>
<rect width="100" height="100" fill="white"/>
</clipPath>
</defs>
</svg>
