<svg width="964" height="958" viewBox="0 0 964 958" fill="none" xmlns="http://www.w3.org/2000/svg">
<g clip-path="url(#clip0_1353_317)">
<rect width="964" height="958" fill="white"/>
<path d="M848.155 823.907C823.059 849.775 800.604 864.981 783.411 876.461C615.736 988.419 424.066 956.15 364.806 945.12C269.197 927.326 188.49 914.772 119.149 852.125C-38.4159 709.771 -30.7525 412.811 89.6463 228.857C103.922 207.045 224.138 28.847 416.224 3.7374C420.922 3.12328 424.428 2.7735 427.498 2.44847C457.213 -0.697806 641.352 -17.3028 791.499 108.491C812.992 126.497 847.58 158.977 879.655 208.513C996.934 389.641 997.306 670.168 848.155 823.907Z" fill="#F4F7FA"/>
<g opacity="0.4">
<path d="M245.253 792.333C209.538 766.255 204.139 699.338 213.694 654.639C224.85 602.453 251.913 601.495 257.431 560.233C267.704 483.409 178.105 455.224 182.322 376.93C185.769 312.924 246.957 307.472 247.549 236.418C247.977 185.146 216.322 163.34 231.401 118.835C232.69 115.03 247.181 74.1988 282.393 65.1603C317.933 56.0381 353.797 84.6399 371.394 107.5C403.922 149.755 378.888 178.693 399.066 242.935C426.539 330.397 489.203 328.529 496.12 397.111C501.832 453.744 460.419 468.08 468 530.747C475.039 588.939 513.306 597.723 514.291 637.327C516.556 728.435 318.1 845.526 245.253 792.333Z" fill="url(#paint0_linear_1353_317)"/>
<mask id="mask0_1353_317" style="mask-type:luminance" maskUnits="userSpaceOnUse" x="182" y="63" width="333" height="743">
<path d="M245.253 792.333C209.538 766.255 204.139 699.338 213.694 654.639C224.85 602.453 251.913 601.495 257.431 560.233C267.704 483.409 178.105 455.224 182.322 376.93C185.769 312.924 246.957 307.472 247.549 236.418C247.977 185.146 216.322 163.34 231.401 118.835C232.69 115.03 247.181 74.1988 282.393 65.1603C317.933 56.0381 353.797 84.6399 371.394 107.5C403.922 149.755 378.888 178.693 399.066 242.935C426.539 330.397 489.203 328.529 496.12 397.111C501.832 453.744 460.419 468.08 468 530.747C475.039 588.939 513.306 597.723 514.291 637.327C516.556 728.435 318.1 845.526 245.253 792.333Z" fill="white"/>
</mask>
<g mask="url(#mask0_1353_317)">
<path d="M296.68 835.446C296.415 835.446 296.158 835.308 296.018 835.061C295.812 834.696 295.94 834.233 296.304 834.026C330.269 814.793 358.719 789.303 380.862 758.261C401.836 728.856 423.521 698.454 422.431 660.304C421.605 631.463 408.319 615.713 391.5 595.771C375.107 576.337 354.706 552.149 340.847 507.659C332.933 482.254 323.083 450.639 331.702 412.926C336.724 390.953 345.517 378.658 353.274 367.811C361.383 356.473 367.788 347.519 366.806 331.43C365.2 305.162 351.307 288.001 335.218 268.131C325.274 255.848 314.991 243.146 306.02 226.655C280.772 180.232 281.016 118.426 306.746 42.9491C306.882 42.5536 307.306 42.3371 307.711 42.4755C308.107 42.6115 308.319 43.0425 308.184 43.4401C282.596 118.497 282.317 179.896 307.354 225.929C316.258 242.299 326.497 254.945 336.398 267.175C352.651 287.248 366.687 304.584 368.32 331.338C369.335 347.964 362.465 357.571 354.509 368.695C346.834 379.426 338.135 391.588 333.181 413.266C324.654 450.578 334.435 481.977 342.295 507.206C356.064 551.404 376.356 575.462 392.66 594.793C409.671 614.961 423.108 630.891 423.947 660.261C425.053 698.922 403.218 729.534 382.1 759.139C359.824 790.367 331.21 816.005 297.053 835.348C296.934 835.414 296.806 835.446 296.68 835.446Z" fill="white"/>
<path d="M329.626 431.812C329.442 431.812 329.257 431.746 329.111 431.611C285.668 391.536 256.622 313.627 239.267 267.079C232.898 249.996 226.314 232.336 224.091 232.336C224.068 232.336 224.046 232.337 224.025 232.341C223.885 232.365 222.644 232.869 222.391 243.178C222.379 243.597 222.002 243.93 221.613 243.919C221.193 243.909 220.862 243.56 220.872 243.141C221.114 233.298 222.208 231.106 223.774 230.843C227.033 230.258 231.068 240.744 240.69 266.549C257.997 312.97 286.965 390.665 330.141 430.495C330.449 430.778 330.469 431.259 330.184 431.568C330.034 431.73 329.83 431.812 329.626 431.812Z" fill="white"/>
<path d="M355.501 543.246C355.278 543.246 355.055 543.147 354.905 542.958C354.646 542.629 354.701 542.151 355.03 541.891C428.042 484.147 447.96 418.799 451.812 374.148C455.987 325.744 442.718 290.535 442.583 290.184C442.433 289.794 442.628 289.354 443.02 289.203C443.405 289.052 443.85 289.248 444.001 289.639C444.137 289.991 457.519 325.471 453.331 374.207C450.87 402.828 442.927 430.365 429.718 456.054C413.216 488.152 388.403 517.433 355.973 543.083C355.833 543.192 355.667 543.246 355.501 543.246Z" fill="white"/>
<path d="M405.078 727.462C405.003 727.462 404.928 727.451 404.853 727.428C319.956 701.05 276.161 654.818 254.372 620.679C230.741 583.656 227.166 552.426 227.133 552.115C227.088 551.699 227.39 551.325 227.807 551.28C228.216 551.235 228.597 551.536 228.642 551.954C228.676 552.262 232.232 583.199 255.697 619.933C277.354 653.834 320.889 699.75 405.302 725.978C405.703 726.103 405.927 726.528 405.803 726.928C405.702 727.254 405.402 727.462 405.078 727.462Z" fill="white"/>
<path d="M303.989 218.385C303.801 218.385 303.612 218.316 303.466 218.176C303.162 217.887 303.15 217.406 303.44 217.103C352.194 165.89 358.909 111.785 355.955 75.4153C352.754 35.9696 337.813 8.27664 337.662 8.00114C337.461 7.63358 337.596 7.17255 337.964 6.97064C338.333 6.76767 338.793 6.90507 338.994 7.27264C339.146 7.54919 354.223 35.4772 357.464 75.2287C360.456 111.926 353.701 166.508 304.539 218.149C304.39 218.306 304.19 218.385 303.989 218.385Z" fill="white"/>
</g>
</g>
<path d="M439.67 874.427C447.153 872.908 462.093 863.008 464.923 858.821C483.759 830.96 522.414 781.087 517.785 745.837C516.995 739.817 489.572 736.145 485.387 730.868C468.472 724.284 462.196 723.048 449.19 708.889C410.793 667.086 485.118 578.074 389.58 555.526C319.6 539.009 263.488 566.74 263.218 459.963C262.947 353.186 164.787 165.629 57.9202 247.802C-3.41136 294.962 68.4412 380.618 40.0992 449.641C13.1671 515.231 43.7584 565.438 113.765 598.611C183.771 631.784 149.931 663.583 134.702 725.17C116.409 799.149 228.535 803.969 280.491 801.779C322.329 800.014 430.054 823.75 439.67 874.427Z" fill="url(#paint1_linear_1353_317)"/>
<g opacity="0.4">
<mask id="mask1_1353_317" style="mask-type:luminance" maskUnits="userSpaceOnUse" x="30" y="227" width="489" height="648">
<path d="M439.768 874.181C447.251 872.663 462.191 862.762 465.021 858.575C483.857 830.714 522.511 780.841 517.883 745.591C517.093 739.571 489.67 735.9 485.485 730.622C468.57 724.038 462.294 722.803 449.288 708.643C410.89 666.84 485.216 577.828 389.678 555.28C319.698 538.764 263.586 566.494 263.316 459.717C263.045 352.94 164.885 165.383 58.0182 247.556C-3.31338 294.716 68.5391 380.372 40.1972 449.395C13.2648 514.985 43.8564 565.192 113.863 598.365C183.869 631.538 150.029 663.337 134.8 724.924C116.507 798.903 228.633 803.723 280.589 801.533C322.427 799.769 430.152 823.504 439.768 874.181Z" fill="white"/>
</mask>
<g mask="url(#mask1_1353_317)">
<path d="M490.727 805.201L491.332 803.694C259.247 710.526 107.589 489.758 85.6473 213.139L84.0278 213.267C94.4271 344.364 135.675 467.568 203.311 569.557C274.418 676.78 373.805 758.264 490.727 805.201Z" fill="#FCFDFE"/>
<path d="M123.669 754.8C186.969 728.873 295.357 720.504 365.284 736.145L362.737 734.284C292.534 718.582 186.614 727.264 123.054 753.297L123.669 754.8Z" fill="#FCFDFE"/>
<path d="M441.84 782.853L446.376 785.109C417.01 762.198 400.355 725.32 396.875 675.502C394.323 638.973 398.781 596.466 410.127 549.16L408.548 548.782C397.163 596.249 392.69 638.922 395.254 675.615C398.769 725.912 412.095 759.645 441.84 782.853Z" fill="#FCFDFE"/>
<path d="M191.441 550.23C191.092 550.503 194.594 555.275 194.263 555.536C194.146 555.441 190.188 550.841 190.072 550.746C137.688 507.976 67.2021 501.054 16.4703 502.362L16.4288 500.738C67.457 499.423 138.657 507.083 191.441 550.23Z" fill="#FCFDFE"/>
<path d="M124.906 409.725L126.626 411.825L126.175 410.024C126.086 409.67 126.015 409.309 125.963 408.948C114.857 330.779 155.074 258.348 180.077 222.082L178.74 221.16C153.544 257.706 113.456 330.8 124.906 409.725Z" fill="#FCFDFE"/>
</g>
</g>
<path d="M381.914 435.582C381.914 435.582 311.108 312.976 215.349 521.478C140.785 683.834 188.977 864.456 361.48 914.018C533.983 963.58 803.41 863.484 718.841 792.942C539.45 643.308 403.299 510.675 381.914 435.582Z" fill="url(#paint2_linear_1353_317)"/>
<g opacity="0.35">
<path d="M299.702 546.069C294.986 561.024 286.883 602.915 289.01 651.567C290.907 694.967 286.967 717.656 356.015 749.223C379.682 760.043 396.05 794.377 432.287 814.803C448.716 824.063 510.605 857.566 590.533 844.028C643.418 835.07 682.794 809.131 709.31 784.961C534.659 638.605 402.917 509.335 381.914 435.582C381.914 435.582 356.042 390.82 314.436 401.416C324.53 412.669 335.632 429.742 338.907 452.69C343.544 485.169 315.178 496.996 299.702 546.069Z" fill="url(#paint3_linear_1353_317)"/>
</g>
<g opacity="0.13">
<path d="M637.579 864.7C555.997 909.748 419.747 937.244 318.236 861.849C224.246 792.04 215.872 675.128 212.738 639.449C207.262 577.093 219.445 522.797 237.01 479C229.951 491.338 222.725 505.419 215.35 521.478C140.785 683.834 188.978 864.457 361.48 914.018C531.277 962.802 794.981 866.588 722.561 796.284C701.978 819.5 674.208 844.474 637.579 864.7Z" fill="url(#paint4_linear_1353_317)"/>
</g>
<path d="M509.058 877.8C506.642 877.8 504.218 877.773 501.763 877.718C461.719 876.825 424.635 868.653 391.544 853.433C350.172 834.403 314.971 804.245 286.918 763.797C263.22 729.628 249.313 690.674 245.58 648.021C242.596 613.92 246.076 577.396 255.92 539.46C272.674 474.9 302.495 427.989 302.794 427.523C303.045 427.131 303.565 427.016 303.96 427.269C304.352 427.52 304.465 428.042 304.214 428.434C303.916 428.899 274.222 475.62 257.541 539.931C247.751 577.673 244.294 614 247.262 647.903C250.973 690.248 264.78 728.918 288.304 762.835C316.182 803.033 351.154 832.998 392.248 851.9C425.129 867.023 461.987 875.142 501.801 876.032C569.613 877.546 623.163 857.267 623.696 857.061C624.128 856.893 624.619 857.111 624.786 857.547C624.953 857.98 624.736 858.469 624.301 858.637C623.785 858.836 573.71 877.797 509.058 877.8Z" fill="#FFA6A4"/>
<path d="M873.777 871.489C870.877 867.853 866.326 852.797 876.869 850.571C887.471 848.332 893.526 844.941 908.676 834.569C923.826 824.197 926.752 834.307 905.171 851.381C883.59 868.454 877.9 876.661 873.777 871.489Z" fill="url(#paint5_linear_1353_317)"/>
<path d="M861.874 849.106L869.811 857.167C871.469 858.851 874.036 859.245 876.123 858.137C877.096 857.62 877.765 856.672 877.927 855.583C878.088 854.494 877.723 853.392 876.943 852.615L865.325 841.049L861.874 849.106Z" fill="url(#paint6_linear_1353_317)"/>
<path d="M441.686 698.753C415.113 718.703 461.728 794.237 546.591 777.308C649.43 756.795 776.561 779.111 857.592 855.935C862.938 851.857 875.872 845.803 870.632 839.637C798.593 754.87 729.771 704.132 670.849 687.462C581.77 662.258 517.351 641.947 441.686 698.753Z" fill="url(#paint7_linear_1353_317)"/>
<g opacity="0.24">
<path d="M731.606 750.819C745.574 760.422 749.994 743.39 758.389 732.6C727.537 710.289 698.123 695.178 670.85 687.462C581.77 662.258 517.351 641.947 441.687 698.753C415.113 718.703 461.728 794.237 546.592 777.308C577.284 771.186 610.149 768.973 643.298 770.791C671.184 756.061 695.869 719.294 731.606 750.819Z" fill="#552D63"/>
</g>
<path d="M737.272 698.02C736.155 692.648 733.248 686.586 745.512 683.25C754.414 680.828 769.55 680.978 783.293 681.31C802.55 681.775 806.095 693.585 777.509 698.769C758.788 702.163 738.86 705.658 737.272 698.02Z" fill="url(#paint8_linear_1353_317)"/>
<path d="M752.827 691.101C752.785 694.056 750.737 696.224 748.265 696.388C742.528 696.77 743.814 693.928 743.856 690.973C743.898 688.017 741.757 685.801 748.418 685.686C750.895 685.643 752.869 688.145 752.827 691.101Z" fill="url(#paint9_linear_1353_317)"/>
<path d="M677.035 662.692L684.562 662.082C684.562 662.082 698.95 664.532 738.051 678.559C746.493 680.624 756.262 706.454 731.14 705.541C706.017 704.627 674.121 720.976 674.121 720.976L677.035 662.692Z" fill="url(#paint10_linear_1353_317)"/>
<path d="M600.416 679.515C555.168 696.217 486.733 702.701 472.725 703.803C454.791 705.214 405.088 743.25 408.195 759.127C409.424 762.673 411.61 767.696 415.628 772.692C424.895 784.215 441.017 791.984 476.207 792.681C523.465 793.617 567.722 781.058 597.014 770.426C639.512 749.064 701.973 707.983 703.057 688.199C705.309 647.124 654.025 659.726 600.416 679.515Z" fill="url(#paint11_linear_1353_317)"/>
<g opacity="0.2">
<path d="M509.765 725.995C544.881 725.078 554.596 700.661 598.505 696.707C626.959 694.145 636.256 703.194 651.305 694.682C663.185 687.963 669.955 675.195 673.817 661.063C654.477 661.24 627.772 669.416 600.416 679.514C556.468 695.737 490.647 702.319 474.065 703.695C473.574 703.735 462.888 698.977 462.888 698.977C462.888 698.977 454.359 703.031 448.217 706.277C470.136 720.248 496.94 726.33 509.765 725.995Z" fill="url(#paint12_linear_1353_317)"/>
</g>
<path d="M421.34 772.229L415.872 773.017C415.872 773.017 393.281 750.554 387.984 742.146C381.522 731.888 456.492 702.738 485.255 672.319C515.479 640.354 488.006 713.187 488.006 713.187L421.34 772.229Z" fill="url(#paint13_linear_1353_317)"/>
<path d="M454.421 492.035C454.421 492.035 496.947 509.205 528.707 566.795C552.585 610.094 595.5 581.339 595.5 581.339L607.355 599.677L567.583 619.502L480.617 660.026L482.84 539.111L454.421 492.035Z" fill="url(#paint14_linear_1353_317)"/>
<path d="M430.273 488.662C430.273 488.662 322.271 454.19 308.977 533.559C296.236 609.63 307.82 639.357 361.264 716.427C366.638 724.177 377.528 726.49 378.142 727.57C381.443 733.384 384.76 739.414 388.072 745.69C460.011 701.008 531.528 695.878 531.528 695.878C484.399 626.642 480.898 579.455 487.315 548.521C490.534 533.003 483.85 512.223 472.42 498.442C460.9 484.554 450.114 484.781 430.273 488.662Z" fill="url(#paint15_linear_1353_317)"/>
<g opacity="0.25">
<path d="M474.125 640.354C469.752 636.48 447.345 616.628 418.432 612.058C408.338 610.462 401.396 611.352 388.198 606.963C374.946 602.555 370.046 597.699 367.935 595.282C362.436 588.988 364.079 583.862 359.334 576.392C354.143 568.222 351.981 577.065 342.961 560.573C337.446 550.49 332.118 537.371 329.128 520.482C326.157 524.426 323.266 528.742 320.494 533.52C281.787 600.237 307.82 639.357 361.264 716.427C366.638 724.176 377.528 726.489 378.142 727.569C381.442 733.383 384.759 739.414 388.072 745.689C460.01 701.007 531.527 695.877 531.527 695.877C531.527 695.877 525.485 673.401 517.834 641.977C513.611 649.554 507.01 658.644 498.438 659.034C490.11 659.413 486.457 651.28 474.125 640.354Z" fill="url(#paint16_linear_1353_317)"/>
</g>
<path d="M427.223 661.425C427.223 661.425 434.615 663.353 440.37 662.342C446.126 661.331 445.793 660.748 452.06 661.268C458.152 661.773 470.583 660.73 465.244 653.311C459.301 645.052 446.282 644.253 441.713 647.929C437.308 651.473 430.671 652.909 430.671 652.909L427.223 661.425Z" fill="white"/>
<path d="M378.188 503.819C378.188 503.819 341.843 432.689 278.06 578.469C225.906 697.669 413.063 711.359 427.866 671.735C434.833 662.665 431.836 651.058 431.836 651.058C431.836 651.058 424.109 637.435 415.146 635.058C380.479 625.863 335.747 643.043 345.869 603.929C357.343 559.598 401.892 509.609 378.188 503.819Z" fill="url(#paint17_linear_1353_317)"/>
<path d="M382.07 725.281C381.957 725.297 381.84 725.245 381.78 725.14C381.7 725.003 381.747 724.825 381.886 724.745C382.642 724.307 458.247 680.906 518.539 679.055C518.699 679.05 518.832 679.176 518.837 679.335C518.842 679.494 518.711 679.624 518.557 679.633C458.395 681.487 382.929 724.808 382.174 725.246C382.141 725.265 382.105 725.276 382.07 725.281Z" fill="#AE87F9"/>
<path d="M449.237 695.701C448.669 695.852 448.189 696.331 448.107 696.896C448.095 696.979 448.652 699.819 448.655 699.905C448.676 700.578 449.157 701.148 449.817 701.281L505.604 712.488L601.485 661.461L554.178 670.663L449.237 695.701Z" fill="#26264F"/>
<path d="M449.168 695.317C448.517 695.49 448.072 696.088 448.092 696.761C448.113 697.434 448.595 698.004 449.255 698.136L505.041 709.344L600.922 658.316L553.616 667.518L449.168 695.317Z" fill="#444B8C"/>
<path d="M502.572 708.837L498.389 603.111C498.322 601.417 499.429 599.899 501.063 599.445L619.176 566.621C620.234 566.327 621.368 566.524 622.264 567.157C623.161 567.79 623.725 568.793 623.802 569.888L630.648 668.088C630.766 669.783 629.701 671.335 628.078 671.835L505.791 709.512L502.572 708.837Z" fill="url(#paint18_linear_1353_317)"/>
<path d="M505.604 712.488L501.404 604.424C501.338 602.731 502.445 601.214 504.078 600.76L622.193 567.935C623.251 567.641 624.384 567.838 625.281 568.472C626.177 569.105 626.742 570.108 626.818 571.203L633.666 669.417C633.784 671.105 632.727 672.654 631.112 673.16L505.604 712.488Z" fill="#26264F"/>
<path d="M505.604 712.488L631.112 673.16C632.727 672.654 633.784 671.106 633.666 669.417L631.601 639.797C595.893 665.957 548.299 674.292 504.66 688.197L505.604 712.488Z" fill="#1F1F44"/>
<path d="M407.846 440.331C408.726 445.013 413.169 470.127 402.784 476.299C400.533 477.637 396.254 478.328 387.698 479.709C382.096 480.613 377.401 481.137 374.092 481.448C374.462 485.65 375.702 492.506 380.381 498.831C393.498 516.563 420.79 512.748 424.684 512.139C438.417 509.994 448.017 502.92 451.331 500.421C456.377 496.614 459.98 492.69 462.357 489.751C457.13 487.062 450.939 484.312 443.827 481.926C438.512 480.142 433.513 478.84 428.96 477.88C428.33 473.034 427.699 468.188 427.068 463.342C420.66 455.672 414.253 448.002 407.846 440.331Z" fill="url(#paint19_linear_1353_317)"/>
<path d="M449.288 436.246C461.607 427.685 458.762 394.71 448.226 390.785C442.818 388.77 440.235 396.218 426.913 399.216C411.497 402.686 402.863 395.436 397.612 401.048C393.389 405.561 394.717 414.805 395.929 418.951C396.85 422.101 399.325 427.85 400.575 431.974C401.36 434.565 401.735 435.865 401.987 436.751C402.384 438.142 402.461 438.482 402.811 439.542C404.218 443.799 407.207 451.167 413.943 460.767C415.252 458.416 417.045 455.553 419.459 452.578C420.387 451.434 424.079 446.98 428.703 443.718C437.913 437.221 443.757 440.091 449.288 436.246Z" fill="url(#paint20_linear_1353_317)"/>
<path d="M404.688 450.478C404.688 450.478 409.468 467.236 427.188 470.912C443.053 474.204 454.991 439.885 447.086 429.718C444.449 426.326 438.081 423.462 432.254 423.483C428.813 423.495 427.365 424.524 421.741 424.436C416.554 424.354 415.334 423.439 413.534 424.265C411.281 425.299 408.901 428.7 409.129 439.761C406.988 435.928 403.738 433.787 400.88 434.282C400.424 434.361 399.152 434.794 398.245 435.731C394.964 439.12 397.201 445.225 404.688 450.478Z" fill="white"/>
<path d="M89.6872 540.11C112.577 505.096 111.697 453.918 84.3573 422.254C75.8718 412.426 64.0118 403.883 51.0743 404.992C37.829 406.125 27.1548 417.487 23.1261 430.155C19.095 442.823 20.4924 456.55 22.8615 469.631C26.1759 487.949 31.7271 506.69 44.4336 520.294C57.1378 533.9 73.3512 549.036 89.6872 540.11Z" fill="#FF725E"/>
<path d="M79.4844 707.482C88.1045 687.368 81.8535 661.899 64.8969 648.062C59.6344 643.769 52.7507 640.443 46.1846 642.184C39.4621 643.969 34.9932 650.79 34.0648 657.681C33.1364 664.574 35.1015 671.518 37.5067 678.043C40.8739 687.18 45.4317 696.332 53.2125 702.191C60.9909 708.052 71.8768 713.56 79.4844 707.482Z" fill="#FF725E"/>
<path d="M134.688 695.464C128.394 664.422 144.754 630.17 172.854 615.556C181.575 611.02 192.312 608.334 201.1 612.737C210.1 617.245 214.425 628.227 213.711 638.266C212.996 648.305 208.169 657.57 202.839 666.109C195.376 678.065 186.222 689.694 173.474 695.704C160.727 701.715 143.679 706.318 134.688 695.464Z" fill="#FF725E"/>
<path d="M130.72 611.528C119.759 576.159 138.342 533.277 169.313 512.985C178.927 506.686 191.099 502.303 201.839 506.394C212.835 510.582 219.153 522.848 219.5 534.612C219.846 546.374 215.317 557.716 210.117 568.273C202.839 583.055 193.553 597.652 179.429 606.138C165.309 614.621 142.45 623.096 130.72 611.528Z" fill="#FF725E"/>
<path d="M108.71 784.398C108.76 784.403 108.883 783.814 109.068 782.686C109.261 781.399 109.503 779.763 109.804 777.753C109.956 776.663 110.122 775.475 110.3 774.188C110.552 772.882 110.822 771.48 111.11 769.981C111.685 766.963 112.281 763.516 113.27 759.776C113.725 757.893 114.201 755.925 114.696 753.881C115.29 751.853 115.908 749.749 116.546 747.57C117.727 743.178 119.468 738.639 121.101 733.803C124.726 724.252 129.228 713.948 134.753 703.529C140.384 693.162 146.483 683.71 152.438 675.41C155.568 671.374 158.389 667.412 161.395 664.002C162.858 662.268 164.27 660.589 165.631 658.972C167.062 657.428 168.438 655.947 169.756 654.525C172.327 651.634 174.869 649.231 177.068 647.086C178.155 646.018 179.174 645.018 180.125 644.087C181.099 643.226 181.998 642.432 182.821 641.703C184.331 640.342 185.558 639.236 186.525 638.365C187.362 637.588 187.785 637.16 187.754 637.119C187.723 637.078 187.234 637.427 186.335 638.132C185.317 638.949 184.028 639.986 182.441 641.263C181.587 641.963 180.656 642.728 179.646 643.558C178.667 644.464 177.616 645.438 176.493 646.478C174.232 648.577 171.622 650.937 168.989 653.796C167.642 655.204 166.235 656.673 164.77 658.203C163.38 659.809 161.937 661.479 160.443 663.203C157.376 666.599 154.504 670.556 151.325 674.594C145.269 682.899 139.094 692.39 133.43 702.821C127.869 713.306 123.377 723.694 119.8 733.329C118.191 738.209 116.483 742.791 115.348 747.223C114.735 749.419 114.143 751.546 113.571 753.592C113.106 755.658 112.659 757.643 112.231 759.543C111.305 763.319 110.778 766.797 110.28 769.842C110.035 771.352 109.804 772.769 109.59 774.085C109.458 775.383 109.335 776.581 109.222 777.68C109.037 779.71 108.885 781.358 108.765 782.659C108.678 783.794 108.657 784.396 108.71 784.398Z" fill="#263238"/>
<path d="M109.518 790.755C109.544 790.752 109.542 790.512 109.518 790.05C109.477 789.499 109.429 788.826 109.366 788.001C109.188 786.082 108.948 783.458 108.642 780.143C108.474 778.426 108.286 776.533 108.082 774.472C107.926 772.396 107.868 770.13 107.743 767.701C107.563 762.84 107.096 757.316 107.269 751.194C107.284 748.133 107.3 744.926 107.315 741.59C107.348 738.252 107.664 734.786 107.834 731.195C108.075 723.999 109.054 716.37 109.92 708.329C112.116 692.308 115.548 674.825 120.769 656.899C126.164 639.017 132.819 622.486 139.713 607.855C143.371 600.642 146.709 593.712 150.43 587.548C152.246 584.443 153.87 581.367 155.664 578.548C157.47 575.741 159.204 573.047 160.861 570.471C164.056 565.245 167.456 560.867 170.258 556.892C171.69 554.924 172.969 553.058 174.234 551.4C175.528 549.782 176.716 548.298 177.794 546.951C179.858 544.339 181.491 542.273 182.684 540.76C183.184 540.101 183.593 539.562 183.927 539.124C184.201 538.752 184.331 538.549 184.312 538.533C184.293 538.516 184.122 538.682 183.809 539.023C183.444 539.437 182.999 539.945 182.453 540.563C181.202 542.035 179.497 544.043 177.337 546.585C176.226 547.911 175.002 549.37 173.667 550.963C172.365 552.596 171.05 554.443 169.583 556.391C166.711 560.328 163.238 564.679 159.976 569.887C158.288 572.455 156.52 575.142 154.68 577.939C152.857 580.751 151.2 583.825 149.353 586.927C145.569 593.089 142.176 600.026 138.469 607.254C131.477 621.913 124.752 638.507 119.331 656.473C114.083 674.483 110.677 692.056 108.549 708.156C107.716 716.235 106.781 723.9 106.593 731.128C106.449 734.736 106.163 738.216 106.158 741.566C106.175 744.914 106.192 748.133 106.208 751.204C106.105 757.347 106.644 762.886 106.906 767.754C107.072 770.186 107.17 772.454 107.37 774.532C107.62 776.596 107.851 778.486 108.06 780.203C108.484 783.51 108.82 786.125 109.066 788.042C109.186 788.86 109.285 789.528 109.364 790.074C109.441 790.526 109.491 790.76 109.518 790.755Z" fill="#263238"/>
<path d="M49.9222 447.275C49.9006 447.29 49.9992 447.511 50.2157 447.929C50.4802 448.422 50.8025 449.026 51.2018 449.767C52.1566 451.47 53.4627 453.803 55.115 456.752C55.9544 458.272 56.9622 459.922 57.9339 461.798C58.8791 463.698 59.9013 465.754 60.9957 467.957C62.0997 470.17 63.2782 472.53 64.5265 475.026C65.7195 477.556 66.8547 480.291 68.1175 483.127C69.3417 485.979 70.7199 488.928 71.9874 492.072C73.2068 495.237 74.4768 498.527 75.7876 501.931C76.4442 503.633 77.1105 505.368 77.7863 507.128C78.39 508.915 79.0057 510.731 79.6287 512.574C80.8722 516.261 82.1493 520.054 83.4601 523.943C88.3114 539.632 92.9101 557.106 96.7921 575.662C100.551 594.249 103.19 612.129 105.136 628.443C106.805 644.784 108.039 659.542 108.375 671.965C108.691 678.173 108.755 683.794 108.775 688.729C108.854 693.667 108.873 697.92 108.758 701.393C108.71 704.774 108.674 707.447 108.645 709.4C108.65 710.241 108.652 710.927 108.654 711.485C108.664 711.956 108.683 712.197 108.707 712.197C108.734 712.197 108.765 711.959 108.806 711.492C108.844 710.936 108.89 710.253 108.948 709.414C109.044 707.461 109.174 704.789 109.342 701.41C109.549 697.932 109.617 693.674 109.617 688.729C109.677 683.784 109.686 678.151 109.439 671.929C109.237 659.475 108.111 644.678 106.511 628.289C104.635 611.929 102.033 593.996 98.2641 575.359C94.3701 556.754 89.7184 539.237 84.7806 523.524C83.4457 519.63 82.1421 515.833 80.877 512.138C80.2396 510.296 79.6118 508.478 78.9961 506.688C78.3058 504.927 77.6228 503.193 76.9541 501.488C75.6096 498.085 74.3108 494.794 73.0625 491.629C71.7637 488.488 70.3519 485.542 69.0916 482.694C67.7928 479.863 66.6238 477.136 65.3948 474.615C64.108 472.128 62.891 469.778 61.7509 467.575C60.6133 465.386 59.5526 463.344 58.5713 461.459C57.5587 459.597 56.51 457.964 55.6297 456.463C53.8716 453.57 52.4813 451.28 51.4664 449.608C51.0166 448.896 50.651 448.319 50.3528 447.848C50.0882 447.456 49.9439 447.263 49.9222 447.275Z" fill="#263238"/>
<path d="M57.7006 662.121C57.6164 662.178 58.4871 663.698 60.1346 666.392C61.8086 669.069 64.108 673.021 66.8018 677.973C69.5197 682.916 72.4756 688.948 75.4725 695.767C78.3972 702.619 81.3219 710.275 83.8882 718.481C86.3993 726.707 88.3066 734.68 89.7545 741.99C91.1254 749.313 92.0875 755.964 92.6311 761.575C93.1987 767.184 93.5306 771.744 93.6581 774.897C93.8168 778.051 93.9539 779.799 94.0574 779.799C94.1608 779.799 94.2209 778.051 94.2402 774.883C94.2907 771.715 94.1223 767.129 93.6846 761.479C93.2733 755.824 92.4146 749.121 91.1086 741.735C89.7232 734.365 87.8472 726.322 85.3169 718.039C82.7337 709.775 79.7489 702.076 76.7352 695.211C73.647 688.378 70.5755 682.358 67.7254 677.456C64.8993 672.545 62.4532 668.66 60.6229 666.075C58.8214 663.472 57.7872 662.063 57.7006 662.121Z" fill="#263238"/>
<path d="M153.668 768.639H53.114L65.2795 871.343H141.144L153.668 768.639Z" fill="#455A64"/>
<path d="M150 860.255L141.456 871.343H65.2794L56.4957 860.611L150 860.255Z" fill="#263238"/>
<path d="M57.0297 798.846C57.0297 799.26 77.8971 799.596 103.633 799.596C129.378 799.596 150.24 799.262 150.24 798.846C150.24 798.432 129.378 798.095 103.633 798.095C77.8971 798.095 57.0297 798.432 57.0297 798.846Z" fill="#FAFAFA"/>
<path d="M57.0297 805.684C57.0297 806.098 77.8971 806.434 103.633 806.434C129.378 806.434 150.24 806.098 150.24 805.684C150.24 805.27 129.378 804.934 103.633 804.934C77.8971 804.934 57.0297 805.268 57.0297 805.684Z" fill="#FAFAFA"/>
<path d="M58.2852 812.303C58.2852 812.716 78.4214 813.053 103.257 813.053C128.1 813.053 148.232 812.716 148.232 812.303C148.232 811.889 128.1 811.552 103.257 811.552C78.4214 811.552 58.2852 811.889 58.2852 812.303Z" fill="#FAFAFA"/>
<path d="M138.306 547.292C138.27 547.297 138.274 547.634 138.318 548.273C138.38 549.029 138.455 549.947 138.549 551.061C138.808 553.632 139.16 557.091 139.583 561.293C140.502 569.927 141.839 581.85 143.378 595.009C143.438 595.511 143.496 596.014 143.551 596.478L143.604 596.921L144.049 596.928C156.968 597.128 168.594 597.253 176.991 597.293C181.072 597.291 184.425 597.291 186.922 597.291C187.997 597.269 188.884 597.253 189.618 597.241C190.234 597.217 190.558 597.19 190.558 597.154C190.558 597.12 190.236 597.082 189.623 597.039C188.892 597 188.004 596.957 186.931 596.901C184.435 596.822 181.084 596.716 177.005 596.586C168.611 596.363 156.987 596.12 144.069 595.913L144.566 596.363C144.511 595.898 144.453 595.396 144.396 594.891C142.856 581.732 141.404 569.824 140.304 561.211C139.746 557.023 139.289 553.579 138.948 551.015C138.78 549.911 138.642 548.997 138.527 548.249C138.414 547.617 138.339 547.287 138.306 547.292Z" fill="#263238"/>
<path d="M161.169 516.58C161.133 516.58 161.107 516.929 161.09 517.588C161.083 518.363 161.076 519.315 161.066 520.472C161.09 523.127 161.124 526.711 161.162 531.069C161.29 540.016 161.533 552.377 161.867 566.024C161.881 566.577 161.893 567.125 161.908 567.638L161.922 568.174L162.456 568.133C175.689 567.104 187.648 567.092 196.266 567.371C200.576 567.503 204.056 567.681 206.459 567.808C207.565 567.861 208.479 567.905 209.227 567.941C209.86 567.962 210.194 567.955 210.199 567.921C210.201 567.888 209.874 567.825 209.247 567.739C208.619 567.657 207.69 567.537 206.49 567.421C204.092 567.173 200.614 566.89 196.295 566.664C187.662 566.202 175.661 566.096 162.377 567.12L162.925 567.616C162.913 567.106 162.899 566.555 162.887 566.002C162.552 552.353 162.194 539.997 161.884 531.055C161.711 526.699 161.569 523.118 161.463 520.465C161.395 519.313 161.343 518.36 161.297 517.586C161.246 516.924 161.203 516.578 161.169 516.58Z" fill="#263238"/>
<path d="M187.929 506.116C187.86 506.106 187.648 507.157 187.304 509.064C186.919 511.145 186.419 513.865 185.813 517.148C184.509 523.972 182.474 533.381 179.598 543.68L179.295 544.762L180.315 544.271C180.697 544.089 181.108 543.889 181.52 543.689C191.398 538.91 201.204 536.702 208.321 535.851C211.888 535.413 214.798 535.25 216.811 535.177C218.824 535.11 219.94 535.084 219.942 535.007C219.942 534.971 219.666 534.934 219.134 534.894C218.603 534.86 217.819 534.793 216.806 534.783C214.783 534.735 211.849 534.788 208.241 535.139C201.045 535.815 191.08 537.939 181.077 542.778C180.659 542.98 180.242 543.179 179.855 543.367L180.574 543.959C183.451 533.621 185.378 524.152 186.506 517.28C187.073 513.843 187.458 511.058 187.684 509.129C187.915 507.196 187.994 506.125 187.929 506.116Z" fill="#263238"/>
<path d="M45.9321 693.352C45.9513 693.506 48.8472 693.21 53.5373 693.025C58.2226 692.849 64.7142 692.856 71.8239 693.621C73.2671 693.773 74.6813 693.953 76.0306 694.136L76.5116 694.201L76.5958 693.727C77.6806 687.647 78.5921 682.288 79.203 678.442C79.8115 674.596 80.1194 672.263 79.9943 672.241C79.8693 672.22 79.3353 674.509 78.5512 678.324C77.7671 682.139 76.7329 687.476 75.6073 693.549L76.1725 693.142C74.8112 692.948 73.3873 692.76 71.9298 692.608C64.7551 691.836 58.1986 691.942 53.494 692.305C51.1393 692.488 49.2441 692.726 47.9404 692.921C46.6368 693.128 45.9225 693.282 45.9321 693.352Z" fill="#263238"/>
<path d="M36.434 674.48C36.4725 674.642 39.2505 673.987 43.8011 673.425C48.3445 672.867 54.6966 672.513 61.6452 673.247C62.7275 673.357 63.7906 673.499 64.796 673.636L65.3203 673.708L65.3732 673.189C66.0058 666.938 66.5205 661.399 66.8428 657.418C67.1651 653.438 67.2974 651.018 67.1699 651.003C67.0424 650.989 66.6744 653.387 66.1717 657.348C65.6691 661.31 65.0341 666.837 64.3678 673.085L64.9451 672.638C63.9253 672.491 62.8478 672.347 61.751 672.234C54.7038 671.488 48.2627 671.965 43.7001 672.713C41.4152 673.083 39.5896 673.506 38.3413 673.836C37.093 674.18 36.4172 674.413 36.434 674.48Z" fill="#263238"/>
<path d="M29.6202 495.694C29.6058 495.725 29.9497 495.903 30.6183 496.213C31.3928 496.557 32.3645 496.99 33.5551 497.519C36.2513 498.669 39.936 500.237 44.4289 502.149C53.7658 506.017 66.4436 511.267 80.4514 517.071C81.1176 517.343 81.7814 517.615 82.3972 517.867L82.8542 518.055L83.0538 517.605C89.0018 504.174 94.3461 492.103 98.2738 483.232C100.126 478.934 101.641 475.416 102.752 472.837C103.226 471.687 103.611 470.749 103.921 469.997C104.179 469.342 104.299 468.994 104.268 468.979C104.236 468.965 104.056 469.287 103.738 469.915C103.385 470.646 102.942 471.56 102.399 472.678C101.215 475.226 99.6015 478.699 97.6292 482.944C93.6294 491.78 88.1841 503.806 82.1278 517.189L82.7844 516.927C82.1687 516.674 81.5048 516.402 80.8386 516.13C66.7875 510.435 54.0689 505.281 44.7031 501.485C40.1573 499.696 36.4341 498.229 33.7066 497.154C32.4848 496.694 31.489 496.321 30.6977 496.023C30.005 495.775 29.6346 495.662 29.6202 495.694Z" fill="#263238"/>
<path d="M20.8123 452.258C20.7955 452.287 21.0985 452.511 21.6974 452.91C22.3925 453.36 23.2656 453.923 24.3359 454.613C26.7676 456.128 30.0915 458.202 34.1539 460.732C42.6129 465.889 54.1217 472.907 66.9077 480.705L67.432 481.025L67.6485 480.445C67.8361 479.945 68.0381 479.406 68.2402 478.865C73.5797 464.46 78.4093 451.424 81.9666 441.83C83.6406 437.173 85.0139 433.356 86.0169 430.566C86.445 429.315 86.7914 428.296 87.0704 427.488C87.3013 426.78 87.4047 426.403 87.371 426.391C87.3373 426.379 87.169 426.732 86.8755 427.418C86.5508 428.211 86.1444 429.207 85.6441 430.431C84.5666 433.195 83.0898 436.971 81.2907 441.584C77.6613 451.152 72.7331 464.15 67.2853 478.516C67.0833 479.057 66.8812 479.596 66.6936 480.096L67.4344 479.836C54.5859 472.142 43.0218 465.218 34.5219 460.128C30.3922 457.709 27.0129 455.732 24.5379 454.284C23.4292 453.658 22.5248 453.148 21.8032 452.74C21.1683 452.396 20.8291 452.23 20.8123 452.258Z" fill="#263238"/>
<path d="M23.6985 429.08C23.6697 429.14 24.4417 429.575 25.856 430.354C27.2702 431.136 29.3122 432.286 31.792 433.825C36.7539 436.887 43.4259 441.63 50.0161 448.085L51.2764 449.319L50.8555 447.6C50.4153 445.803 50.0089 443.905 49.6962 441.955C48.0174 431.502 49.3282 421.818 51.1177 415.158C52.0124 411.81 53.0033 409.179 53.6936 407.363C54.4296 405.567 54.8361 404.566 54.7687 404.532C54.711 404.504 54.1843 405.446 53.3304 407.207C52.5223 408.987 51.4207 411.601 50.425 414.964C48.4359 421.648 46.9831 431.482 48.6908 442.113C49.0083 444.095 49.4244 446.024 49.879 447.85L50.7184 447.364C44.0344 440.87 37.2181 436.18 32.1335 433.253C29.5912 431.781 27.4891 430.715 26.0195 430.032C24.55 429.351 23.725 429.027 23.6985 429.08Z" fill="#263238"/>
<path d="M138.44 654.547C138.373 654.563 138.551 655.485 138.902 657.147C139.253 658.806 139.756 661.214 140.304 664.213C141.413 670.204 142.604 678.594 143.005 688.029L143.025 688.486L143.482 688.515C144.196 688.558 144.963 688.604 145.735 688.652C155.707 689.253 164.734 689.742 171.274 690.045C174.398 690.167 177 690.271 179.021 690.35C180.851 690.401 181.864 690.394 181.868 690.324C181.873 690.254 180.868 690.126 179.045 689.956C177.029 689.792 174.434 689.581 171.319 689.328C164.792 688.842 155.77 688.241 145.8 687.64C145.028 687.594 144.261 687.548 143.547 687.505L144.023 687.991C143.604 678.493 142.284 670.065 140.992 664.083C140.35 661.089 139.742 658.698 139.275 657.062C138.806 655.417 138.503 654.53 138.44 654.547Z" fill="#263238"/>
<path d="M158.199 626.216C158.134 626.225 158.196 627.154 158.365 628.838C158.577 630.702 158.851 633.097 159.178 635.983C159.909 642.032 160.991 650.434 162.259 659.852L162.314 660.264L162.73 660.29C163.762 660.357 164.859 660.43 165.965 660.502C176.182 661.194 185.397 662.25 192.052 663.116C195.236 663.544 197.887 663.898 199.934 664.172C201.795 664.425 202.83 664.538 202.842 664.465C202.854 664.398 201.841 664.153 199.999 663.78C198.154 663.412 195.477 662.926 192.155 662.402C185.512 661.351 176.283 660.179 166.037 659.484C164.926 659.412 163.825 659.342 162.793 659.278L163.264 659.715C161.973 650.299 160.772 641.915 159.861 635.89C159.406 633.02 159.031 630.639 158.738 628.787C158.454 627.12 158.264 626.209 158.199 626.216Z" fill="#263238"/>
<path d="M181.459 614.019C181.313 614.055 181.924 616.781 182.64 621.269C183.364 625.754 184.117 632.025 184.257 639.065L184.269 639.63L184.834 639.558C185.37 639.49 185.943 639.416 186.52 639.344C193.899 638.432 200.638 638.216 205.514 638.216C207.777 638.242 209.706 638.264 211.291 638.28C212.657 638.307 213.415 638.297 213.42 638.225C213.424 638.158 212.676 638.033 211.315 637.884C209.954 637.739 207.974 637.585 205.526 637.494C200.631 637.306 193.832 637.412 186.397 638.329C185.815 638.403 185.238 638.478 184.697 638.547L185.272 639.041C185.113 631.938 184.235 625.622 183.326 621.144C182.876 618.902 182.438 617.11 182.094 615.888C181.755 614.664 181.522 614.003 181.459 614.019Z" fill="#263238"/>
<path d="M48.9795 642.343C48.7246 642.48 50.9036 646.965 53.4676 652.546C56.0411 658.123 58.035 662.693 58.3044 662.587C58.5594 662.491 56.9816 657.729 54.3912 652.117C51.8128 646.508 49.22 642.213 48.9795 642.343Z" fill="#263238"/>
<path d="M36.3402 655.735C36.3258 656.055 41.6268 656.115 47.7697 658.051C53.9317 659.929 58.3356 662.878 58.5064 662.606C58.6748 662.428 54.4152 659.018 48.0727 657.079C41.7471 655.09 36.3017 655.492 36.3402 655.735Z" fill="#263238"/>
</g>
<defs>
<linearGradient id="paint0_linear_1353_317" x1="224.125" y1="104.401" x2="339.788" y2="511.213" gradientUnits="userSpaceOnUse">
<stop stop-color="#FF9085"/>
<stop offset="1" stop-color="#FB6FBB"/>
</linearGradient>
<linearGradient id="paint1_linear_1353_317" x1="-15.7088" y1="362.948" x2="1009.31" y2="1241.21" gradientUnits="userSpaceOnUse">
<stop offset="0.0036" stop-color="#E38DDD"/>
<stop offset="1" stop-color="#9571F6"/>
</linearGradient>
<linearGradient id="paint2_linear_1353_317" x1="316.716" y1="471.982" x2="736.975" y2="1369.75" gradientUnits="userSpaceOnUse">
<stop stop-color="#FFC444"/>
<stop offset="0.9964" stop-color="#F36F56"/>
</linearGradient>
<linearGradient id="paint3_linear_1353_317" x1="364.963" y1="449.397" x2="785.22" y2="1347.16" gradientUnits="userSpaceOnUse">
<stop stop-color="#FF9085"/>
<stop offset="1" stop-color="#FB6FBB"/>
</linearGradient>
<linearGradient id="paint4_linear_1353_317" x1="316.716" y1="471.982" x2="736.976" y2="1369.75" gradientUnits="userSpaceOnUse">
<stop stop-color="#FF9085"/>
<stop offset="1" stop-color="#FB6FBB"/>
</linearGradient>
<linearGradient id="paint5_linear_1353_317" x1="871.722" y1="869.457" x2="915.462" y2="826.282" gradientUnits="userSpaceOnUse">
<stop stop-color="#40447E"/>
<stop offset="0.9964" stop-color="#3C3B6B"/>
</linearGradient>
<linearGradient id="paint6_linear_1353_317" x1="775.936" y1="712.165" x2="1174.39" y2="1303.15" gradientUnits="userSpaceOnUse">
<stop stop-color="#FFC444"/>
<stop offset="0.9964" stop-color="#F36F56"/>
</linearGradient>
<linearGradient id="paint7_linear_1353_317" x1="420.142" y1="640.847" x2="920.712" y2="915.907" gradientUnits="userSpaceOnUse">
<stop stop-color="#311944"/>
<stop offset="1" stop-color="#6B3976"/>
</linearGradient>
<linearGradient id="paint8_linear_1353_317" x1="737.579" y1="699.056" x2="796.033" y2="680.276" gradientUnits="userSpaceOnUse">
<stop stop-color="#40447E"/>
<stop offset="0.9964" stop-color="#3C3B6B"/>
</linearGradient>
<linearGradient id="paint9_linear_1353_317" x1="727.991" y1="670.124" x2="1337.24" y2="1320.6" gradientUnits="userSpaceOnUse">
<stop stop-color="#FFC444"/>
<stop offset="0.9964" stop-color="#F36F56"/>
</linearGradient>
<linearGradient id="paint10_linear_1353_317" x1="378.199" y1="716.568" x2="754.713" y2="685.252" gradientUnits="userSpaceOnUse">
<stop stop-color="#311944"/>
<stop offset="1" stop-color="#6B3976"/>
</linearGradient>
<linearGradient id="paint11_linear_1353_317" x1="232.532" y1="787.364" x2="691.024" y2="708.898" gradientUnits="userSpaceOnUse">
<stop stop-color="#311944"/>
<stop offset="1" stop-color="#893976"/>
</linearGradient>
<linearGradient id="paint12_linear_1353_317" x1="396.576" y1="730.863" x2="674.109" y2="675.655" gradientUnits="userSpaceOnUse">
<stop stop-color="#311944"/>
<stop offset="1" stop-color="#6B3976"/>
</linearGradient>
<linearGradient id="paint13_linear_1353_317" x1="240.517" y1="755.568" x2="677.536" y2="680.777" gradientUnits="userSpaceOnUse">
<stop stop-color="#311944"/>
<stop offset="1" stop-color="#893976"/>
</linearGradient>
<linearGradient id="paint14_linear_1353_317" x1="678.01" y1="771.13" x2="506.508" y2="586.765" gradientUnits="userSpaceOnUse">
<stop stop-color="#AA80F9"/>
<stop offset="0.9964" stop-color="#6165D7"/>
</linearGradient>
<linearGradient id="paint15_linear_1353_317" x1="425.762" y1="719.717" x2="406.942" y2="536.711" gradientUnits="userSpaceOnUse">
<stop stop-color="#AA80F9"/>
<stop offset="0.9964" stop-color="#6165D7"/>
</linearGradient>
<linearGradient id="paint16_linear_1353_317" x1="424.147" y1="718.589" x2="404.224" y2="524.861" gradientUnits="userSpaceOnUse">
<stop stop-color="#AA80F9"/>
<stop offset="0.9964" stop-color="#6165D7"/>
</linearGradient>
<linearGradient id="paint17_linear_1353_317" x1="362.589" y1="753.9" x2="339.75" y2="531.826" gradientUnits="userSpaceOnUse">
<stop stop-color="#AA80F9"/>
<stop offset="0.9964" stop-color="#6165D7"/>
</linearGradient>
<linearGradient id="paint18_linear_1353_317" x1="492.161" y1="650.638" x2="633.738" y2="625.311" gradientUnits="userSpaceOnUse">
<stop stop-color="#40447E"/>
<stop offset="0.9964" stop-color="#3C3B6B"/>
</linearGradient>
<linearGradient id="paint19_linear_1353_317" x1="404.533" y1="541.031" x2="435.144" y2="417.093" gradientUnits="userSpaceOnUse">
<stop stop-color="white"/>
<stop offset="1" stop-color="#D8DEE8"/>
</linearGradient>
<linearGradient id="paint20_linear_1353_317" x1="365.215" y1="497.248" x2="441.259" y2="395.28" gradientUnits="userSpaceOnUse">
<stop stop-color="#311944"/>
<stop offset="1" stop-color="#6B3976"/>
</linearGradient>
<clipPath id="clip0_1353_317">
<rect width="964" height="958" fill="white"/>
</clipPath>
</defs>
</svg>
