<svg width="243" height="218" viewBox="0 0 243 218" fill="none" xmlns="http://www.w3.org/2000/svg">
<mask id="path-1-inside-1_1552_7" fill="white">
<path fill-rule="evenodd" clip-rule="evenodd" d="M116.917 22.3728C128.546 15.3076 142.196 11.239 156.797 11.239C198.85 11.239 233.02 44.99 233.697 86.8818C238.442 162.369 116.916 216.661 116.916 216.661C116.916 216.661 -4.64739 162.352 0.137645 86.8465C0.833411 44.971 34.9963 11.239 77.0377 11.239C91.6384 11.239 105.289 15.3076 116.917 22.3728Z"/>
</mask>
<path d="M116.917 22.3728L106.532 39.4652L116.917 45.775L127.302 39.4652L116.917 22.3728ZM233.697 86.8818L213.7 87.2051L213.708 87.6712L213.737 88.1365L233.697 86.8818ZM116.916 216.661L108.758 234.922L116.916 238.567L125.074 234.922L116.916 216.661ZM0.137645 86.8465L20.0976 88.1115L20.1271 87.6456L20.1349 87.1788L0.137645 86.8465ZM127.302 39.4652C135.889 34.2479 145.961 31.239 156.797 31.239V-8.76099C138.431 -8.76099 121.202 -3.63282 106.532 5.28037L127.302 39.4652ZM156.797 31.239C187.913 31.239 213.199 56.2137 213.7 87.2051L253.695 86.5586C252.842 33.7662 209.787 -8.76099 156.797 -8.76099V31.239ZM213.737 88.1365C214.562 101.259 210.003 114.45 200.936 127.726C191.817 141.079 178.818 153.47 164.86 164.251C151.002 174.955 136.876 183.557 126.14 189.503C120.798 192.462 116.357 194.729 113.293 196.239C111.762 196.993 110.578 197.556 109.801 197.919C109.413 198.101 109.127 198.233 108.951 198.313C108.863 198.354 108.802 198.381 108.77 198.396C108.753 198.403 108.744 198.407 108.742 198.408C108.741 198.408 108.742 198.408 108.745 198.407C108.746 198.406 108.75 198.405 108.75 198.404C108.754 198.403 108.758 198.401 116.916 216.661C125.074 234.922 125.08 234.919 125.085 234.917C125.088 234.916 125.094 234.913 125.099 234.911C125.109 234.906 125.121 234.901 125.135 234.895C125.162 234.882 125.197 234.867 125.24 234.848C125.324 234.809 125.437 234.758 125.579 234.693C125.862 234.564 126.258 234.381 126.759 234.147C127.76 233.678 129.183 233.001 130.965 232.123C134.528 230.368 139.545 227.804 145.521 224.494C157.423 217.902 173.382 208.212 189.312 195.907C205.143 183.679 221.636 168.343 233.968 150.285C246.353 132.151 255.206 110.248 253.658 85.6272L213.737 88.1365ZM116.916 216.661C125.074 198.401 125.079 198.403 125.083 198.404C125.083 198.405 125.087 198.406 125.088 198.407C125.091 198.408 125.092 198.408 125.091 198.408C125.089 198.407 125.08 198.403 125.063 198.396C125.031 198.381 124.97 198.354 124.882 198.313C124.705 198.233 124.419 198.101 124.031 197.919C123.254 197.556 122.07 196.993 120.539 196.238C117.473 194.728 113.031 192.46 107.688 189.5C96.9489 183.552 82.8198 174.948 68.9596 164.241C54.9998 153.457 42.0008 141.063 32.884 127.708C23.8198 114.43 19.2658 101.236 20.0976 88.1115L-19.8223 85.5816C-21.3831 110.209 -12.5359 132.119 -0.152665 150.26C12.1779 168.323 28.6726 183.664 44.5058 195.896C60.4383 208.204 76.4012 217.897 88.306 224.491C94.2841 227.802 99.3023 230.367 102.866 232.122C104.649 233 106.072 233.678 107.074 234.147C107.575 234.381 107.971 234.564 108.254 234.693C108.395 234.758 108.509 234.809 108.593 234.848C108.636 234.867 108.67 234.882 108.698 234.895C108.712 234.901 108.724 234.906 108.734 234.911C108.739 234.913 108.745 234.916 108.747 234.917C108.753 234.919 108.758 234.922 116.916 216.661ZM20.1349 87.1788C20.6496 56.1997 45.9307 31.239 77.0377 31.239V-8.76099C24.0619 -8.76099 -18.9828 33.7424 -19.8596 86.5143L20.1349 87.1788ZM77.0377 31.239C87.8734 31.239 97.9453 34.2479 106.532 39.4652L127.302 5.28037C112.632 -3.63282 95.4034 -8.76099 77.0377 -8.76099V31.239Z" fill="url(#paint0_linear_1552_7)" mask="url(#path-1-inside-1_1552_7)"/>
<mask id="path-3-inside-2_1552_7" fill="white">
<path fill-rule="evenodd" clip-rule="evenodd" d="M111.388 25.3565C121.04 17.4177 132.92 11.94 146.195 10.0375C184.432 4.55782 219.899 30.7954 225.969 68.7989C240.108 136.809 136.702 202 136.702 202C136.702 202 19.1173 168.466 13.6157 99.2038C8.7841 61.0356 35.451 25.9082 73.6787 20.4298C86.9537 18.5273 99.8948 20.4479 111.388 25.3565Z"/>
</mask>
<path d="M111.388 25.3565L108.246 32.7136L112.716 34.6228L116.47 31.535L111.388 25.3565ZM225.969 68.7989L218.069 70.0607L218.098 70.2448L218.136 70.4273L225.969 68.7989ZM136.702 202L134.508 209.693L137.945 210.673L140.968 208.767L136.702 202ZM13.6157 99.2038L21.5906 98.5704L21.5758 98.3843L21.5524 98.1991L13.6157 99.2038ZM116.47 31.535C125.022 24.5005 135.546 19.6454 147.33 17.9566L145.06 2.11844C130.295 4.23451 117.057 10.3349 106.306 19.178L116.47 31.535ZM147.33 17.9566C181.236 13.0976 212.687 36.3638 218.069 70.0607L233.869 67.537C227.111 25.227 187.628 -3.98196 145.06 2.11844L147.33 17.9566ZM218.136 70.4273C221.202 85.1738 217.994 100.154 210.807 114.774C203.603 129.427 192.611 143.269 180.899 155.329C169.221 167.353 157.069 177.36 147.808 184.373C143.187 187.873 139.309 190.61 136.601 192.463C135.247 193.389 134.187 194.093 133.475 194.56C133.118 194.793 132.849 194.967 132.674 195.08C132.586 195.136 132.522 195.177 132.482 195.203C132.462 195.216 132.448 195.224 132.44 195.229C132.436 195.232 132.434 195.233 132.433 195.234C132.433 195.234 132.433 195.234 132.433 195.234C132.434 195.233 132.435 195.232 136.702 202C140.968 208.767 140.97 208.766 140.973 208.764C140.974 208.763 140.977 208.761 140.98 208.76C140.985 208.756 140.993 208.752 141.001 208.746C141.018 208.735 141.042 208.72 141.072 208.702C141.131 208.664 141.215 208.61 141.322 208.541C141.537 208.403 141.847 208.203 142.245 207.942C143.04 207.421 144.188 206.658 145.634 205.668C148.526 203.69 152.616 200.803 157.468 197.128C167.154 189.793 179.97 179.252 192.377 166.476C204.748 153.737 216.957 138.53 225.165 121.832C233.39 105.101 237.805 86.4288 233.801 67.1704L218.136 70.4273ZM136.702 202C138.896 194.306 138.897 194.307 138.898 194.307C138.898 194.307 138.899 194.307 138.898 194.307C138.898 194.307 138.895 194.306 138.891 194.305C138.882 194.302 138.866 194.298 138.843 194.291C138.797 194.278 138.724 194.257 138.624 194.227C138.424 194.168 138.117 194.077 137.709 193.953C136.894 193.705 135.679 193.327 134.119 192.818C130.999 191.8 126.507 190.262 121.088 188.2C110.227 184.069 95.7511 177.877 81.1649 169.614C66.5349 161.327 52.0966 151.126 41.0691 139.083C30.0668 127.067 22.7835 113.588 21.5906 98.5704L5.64082 99.8373C7.19874 119.45 16.6766 136.136 29.2687 149.888C41.8357 163.613 57.8251 174.782 73.2789 183.536C88.7764 192.315 104.04 198.834 115.399 203.155C121.089 205.32 125.826 206.942 129.158 208.029C130.824 208.573 132.141 208.983 133.051 209.26C133.506 209.398 133.859 209.503 134.105 209.576C134.227 209.612 134.323 209.639 134.39 209.659C134.424 209.669 134.451 209.677 134.47 209.682C134.48 209.685 134.488 209.687 134.494 209.689C134.498 209.69 134.501 209.691 134.502 209.691C134.505 209.692 134.508 209.693 136.702 202ZM21.5524 98.1991C17.2683 64.3562 40.9159 33.2067 74.8136 28.3488L72.5438 12.5107C29.986 18.6096 0.299906 57.7149 5.67903 100.208L21.5524 98.1991ZM74.8136 28.3488C86.5977 26.66 98.0617 28.3641 108.246 32.7136L114.53 17.9994C101.728 12.5316 87.3096 10.3946 72.5438 12.5107L74.8136 28.3488Z" fill="white" mask="url(#path-3-inside-2_1552_7)"/>
<defs>
<linearGradient id="paint0_linear_1552_7" x1="116.916" y1="11.239" x2="116.916" y2="216.661" gradientUnits="userSpaceOnUse">
<stop stop-color="#DC6FA3"/>
<stop offset="1" stop-color="#763B58"/>
</linearGradient>
</defs>
</svg>
