<svg width="76" height="77" viewBox="0 0 76 77" fill="none" xmlns="http://www.w3.org/2000/svg">
<ellipse cx="37" cy="75.5" rx="14" ry="1.5" fill="white"/>
<mask id="path-2-inside-1_1476_24" fill="white">
<path fill-rule="evenodd" clip-rule="evenodd" d="M36.5668 6.99731C40.2036 4.7876 44.4729 3.51514 49.0394 3.51514C62.1922 3.51514 72.8794 14.0715 73.0906 27.174C74.5736 50.7825 36.5665 67.7625 36.5665 67.7625C36.5665 67.7625 -1.45436 50.7763 0.0430997 27.1612C0.26111 14.0647 10.9456 3.51514 24.0941 3.51514C28.6606 3.51514 32.9299 4.7876 36.5668 6.99731Z"/>
</mask>
<path d="M36.5668 6.99731L32.932 12.9796L36.5668 15.1881L40.2015 12.9796L36.5668 6.99731ZM73.0906 27.174L66.0915 27.2868L66.0942 27.4499L66.1044 27.6128L73.0906 27.174ZM36.5665 67.7625L33.7111 74.1537L36.5665 75.4293L39.4218 74.1537L36.5665 67.7625ZM0.0430997 27.1612L7.02907 27.6042L7.03941 27.4411L7.04213 27.2777L0.0430997 27.1612ZM40.2015 12.9796C42.7739 11.4167 45.7907 10.5151 49.0394 10.5151V-3.48486C43.1552 -3.48486 37.6334 -1.84153 32.932 1.01497L40.2015 12.9796ZM49.0394 10.5151C58.364 10.5151 65.9418 17.9997 66.0915 27.2868L80.0897 27.0611C79.817 10.1434 66.0204 -3.48486 49.0394 -3.48486V10.5151ZM66.1044 27.6128C66.3487 31.5026 65.0029 35.4661 62.2289 39.5279C59.4365 43.6164 55.4361 47.4367 51.1056 50.7816C46.81 54.0996 42.4262 56.7693 39.0902 58.617C37.4312 59.5359 36.0532 60.2395 35.1039 60.707C34.6298 60.9406 34.2641 61.1144 34.0254 61.2262C33.9061 61.282 33.8187 61.3222 33.7655 61.3465C33.7389 61.3587 33.7209 61.3669 33.7118 61.371C33.7072 61.3731 33.7048 61.3741 33.7047 61.3742C33.7046 61.3742 33.7051 61.374 33.7062 61.3735C33.7068 61.3733 33.708 61.3727 33.7083 61.3726C33.7096 61.372 33.7111 61.3713 36.5665 67.7625C39.4218 74.1537 39.4236 74.1528 39.4255 74.152C39.4264 74.1516 39.4285 74.1507 39.4302 74.1499C39.4336 74.1484 39.4375 74.1466 39.4421 74.1446C39.4512 74.1405 39.4626 74.1353 39.4763 74.1292C39.5036 74.1168 39.5401 74.1002 39.5854 74.0796C39.6759 74.0382 39.8017 73.9802 39.9605 73.9059C40.2778 73.7573 40.7272 73.5434 41.2894 73.2665C42.4129 72.7132 43.9926 71.9057 45.8736 70.8639C49.6176 68.7901 54.6429 65.7393 59.6637 61.8613C64.6496 58.0101 69.8729 53.1587 73.7898 47.4237C77.725 41.6617 80.574 34.6496 80.0769 26.7351L66.1044 27.6128ZM36.5665 67.7625C39.4218 61.3713 39.4233 61.372 39.4247 61.3726C39.4249 61.3727 39.4262 61.3733 39.4267 61.3735C39.4278 61.374 39.4283 61.3742 39.4282 61.3742C39.4281 61.3741 39.4258 61.3731 39.4212 61.371C39.412 61.3669 39.394 61.3587 39.3674 61.3465C39.3141 61.3222 39.2267 61.282 39.1074 61.2261C38.8686 61.1143 38.5028 60.9404 38.0285 60.7068C37.0789 60.2391 35.7004 59.5353 34.0409 58.616C30.7039 56.7676 26.319 54.097 22.0227 50.778C17.6915 47.432 13.6911 43.6107 10.8996 39.5213C8.12659 35.4589 6.78236 31.4949 7.02907 27.6042L-6.94287 26.7182C-7.44489 34.6351 -4.59806 41.65 -0.663334 47.4142C3.25294 53.1515 8.47693 58.0045 13.4638 61.857C18.4855 65.7364 23.5122 68.7883 27.2573 70.8628C29.1388 71.905 30.7191 72.7127 31.8429 73.2662C32.4053 73.5432 32.8548 73.7572 33.1723 73.9058C33.3311 73.9801 33.4569 74.0381 33.5475 74.0795C33.5928 74.1002 33.6293 74.1168 33.6567 74.1292C33.6703 74.1353 33.6817 74.1405 33.6908 74.1446C33.6954 74.1466 33.6994 74.1484 33.7027 74.1499C33.7044 74.1507 33.7065 74.1516 33.7074 74.152C33.7093 74.1528 33.7111 74.1537 36.5665 67.7625ZM7.04213 27.2777C7.19666 17.9948 14.7726 10.5151 24.0941 10.5151V-3.48486C7.11866 -3.48486 -6.67444 10.1345 -6.95593 27.0447L7.04213 27.2777ZM24.0941 10.5151C27.3429 10.5151 30.3596 11.4167 32.932 12.9796L40.2015 1.01497C35.5002 -1.84153 29.9784 -3.48486 24.0941 -3.48486V10.5151Z" fill="white" mask="url(#path-2-inside-1_1476_24)"/>
<mask id="path-4-inside-2_1476_24" fill="white">
<path fill-rule="evenodd" clip-rule="evenodd" d="M34.8374 7.93037C37.856 5.44743 41.5718 3.73422 45.7237 3.13922C57.6829 1.42534 68.7757 9.63191 70.6736 21.5184C75.0945 42.7886 42.7545 63.1768 42.7545 63.1768C42.7545 63.1768 5.97843 52.6887 4.25838 31.026C2.74762 19.0889 11.0878 8.10288 23.0436 6.38949C27.1954 5.79449 31.2428 6.39516 34.8374 7.93037Z"/>
</mask>
<path d="M34.8374 7.93037L34.0518 9.76964L35.1694 10.2469L36.1079 9.47499L34.8374 7.93037ZM70.6736 21.5184L68.6987 21.8337L68.706 21.8798L68.7155 21.9254L70.6736 21.5184ZM42.7545 63.1768L42.206 65.1001L43.0652 65.3452L43.8211 64.8686L42.7545 63.1768ZM4.25838 31.026L6.2521 30.8677L6.24841 30.8212L6.24255 30.7749L4.25838 31.026ZM36.1079 9.47499C38.8517 7.21813 42.2283 5.66058 46.0074 5.11899L45.44 1.15944C40.9154 1.80786 36.8604 3.67673 33.5669 6.38575L36.1079 9.47499ZM46.0074 5.11899C56.8838 3.56029 66.9726 11.024 68.6987 21.8337L72.6486 21.203C70.5788 8.23986 58.4819 -0.709608 45.44 1.15944L46.0074 5.11899ZM68.7155 21.9254C69.7035 26.679 68.662 31.4799 66.3815 36.1185C64.097 40.7654 60.621 45.1375 56.9372 48.9305C53.2622 52.7145 49.4408 55.8609 46.5311 58.0644C45.0786 59.1644 43.859 60.0251 43.0062 60.6085C42.58 60.9001 42.2458 61.1221 42.0204 61.2698C41.9077 61.3437 41.8222 61.3989 41.7661 61.435C41.738 61.453 41.7173 61.4662 41.7042 61.4746C41.6976 61.4788 41.693 61.4817 41.6902 61.4835C41.6889 61.4843 41.688 61.4849 41.6876 61.4851C41.6874 61.4852 41.6875 61.4852 41.6874 61.4853C41.6876 61.4851 41.6879 61.4849 42.7545 63.1768C43.8211 64.8686 43.8217 64.8683 43.8223 64.8679C43.8227 64.8676 43.8236 64.8671 43.8243 64.8666C43.8259 64.8656 43.828 64.8643 43.8305 64.8627C43.8356 64.8595 43.8427 64.855 43.8516 64.8493C43.8696 64.8379 43.8952 64.8215 43.9282 64.8003C43.9942 64.7579 44.0898 64.6961 44.2129 64.6154C44.459 64.4541 44.8153 64.2173 45.2647 63.9099C46.1633 63.2952 47.4357 62.3969 48.946 61.2532C51.9619 58.9692 55.9493 55.6891 59.8066 51.7173C63.6553 47.7545 67.4353 43.0413 69.9712 37.8832C72.5111 32.7168 73.8542 26.9929 72.6318 21.1114L68.7155 21.9254ZM42.7545 63.1768C43.303 61.2535 43.3034 61.2536 43.3036 61.2536C43.3035 61.2536 43.3036 61.2536 43.3033 61.2536C43.3029 61.2534 43.3019 61.2532 43.3003 61.2527C43.2972 61.2518 43.2919 61.2503 43.2845 61.2481C43.2695 61.2438 43.2459 61.2369 43.2139 61.2275C43.1499 61.2086 43.0523 61.1796 42.9234 61.1404C42.6655 61.0619 42.2822 60.9426 41.7911 60.7824C40.8085 60.4619 39.3959 59.9782 37.6924 59.3302C34.2801 58.0322 29.7278 56.0851 25.1372 53.4847C20.5357 50.8781 15.9713 47.6573 12.4741 43.8379C8.9832 40.0254 6.63651 35.709 6.2521 30.8677L2.26465 31.1843C2.74028 37.1744 5.63562 42.2925 9.52398 46.5391C13.4061 50.7789 18.3582 54.2418 23.1657 56.9651C27.9841 59.6946 32.7334 61.7234 36.2703 63.0689C38.0415 63.7426 39.5154 64.2475 40.5507 64.5852C41.0685 64.7541 41.4771 64.8813 41.7587 64.9671C41.8996 65.0099 42.0087 65.0424 42.084 65.0646C42.1216 65.0757 42.1508 65.0842 42.1712 65.0901C42.1814 65.093 42.1895 65.0954 42.1953 65.097C42.1982 65.0979 42.2005 65.0985 42.2023 65.0991C42.2032 65.0993 42.2041 65.0996 42.2046 65.0997C42.2053 65.0999 42.206 65.1001 42.7545 63.1768ZM6.24255 30.7749C4.86864 19.9191 12.454 9.92752 23.3273 8.36927L22.7599 4.40972C9.72158 6.27824 0.626601 18.2587 2.27421 31.2772L6.24255 30.7749ZM23.3273 8.36927C27.1064 7.82768 30.7846 8.37422 34.0518 9.76964L35.6229 6.0911C31.7011 4.4161 27.2844 3.76131 22.7599 4.40972L23.3273 8.36927Z" fill="url(#paint0_linear_1476_24)" mask="url(#path-4-inside-2_1476_24)"/>
<defs>
<linearGradient id="paint0_linear_1476_24" x1="34.3834" y1="4.76438" x2="42.7545" y2="63.1768" gradientUnits="userSpaceOnUse">
<stop stop-color="#00B894"/>
<stop offset="1" stop-color="#005242"/>
</linearGradient>
</defs>
</svg>
