<svg width="324" height="324" viewBox="0 0 324 324" fill="none" xmlns="http://www.w3.org/2000/svg">
<path d="M164.112 93.0742C164.112 93.0742 136.528 56.1473 103.081 58.9738C69.6347 61.8004 65.4085 100.87 86.9182 134.199C108.428 167.527 56.6035 206.593 99.5049 228.193C142.407 249.794 184.946 205.204 227.033 201.486C269.119 197.768 269.638 157.979 257.41 139.573C245.181 121.168 177.839 112.219 164.112 93.0742Z" fill="#EFD5CA"/>
<path d="M67.6473 93.0522C67.646 93.0522 67.6447 93.0522 67.6434 93.0522C67.2028 93.0502 66.847 92.6912 66.8496 92.2506C66.8833 85.3073 68.318 79.0223 71.1115 73.572C73.3504 69.2038 76.4608 65.3638 80.3546 62.1588C86.9778 56.7078 93.4954 55.0068 93.7695 54.9368C94.1965 54.8286 94.6307 55.0865 94.7395 55.5135C94.8484 55.9405 94.5899 56.3747 94.1628 56.4836C94.0812 56.505 87.6588 58.1949 81.3175 63.4334C72.8352 70.4402 68.5046 80.1382 68.445 92.259C68.4431 92.6977 68.086 93.0522 67.6473 93.0522Z" fill="#EFD5CA"/>
<path d="M269.05 173.565C269 173.565 268.948 173.56 268.897 173.55C268.464 173.466 268.182 173.046 268.266 172.614C268.294 172.47 270.996 157.946 263.893 142.565C260.206 134.581 253.481 129.393 248.489 126.446C243.062 123.242 238.478 121.93 238.433 121.917C238.009 121.797 237.762 121.357 237.881 120.933C238.001 120.509 238.443 120.262 238.866 120.382C239.061 120.437 243.697 121.764 249.3 125.072C254.488 128.134 261.482 133.539 265.342 141.896C269.171 150.187 270.189 158.168 270.37 163.402C270.566 169.085 269.863 172.766 269.833 172.92C269.758 173.3 269.424 173.565 269.05 173.565Z" fill="#EFD5CA"/>
<path d="M28.9494 179.251C28.9494 179.251 31.0794 171.974 35.6938 172.507C40.3082 173.039 41.0184 175.169 44.9226 173.571C48.8275 171.974 50.2472 166.827 56.6365 168.069C63.0258 169.311 63.736 176.411 71.0124 175.878C78.2894 175.346 80.7739 175.168 83.4358 179.25H28.9494V179.251Z" fill="#EFD5CA"/>
<path d="M113.461 49.5182C113.461 49.5182 116.38 43.0635 124.351 44.9874C132.232 46.8899 135.626 35.6031 142.644 36.3288C149.661 37.0546 147.145 43.5352 156.098 44.9874C165.051 46.4396 167.643 42.9067 171.414 49.5182H113.461Z" fill="#EFD5CA"/>
<path d="M213.432 229.117C213.432 229.117 216.351 222.662 224.322 224.586C232.203 226.488 235.597 215.201 242.614 215.927C249.632 216.653 247.116 223.134 256.07 224.586C265.022 226.038 267.614 222.505 271.385 229.117H213.432Z" fill="#EFD5CA"/>
<path d="M53.589 141.134C53.1237 141.134 52.7245 140.816 52.6196 140.361C52.2372 138.71 51.7111 138.183 50.0593 137.802C49.6044 137.696 49.2862 137.298 49.2862 136.832C49.2862 136.367 49.6044 135.968 50.0593 135.863C51.7111 135.481 52.2372 134.954 52.6196 133.303C52.7252 132.848 53.1237 132.53 53.589 132.53C54.0542 132.53 54.4534 132.848 54.5584 133.303C54.9407 134.954 55.4669 135.481 57.1186 135.863C57.5735 135.969 57.8917 136.367 57.8917 136.832C57.8917 137.298 57.5735 137.697 57.1186 137.802C55.4669 138.184 54.9407 138.71 54.559 140.361C54.4534 140.816 54.0549 141.134 53.589 141.134ZM50.9853 136.832C52.4005 137.282 53.1386 138.02 53.589 139.435C54.0393 138.02 54.7774 137.282 56.1926 136.832C54.7774 136.381 54.0393 135.643 53.589 134.228C53.1386 135.644 52.4012 136.381 50.9853 136.832Z" fill="#FF4B61"/>
<path d="M67.3317 149.428C65.6418 149.428 64.2667 148.052 64.2667 146.362C64.2667 144.672 65.6418 143.297 67.3317 143.297C69.0217 143.297 70.3968 144.672 70.3968 146.362C70.3968 148.052 69.0217 149.428 67.3317 149.428ZM67.3317 144.477C66.2917 144.477 65.4461 145.323 65.4461 146.362C65.4461 147.402 66.2924 148.248 67.3317 148.248C68.3718 148.248 69.2174 147.403 69.2174 146.362C69.2174 145.322 68.3711 144.477 67.3317 144.477Z" fill="#FFB109"/>
<path d="M69.2174 127.571C68.8921 127.571 68.6277 127.307 68.6277 126.981V125.42C68.6277 125.095 68.8915 124.831 69.2174 124.831C69.5427 124.831 69.8071 125.094 69.8071 125.42V126.981C69.8071 127.307 69.5427 127.571 69.2174 127.571Z" fill="#259BFF"/>
<path d="M69.2174 131.742C68.8921 131.742 68.6277 131.479 68.6277 131.153V129.592C68.6277 129.266 68.8915 129.002 69.2174 129.002C69.5427 129.002 69.8071 129.266 69.8071 129.592V131.153C69.8071 131.479 69.5427 131.742 69.2174 131.742Z" fill="#259BFF"/>
<path d="M67.9856 128.742H66.4245C66.0992 128.742 65.8349 128.478 65.8349 128.152C65.8349 127.827 66.0986 127.563 66.4245 127.563H67.9856C68.3115 127.563 68.5753 127.826 68.5753 128.152C68.5746 128.478 68.3109 128.742 67.9856 128.742Z" fill="#259BFF"/>
<path d="M72.0103 128.742H70.4493C70.124 128.742 69.8596 128.478 69.8596 128.152C69.8596 127.827 70.1233 127.563 70.4493 127.563H72.0103C72.3362 127.563 72.6 127.826 72.6 128.152C72.6 128.478 72.3362 128.742 72.0103 128.742Z" fill="#259BFF"/>
<path d="M53.5099 154.98C53.184 154.98 52.9202 154.716 52.9202 154.39V152.829C52.9202 152.504 53.184 152.239 53.5099 152.239C53.8352 152.239 54.0996 152.503 54.0996 152.829V154.39C54.0989 154.716 53.8352 154.98 53.5099 154.98Z" fill="#9C5BFF"/>
<path d="M53.5099 159.151C53.184 159.151 52.9202 158.888 52.9202 158.562V157.001C52.9202 156.675 53.184 156.411 53.5099 156.411C53.8352 156.411 54.0996 156.675 54.0996 157.001V158.562C54.0989 158.887 53.8352 159.151 53.5099 159.151Z" fill="#9C5BFF"/>
<path d="M52.2781 156.151H50.717C50.3917 156.151 50.1273 155.887 50.1273 155.561C50.1273 155.236 50.3911 154.971 50.717 154.971H52.2781C52.6034 154.971 52.8677 155.235 52.8677 155.561C52.8671 155.887 52.6034 156.151 52.2781 156.151Z" fill="#9C5BFF"/>
<path d="M56.3028 156.151H54.7417C54.4165 156.151 54.1521 155.887 54.1521 155.561C54.1521 155.236 54.4158 154.971 54.7417 154.971H56.3028C56.6281 154.971 56.8925 155.235 56.8925 155.561C56.8925 155.887 56.6281 156.151 56.3028 156.151Z" fill="#9C5BFF"/>
<path d="M267.36 195.118C266.895 195.118 266.496 194.8 266.391 194.345C266.009 192.694 265.482 192.167 263.831 191.785C263.375 191.68 263.058 191.281 263.058 190.816C263.058 190.351 263.376 189.951 263.831 189.847C265.482 189.464 266.009 188.938 266.391 187.287C266.496 186.832 266.895 186.514 267.36 186.514C267.826 186.514 268.225 186.832 268.33 187.287C268.712 188.938 269.238 189.465 270.89 189.847C271.345 189.952 271.663 190.351 271.663 190.816C271.663 191.281 271.345 191.68 270.89 191.785C269.238 192.168 268.712 192.694 268.33 194.345C268.224 194.8 267.826 195.118 267.36 195.118ZM264.757 190.815C266.172 191.266 266.91 192.003 267.36 193.419C267.811 192.004 268.548 191.266 269.964 190.815C268.549 190.365 267.811 189.627 267.36 188.212C266.91 189.627 266.172 190.365 264.757 190.815Z" fill="#FF4B61"/>
<path d="M281.102 203.411C279.412 203.411 278.037 202.036 278.037 200.346C278.037 198.656 279.412 197.281 281.102 197.281C282.792 197.281 284.167 198.656 284.167 200.346C284.167 202.036 282.792 203.411 281.102 203.411ZM281.102 198.46C280.062 198.46 279.217 199.306 279.217 200.346C279.217 201.386 280.063 202.232 281.102 202.232C282.142 202.232 282.988 201.386 282.988 200.346C282.988 199.307 282.142 198.46 281.102 198.46Z" fill="#FFB109"/>
<path d="M282.988 181.555C282.663 181.555 282.398 181.291 282.398 180.965V179.404C282.398 179.079 282.662 178.814 282.988 178.814C283.313 178.814 283.578 179.078 283.578 179.404V180.965C283.578 181.291 283.314 181.555 282.988 181.555Z" fill="#259BFF"/>
<path d="M282.988 185.726C282.663 185.726 282.398 185.462 282.398 185.136V183.575C282.398 183.25 282.662 182.985 282.988 182.985C283.313 182.985 283.578 183.249 283.578 183.575V185.136C283.578 185.462 283.314 185.726 282.988 185.726Z" fill="#259BFF"/>
<path d="M281.756 182.726H280.195C279.87 182.726 279.606 182.461 279.606 182.136C279.606 181.811 279.869 181.546 280.195 181.546H281.756C282.082 181.546 282.346 181.81 282.346 182.136C282.346 182.462 282.082 182.726 281.756 182.726Z" fill="#259BFF"/>
<path d="M285.781 182.726H284.22C283.895 182.726 283.63 182.461 283.63 182.136C283.63 181.811 283.894 181.546 284.22 181.546H285.781C286.107 181.546 286.371 181.81 286.371 182.136C286.371 182.462 286.107 182.726 285.781 182.726Z" fill="#259BFF"/>
<path d="M267.281 208.963C266.955 208.963 266.691 208.699 266.691 208.373V206.812C266.691 206.487 266.955 206.223 267.281 206.223C267.606 206.223 267.87 206.486 267.87 206.812V208.373C267.87 208.699 267.606 208.963 267.281 208.963Z" fill="#9C5BFF"/>
<path d="M267.281 213.135C266.955 213.135 266.691 212.871 266.691 212.545V210.984C266.691 210.659 266.955 210.395 267.281 210.395C267.606 210.395 267.87 210.658 267.87 210.984V212.545C267.87 212.871 267.606 213.135 267.281 213.135Z" fill="#9C5BFF"/>
<path d="M266.049 210.134H264.487C264.162 210.134 263.897 209.87 263.897 209.544C263.897 209.219 264.161 208.955 264.487 208.955H266.049C266.374 208.955 266.638 209.218 266.638 209.544C266.638 209.87 266.374 210.134 266.049 210.134Z" fill="#9C5BFF"/>
<path d="M270.073 210.134H268.512C268.186 210.134 267.923 209.87 267.923 209.544C267.923 209.219 268.186 208.955 268.512 208.955H270.073C270.399 208.955 270.663 209.218 270.663 209.544C270.663 209.87 270.399 210.134 270.073 210.134Z" fill="#9C5BFF"/>
<path d="M158.213 302.354C224.16 302.354 277.621 299.453 277.621 295.875C277.621 292.298 224.16 289.397 158.213 289.397C92.2657 289.397 38.8048 292.298 38.8048 295.875C38.8048 299.453 92.2657 302.354 158.213 302.354Z" fill="#EFD5CA"/>
<path d="M114.117 283.579L142.511 291.481C144.107 291.926 145.761 290.992 146.205 289.395L151.69 269.689C152.134 268.093 151.2 266.438 149.604 265.994L121.21 258.091C119.614 257.647 117.96 258.581 117.516 260.177L112.031 279.885C111.588 281.481 112.521 283.135 114.117 283.579Z" fill="#FFB109"/>
<path d="M124.168 274.233C124.273 274.53 124.392 274.812 124.513 275.078C124.542 275.141 124.572 275.204 124.603 275.268C125.424 276.956 126.946 278.748 128.517 280.618C128.583 280.695 128.648 280.774 128.714 280.852C129.06 281.264 129.407 281.68 129.748 282.099C132.773 281.06 135.903 280.229 137.902 278.904C138.999 278.177 140.217 277.138 140.68 275.434C141.026 274.158 141.017 272.998 140.337 271.803C139.72 270.719 138.693 270.319 137.706 270.038C137.671 270.028 137.637 270.016 137.602 270.009C137.473 269.981 137.348 269.957 137.225 269.936C136.255 269.771 135.397 269.843 133.979 270.64L132.794 271.439L132.211 270.134C131.84 269.369 131.366 268.767 130.748 268.321L130.748 268.321C130.376 268.052 129.952 267.84 129.467 267.685C129.433 267.674 129.398 267.664 129.363 267.654C128.377 267.372 127.28 267.196 126.197 267.763C124.978 268.401 124.368 269.399 123.988 270.666C123.594 271.98 123.8 273.195 124.168 274.233Z" fill="white"/>
<path d="M130.893 288.248L123.139 295.654C122.804 295.973 122.252 295.714 122.283 295.253L122.913 286.027L130.893 288.248Z" fill="#FFB109"/>
<path d="M190.736 281.214L159.567 300.278C158.154 301.142 156.307 300.697 155.443 299.284L142.02 277.339C141.156 275.926 141.601 274.079 143.014 273.214L174.183 254.151C175.596 253.286 177.443 253.732 178.308 255.145L191.73 277.09C192.595 278.503 192.15 280.349 190.736 281.214Z" fill="#9C5BFF"/>
<path d="M175.566 274.05C175.542 274.427 175.498 274.791 175.445 275.138C175.432 275.221 175.418 275.303 175.403 275.387C175.011 277.603 173.845 280.169 172.647 282.842C172.597 282.953 172.547 283.065 172.497 283.176C172.233 283.765 171.969 284.359 171.714 284.955C167.885 284.751 164.001 284.82 161.26 283.948C159.757 283.471 158.01 282.672 156.918 280.86C156.099 279.502 155.728 278.161 156.119 276.56C156.475 275.106 157.528 274.309 158.574 273.659C158.61 273.637 158.646 273.613 158.685 273.592C158.824 273.518 158.96 273.448 159.095 273.383C160.16 272.874 161.173 272.676 163.07 273.129L164.7 273.662L164.943 271.966C165.119 270.961 165.469 270.111 166.034 269.394L166.034 269.394C166.375 268.962 166.795 268.579 167.302 268.24C167.338 268.216 167.375 268.193 167.411 268.17C168.457 267.52 169.663 266.958 171.099 267.255C172.713 267.59 173.746 268.541 174.6 269.877C175.488 271.263 175.65 272.732 175.566 274.05Z" fill="white"/>
<path d="M172.415 292.42L183.79 298.414C184.281 298.672 184.833 298.192 184.645 297.67L180.887 287.238L172.415 292.42Z" fill="#9C5BFF"/>
<path d="M254.546 296.271L231.69 277.91C230.399 276.872 230.193 274.984 231.23 273.692L243.969 257.835C245.007 256.543 246.895 256.337 248.187 257.375L271.043 275.736C272.334 276.773 272.54 278.662 271.503 279.953L258.764 295.811C257.726 297.103 255.838 297.308 254.546 296.271Z" fill="#FF4B61"/>
<path d="M256.28 282.724C255.979 282.812 255.682 282.879 255.396 282.936C255.328 282.949 255.259 282.962 255.19 282.973C253.349 283.288 251.016 283.098 248.591 282.913C248.49 282.905 248.389 282.897 248.288 282.89C247.753 282.849 247.215 282.811 246.678 282.777C245.762 279.729 244.617 276.713 244.529 274.328C244.479 273.019 244.613 271.43 245.722 270.068C246.554 269.046 247.496 268.38 248.858 268.236C250.093 268.106 251.013 268.705 251.813 269.34C251.841 269.362 251.87 269.383 251.897 269.407C251.994 269.495 252.087 269.582 252.175 269.67C252.872 270.359 253.312 271.095 253.49 272.704L253.531 274.127L254.925 273.841C255.76 273.696 256.522 273.731 257.24 273.971L257.241 273.972C257.674 274.117 258.091 274.337 258.499 274.638C258.528 274.659 258.556 274.682 258.584 274.704C259.385 275.338 260.164 276.123 260.335 277.328C260.526 278.683 260.073 279.757 259.269 280.8C258.436 281.881 257.334 282.42 256.28 282.724Z" fill="white"/>
<path d="M241.041 285.421L239.553 295.993C239.488 296.449 240.019 296.746 240.374 296.452L247.469 290.587L241.041 285.421Z" fill="#FF4B61"/>
<path d="M97.9011 298.14L120.617 279.607C121.901 278.56 122.093 276.67 121.046 275.386L108.187 259.626C107.14 258.342 105.25 258.15 103.966 259.197L81.2501 277.731C79.9664 278.778 79.7746 280.668 80.8218 281.952L93.6801 297.713C94.7272 298.996 96.6174 299.188 97.9011 298.14Z" fill="#FF4B61"/>
<path d="M96.0647 284.607C96.3667 284.692 96.6641 284.758 96.9505 284.812C97.0186 284.825 97.0872 284.837 97.1566 284.848C99.0001 285.15 101.331 284.942 103.755 284.738C103.856 284.73 103.957 284.721 104.058 284.713C104.592 284.668 105.13 284.625 105.667 284.588C106.559 281.533 107.681 278.508 107.753 276.122C107.792 274.813 107.646 273.225 106.527 271.871C105.688 270.856 104.74 270.197 103.378 270.063C102.142 269.942 101.227 270.548 100.431 271.189C100.403 271.211 100.375 271.232 100.348 271.257C100.252 271.345 100.159 271.432 100.072 271.521C99.3799 272.215 98.9464 272.954 98.7792 274.565L98.7494 275.988L97.3536 275.712C96.5183 275.574 95.7562 275.614 95.0389 275.86C94.6073 276.008 94.1907 276.232 93.7857 276.536C93.7565 276.558 93.7293 276.58 93.7014 276.603C92.9051 277.243 92.132 278.033 91.9706 279.24C91.7892 280.597 92.2506 281.667 93.0619 282.704C93.903 283.78 95.0091 284.311 96.0647 284.607Z" fill="white"/>
<path d="M111.324 287.19L112.891 297.75C112.959 298.205 112.431 298.506 112.074 298.215L104.934 292.403L111.324 287.19Z" fill="#FF4B61"/>
<path d="M211.337 270.936L211.267 272.4L211.019 277.622L210.841 281.373L202.923 282.131L201.741 275.851L201.227 273.106L201.046 272.147C202.589 269.874 211.337 270.936 211.337 270.936Z" fill="#FFA86F"/>
<path d="M211.267 272.4L211.019 277.622L201.742 275.851L201.227 273.106L211.267 272.4Z" fill="#291C2A"/>
<path d="M180.152 190.215C180.335 190.513 180.42 190.682 180.439 190.721C180.344 190.553 180.249 190.384 180.152 190.215Z" fill="#291C2A"/>
<path d="M174.335 134.715C180.661 141.646 205.277 180.723 211.001 199.62C215.469 214.377 207.271 219.308 197.591 211.637C193.372 208.294 185.709 200.043 180.445 190.732C180.445 190.732 180.443 190.728 180.439 190.722C180.421 190.682 180.336 190.514 180.153 190.215C179.44 189.053 176.927 185.335 171.123 179.048C169.197 176.962 153.339 164.916 154.128 157.987C155.198 148.588 174.335 134.715 174.335 134.715Z" fill="#291C2A"/>
<path d="M212.413 271.558L203.196 271.71L202.029 271.73L200.012 271.763L199.281 263.279C198.99 253.884 193.242 241.234 192.362 229.787C191.482 218.34 195.441 209.889 195.441 209.889C195.572 208.779 196.249 207.539 197.264 206.341C197.509 206.049 197.776 205.761 198.059 205.478C202.773 200.762 212.182 197.435 212.64 206.976C213.24 219.452 212.413 271.558 212.413 271.558Z" fill="#291C2A"/>
<path d="M203.196 271.71L202.029 271.73C202.049 263.024 199.909 251.548 198.157 242.168C197.432 238.276 196.745 234.599 196.29 231.549C194.776 221.407 198.189 210.2 198.869 208.111C198.36 207.576 197.822 206.983 197.264 206.341C190.603 198.685 180.849 184.136 178.803 181.058C173.654 173.307 161.417 161.496 161.293 161.378C161.062 161.154 161.055 160.786 161.278 160.553C161.502 160.321 161.87 160.315 162.103 160.538C162.226 160.657 174.556 172.557 179.774 180.411C181.804 183.466 191.46 197.871 198.059 205.478C198.725 206.246 199.358 206.945 199.952 207.554C200.107 207.713 200.157 207.946 200.084 208.154C200.04 208.276 195.818 220.487 197.444 231.376C197.895 234.406 198.58 238.073 199.304 241.955C201.063 251.372 203.211 262.893 203.196 271.71Z" fill="#472850"/>
<path d="M199.098 275.069L213.211 274.393C213.948 272.604 214.093 270.837 213.289 269.105L198.987 269.83C198.215 271.446 198.272 273.196 199.098 275.069Z" fill="#472850"/>
<path d="M236.674 292.728C235.629 294.563 231.564 295.566 228.375 295.809C225.628 296.019 210.768 295.681 203.347 295.481C202.165 295.451 201.272 294.449 201.323 293.309C201.328 293.209 201.341 293.109 201.36 293.009C201.38 292.901 201.401 292.792 201.421 292.68C201.739 290.992 202.068 288.935 202.038 287.785C201.98 285.606 200.92 284.553 200.701 281.743C200.483 278.934 202.375 279.212 202.375 279.212C204.52 280.066 206.393 281.388 207.66 281.312C207.66 281.312 209.244 281.312 209.528 278.851C209.873 275.865 213.047 277.268 214.702 280.604C216.205 283.637 220.887 284.572 224.591 286.243C228.294 287.913 236.787 289.348 236.925 291.688C236.947 292.061 236.858 292.405 236.674 292.728Z" fill="#259BFF"/>
<path d="M215.648 284.653C215.194 284.746 214.839 284.269 215.043 283.853C215.346 283.236 216.02 282.339 217.326 282.562C219.278 282.895 218.831 284.042 218.831 284.042L217.869 283.651C217.869 283.651 216.536 283.123 216.047 284.313C215.978 284.479 215.84 284.611 215.665 284.651C215.659 284.651 215.654 284.653 215.648 284.653Z" fill="white"/>
<path d="M236.674 292.728C235.629 294.563 231.564 295.566 228.375 295.809C225.628 296.019 210.768 295.681 203.347 295.481C202.165 295.451 201.272 294.449 201.323 293.309C209.34 293.894 225.733 294.812 232.787 293.606C234.134 293.376 235.432 293.074 236.674 292.728Z" fill="#2774D9"/>
<path d="M217.942 285.55C217.488 285.642 217.132 285.165 217.337 284.749C217.64 284.132 218.314 283.235 219.62 283.459C221.572 283.792 221.125 284.938 221.125 284.938L220.163 284.547C220.163 284.547 218.83 284.019 218.341 285.208C218.273 285.375 218.134 285.507 217.959 285.546C217.953 285.547 217.948 285.548 217.942 285.55Z" fill="white"/>
<path d="M219.936 286.362C219.483 286.455 219.127 285.977 219.331 285.562C219.634 284.944 220.308 284.048 221.615 284.271C223.566 284.604 223.119 285.75 223.119 285.75L222.158 285.36C222.158 285.36 220.824 284.832 220.336 286.021C220.268 286.188 220.129 286.32 219.953 286.36C219.947 286.36 219.942 286.361 219.936 286.362Z" fill="white"/>
<path d="M221.729 287.087C221.275 287.18 220.919 286.702 221.124 286.287C221.427 285.669 222.101 284.773 223.407 284.996C225.359 285.329 224.927 286.425 224.927 286.425L223.95 286.085C223.95 286.085 222.617 285.557 222.128 286.746C222.06 286.912 221.921 287.045 221.746 287.084C221.74 287.085 221.735 287.086 221.729 287.087Z" fill="white"/>
<path d="M82.4379 263.368L81.2456 264.173L76.9947 267.043L73.9413 269.105C69.8816 268.021 68.0134 266.069 68.8876 263.03L73.167 258.36L75.0384 256.32L75.6916 255.607C78.3503 255.539 82.4379 263.368 82.4379 263.368Z" fill="#FFA86F"/>
<path d="M81.2462 264.173L76.9954 267.043L73.167 258.36L75.0384 256.32L81.2462 264.173Z" fill="#472850"/>
<path d="M130.424 188.056C130.286 188.39 130.198 188.563 130.177 188.604C130.258 188.422 130.341 188.24 130.424 188.056Z" fill="#472850"/>
<path d="M172.092 149.785C170.105 159.313 152.549 203.667 140.511 219.874C131.11 232.528 122.401 228.537 123.064 215.716C123.353 210.129 125.643 198.673 130.172 188.614C130.172 188.614 130.173 188.611 130.177 188.604C130.198 188.563 130.286 188.39 130.424 188.056C130.957 186.754 132.191 184.292 133.106 176.265C133.439 173.335 135.542 150.114 141.615 146.621C149.852 141.884 172.092 149.785 172.092 149.785Z" fill="#472850"/>
<path d="M135.486 225.683C125.714 233.686 82.9803 264.282 82.9803 264.282L78.3989 257.749L77.7296 256.796L75.6922 253.889L82.1528 248.171C89.6054 242.281 96.563 229.807 105.341 222.184C114.121 214.563 123.246 212.843 123.246 212.843C124.218 212.289 125.609 212.117 127.158 212.256C127.526 212.289 127.903 212.34 128.287 212.406C134.824 213.554 142.975 219.55 135.486 225.683Z" fill="#472850"/>
<path d="M143.302 149.597C143.266 149.777 139.7 167.958 137.896 181.447C136.865 189.16 134.218 195.975 131.884 201.986C130.464 205.638 129.108 209.13 128.287 212.405C128.058 213.318 127.869 214.215 127.734 215.093C127.698 215.317 127.545 215.5 127.338 215.565C127.203 215.607 113.678 219.96 101.886 233.229C100.781 234.472 99.7298 235.66 98.7228 236.794C89.5374 247.15 84.159 253.214 78.3989 257.748L77.7296 256.795C83.4145 252.321 88.7605 246.294 97.8953 235.991C98.9017 234.857 99.9534 233.669 101.06 232.426C112.023 220.089 124.481 215.319 126.677 214.548C126.805 213.793 126.966 213.029 127.158 212.254C127.994 208.865 129.384 205.284 130.837 201.542C133.147 195.592 135.767 188.85 136.779 181.284C138.587 167.754 142.16 149.54 142.195 149.356C142.258 149.037 142.558 148.831 142.863 148.897C143.168 148.964 143.365 149.277 143.302 149.597Z" fill="#674574"/>
<path d="M71.9526 254.088L81.1477 267.586C83.2706 267.17 85.0144 266.183 86.1484 264.283L76.7919 250.63C74.8103 250.9 73.2065 252.075 71.9526 254.088Z" fill="#674574"/>
<path d="M58.4379 294.18C56.619 293.107 55.6781 289.027 55.4837 285.835C55.3159 283.086 55.8829 268.232 56.1965 260.815C56.2496 259.532 57.4426 258.606 58.6984 258.867C58.8066 258.888 58.9142 258.912 59.0257 258.934C60.7092 259.278 62.7607 259.638 63.9109 259.626C66.0902 259.601 67.1594 258.557 69.973 258.382C72.7847 258.207 72.4769 260.094 72.4769 260.094C71.5904 262.226 70.24 264.078 70.2957 265.346C70.2957 265.346 71.2353 267.699 73.6925 268.022C76.672 268.413 74.2576 270.795 70.8957 272.398C67.8398 273.855 66.8328 278.522 65.1059 282.199C63.3789 285.877 61.814 294.346 59.4715 294.449C59.1002 294.464 58.7568 294.369 58.4379 294.18Z" fill="#259BFF"/>
<path d="M58.4379 294.18C56.619 293.107 55.6781 289.027 55.4837 285.835C55.3159 283.086 55.8829 268.232 56.1965 260.815C56.2496 259.532 57.4426 258.606 58.6984 258.867C58.8067 258.888 58.9142 258.912 59.0257 258.934C58.2092 265.767 56.4253 282.593 57.6189 290.281C57.8282 291.63 58.1101 292.934 58.4379 294.18Z" fill="#2774D9"/>
<path d="M65.9029 275.562C65.8174 275.107 66.3001 274.758 66.7129 274.969C67.3259 275.281 68.2117 275.97 67.9687 277.272C67.6052 279.219 66.4667 278.754 66.4667 278.754L66.8723 277.798C66.8723 277.798 67.4205 276.472 66.2392 275.966C66.074 275.895 65.9437 275.754 65.9074 275.578C65.9048 275.573 65.9036 275.567 65.9029 275.562Z" fill="white"/>
<path d="M66.8464 273.613C66.7602 273.159 67.2436 272.81 67.6557 273.021C68.2687 273.333 69.1546 274.021 68.9116 275.324C68.548 277.27 67.4095 276.806 67.4095 276.806L67.8145 275.85C67.8145 275.85 68.3627 274.524 67.1814 274.017C67.0162 273.947 66.8859 273.806 66.849 273.63C66.8483 273.624 66.8477 273.619 66.8464 273.613Z" fill="white"/>
<path d="M65.0599 277.544C64.9743 277.089 65.4571 276.74 65.8699 276.951C66.4829 277.263 67.3687 277.951 67.1257 279.254C66.7621 281.2 65.6236 280.736 65.6236 280.736L66.0286 279.78C66.0286 279.78 66.5768 278.454 65.3955 277.947C65.2303 277.877 65.1 277.736 65.0631 277.56C65.0618 277.555 65.0605 277.549 65.0599 277.544Z" fill="white"/>
<path d="M64.3069 279.324C64.2213 278.869 64.7041 278.521 65.1169 278.731C65.7299 279.044 66.6157 279.732 66.3727 281.034C66.0092 282.981 64.9205 282.533 64.9205 282.533L65.2756 281.561C65.2756 281.561 65.8238 280.235 64.6425 279.728C64.4773 279.657 64.3471 279.517 64.3101 279.34C64.3095 279.336 64.3082 279.33 64.3069 279.324Z" fill="white"/>
<path d="M212.828 47.8671C212.828 47.8671 207.624 49.1178 201.402 56.2296C195.18 63.3414 192.624 57.7854 187.512 61.952C182.401 66.1193 188.068 69.6529 181.734 70.8303C175.401 72.0077 165.733 70.4253 163.733 81.7731C161.733 93.1208 189.049 84.1201 197.281 86.2313C205.513 88.3425 206.625 103.788 215.736 105.566C224.848 107.344 228.159 100.677 226.114 96.2319C224.07 91.7873 219.328 91.3609 222.514 80.9119C225.7 70.4629 225.92 51.6164 212.828 47.8671Z" fill="#472850"/>
<path d="M223.395 135.3C223.379 135.31 223.36 135.318 223.344 135.328C222.907 135.568 222.508 135.775 222.14 135.95C220.026 136.964 217.491 136.304 216.12 134.404C215.321 133.297 214.478 132.13 214.468 132.114C214.458 132.095 214.448 132.082 214.443 132.07C214.433 132.05 214.426 132.042 214.426 132.042C212.335 128.713 210.119 125.116 208.162 121.709C207.576 120.687 207.012 119.684 206.484 118.709C205.676 117.219 204.946 115.796 204.332 114.487C203.137 111.939 202.395 110.275 202.395 110.275C202.395 110.275 205.572 104.605 211.644 103.742C211.644 103.742 213.589 104.143 214.067 105.403C214.799 107.33 216.094 109.86 217.583 112.687C217.806 113.11 218.033 113.54 218.263 113.975C219.341 116.01 220.488 118.17 221.576 120.347C221.858 120.912 222.136 121.477 222.408 122.04C223.521 124.35 224.533 126.648 225.293 128.812C226.16 131.286 225.689 134.03 223.395 135.3Z" fill="#FFA86F"/>
<path d="M218.264 113.975L208.164 121.709C207.577 120.687 207.013 119.684 206.485 118.708L217.584 112.687C217.807 113.11 218.034 113.54 218.264 113.975Z" fill="#472850"/>
<path d="M256.226 105.472C255.031 107.075 255.467 108.712 254.615 110.524C254.555 110.145 253.515 108.893 252.436 109.283C247.412 111.096 251.744 104.947 252.665 103.896C253.586 102.844 257.273 99.7266 258.072 98.5297C258.871 97.3335 259.766 98.6852 259.002 100.744C258.268 102.727 255.781 102.806 256.226 105.472Z" fill="#FF804D"/>
<path d="M269.115 95.2644C266.969 97.4313 259.311 105.134 254.54 109.586C254.281 109.827 253.965 109.861 253.802 109.664L251.948 107.431C251.758 107.202 251.85 106.753 252.148 106.466L266.562 92.5026C266.806 92.2668 267.11 92.2156 267.284 92.3821L269.272 94.2827C269.493 94.4933 269.418 94.9579 269.115 95.2644Z" fill="#383856"/>
<path d="M248.96 108.916C251.6 105.187 255.52 105.566 257.674 105.21C258.046 105.148 258.382 105.055 258.62 104.949C259.522 104.547 261.004 103.356 261.906 102.287C263.67 100.198 264.406 99.5095 264.406 99.5095L267.545 96.8449C267.545 96.8449 267.29 97.6821 266.906 101.176C266.523 104.67 263.976 106.497 262.717 108.434C261.457 110.371 253.188 113.117 253.188 113.117C253.188 113.117 252.102 111.486 250.672 110.563C250.687 110.549 248.949 108.933 248.96 108.916Z" fill="#FFA86F"/>
<path d="M265.405 101.625C265.405 101.625 266.393 98.9943 265.725 98.1046C265.057 97.2143 264.642 97.6238 263.576 100.233C262.51 102.843 259.293 104.942 259.293 104.942C259.293 104.942 263.643 104.685 265.405 101.625Z" fill="#FFA86F"/>
<path d="M215.41 132.935C217.469 136.981 222.601 138.311 226.368 135.779C232.858 131.418 240.443 123.572 248.532 117.237C263.584 105.449 253.57 105.544 247.032 110.047C240.494 114.549 229.256 118.049 224.651 120.716C214.231 126.749 213.441 129.065 213.441 129.065L215.41 132.935Z" fill="#FFA86F"/>
<path d="M222.409 122.04C221.681 122.975 220.821 124.526 220.176 127.039C220.176 127.039 219.737 122.969 221.577 120.347C221.859 120.912 222.137 121.477 222.409 122.04Z" fill="#472850"/>
<path d="M212.166 89.1661L220.301 111.801C220.301 111.801 212.974 116.924 204.866 120.717L200.752 107.829C200.752 107.829 203.721 92.8027 212.166 89.1661Z" fill="#7E36D2"/>
<path d="M131.083 126.992L151.267 102.637C152.324 101.361 152.147 99.4699 150.871 98.4124L133.881 84.332C132.605 83.2745 130.714 83.452 129.656 84.7279L109.473 109.083C108.416 110.359 108.593 112.25 109.868 113.307L126.858 127.388C128.135 128.445 130.026 128.268 131.083 126.992Z" fill="#259BFF"/>
<path d="M126.503 113.071C126.836 113.097 127.16 113.105 127.471 113.102C127.545 113.101 127.619 113.1 127.694 113.097C129.683 113.033 132.077 112.336 134.569 111.624C134.673 111.594 134.777 111.564 134.881 111.535C135.429 111.378 135.983 111.222 136.537 111.074C136.841 107.696 137.392 104.303 136.974 101.793C136.746 100.416 136.267 98.7863 134.818 97.6011C133.732 96.7127 132.605 96.2189 131.153 96.3595C129.836 96.4872 129.004 97.3095 128.304 98.1435C128.279 98.1726 128.254 98.2005 128.231 98.2316C128.148 98.3437 128.07 98.4545 127.996 98.5647C127.416 99.433 127.115 100.295 127.272 102.013L127.534 103.507L126.017 103.506C125.115 103.534 124.327 103.732 123.628 104.137L123.627 104.137C123.206 104.381 122.818 104.701 122.457 105.102C122.431 105.13 122.407 105.16 122.383 105.189C121.682 106.022 121.037 107.007 121.116 108.302C121.206 109.758 121.908 110.781 122.97 111.698C124.072 112.651 125.338 112.978 126.503 113.071Z" fill="white"/>
<path d="M142.986 112.629L146.8 123.346C146.964 123.808 146.474 124.231 146.041 124.001L137.38 119.394L142.986 112.629Z" fill="#259BFF"/>
<path d="M210.217 106.705C210.217 117.116 203.957 118.456 198.512 121.901C191.393 126.405 183.47 147.463 183.47 147.463C166.198 162.197 135.635 152.697 135.635 152.697C135.635 152.697 143.329 140.332 153.219 119.581C156.289 113.143 159.416 107.611 162.508 102.735C163.847 100.622 165.178 98.6314 166.498 96.7451C170.46 91.068 174.292 86.3227 177.783 81.9493C186.512 71.0085 204.521 72.3537 212.243 84.4629C213.372 86.23 214.014 87.7949 214.125 88.7883C215.202 98.301 210.217 98.645 210.217 106.705Z" fill="#9C5BFF"/>
<path d="M205.318 100.292C205.294 100.282 205.271 100.269 205.249 100.253C204.96 100.041 198.179 95.0039 199.015 88.0101C199.037 87.8273 199.203 87.6964 199.386 87.7185C199.568 87.7405 199.699 87.9064 199.677 88.0891C198.887 94.6916 205.574 99.665 205.642 99.7149C205.791 99.8237 205.823 100.032 205.715 100.181C205.622 100.307 205.457 100.349 205.318 100.292Z" fill="#7E36D2"/>
<path d="M190.455 91.1218C190.316 91.2617 181.823 99.8458 162.508 102.734C163.847 100.621 165.178 98.6301 166.498 96.7438C171.415 96.4256 184.593 95.2119 190.455 91.1218Z" fill="#7E36D2"/>
<path d="M209.981 88.4805C209.97 88.4805 209.958 88.4799 209.947 88.4786C206.406 88.1124 203.312 86.1218 200.997 82.7217C199.261 80.1712 198.581 77.7652 198.553 77.6641C198.504 77.4865 198.607 77.3032 198.785 77.2539C198.963 77.2053 199.146 77.3083 199.195 77.4859C199.222 77.5805 201.932 86.9791 210.016 87.8157C210.199 87.8345 210.332 87.9984 210.313 88.1818C210.295 88.3529 210.15 88.4805 209.981 88.4805Z" fill="#7E36D2"/>
<path d="M200.818 119.465C200.787 119.465 200.756 119.46 200.724 119.451C190.65 116.503 178.048 117.312 177.923 117.32C177.739 117.333 177.58 117.194 177.568 117.01C177.555 116.826 177.694 116.667 177.877 116.655C178.004 116.646 190.722 115.829 200.912 118.811C201.089 118.863 201.19 119.047 201.138 119.224C201.096 119.371 200.962 119.465 200.818 119.465Z" fill="#7E36D2"/>
<path d="M179.396 141.377C171.274 141.377 165.466 137.959 161.962 135.003C157.96 131.626 156.073 128.204 155.995 128.06C155.907 127.898 155.966 127.696 156.128 127.608C156.29 127.52 156.493 127.58 156.581 127.742C156.6 127.776 158.498 131.214 162.412 134.511C166.014 137.544 172.113 141.077 180.718 140.68C180.898 140.671 181.058 140.814 181.066 140.998C181.075 141.182 180.933 141.337 180.749 141.346C180.291 141.366 179.839 141.377 179.396 141.377Z" fill="#7E36D2"/>
<path d="M179.29 139.346C179.264 139.346 179.238 139.343 179.212 139.337C178.864 139.253 170.666 137.213 168.746 130.437C168.695 130.26 168.798 130.075 168.976 130.025C169.152 129.975 169.337 130.078 169.387 130.255C171.2 136.653 179.286 138.669 179.368 138.689C179.547 138.732 179.657 138.912 179.614 139.091C179.577 139.243 179.44 139.346 179.29 139.346Z" fill="#7E36D2"/>
<path d="M207.67 94.8685C206.99 94.8685 206.251 94.6948 205.456 94.3482C199.41 91.7108 200.053 75.9806 200.084 75.3125C200.092 75.1285 200.249 74.9872 200.432 74.9943C200.616 75.0028 200.758 75.1589 200.75 75.3423C200.743 75.5017 200.095 91.2818 205.723 93.7371C207.262 94.4084 208.537 94.3436 209.51 93.5433C211.851 91.6188 212.061 85.8075 211.63 83.8564C211.591 83.6769 211.704 83.4987 211.884 83.4592C212.063 83.419 212.242 83.533 212.282 83.7132C212.66 85.4304 212.673 91.8054 209.933 94.0585C209.276 94.5983 208.52 94.8685 207.67 94.8685Z" fill="white"/>
<path d="M133.347 126.11L156.839 147.292C158.069 148.401 159.966 148.303 161.076 147.073L175.852 130.685C176.962 129.454 176.864 127.558 175.633 126.447L152.141 105.266C150.911 104.156 149.014 104.254 147.904 105.485L133.128 121.873C132.018 123.104 132.116 125 133.347 126.11Z" fill="#FFB109"/>
<path d="M147.447 122.114C147.406 122.445 147.385 122.769 147.375 123.08C147.372 123.154 147.371 123.228 147.37 123.303C147.352 125.294 147.948 127.715 148.555 130.234C148.581 130.339 148.606 130.444 148.631 130.549C148.765 131.104 148.897 131.663 149.023 132.222C152.386 132.667 155.752 133.359 158.277 133.047C159.662 132.876 161.311 132.465 162.555 131.067C163.488 130.019 164.029 128.914 163.949 127.457C163.875 126.136 163.089 125.271 162.285 124.536C162.257 124.511 162.23 124.483 162.2 124.459C162.091 124.373 161.984 124.29 161.877 124.211C161.034 123.595 160.185 123.258 158.461 123.344L156.958 123.542L157.021 122.027C157.031 121.125 156.866 120.329 156.491 119.614L156.49 119.613C156.264 119.182 155.961 118.781 155.575 118.403C155.547 118.376 155.519 118.351 155.491 118.325C154.687 117.59 153.73 116.904 152.432 116.93C150.974 116.959 149.922 117.618 148.962 118.64C147.968 119.703 147.588 120.954 147.447 122.114Z" fill="white"/>
<path d="M147.201 138.602L136.335 141.965C135.866 142.11 135.464 141.603 135.712 141.179L140.676 132.718L147.201 138.602Z" fill="#FFB109"/>
<path d="M146.564 140.433L119.157 150.843C117.609 151.432 115.876 150.653 115.288 149.104L108.064 130.089C107.476 128.541 108.255 126.808 109.804 126.219L137.21 115.809C138.759 115.22 140.492 115.999 141.08 117.548L148.303 136.563C148.892 138.111 148.113 139.844 146.564 140.433Z" fill="#FF4B61"/>
<path d="M135.761 132.077C135.684 132.381 135.592 132.672 135.496 132.947C135.473 133.012 135.449 133.078 135.424 133.144C134.763 134.892 133.418 136.806 132.03 138.804C131.972 138.887 131.914 138.97 131.856 139.054C131.55 139.494 131.245 139.938 130.944 140.385C127.852 139.63 124.671 139.091 122.569 137.959C121.415 137.338 120.113 136.419 119.5 134.773C119.04 133.539 118.943 132.388 119.508 131.142C120.021 130.01 121.003 129.521 121.956 129.152C121.989 129.139 122.022 129.124 122.057 129.113C122.181 129.074 122.303 129.038 122.423 129.006C123.37 128.754 124.227 128.748 125.706 129.409L126.954 130.094L127.413 128.747C127.711 127.955 128.126 127.315 128.697 126.816L128.698 126.816C129.042 126.516 129.443 126.267 129.91 126.068C129.943 126.054 129.976 126.042 130.01 126.029C130.962 125.66 132.033 125.385 133.159 125.848C134.425 126.369 135.122 127.303 135.614 128.524C136.125 129.791 136.032 131.015 135.761 132.077Z" fill="white"/>
<path d="M130.37 146.584L138.733 153.22C139.094 153.507 139.618 153.2 139.545 152.745L138.08 143.656L130.37 146.584Z" fill="#FF4B61"/>
<path d="M168.792 119.586L135.196 109.609C133.608 109.137 132.703 107.468 133.174 105.879L140.181 82.285C140.653 80.6967 142.323 79.7915 143.911 80.2632L177.507 90.2398C179.095 90.7116 180 92.3815 179.528 93.9697L172.522 117.564C172.05 119.152 170.38 120.058 168.792 119.586Z" fill="#FF4B61"/>
<path d="M164.233 104.112C163.947 104.338 163.658 104.542 163.374 104.728C163.307 104.772 163.239 104.816 163.17 104.859C161.327 106.008 158.735 106.829 156.045 107.696C155.933 107.733 155.821 107.769 155.709 107.805C155.116 107.996 154.52 108.191 153.927 108.392C151.602 105.515 149.043 102.775 147.898 100.248C147.27 98.8608 146.714 97.0931 147.309 95.1394C147.754 93.6749 148.475 92.5435 149.877 91.7898C151.148 91.1062 152.401 91.346 153.541 91.6771C153.581 91.6888 153.621 91.6985 153.661 91.7127C153.803 91.7646 153.941 91.8171 154.076 91.8721C155.129 92.307 155.925 92.9051 156.826 94.5581L157.495 96.0705L158.869 95.1497C159.703 94.6274 160.538 94.3287 161.417 94.271C161.417 94.2717 161.417 94.271 161.417 94.271C161.946 94.2367 162.492 94.2898 163.063 94.435C163.104 94.4454 163.144 94.457 163.184 94.4687C164.325 94.7985 165.508 95.3001 166.222 96.5222C167.024 97.8959 167.009 99.2496 166.603 100.725C166.181 102.256 165.232 103.321 164.233 104.112Z" fill="white"/>
<path d="M149.026 113.716L152.075 125.743C152.206 126.262 152.907 126.348 153.16 125.876L158.213 116.445L149.026 113.716Z" fill="#FF4B61"/>
<path d="M178.713 93.2919C178.713 93.2919 177.514 95.3662 175.892 95.4361C173.409 95.5437 170.021 96.0647 166.222 96.6978C165.653 96.7918 165.075 96.8896 164.49 96.9862C161.751 97.4495 158.844 97.9446 155.942 98.3645C155.188 98.4733 154.437 98.577 153.687 98.6736C153.124 98.7468 152.564 98.8174 152.005 98.8809C151.364 98.9554 150.725 99.0235 150.096 99.0844C148.282 99.2619 146.516 99.3779 144.844 99.409C141.683 99.4641 138.723 97.8823 138.139 94.7765C138.134 94.7532 138.13 94.7285 138.126 94.7071C138.016 94.1155 137.931 93.5822 137.87 93.093C137.512 90.291 139.227 87.6394 141.922 86.7899C143.492 86.2955 145.147 85.7719 145.169 85.7673C145.195 85.7634 145.215 85.757 145.228 85.755C145.256 85.7505 145.268 85.7466 145.268 85.7466C149.87 84.6158 154.828 83.4423 159.469 82.4949C160.859 82.2118 162.221 81.9454 163.538 81.7109C165.549 81.3506 167.456 81.0551 169.186 80.8497C172.556 80.4479 174.74 80.2282 174.74 80.2282C174.74 80.2282 180.027 86.0142 178.713 93.2919Z" fill="#FFA86F"/>
<path d="M164.49 96.9881L159.468 82.4956C160.86 82.2118 162.222 81.9474 163.538 81.7122L166.222 96.6984C165.653 96.7931 165.075 96.8896 164.49 96.9881Z" fill="#472850"/>
<path d="M149.091 89.0339C144.892 85.5224 140.281 86.7601 137.302 91.3518C132.172 99.26 125.768 111.269 119.798 122.124C108.69 142.323 119.75 137.474 124.867 129.386C129.984 121.298 140.787 112.095 144.63 106.958C153.327 95.3344 153.106 92.3925 153.106 92.3925L149.091 89.0339Z" fill="#FFA86F"/>
<path d="M120.647 120.579C120.647 120.579 120.416 119.406 121.869 118.347C121.869 118.347 129.016 120.686 129.673 123.078C129.673 123.078 129.547 123.892 128.345 124.478C128.345 124.478 125.854 122.006 120.647 120.579Z" fill="white"/>
<path d="M122.701 130.972C122.701 130.972 125.372 137.22 125.295 140.015C125.264 141.17 124.707 142.604 124.064 143.89C123.403 145.214 121.457 145.024 121.065 143.597L120.814 142.68C120.814 142.68 115.848 148.868 114.771 149.76C113.694 150.653 111.985 148.713 112.998 146.526C112.998 146.526 109.612 148.207 111.906 143.046C111.906 143.046 109.368 143.41 111.189 139.971C111.189 139.971 108.016 140.098 110.967 135.64L117.151 127.25C117.152 127.25 121.359 128.881 122.701 130.972Z" fill="#FFA86F"/>
<path d="M151.855 93.0042C151.855 93.0042 152.565 95.9584 152.005 98.8816C151.365 98.9561 150.726 99.0241 150.096 99.085C150.782 97.8402 151.497 95.9137 151.855 93.0042Z" fill="#472850"/>
<path d="M185.362 76.1918C185.362 76.1918 170.289 77.841 161.122 81.3415C161.122 81.3415 163.629 89.5782 165.122 97.4547C165.122 97.4547 182.623 95.6215 188.29 90.2878C193.957 84.9534 191.601 76.9306 185.362 76.1918Z" fill="#9C5BFF"/>
<path d="M234.987 61.952C234.987 61.952 235.98 69.6684 230.164 74.1876L234.987 61.952Z" fill="#472850"/>
<path d="M203.509 81.5061C202.462 80.4103 201.499 79.2096 201.006 77.7645C204.741 73.3154 207.144 70.2659 207.144 70.2659L210.595 77.0582L211.722 79.2258L212.937 81.5657C212.941 81.5709 212.942 81.5748 212.942 81.5748C212.942 81.5748 212.223 82.6725 211.444 83.9756C210.978 84.7591 210.489 85.6177 210.119 86.3596C207.623 85.258 205.358 83.4404 203.509 81.5061Z" fill="#FFA86F"/>
<path d="M205.359 65.9392C205.359 65.9392 209.955 77.9907 214.56 83.8855C219.165 89.7804 224.33 84.1234 226.331 80.8672C228.332 77.611 233.213 69.2958 233.41 65.1603C233.607 61.0254 223.471 47.7492 214.611 49.4249C205.752 51.1006 205.359 65.9392 205.359 65.9392Z" fill="#FFA86F"/>
<path d="M208.532 69.9496C208.532 69.9496 209.8 72.5617 212.461 71.6526C212.461 71.6526 211.447 73.5046 209.189 72.0693C207.811 71.1932 207.501 69.833 207.501 69.833L208.532 69.9496Z" fill="#FF804D"/>
<path d="M207.602 63.1223C208.168 60.8368 210.581 59.4728 212.792 60.2821C213.63 60.5893 214.358 61.1952 214.459 62.3642C214.709 65.2853 212.626 68.3122 214.459 69.382C216.292 70.4525 216.959 65.2853 218.876 65.1188C220.792 64.9523 229.459 66.4524 231.543 64.2855C231.543 64.2855 229.821 69.8194 230.904 72.6142C230.904 72.6142 234.761 68.7334 234.96 64.1189C235.149 59.7113 234.209 54.2849 225.709 49.618C217.208 44.9511 210.041 47.3681 205.457 53.4516C200.874 59.535 204.076 74.0651 204.076 74.0651L206.873 70.8303L208.532 69.9497C208.532 69.9497 206.812 66.315 207.602 63.1223Z" fill="#472850"/>
<path d="M208.179 49.5111C208.179 49.5111 212.419 43.4503 222.086 45.0418C233.237 46.877 234.981 60.8964 234.981 60.8964C234.981 60.8964 220.792 52.2016 208.179 49.5111Z" fill="#FF4B61"/>
<path d="M235.348 64.7307C235.348 64.7307 235.077 64.6659 234.257 64.3205C234.115 64.2602 233.958 64.1922 233.782 64.1138C233.082 63.804 232.1 63.3439 230.743 62.6603C230.593 62.5851 230.44 62.5067 230.28 62.4251C229.423 61.9883 228.428 61.4699 227.278 60.8537C227.131 60.7753 226.981 60.6956 226.828 60.6139C225.933 60.1305 224.946 59.592 223.863 58.9907C223.839 58.979 223.816 58.9654 223.793 58.9524C223.666 58.8825 223.541 58.8125 223.414 58.7457C222.403 58.1943 221.407 57.6973 220.437 57.2489C220.286 57.1789 220.132 57.1089 219.98 57.0402C218.932 56.5685 217.912 56.1537 216.93 55.7883C216.772 55.7299 216.615 55.6736 216.459 55.6185C215.35 55.2187 214.29 54.8837 213.295 54.6018C213.13 54.5551 212.968 54.5104 212.808 54.467C211.599 54.1404 210.488 53.8922 209.498 53.7056C209.321 53.6725 209.147 53.6408 208.978 53.6103C207.473 53.3472 206.284 53.2254 205.5 53.1716C205.288 53.1567 205.106 53.1464 204.955 53.1386C204.61 53.1237 204.428 53.125 204.428 53.125C204.428 53.125 204.125 50.6282 206.485 49.7845C206.653 49.7249 206.833 49.6744 207.023 49.6361C207.253 49.5863 207.498 49.5526 207.758 49.5325C208.751 49.4541 209.946 49.5778 211.277 49.8506C211.458 49.8889 211.641 49.929 211.828 49.9705C212.771 50.1869 213.777 50.474 214.818 50.8123C214.981 50.8641 215.144 50.9192 215.31 50.9736C216.227 51.2821 217.17 51.6288 218.123 52.0001C218.278 52.0616 218.435 52.1219 218.59 52.1834H218.592C219.504 52.547 220.422 52.9338 221.337 53.3336C221.49 53.4004 221.643 53.4671 221.797 53.5339C222.717 53.9421 223.63 54.3607 224.524 54.7826C224.678 54.8545 224.832 54.9277 224.985 55.0009C225.932 55.4494 226.852 55.901 227.73 56.3429C227.89 56.4214 228.047 56.5011 228.203 56.5795C229.196 57.081 230.129 57.5644 230.978 58.0116C231.147 58.1016 231.313 58.1885 231.475 58.2746C232.609 58.8766 233.569 59.4015 234.289 59.8033C234.478 59.907 234.649 60.0016 234.802 60.0884C235.402 60.4253 235.737 60.6185 235.737 60.6185C236.125 61.5302 235.891 63.3271 235.348 64.7307Z" fill="#E82D4F"/>
<path d="M207.758 49.5325C206.711 50.7961 205.978 52.1277 205.5 53.171C205.288 53.1561 205.106 53.1457 204.955 53.1379C205.391 52.1497 206.061 50.881 207.023 49.6361C207.253 49.5863 207.498 49.5526 207.758 49.5325Z" fill="#C01B40"/>
<path d="M211.829 49.9712C210.829 51.2043 210.057 52.5528 209.498 53.7049C209.321 53.6719 209.147 53.6401 208.978 53.6097C209.525 52.4627 210.283 51.1129 211.277 49.8513C211.459 49.8895 211.642 49.9297 211.829 49.9712Z" fill="#C01B40"/>
<path d="M215.31 50.9743C214.506 52.1692 213.827 53.458 213.295 54.6011C213.13 54.5545 212.968 54.5098 212.808 54.4663C213.337 53.3213 214.012 52.0247 214.818 50.8129C214.982 50.8648 215.145 50.9192 215.31 50.9743Z" fill="#C01B40"/>
<path d="M218.59 52.1847C217.972 53.3861 217.404 54.653 216.93 55.7883C216.772 55.7299 216.615 55.6736 216.459 55.6185C216.934 54.4819 217.504 53.2118 218.124 52.0013C218.279 52.0629 218.436 52.1232 218.59 52.1847Z" fill="#C01B40"/>
<path d="M221.797 53.5345L220.437 57.2482C220.286 57.1782 220.132 57.1082 219.98 57.0396L221.337 53.3343C221.491 53.4017 221.644 53.4678 221.797 53.5345Z" fill="#C01B40"/>
<path d="M224.986 55.0016C224.657 56.3948 224.246 57.7932 223.862 58.99C223.839 58.9784 223.815 58.9648 223.792 58.9518C223.666 58.8818 223.541 58.8118 223.414 58.7451C223.795 57.5482 224.202 56.1596 224.524 54.7832C224.679 54.8545 224.833 54.9284 224.986 55.0016Z" fill="#C01B40"/>
<path d="M228.204 56.5801C228.001 58.1204 227.636 59.6218 227.278 60.8537C227.131 60.7753 226.981 60.6956 226.828 60.6139C227.184 59.3769 227.543 57.8735 227.731 56.3436C227.891 56.4214 228.047 56.5017 228.204 56.5801Z" fill="#C01B40"/>
<path d="M231.476 58.2746C231.394 59.9095 231.076 61.4466 230.742 62.6596C230.592 62.5845 230.439 62.5061 230.279 62.4244C230.609 61.1945 230.919 59.6393 230.979 58.0109C231.148 58.1016 231.315 58.1884 231.476 58.2746Z" fill="#C01B40"/>
<path d="M234.803 60.0884C234.816 61.7019 234.553 63.1768 234.256 64.3205C234.114 64.2602 233.958 64.1922 233.781 64.1138C234.076 62.9435 234.331 61.4336 234.29 59.8033C234.478 59.9069 234.65 60.0016 234.803 60.0884Z" fill="#C01B40"/>
<path d="M226.23 73.3154C225.796 74.1506 225.763 74.9937 226.157 75.1991C226.552 75.4039 227.224 74.8933 227.658 74.058C228.092 73.2227 228.125 72.3797 227.731 72.1742C227.336 71.9688 226.665 72.4801 226.23 73.3154Z" fill="#472850"/>
<path d="M212.943 81.5754C212.943 81.5754 212.224 82.6731 211.444 83.9763C209.728 81.1925 210.189 78.419 210.595 77.0582C210.757 76.5107 210.913 76.1912 210.913 76.1912C210.969 77.1975 211.324 78.2901 211.722 79.2258C212.257 80.4887 212.872 81.4646 212.937 81.5657C212.941 81.5715 212.943 81.5754 212.943 81.5754Z" fill="#472850"/>
<path d="M222.544 83.336C222.474 83.3399 222.402 83.3289 222.334 83.3017C222.23 83.2602 219.783 82.2422 219.546 78.9594C219.529 78.7288 219.721 78.5272 219.973 78.5097C219.976 78.5097 219.979 78.5097 219.981 78.5091C220.23 78.4955 220.444 78.6672 220.461 78.8959C220.662 81.681 222.688 82.5247 222.709 82.5332C222.939 82.6258 223.043 82.8727 222.939 83.0853C222.867 83.235 222.71 83.327 222.544 83.336Z" fill="#FF804D"/>
<path d="M225.085 69.9814C224.946 69.9536 224.818 69.8719 224.735 69.7423C224.576 69.4915 224.649 69.1604 224.899 69.0003C225.88 68.3711 228.177 67.6868 229.84 69.5959C230.035 69.8201 230.011 70.1609 229.787 70.356C229.562 70.5517 229.222 70.5277 229.027 70.3035C227.564 68.6226 225.562 69.8557 225.478 69.9088C225.357 69.9853 225.216 70.0073 225.085 69.9814Z" fill="#472850"/>
<path d="M211.547 71.5457C211.249 72.0887 210.568 72.2883 210.025 71.9909C209.481 71.6934 209.282 71.0117 209.58 70.4687C209.877 69.9257 210.559 69.7261 211.102 70.0235C211.645 70.321 211.845 71.0027 211.547 71.5457Z" fill="white"/>
<path d="M230.503 73.2123C230.503 73.2123 228.601 78.4112 228.766 80.2963C228.766 80.2963 228.922 81.9234 226.175 81.1166L230.503 73.2123Z" fill="#FFA86F"/>
<path d="M211.239 68.8228C211.218 68.8137 211.197 68.8033 211.177 68.791C210.968 68.6634 210.903 68.3906 211.03 68.1819C212.762 65.356 210.377 62.8787 210.275 62.775C210.104 62.6007 210.106 62.3208 210.28 62.1497C210.454 61.9786 210.733 61.9793 210.905 62.1529C210.934 62.1834 213.883 65.2212 211.785 68.6452C211.67 68.8331 211.437 68.9044 211.239 68.8228Z" fill="#FF804D"/>
<path d="M211.807 66.4686C211.691 66.4206 211.597 66.3241 211.555 66.1958C211.362 65.5983 210.254 65.2996 209.882 65.2426C209.64 65.2043 209.474 64.9795 209.511 64.7384C209.548 64.4967 209.773 64.3308 210.015 64.3671C210.216 64.3969 212.003 64.7002 212.398 65.9236C212.473 66.1563 212.345 66.4057 212.112 66.4809C212.008 66.5146 211.901 66.5075 211.807 66.4686Z" fill="#FF804D"/>
<path d="M224.199 79.1052C223.704 79.1052 223.266 78.9685 222.913 78.695C221.532 77.6284 221.917 74.8932 223.791 72.4678C224.667 71.3325 225.738 70.4505 226.806 69.9853C227.923 69.498 228.913 69.5187 229.594 70.0443C230.274 70.5698 230.545 71.5223 230.356 72.7263C230.175 73.8772 229.592 75.1362 228.715 76.2715C227.839 77.4068 226.768 78.2881 225.7 78.754C225.164 78.9886 224.656 79.1052 224.199 79.1052ZM228.305 70.1343C227.917 70.1343 227.478 70.2374 227.005 70.4434C226.013 70.8763 225.012 71.7038 224.186 72.7736C222.541 74.9036 222.097 77.434 223.218 78.2991C223.747 78.708 224.558 78.7067 225.5 78.2952C226.492 77.8624 227.493 77.0349 228.32 75.965C229.146 74.8952 229.693 73.7171 229.861 72.6486C230.021 71.6331 229.817 70.8484 229.288 70.4395C229.024 70.2367 228.69 70.1343 228.305 70.1343Z" fill="white"/>
<path d="M225.494 71.4038C225.446 71.4504 225.384 71.4737 225.323 71.4737C225.256 71.4737 225.191 71.4472 225.141 71.3973C225.104 71.3571 221.851 67.9901 217.69 65.9321C217.801 65.7869 217.915 65.6554 218.035 65.5439C222.221 67.6525 225.466 71.0111 225.502 71.0506C225.597 71.151 225.594 71.3092 225.494 71.4038Z" fill="white"/>
<path d="M230.084 75.3281C229.975 75.3281 229.875 75.2561 229.844 75.146C229.759 74.8466 229.475 74.8427 229.476 74.8466C229.338 74.8466 229.225 74.7345 229.225 74.5971C229.225 74.4591 229.337 74.347 229.475 74.347H229.476C229.705 74.347 230.177 74.4857 230.325 75.0112C230.363 75.144 230.285 75.282 230.152 75.3196C230.129 75.3248 230.107 75.3281 230.084 75.3281Z" fill="white"/>
<path d="M257.158 86.8158L248.076 91.3777C247.336 91.7497 246.434 91.4509 246.062 90.7103L243.002 84.6178C242.63 83.8778 242.929 82.9758 243.669 82.6045L252.752 78.0425C253.492 77.6706 254.394 77.9693 254.766 78.71L257.826 84.8025C258.197 85.5418 257.898 86.4439 257.158 86.8158Z" fill="#FFB109"/>
<path d="M253.176 83.9581C253.159 84.0735 253.135 84.1849 253.11 84.2905C253.104 84.3158 253.098 84.3411 253.091 84.3664C252.912 85.0396 252.487 85.801 252.048 86.5942C252.03 86.6272 252.012 86.6603 251.993 86.6933C251.896 86.8683 251.8 87.0445 251.705 87.2214C250.53 87.0594 249.33 86.981 248.507 86.6415C248.056 86.4555 247.538 86.1639 247.248 85.5768C247.03 85.1368 246.95 84.7137 247.112 84.2303C247.259 83.7909 247.605 83.5726 247.944 83.3989C247.956 83.3931 247.968 83.3866 247.98 83.3808C248.025 83.3613 248.069 83.3438 248.112 83.327C248.454 83.1974 248.771 83.1624 249.345 83.351L249.833 83.5577L249.952 83.0406C250.033 82.7353 250.162 82.482 250.355 82.2759C250.471 82.1515 250.61 82.0446 250.775 81.9526C250.787 81.9461 250.799 81.9403 250.811 81.9338C251.15 81.7601 251.537 81.6182 251.972 81.7465C252.461 81.8917 252.754 82.2111 252.984 82.6453C253.224 83.0963 253.235 83.5538 253.176 83.9581Z" fill="white"/>
<path d="M251.73 89.5419L255.083 91.6836C255.228 91.7762 255.411 91.6421 255.366 91.4762L254.477 88.1623L251.73 89.5419Z" fill="#FFB109"/>
<path d="M267.329 85.2716L255.717 75.1823C255.092 74.6386 255.025 73.6919 255.569 73.0659L262.593 64.9808C263.137 64.3555 264.084 64.2887 264.709 64.8324L276.321 74.9218C276.947 75.4654 277.014 76.4122 276.47 77.0381L269.445 85.1232C268.902 85.7479 267.955 85.8146 267.329 85.2716Z" fill="#FF4B61"/>
<path d="M268.457 78.2201C268.298 78.2596 268.142 78.2888 267.993 78.3121C267.957 78.3179 267.921 78.3231 267.885 78.3276C266.92 78.4547 265.711 78.3089 264.454 78.1637C264.402 78.1579 264.349 78.1514 264.297 78.1456C264.019 78.1138 263.741 78.0827 263.461 78.0548C263.046 76.451 262.511 74.8596 262.513 73.6167C262.513 72.935 262.615 72.1114 263.219 71.4251C263.672 70.9106 264.175 70.5827 264.886 70.5354C265.532 70.4927 265.998 70.8225 266.401 71.1685C266.415 71.1809 266.43 71.1919 266.443 71.2055C266.492 71.2528 266.539 71.3001 266.583 71.3474C266.931 71.72 267.145 72.1114 267.206 72.9518L267.199 73.6925L267.93 73.572C268.367 73.5137 268.763 73.5467 269.132 73.686H269.133C269.355 73.7703 269.567 73.8934 269.773 74.058C269.788 74.0696 269.802 74.082 269.816 74.0943C270.22 74.4403 270.609 74.8641 270.674 75.4946C270.747 76.2035 270.489 76.7524 270.051 77.2785C269.595 77.8248 269.011 78.0827 268.457 78.2201Z" fill="white"/>
<path d="M260.477 79.3171L259.49 84.7856C259.448 85.0215 259.718 85.1867 259.908 85.0409L263.717 82.1327L260.477 79.3171Z" fill="#FF4B61"/>
<path d="M247.839 67.0816L261.428 64.6659C262.244 64.5207 262.787 63.7418 262.642 62.9266L260.974 53.5423C260.829 52.7265 260.05 52.1828 259.235 52.3279L245.646 54.7437C244.831 54.8888 244.287 55.6671 244.432 56.4829L246.1 65.8673C246.245 66.6824 247.023 67.2261 247.839 67.0816Z" fill="#259BFF"/>
<path d="M250.138 61.0448C250.244 61.1498 250.353 61.2464 250.459 61.3351C250.484 61.3565 250.51 61.3773 250.536 61.398C251.233 61.9501 252.25 62.4037 253.304 62.88C253.348 62.9001 253.392 62.9195 253.435 62.9396C253.667 63.0446 253.901 63.1508 254.133 63.2603C255.211 62.197 256.378 61.2004 256.96 60.2251C257.279 59.6899 257.586 58.9965 257.435 58.1748C257.321 57.5586 257.08 57.0648 256.545 56.6942C256.059 56.3572 255.538 56.3974 255.059 56.4797C255.042 56.4823 255.026 56.4849 255.009 56.4887C254.948 56.503 254.89 56.5186 254.832 56.5348C254.384 56.6631 254.033 56.8698 253.59 57.5009L253.248 58.0854L252.732 57.648C252.417 57.3972 252.091 57.2372 251.736 57.173C251.522 57.1348 251.297 57.1309 251.058 57.164C251.041 57.1666 251.024 57.1691 251.007 57.1724C250.528 57.254 250.024 57.4037 249.677 57.8677C249.288 58.3893 249.231 58.9408 249.328 59.5596C249.432 60.2005 249.768 60.6768 250.138 61.0448Z" fill="white"/>
<path d="M255.882 65.6515L254.088 70.4026C254.01 70.6074 253.721 70.6106 253.64 70.4065L252.019 66.3377L255.882 65.6515Z" fill="#259BFF"/>
</svg>
