<svg width="1165" height="956" viewBox="0 0 1165 956" fill="none" xmlns="http://www.w3.org/2000/svg">
<g clip-path="url(#clip0_1659_2872)">
<rect width="1165" height="956" fill="white"/>
<path d="M370.429 497.962H179.909V909.773H370.429V497.962Z" fill="#E0E0E0"/>
<path d="M370.43 497.962H281.1V909.773H370.43V497.962Z" fill="#EBEBEB"/>
<path d="M236.986 536.71H219.855V584.112H236.986V536.71Z" fill="#F5F5F5"/>
<path d="M236.986 722.227H219.855V769.629H236.986V722.227Z" fill="#F5F5F5"/>
<path d="M281.099 602.716C281.099 603.126 258.446 603.454 230.505 603.454C202.556 603.454 179.909 603.123 179.909 602.716C179.909 602.309 202.556 601.978 230.505 601.978C258.443 601.975 281.099 602.306 281.099 602.716Z" fill="#F5F5F5"/>
<path d="M236.986 630.172H219.855V677.574H236.986V630.172Z" fill="#F5F5F5"/>
<path d="M281.099 696.178C281.099 696.585 258.446 696.917 230.505 696.917C202.556 696.917 179.909 696.585 179.909 696.178C179.909 695.768 202.556 695.44 230.505 695.44C258.443 695.437 281.099 695.768 281.099 696.178Z" fill="#F5F5F5"/>
<path d="M317.2 536.71H300.07V584.112H317.2V536.71Z" fill="#E0E0E0"/>
<path d="M354.363 536.71H337.233V584.112H354.363V536.71Z" fill="#E0E0E0"/>
<path d="M317.2 626.655H300.07V674.056H317.2V626.655Z" fill="#E0E0E0"/>
<path d="M354.363 626.655H337.233V674.056H354.363V626.655Z" fill="#E0E0E0"/>
<path d="M317.2 716.6H300.07V764.001H317.2V716.6Z" fill="#E0E0E0"/>
<path d="M354.363 716.6H337.233V764.001H354.363V716.6Z" fill="#E0E0E0"/>
<path d="M384.755 488H165.587V498.321H384.755V488Z" fill="#E0E0E0"/>
<path d="M371.76 499.293C371.76 499.7 329.176 500.031 276.66 500.031C224.125 500.031 181.549 499.7 181.549 499.293C181.549 498.886 224.125 498.555 276.66 498.555C329.179 498.555 371.76 498.886 371.76 499.293Z" fill="#EBEBEB"/>
<path d="M225.265 652.405H54.7026V908.621H225.265V652.405Z" fill="#EBEBEB"/>
<path d="M225.265 652.405H145.291V908.621H225.265V652.405Z" fill="#E0E0E0"/>
<path d="M105.801 687.094H90.4653V729.53H105.801V687.094Z" fill="#F5F5F5"/>
<path d="M105.801 853.176H90.4653V895.613H105.801V853.176Z" fill="#F5F5F5"/>
<path d="M145.29 746.182C145.29 746.658 125.011 747.046 99.9978 747.046C74.9765 747.046 54.6997 746.658 54.6997 746.182C54.6997 745.706 74.9765 745.318 99.9978 745.318C125.011 745.321 145.29 745.706 145.29 746.182Z" fill="#F5F5F5"/>
<path d="M105.801 770.764H90.4653V813.2H105.801V770.764Z" fill="#F5F5F5"/>
<path d="M145.29 829.853C145.29 830.329 125.011 830.717 99.9978 830.717C74.9765 830.717 54.6997 830.329 54.6997 829.853C54.6997 829.376 74.9765 828.988 99.9978 828.988C125.011 828.991 145.29 829.376 145.29 829.853Z" fill="#F5F5F5"/>
<path d="M177.611 687.094H162.275V729.53H177.611V687.094Z" fill="#F5F5F5"/>
<path d="M210.882 687.094H195.546V729.53H210.882V687.094Z" fill="#F5F5F5"/>
<path d="M177.611 767.616H162.275V810.052H177.611V767.616Z" fill="#F5F5F5"/>
<path d="M210.882 767.616H195.546V810.052H210.882V767.616Z" fill="#F5F5F5"/>
<path d="M177.611 848.136H162.275V890.572H177.611V848.136Z" fill="#F5F5F5"/>
<path d="M210.882 848.136H195.546V890.572H210.882V848.136Z" fill="#F5F5F5"/>
<path d="M238.086 643.484H41.8794V652.723H238.086V643.484Z" fill="#E0E0E0"/>
<path d="M226.456 653.594C226.456 654.07 188.334 654.458 141.319 654.458C94.2869 654.458 56.1733 654.07 56.1733 653.594C56.1733 653.118 94.2869 652.73 141.319 652.73C188.334 652.733 226.456 653.118 226.456 653.594Z" fill="#EBEBEB"/>
<path d="M3.75328 750.814C3.75328 750.814 -4.26287 753.565 3.13488 773.186C10.5326 792.807 15.8756 802.648 15.8756 802.648C15.8756 802.648 17.1271 807.168 13.8307 807.606C10.5343 808.045 3.43917 806.201 1.7247 810.63C-0.0535761 815.224 2.68991 819.89 8.54987 824.245C14.4098 828.6 26.9412 838.678 28.0716 839.593C29.1808 840.492 30.2221 842.63 28.0185 843.339C25.8148 844.048 9.57479 844.748 10.3273 853.505C11.0799 862.262 29.1554 871.338 31.1145 872.373C33.0735 873.408 33.4981 874.415 33.2609 875.66C33.0236 876.905 27.5457 876.553 22.9339 876.968C18.3222 877.383 13.0381 878.784 13.8446 883.795C14.6503 888.806 25.0198 899.988 51.4878 904.973L63.885 906.368L71.3416 894.924C85.9891 869.326 85.7502 853.065 83.0501 849.004C80.35 844.943 75.874 848.435 72.4909 852.028C69.1077 855.622 65.6354 860.46 64.6694 859.819C63.7034 859.178 63.3377 858.141 63.9905 855.797C64.6432 853.452 70.9727 832.14 65.8113 825.593C60.6491 819.047 49.2285 832.216 47.2809 833.587C45.3341 834.96 44.6519 832.642 44.8196 831.102C44.9898 829.534 46.9276 812.203 48.0645 804.34C49.2023 796.477 48.0326 791.021 43.8577 789.413C39.8316 787.862 36.2342 795.067 33.7238 797.539C31.2135 800.012 29.1325 795.908 29.1325 795.908C29.1325 795.908 26.3686 784.775 18.6592 765.31C10.9498 745.845 3.59459 750.884 3.59459 750.884" fill="#EBEBEB"/>
<path d="M64.3339 909.744C58.7218 895.424 49.1212 869.782 40.7787 847.815C32.4395 825.855 24.8724 805.981 19.3241 791.63C16.5479 784.47 14.2993 778.671 12.7378 774.642C11.9664 772.649 11.3652 771.095 10.9497 770.022C10.7542 769.504 10.6029 769.103 10.4932 768.815C10.3926 768.542 10.3501 768.398 10.3501 768.398C10.3501 768.398 10.4164 768.53 10.5292 768.797C10.6462 769.08 10.8098 769.476 11.02 769.985C11.4511 771.051 12.0744 772.594 12.8744 774.573C14.4809 778.558 16.7696 784.344 19.5736 791.504C25.1865 805.825 32.7928 825.68 41.1329 847.639C49.4754 869.606 59.0351 895.266 64.5834 909.618" fill="#E0E0E0"/>
<path d="M11.5589 813.664C11.5695 813.636 11.8722 813.759 12.4096 814.004C12.9486 814.246 13.7175 814.625 14.6647 815.101C16.5567 816.057 19.1407 817.454 21.9668 819.054C24.7487 820.644 27.2648 822.081 29.1895 823.181C30.059 823.67 30.7935 824.084 31.3841 824.416C31.9035 824.705 32.1857 824.878 32.1759 824.906C32.1661 824.934 31.8626 824.814 31.3228 824.572C30.7845 824.327 30.0148 823.95 29.0717 823.463C27.1879 822.485 24.6211 821.05 21.795 819.449C19.0041 817.883 16.4806 816.467 14.5494 815.383C13.6766 814.899 12.9404 814.49 12.3482 814.161C11.8296 813.867 11.5483 813.692 11.5589 813.664Z" fill="#E0E0E0"/>
<path d="M33.0768 824.066C32.9786 824.016 35.273 817.823 38.2006 810.234C41.1289 802.643 43.5812 796.529 43.6793 796.579C43.7775 796.627 41.4831 802.82 38.5547 810.411C35.6272 818 33.1741 824.114 33.0768 824.066Z" fill="#E0E0E0"/>
<path d="M44.5497 858.451C44.53 858.43 44.7288 858.134 45.1051 857.615C45.5353 857.03 46.0727 856.3 46.7108 855.432C48.0637 853.588 49.9221 851.031 51.8828 848.125C53.8492 845.223 55.549 842.526 56.7653 840.562C57.3387 839.638 57.8221 838.86 58.2082 838.237C58.5517 837.69 58.7521 837.395 58.7751 837.411C58.7971 837.428 58.6393 837.754 58.3342 838.331C58.0282 838.908 57.5734 839.732 56.9911 840.737C55.8303 842.749 54.1609 845.483 52.1887 848.393C50.2231 851.308 48.3254 853.84 46.9169 855.635C46.2093 856.53 45.6302 857.246 45.2171 857.728C44.8065 858.213 44.5693 858.471 44.5497 858.451Z" fill="#E0E0E0"/>
<path d="M23.2686 853.922C23.2735 853.892 23.5745 853.922 24.116 854.002C24.7385 854.106 25.5025 854.233 26.4031 854.383C28.331 854.724 30.9911 855.226 33.9243 855.805C36.8584 856.385 39.5111 856.935 41.4276 857.354C42.32 857.559 43.0775 857.732 43.6934 857.873C44.2267 858.005 44.5196 858.093 44.5155 858.123C44.5106 858.153 44.2095 858.123 43.668 858.043C43.0464 857.939 42.2824 857.812 41.381 857.662C39.4522 857.321 36.793 856.819 33.8589 856.239C30.9257 855.659 28.2738 855.11 26.3573 854.69C25.4649 854.486 24.7074 854.312 24.0907 854.171C23.5573 854.039 23.2645 853.952 23.2686 853.922Z" fill="#E0E0E0"/>
<path d="M30.0118 885.744C30.0159 885.714 30.4019 885.756 31.0956 885.859C31.8596 885.983 32.8452 886.143 34.028 886.335C36.5016 886.756 39.9142 887.368 43.6801 888.071C47.4469 888.773 50.8529 889.434 53.315 889.934C54.4904 890.182 55.4687 890.388 56.2278 890.549C56.9141 890.703 57.292 890.803 57.2871 890.833C57.283 890.863 56.8969 890.82 56.2033 890.717C55.4393 890.593 54.4536 890.433 53.2708 890.241C50.7973 889.82 47.3839 889.208 43.6171 888.506C39.852 887.803 36.4459 887.143 33.9838 886.643C32.8092 886.395 31.8301 886.188 31.071 886.029C30.3848 885.873 30.0069 885.773 30.0118 885.744Z" fill="#E0E0E0"/>
<path d="M56.6653 890.502C56.6448 890.483 56.8877 890.1 57.345 889.423C57.8472 888.687 58.5024 887.729 59.2926 886.573C60.9343 884.164 63.1919 880.827 65.5918 877.063C67.9975 873.302 70.0956 869.833 71.5998 867.31C72.3229 866.098 72.9233 865.093 73.383 864.322C73.8067 863.619 74.0521 863.237 74.0742 863.254C74.0971 863.271 73.895 863.683 73.5098 864.416C73.1245 865.148 72.5536 866.198 71.828 867.482C70.381 870.052 68.3148 873.556 65.9043 877.323C63.5002 881.093 61.205 884.406 59.5061 886.767C58.6537 887.946 57.956 888.891 57.4611 889.532C56.9679 890.175 56.6857 890.521 56.6653 890.502Z" fill="#E0E0E0"/>
<path d="M733.296 443.406H952.411V917.024H733.296V443.406Z" fill="#E0E0E0"/>
<path d="M733.296 443.406H836.033V917.024H733.296V443.406Z" fill="#EBEBEB"/>
<path d="M886.767 487.97H906.469V542.486H886.767V487.97Z" fill="#F5F5F5"/>
<path d="M886.767 701.331H906.469V755.846H886.767V701.331Z" fill="#F5F5F5"/>
<path d="M836.034 563.883C836.034 564.354 862.087 564.732 894.221 564.732C926.364 564.732 952.411 564.351 952.411 563.883C952.411 563.415 926.364 563.034 894.221 563.034C862.09 563.03 836.034 563.411 836.034 563.883Z" fill="#F5F5F5"/>
<path d="M886.767 595.459H906.469V649.975H886.767V595.459Z" fill="#F5F5F5"/>
<path d="M836.034 671.372C836.034 671.84 862.087 672.221 894.221 672.221C926.364 672.221 952.411 671.84 952.411 671.372C952.411 670.9 926.364 670.523 894.221 670.523C862.09 670.519 836.034 670.9 836.034 671.372Z" fill="#F5F5F5"/>
<path d="M794.515 487.97H814.217V542.486H794.515V487.97Z" fill="#E0E0E0"/>
<path d="M751.774 487.97H771.476V542.486H751.774V487.97Z" fill="#E0E0E0"/>
<path d="M794.515 591.415H814.217V645.93H794.515V591.415Z" fill="#E0E0E0"/>
<path d="M751.774 591.415H771.476V645.93H751.774V591.415Z" fill="#E0E0E0"/>
<path d="M794.515 694.858H814.217V749.374H794.515V694.858Z" fill="#E0E0E0"/>
<path d="M751.774 694.858H771.476V749.374H751.774V694.858Z" fill="#E0E0E0"/>
<path d="M716.821 431.949H968.883V443.819H716.821V431.949Z" fill="#E0E0E0"/>
<path d="M731.767 444.937C731.767 445.405 780.742 445.786 841.14 445.786C901.56 445.786 950.525 445.405 950.525 444.937C950.525 444.469 901.56 444.088 841.14 444.088C780.739 444.088 731.767 444.469 731.767 444.937Z" fill="#EBEBEB"/>
<path d="M900.248 621.029H1096.41V915.7H900.248V621.029Z" fill="#EBEBEB"/>
<path d="M900.248 621.029H992.226V915.7H900.248V621.029Z" fill="#E0E0E0"/>
<path d="M1037.64 660.924H1055.28V709.729H1037.64V660.924Z" fill="#F5F5F5"/>
<path d="M1037.64 851.933H1055.28V900.738H1037.64V851.933Z" fill="#F5F5F5"/>
<path d="M992.225 728.88C992.225 729.428 1015.55 729.874 1044.32 729.874C1073.09 729.874 1096.41 729.428 1096.41 728.88C1096.41 728.333 1073.09 727.886 1044.32 727.886C1015.55 727.89 992.225 728.333 992.225 728.88Z" fill="#F5F5F5"/>
<path d="M1037.64 757.152H1055.28V805.958H1037.64V757.152Z" fill="#F5F5F5"/>
<path d="M992.225 825.109C992.225 825.657 1015.55 826.103 1044.32 826.103C1073.09 826.103 1096.41 825.657 1096.41 825.109C1096.41 824.561 1073.09 824.115 1044.32 824.115C1015.55 824.119 992.225 824.561 992.225 825.109Z" fill="#F5F5F5"/>
<path d="M955.054 660.924H972.691V709.729H955.054V660.924Z" fill="#F5F5F5"/>
<path d="M916.789 660.924H934.427V709.729H916.789V660.924Z" fill="#F5F5F5"/>
<path d="M955.054 753.532H972.691V802.337H955.054V753.532Z" fill="#F5F5F5"/>
<path d="M916.789 753.532H934.427V802.337H916.789V753.532Z" fill="#F5F5F5"/>
<path d="M955.054 846.136H972.691V894.942H955.054V846.136Z" fill="#F5F5F5"/>
<path d="M916.789 846.136H934.427V894.942H916.789V846.136Z" fill="#F5F5F5"/>
<path d="M885.502 610.769H1111.16V621.395H885.502V610.769Z" fill="#E0E0E0"/>
<path d="M898.878 622.396C898.878 622.944 942.721 623.39 996.793 623.39C1050.88 623.39 1094.72 622.944 1094.72 622.396C1094.72 621.849 1050.88 621.402 996.793 621.402C942.721 621.406 898.878 621.849 898.878 622.396Z" fill="#EBEBEB"/>
<path d="M1160.02 713.286C1160.02 713.286 1170.3 716.812 1160.82 741.961C1151.33 767.108 1144.49 779.722 1144.49 779.722C1144.49 779.722 1142.88 785.515 1147.11 786.077C1151.33 786.639 1160.43 784.276 1162.62 789.952C1164.9 795.84 1161.39 801.821 1153.88 807.403C1146.36 812.984 1130.3 825.901 1128.85 827.075C1127.43 828.227 1126.1 830.967 1128.92 831.876C1131.75 832.785 1152.56 833.681 1151.6 844.905C1150.63 856.129 1127.47 867.762 1124.95 869.089C1122.44 870.416 1121.9 871.706 1122.2 873.301C1122.51 874.897 1129.53 874.447 1135.44 874.978C1141.35 875.509 1148.12 877.305 1147.09 883.728C1146.06 890.15 1132.77 904.482 1098.84 910.871L1082.95 912.66L1073.4 897.993C1054.62 865.183 1054.93 844.342 1058.39 839.137C1061.85 833.932 1067.59 838.407 1071.92 843.013C1076.26 847.619 1080.71 853.82 1081.95 852.998C1083.19 852.177 1083.65 850.848 1082.82 847.842C1081.98 844.837 1073.87 817.521 1080.48 809.131C1087.1 800.74 1101.74 817.619 1104.23 819.377C1106.73 821.136 1107.6 818.165 1107.39 816.191C1107.17 814.182 1104.69 791.968 1103.23 781.89C1101.77 771.813 1103.27 764.819 1108.62 762.759C1113.78 760.77 1118.39 770.005 1121.61 773.174C1124.83 776.343 1127.49 771.083 1127.49 771.083C1127.49 771.083 1131.04 756.813 1140.92 731.865C1150.8 706.917 1160.23 713.376 1160.23 713.376" fill="#EBEBEB"/>
<path d="M1082.38 916.987C1089.57 898.633 1101.88 865.767 1112.57 837.612C1123.26 809.467 1132.96 783.994 1140.07 765.6C1143.62 756.423 1146.51 748.99 1148.51 743.827C1149.5 741.272 1150.27 739.28 1150.8 737.905C1151.05 737.241 1151.24 736.728 1151.38 736.359C1151.51 736.009 1151.57 735.824 1151.57 735.824C1151.57 735.824 1151.48 735.993 1151.34 736.335C1151.19 736.698 1150.98 737.205 1150.71 737.858C1150.16 739.224 1149.36 741.202 1148.33 743.738C1146.27 748.846 1143.34 756.262 1139.75 765.439C1132.55 783.794 1122.8 809.242 1112.11 837.388C1101.42 865.543 1089.17 898.431 1082.06 916.825" fill="#E0E0E0"/>
<path d="M1150.02 793.842C1150.01 793.806 1149.62 793.963 1148.93 794.277C1148.24 794.588 1147.25 795.073 1146.04 795.683C1143.61 796.909 1140.3 798.699 1136.68 800.75C1133.11 802.787 1129.89 804.63 1127.42 806.04C1126.31 806.667 1125.37 807.197 1124.61 807.622C1123.94 807.992 1123.58 808.214 1123.59 808.25C1123.61 808.286 1124 808.132 1124.69 807.822C1125.38 807.508 1126.36 807.025 1127.57 806.4C1129.99 805.147 1133.28 803.308 1136.9 801.256C1140.48 799.249 1143.71 797.434 1146.19 796.045C1147.3 795.424 1148.25 794.899 1149.01 794.478C1149.67 794.102 1150.03 793.877 1150.02 793.842Z" fill="#E0E0E0"/>
<path d="M1122.44 807.173C1122.57 807.109 1119.62 799.172 1115.87 789.445C1112.12 779.715 1108.98 771.88 1108.85 771.943C1108.72 772.005 1111.67 779.942 1115.42 789.672C1119.17 799.398 1122.31 807.235 1122.44 807.173Z" fill="#E0E0E0"/>
<path d="M1107.73 851.244C1107.76 851.218 1107.51 850.838 1107.02 850.173C1106.47 849.423 1105.78 848.487 1104.96 847.376C1103.23 845.012 1100.85 841.735 1098.34 838.01C1095.82 834.29 1093.64 830.834 1092.08 828.317C1091.34 827.132 1090.72 826.135 1090.23 825.336C1089.79 824.635 1089.53 824.257 1089.5 824.278C1089.47 824.3 1089.68 824.718 1090.07 825.457C1090.46 826.196 1091.04 827.253 1091.79 828.541C1093.28 831.12 1095.42 834.623 1097.94 838.354C1100.46 842.09 1102.9 845.335 1104.7 847.636C1105.61 848.782 1106.35 849.7 1106.88 850.318C1107.41 850.94 1107.71 851.271 1107.73 851.244Z" fill="#E0E0E0"/>
<path d="M1135.01 845.44C1135 845.402 1134.62 845.44 1133.92 845.543C1133.13 845.675 1132.15 845.839 1130.99 846.031C1128.52 846.468 1125.11 847.111 1121.35 847.853C1117.59 848.597 1114.19 849.302 1111.74 849.839C1110.59 850.102 1109.62 850.324 1108.83 850.504C1108.15 850.674 1107.77 850.786 1107.78 850.824C1107.78 850.862 1108.17 850.824 1108.86 850.721C1109.66 850.589 1110.64 850.425 1111.8 850.233C1114.27 849.796 1117.68 849.154 1121.44 848.41C1125.2 847.666 1128.6 846.963 1131.05 846.424C1132.2 846.163 1133.17 845.939 1133.96 845.759C1134.64 845.589 1135.02 845.478 1135.01 845.44Z" fill="#E0E0E0"/>
<path d="M1126.37 886.226C1126.36 886.187 1125.87 886.241 1124.98 886.374C1124 886.533 1122.74 886.738 1121.22 886.984C1118.05 887.524 1113.68 888.308 1108.85 889.208C1104.02 890.109 1099.66 890.955 1096.5 891.596C1094.99 891.914 1093.74 892.179 1092.77 892.384C1091.89 892.583 1091.4 892.71 1091.41 892.749C1091.41 892.787 1091.91 892.732 1092.8 892.601C1093.78 892.442 1095.04 892.236 1096.56 891.99C1099.73 891.451 1104.1 890.666 1108.93 889.766C1113.75 888.866 1118.12 888.019 1121.28 887.378C1122.78 887.06 1124.04 886.795 1125.01 886.591C1125.89 886.392 1126.37 886.264 1126.37 886.226Z" fill="#E0E0E0"/>
<path d="M1092.21 892.325C1092.23 892.3 1091.92 891.809 1091.33 890.942C1090.69 889.999 1089.85 888.77 1088.84 887.288C1086.73 884.201 1083.84 879.924 1080.76 875.1C1077.68 870.28 1074.99 865.833 1073.06 862.6C1072.14 861.046 1071.37 859.758 1070.78 858.77C1070.24 857.869 1069.92 857.379 1069.89 857.401C1069.86 857.422 1070.12 857.951 1070.62 858.89C1071.11 859.828 1071.84 861.174 1072.77 862.821C1074.63 866.114 1077.27 870.604 1080.36 875.433C1083.45 880.265 1086.39 884.511 1088.56 887.538C1089.66 889.048 1090.55 890.26 1091.19 891.082C1091.82 891.906 1092.18 892.349 1092.21 892.325Z" fill="#E0E0E0"/>
<path d="M500.455 346.909C499.458 336.925 492.622 327 480.622 327C468.652 327 461.816 336.925 460.819 346.909C459.323 362.298 469.621 376.269 480.622 389C491.653 376.269 501.981 362.298 500.455 346.909ZM480.622 357.985C474.637 357.985 469.796 353.111 469.796 347.056C469.796 341.03 474.637 336.156 480.622 336.156C486.637 336.156 491.507 341.03 491.507 347.056C491.507 353.111 486.637 357.985 480.622 357.985Z" fill="#FFC727"/>
<rect x="381.5" y="78.5" width="369" height="100" rx="49.5" fill="white" stroke="#B9B9B9"/>
<circle cx="432.232" cy="129.732" r="13.5" transform="rotate(-45 432.232 129.732)" fill="white" stroke="#C7C7C7" stroke-width="5"/>
<rect x="439.303" y="138.925" width="4" height="9" rx="2" transform="rotate(-45 439.303 138.925)" fill="#C7C7C7" stroke="#C7C7C7"/>
<rect x="836.5" y="135.5" width="327" height="175" rx="19.5" fill="white" stroke="#B9B9B9"/>
<path d="M893.878 183.909C892.718 173.925 884.768 164 870.812 164C856.889 164 848.939 173.925 847.779 183.909C846.039 199.298 858.016 213.269 870.812 226C883.641 213.269 895.653 199.298 893.878 183.909ZM870.812 194.985C863.85 194.985 858.22 190.111 858.22 184.056C858.22 178.03 863.85 173.156 870.812 173.156C877.807 173.156 883.471 178.03 883.471 184.056C883.471 190.111 877.807 194.985 870.812 194.985Z" fill="#FFC727"/>
<rect x="923.951" y="164" width="209.814" height="22" rx="10" fill="#D9D9D9"/>
<rect x="923.951" y="204" width="144.762" height="22" rx="10" fill="#D9D9D9"/>
<rect x="923.951" y="244" width="197.903" height="22" rx="10" fill="#D9D9D9"/>
<rect x="363" width="440" height="956" rx="50" fill="url(#paint0_linear_1659_2872)"/>
<rect x="375" y="11" width="417" height="934" rx="50" fill="#EBEBEB"/>
<mask id="mask0_1659_2872" style="mask-type:alpha" maskUnits="userSpaceOnUse" x="375" y="11" width="417" height="934">
<rect x="375" y="11" width="417" height="934" rx="50" fill="#EBEBEB"/>
</mask>
<g mask="url(#mask0_1659_2872)">
<mask id="path-89-inside-1_1659_2872" fill="white">
<path fill-rule="evenodd" clip-rule="evenodd" d="M843.767 -52L885.589 -16.2796L729 167.056V168H728.194L651 258.379V265H792V320H651V412H792V467H706V573H792V628H639.565L703.651 739H792V794H720.78L707.388 838.065C725.53 853.832 737 877.076 737 903C737 950.496 698.496 989 651 989C613.173 989 581.05 964.578 569.538 930.641L476.759 868H375L375 813H448V746H375L375 691H448V628H375V586L375 573L375 467L375 412H434V370H375V315H434V269H375V214H434V168H375V113H434L474 113L489 113H702.839L843.767 -52ZM655.863 168L489 168V214V269V315V370V412H596L596 238.088L596 238H596.075L655.863 168ZM486.424 467H430V573L547.623 573L486.424 467ZM607.811 573L546.612 467H651V573H607.811ZM578 628H503V691V746V813V819.355L573.04 866.643C586.739 837.319 616.497 817 651 817C652.766 817 654.519 817.053 656.258 817.158L667.407 780.472L579.378 628H578Z"/>
</mask>
<path fill-rule="evenodd" clip-rule="evenodd" d="M843.767 -52L885.589 -16.2796L729 167.056V168H728.194L651 258.379V265H792V320H651V412H792V467H706V573H792V628H639.565L703.651 739H792V794H720.78L707.388 838.065C725.53 853.832 737 877.076 737 903C737 950.496 698.496 989 651 989C613.173 989 581.05 964.578 569.538 930.641L476.759 868H375L375 813H448V746H375L375 691H448V628H375V586L375 573L375 467L375 412H434V370H375V315H434V269H375V214H434V168H375V113H434L474 113L489 113H702.839L843.767 -52ZM655.863 168L489 168V214V269V315V370V412H596L596 238.088L596 238H596.075L655.863 168ZM486.424 467H430V573L547.623 573L486.424 467ZM607.811 573L546.612 467H651V573H607.811ZM578 628H503V691V746V813V819.355L573.04 866.643C586.739 837.319 616.497 817 651 817C652.766 817 654.519 817.053 656.258 817.158L667.407 780.472L579.378 628H578Z" fill="#EBEBEB"/>
<path d="M885.589 -16.2796L896.995 -6.53769L906.737 -17.9436L895.331 -27.6855L885.589 -16.2796ZM843.767 -52L853.509 -63.4059L842.103 -73.1478L832.361 -61.7419L843.767 -52ZM729 167.056L717.594 157.314L714 161.522V167.056H729ZM729 168V183H744V168H729ZM728.194 168V153H721.279L716.788 158.258L728.194 168ZM651 258.379L639.594 248.637L636 252.845V258.379H651ZM651 265H636V280H651V265ZM792 265H807V250H792V265ZM792 320V335H807V320H792ZM651 320V305H636V320H651ZM651 412H636V427H651V412ZM792 412H807V397H792V412ZM792 467V482H807V467H792ZM706 467V452H691V467H706ZM706 573H691V588H706V573ZM792 573H807V558H792V573ZM792 628V643H807V628H792ZM639.565 628V613H613.585L626.575 635.5L639.565 628ZM703.651 739L690.661 746.5L694.991 754H703.651V739ZM792 739H807V724H792V739ZM792 794V809H807V794H792ZM720.78 794V779H709.661L706.428 789.638L720.78 794ZM707.388 838.065L693.036 833.703L690.209 843.007L697.548 849.386L707.388 838.065ZM569.538 930.641L583.743 925.823L582.12 921.037L577.932 918.209L569.538 930.641ZM476.759 868L485.152 855.568L481.348 853H476.759V868ZM375 868L360 868L360 883H375V868ZM375 813V798H360L360 813L375 813ZM448 813V828H463V813H448ZM448 746H463V731H448V746ZM375 746L360 746L360 761H375V746ZM375 691V676H360L360 691L375 691ZM448 691V706H463V691H448ZM448 628H463V613H448V628ZM375 628H360V643H375V628ZM375 586L390 586L390 586L375 586ZM375 573L360 573L360 573L375 573ZM375 467L360 467L360 467L375 467ZM375 412V397H360L360 412L375 412ZM434 412V427H449V412H434ZM434 370H449V355H434V370ZM375 370H360V385H375V370ZM375 315V300H360V315H375ZM434 315V330H449V315H434ZM434 269H449V254H434V269ZM375 269H360V284H375V269ZM375 214V199H360V214H375ZM434 214V229H449V214H434ZM434 168H449V153H434V168ZM375 168H360V183H375V168ZM375 113V98H360V113H375ZM434 113L434 128L434 128L434 113ZM474 113L474 98L474 98L474 113ZM489 113L489 128H489V113ZM702.839 113V128H709.754L714.245 122.742L702.839 113ZM655.863 168L667.269 177.742L688.401 153L655.863 153L655.863 168ZM489 168L489 153L474 153V168H489ZM489 412H474V427H489V412ZM596 412V427H611L611 412L596 412ZM596 238.088L581 238.07L581 238.079L581 238.088L596 238.088ZM596 238V223H581.018L581 237.982L596 238ZM596.075 238V253H602.99L607.481 247.742L596.075 238ZM430 467V452H415V467H430ZM486.424 467L499.414 459.5L495.084 452H486.424V467ZM430 573H415V588L430 588L430 573ZM547.623 573L547.623 588L573.604 588L560.614 565.5L547.623 573ZM546.612 467V452H520.631L533.622 474.5L546.612 467ZM607.811 573L594.821 580.5L599.151 588H607.811V573ZM651 467H666V452H651V467ZM651 573V588H666V573H651ZM503 628V613H488V628H503ZM503 819.355H488V827.326L494.607 831.787L503 819.355ZM573.04 866.643L564.647 879.075L579.199 888.9L586.63 872.992L573.04 866.643ZM656.258 817.158L655.355 832.131L667.168 832.843L670.61 821.52L656.258 817.158ZM667.407 780.472L681.759 784.834L683.651 778.607L680.398 772.972L667.407 780.472ZM579.378 628L592.368 620.5L588.038 613H579.378V628ZM895.331 -27.6855L853.509 -63.4059L834.025 -40.5941L875.847 -4.8737L895.331 -27.6855ZM740.406 176.798L896.995 -6.53769L874.183 -26.0215L717.594 157.314L740.406 176.798ZM714 167.056V168H744V167.056H714ZM729 153H728.194V183H729V153ZM662.406 268.121L739.6 177.742L716.788 158.258L639.594 248.637L662.406 268.121ZM666 265V258.379H636V265H666ZM792 250H651V280H792V250ZM807 320V265H777V320H807ZM651 335H792V305H651V335ZM666 412V320H636V412H666ZM792 397H651V427H792V397ZM807 467V412H777V467H807ZM706 482H792V452H706V482ZM721 573V467H691V573H721ZM792 558H706V588H792V558ZM807 628V573H777V628H807ZM639.565 643H792V613H639.565V643ZM716.642 731.5L652.556 620.5L626.575 635.5L690.661 746.5L716.642 731.5ZM792 724H703.651V754H792V724ZM807 794V739H777V794H807ZM720.78 809H792V779H720.78V809ZM721.74 842.426L735.132 798.362L706.428 789.638L693.036 833.703L721.74 842.426ZM752 903C752 872.552 738.508 845.238 717.228 826.743L697.548 849.386C712.552 862.426 722 881.601 722 903H752ZM651 1004C706.781 1004 752 958.781 752 903H722C722 942.212 690.212 974 651 974V1004ZM555.333 935.459C568.847 975.298 606.552 1004 651 1004V974C619.794 974 593.253 953.858 583.743 925.823L555.333 935.459ZM468.365 880.432L561.145 943.073L577.932 918.209L485.152 855.568L468.365 880.432ZM375 883H476.759V853H375V883ZM360 813L360 868L390 868L390 813L360 813ZM448 798H375V828H448V798ZM433 746V813H463V746H433ZM375 761H448V731H375V761ZM360 691L360 746L390 746L390 691L360 691ZM448 676H375V706H448V676ZM433 628V691H463V628H433ZM375 643H448V613H375V643ZM360 586V628H390V586H360ZM360 573L360 586L390 586L390 573L360 573ZM360 467L360 573L390 573L390 467L360 467ZM360 412L360 467L390 467L390 412L360 412ZM434 397H375V427H434V397ZM419 370V412H449V370H419ZM375 385H434V355H375V385ZM360 315V370H390V315H360ZM434 300H375V330H434V300ZM419 269V315H449V269H419ZM375 284H434V254H375V284ZM360 214V269H390V214H360ZM434 199H375V229H434V199ZM419 168V214H449V168H419ZM375 183H434V153H375V183ZM360 113V168H390V113H360ZM434 98H375V128H434V98ZM474 98L434 98L434 128L474 128L474 98ZM474 128L489 128L489 98L474 98L474 128ZM489 128H702.839V98H489V128ZM832.361 -61.7419L691.433 103.258L714.245 122.742L855.173 -42.2581L832.361 -61.7419ZM655.863 153L489 153L489 183L655.863 183L655.863 153ZM504 214V168H474V214H504ZM504 269V214H474V269H504ZM504 315V269H474V315H504ZM504 370V315H474V370H504ZM504 412V370H474V412H504ZM596 397H489V427H596V397ZM581 238.088L581 412L611 412L611 238.088L581 238.088ZM581 237.982L581 238.07L611 238.106L611 238.018L581 237.982ZM596.075 223H596V253H596.075V223ZM644.457 158.258L584.669 228.258L607.481 247.742L667.269 177.742L644.457 158.258ZM430 482H486.424V452H430V482ZM445 573V467H415V573H445ZM547.623 558L430 558L430 588L547.623 588L547.623 558ZM473.434 474.5L534.633 580.5L560.614 565.5L499.414 459.5L473.434 474.5ZM533.622 474.5L594.821 580.5L620.802 565.5L559.602 459.5L533.622 474.5ZM651 452H546.612V482H651V452ZM666 573V467H636V573H666ZM607.811 588H651V558H607.811V588ZM503 643H578V613H503V643ZM518 691V628H488V691H518ZM518 746V691H488V746H518ZM518 813V746H488V813H518ZM518 819.355V813H488V819.355H518ZM581.434 854.211L511.393 806.923L494.607 831.787L564.647 879.075L581.434 854.211ZM651 802C610.456 802 575.522 825.89 559.45 860.295L586.63 872.992C597.956 848.748 622.538 832 651 832V802ZM657.161 802.185C655.121 802.062 653.067 802 651 802V832C652.464 832 653.916 832.044 655.355 832.131L657.161 802.185ZM653.055 776.11L641.906 812.796L670.61 821.52L681.759 784.834L653.055 776.11ZM566.387 635.5L654.417 787.972L680.398 772.972L592.368 620.5L566.387 635.5ZM578 643H579.378V613H578V643Z" fill="white" mask="url(#path-89-inside-1_1659_2872)"/>
<path d="M481.5 117.5L441.5 117.5L441.5 18.5L481.5 18.5L481.5 117.5Z" fill="#EBEBEB" stroke="white" stroke-width="15"/>
<path d="M582.5 117.5L542.5 117.5L542.5 18.5L582.5 18.5L582.5 117.5Z" fill="#EBEBEB" stroke="white" stroke-width="15"/>
<path d="M683.5 117.5L643.5 117.5L643.5 18.5L683.5 18.5L683.5 117.5Z" fill="#EBEBEB" stroke="white" stroke-width="15"/>
<rect x="706" y="467" width="86" height="105" fill="#C7C7C7"/>
<rect x="651" y="320" width="141" height="92" fill="#C7C7C7"/>
<path d="M489 239H596V343H542.5L489 297.303V239Z" fill="#D9D9D9"/>
</g>
<rect x="529" y="28" width="109" height="13" rx="6.5" fill="#2B2B2B"/>
<path d="M533.846 346.909C532.822 336.925 525.803 327 513.482 327C501.192 327 494.173 336.925 493.149 346.909C491.613 362.298 502.186 376.269 513.482 389C524.808 376.269 535.412 362.298 533.846 346.909ZM513.482 357.985C507.337 357.985 502.367 353.111 502.367 347.056C502.367 341.03 507.337 336.156 513.482 336.156C519.658 336.156 524.658 341.03 524.658 347.056C524.658 353.111 519.658 357.985 513.482 357.985Z" fill="#FFC727"/>
<rect x="401.5" y="78.5" width="369" height="100" rx="49.5" fill="white" stroke="#B9B9B9"/>
<circle cx="452.232" cy="129.732" r="13.5" transform="rotate(-45 452.232 129.732)" fill="white" stroke="#C7C7C7" stroke-width="5"/>
<rect x="459.303" y="138.925" width="4" height="9" rx="2" transform="rotate(-45 459.303 138.925)" fill="#C7C7C7" stroke="#C7C7C7"/>
</g>
<defs>
<linearGradient id="paint0_linear_1659_2872" x1="583" y1="0" x2="583" y2="956" gradientUnits="userSpaceOnUse">
<stop stop-color="#4E4E4E"/>
<stop offset="1" stop-color="#565656"/>
</linearGradient>
<clipPath id="clip0_1659_2872">
<rect width="1165" height="956" fill="white"/>
</clipPath>
</defs>
</svg>
