<svg data-name="Layer 1" viewBox="0 0 48 48" xmlns="http://www.w3.org/2000/svg"><path d="m40.62 28.34-.87-.7a2 2 0 0 1-.75-1.56V18A15 15 0 0 0 26.91 3.29a3 3 0 0 0-5.81 0A15 15 0 0 0 9 18v8.08a2 2 0 0 1-.75 1.56l-.87.7a9 9 0 0 0-3.38 7V37a4 4 0 0 0 4 4h8.26a8 8 0 0 0 15.47 0H40a4 4 0 0 0 4-4v-1.64a9 9 0 0 0-3.38-7.02ZM24 43a4 4 0 0 1-3.44-2h6.89A4 4 0 0 1 24 43Zm16-6H8v-1.64a5 5 0 0 1 1.88-3.9l.87-.7A6 6 0 0 0 13 26.08V18a11 11 0 0 1 22 0v8.08a6 6 0 0 0 2.25 4.69l.87.7A5 5 0 0 1 40 35.36Z" fill="#454545" class="fill-000000"></path></svg>