<svg width="469" height="481" viewBox="0 0 469 481" fill="none" xmlns="http://www.w3.org/2000/svg">
<path opacity="0.2" d="M187.632 411.286C187.632 411.286 39.1675 376.756 30.0005 250.5C20.8335 124.244 -104.5 -44.5 241.5 82.5C513 28.5 488.48 234.572 433.706 311.713C396.002 364.812 336.182 437.343 187.632 411.286Z" fill="#9FD1FF"/>
<path d="M319.335 270.073C319.335 270.073 364.788 292.615 388.197 339.434C411.606 386.253 446.408 480.351 446.408 480.351H350.049L322.205 397.524L319.335 480.351H206.057C206.057 480.351 215.661 317.759 251.209 278.743C286.756 239.727 319.335 270.073 319.335 270.073Z" fill="#9FD1FF"/>
<path d="M235.837 311.905C254.185 311.754 273.522 309.478 291.202 304.414C302.156 301.277 313.223 297.802 323.174 292.138C328.308 289.216 333.345 285.622 337.016 281.136C326.694 273.722 319.333 270.072 319.333 270.072C319.333 270.072 286.755 239.727 251.207 278.742C244.532 286.068 238.772 297.752 233.819 311.897C234.492 311.902 235.164 311.911 235.837 311.905Z" fill="#86C1E2"/>
<path d="M388.933 340.918C379.428 368.953 350.449 385.408 322.91 399.625L350.048 480.351H446.407C446.407 480.351 412.328 388.208 388.933 340.918Z" fill="#86C1E2"/>
<path d="M382.076 354.907C381.222 356.206 380.328 357.486 379.381 358.723C378.449 359.974 377.448 361.168 376.468 362.384C375.446 363.561 374.433 364.751 373.374 365.898C372.295 367.024 371.27 368.21 370.142 369.291C369.018 370.375 367.932 371.503 366.774 372.554L363.292 375.701L359.666 378.686C358.462 379.689 357.175 380.583 355.932 381.538L354.047 382.943L352.091 384.248C350.779 385.105 349.499 386.016 348.158 386.83L344.111 389.234C342.783 390.075 341.35 390.727 339.962 391.458C338.554 392.152 337.189 392.937 335.745 393.555L331.429 395.448C330.005 396.116 328.52 396.633 327.038 397.157L322.599 398.741L322.165 398.896L321.701 398.701L307.502 392.718L300.375 389.784C298.003 388.798 295.616 387.849 293.237 386.88C290.859 385.904 288.468 384.97 286.076 384.035C283.68 383.115 281.304 382.121 278.888 381.259L271.655 378.594L264.315 376.218L271.849 377.963C274.33 378.658 276.793 379.418 279.268 380.146C280.51 380.499 281.738 380.892 282.954 381.314L286.618 382.545L290.284 383.777L293.918 385.091C296.337 385.977 298.764 386.843 301.177 387.746L308.385 390.531C313.185 392.404 317.951 394.349 322.706 396.351L321.809 396.31L326.14 394.728C327.582 394.196 329.042 393.714 330.439 393.067L334.676 391.245C336.095 390.651 337.436 389.89 338.82 389.221C340.187 388.517 341.588 387.876 342.911 387.088L346.931 384.816C348.264 384.046 349.538 383.178 350.845 382.364L352.795 381.124L354.69 379.801C355.944 378.906 357.245 378.071 358.464 377.126L362.14 374.312L365.719 371.371C366.914 370.39 368.039 369.33 369.204 368.312C370.367 367.291 371.464 366.202 372.6 365.148C373.722 364.081 374.79 362.96 375.889 361.866C376.949 360.737 378.035 359.626 379.053 358.456C380.102 357.308 381.107 356.125 382.076 354.907Z" fill="#456BAF"/>
<path d="M312.327 290.014C314.998 293.568 317.277 297.407 319.372 301.329C321.457 305.261 323.342 309.3 325.028 313.423C325.863 315.487 326.673 317.564 327.403 319.669C328.132 321.774 328.84 323.888 329.466 326.027C330.127 328.156 330.689 330.313 331.252 332.47L332.04 335.72L332.744 338.99C332.989 340.078 333.183 341.176 333.383 342.273C333.574 343.372 333.808 344.463 333.961 345.568C334.308 347.771 334.642 349.977 334.887 352.195C335.191 354.406 335.34 356.634 335.541 358.856C335.662 361.083 335.83 363.31 335.874 365.541C335.93 367.772 335.99 370.003 335.94 372.234C335.948 374.466 335.85 376.696 335.749 378.925C335.692 381.157 335.446 383.377 335.302 385.604C335.111 387.827 334.833 390.042 334.603 392.262L334.557 392.705L334.132 392.905L328.356 395.622C326.43 396.526 324.487 397.393 322.553 398.281L321.249 398.879L321.371 397.445C321.74 393.111 321.916 388.717 322.004 384.343C322.087 379.963 322.054 375.581 321.912 371.202C321.605 362.447 320.913 353.699 319.659 345.029C318.397 336.362 316.523 327.773 313.817 319.439C311.118 311.112 307.476 303.04 302.485 295.793C307.766 302.84 311.594 310.898 314.544 319.192C316.028 323.344 317.231 327.594 318.274 331.877C319.316 336.161 320.172 340.49 320.878 344.841C321.589 349.192 322.141 353.568 322.578 357.955C322.992 362.344 323.271 366.745 323.44 371.149C323.606 375.554 323.663 379.962 323.603 384.37C323.538 388.782 323.387 393.175 323.034 397.601L321.852 396.766C323.78 395.865 325.698 394.944 327.633 394.06L333.441 391.412L332.97 392.054C333.209 389.856 333.495 387.663 333.696 385.461C333.849 383.256 334.105 381.056 334.172 378.846C334.284 376.638 334.391 374.429 334.395 372.218C334.456 370.007 334.407 367.797 334.363 365.586C334.33 363.375 334.175 361.168 334.066 358.96C333.869 356.758 333.755 354.548 333.49 352.352C333.281 350.15 332.983 347.958 332.673 345.768C332.539 344.67 332.323 343.584 332.15 342.492C331.968 341.401 331.793 340.308 331.566 339.225L330.918 335.97L330.185 332.732C329.659 330.583 329.133 328.431 328.51 326.307C327.921 324.173 327.25 322.062 326.558 319.959C325.856 317.859 325.124 315.768 324.339 313.696C322.765 309.554 320.99 305.486 319.012 301.516C317.009 297.562 314.873 293.657 312.327 290.014Z" fill="#456BAF"/>
<path d="M253.274 301.574C253.274 301.574 252.732 303.279 251.786 306.554" stroke="#456BAF" stroke-width="0.867" stroke-miterlimit="10"/>
<path d="M249.099 316.266C242.421 341.352 229.447 396.917 223.135 470.133" stroke="#456BAF" stroke-width="0.867" stroke-miterlimit="10" stroke-dasharray="10.08 10.08"/>
<path d="M222.715 475.165C222.576 476.885 222.44 478.613 222.308 480.351" stroke="#456BAF" stroke-width="0.867" stroke-miterlimit="10"/>
<path d="M328.625 274.685C328.625 274.685 332.942 269.058 351.954 284.03C360.299 290.602 337.567 332.9 349.733 290.89C349.733 290.89 321.064 334.304 343.413 286.346C343.413 286.346 309.962 340.709 337.55 283.114C337.55 283.114 293.648 318.321 332.83 278.325L328.625 274.685Z" fill="#F75F41"/>
<path d="M233.052 48.3378C233.052 48.3378 257.69 34.5628 279.814 54.5988C301.937 74.6348 308.296 140.162 292.337 163.129C276.377 186.097 208.37 180.662 233.052 48.3378Z" fill="#E08D53"/>
<path d="M217.154 121.688C217.154 121.688 235.109 164.484 225.207 166.864C215.304 169.244 177.566 166.391 192.334 200.045C207.102 233.699 266.315 237.031 266.315 237.031C266.315 237.031 329.543 212.135 320.111 175.734C305.832 120.626 284.558 164.041 271.012 162.113C252.38 159.461 251.95 118.078 251.95 118.078L217.154 121.688Z" fill="#FFD2C0"/>
<path opacity="0.4" d="M263.742 158.512C252.265 147.866 251.949 118.08 251.949 118.08L217.153 121.688C217.153 121.688 224.18 138.438 227.017 151.562C236.911 160.331 251.05 162.43 263.742 158.512Z" fill="#F89B6A"/>
<path d="M241.226 284.22C241.226 284.22 298.419 293.475 329.9 270.137L321.835 237.367C321.835 237.367 338.403 207.907 311.342 188.384C284.282 168.861 207.792 220.775 207.792 220.775C207.792 220.775 228.325 266.238 241.226 284.22Z" fill="#2C2429"/>
<path d="M305.378 253.741C272.782 252.384 238.624 240.235 220.272 212.905C212.618 217.499 207.792 220.774 207.792 220.774C207.792 220.774 228.325 266.237 241.226 284.22C241.226 284.22 298.419 293.475 329.9 270.137L325.775 253.379C318.888 253.906 312.045 254.019 305.378 253.741Z" fill="#1C171A"/>
<path d="M302.363 147.824C302.363 147.824 447.522 44.5658 453.224 45.5158C458.926 46.4658 461.491 56.6148 450.087 69.9188C438.684 83.2228 323.701 182.051 323.701 182.051L302.363 147.824Z" fill="#FFD2C0"/>
<path opacity="0.4" d="M340.813 160.776C334.686 152.082 327.632 143.408 322.516 133.937C311.358 142.394 304.221 147.841 304.221 147.841L323.701 182.051C323.701 182.051 331.689 175.185 343.656 164.836C342.709 163.482 341.765 162.126 340.813 160.776Z" fill="#F89B6A"/>
<path opacity="0.2" d="M391.113 0.80278L414.486 12.4788L414.135 13.4148L388.848 6.84178L391.113 0.80278Z" fill="#9FD1FF"/>
<path opacity="0.2" d="M377.603 16.2688L405.591 16.1198L405.665 17.1178L377.962 21.1078L377.603 16.2688Z" fill="#9FD1FF"/>
<path opacity="0.2" d="M390.217 29.4078L414.635 22.2708L415.024 23.1918L392.895 35.7398L390.217 29.4078Z" fill="#9FD1FF"/>
<path d="M445.608 57.7688C445.608 57.7688 442.265 69.3708 440.6 70.5148C438.935 71.6588 414.741 63.9028 415.076 58.0608C415.411 52.2188 431.224 0.528778 435.146 0.0237778C439.068 -0.481222 459.022 7.16578 460.696 12.6798C463.926 23.3208 445.608 57.7688 445.608 57.7688Z" fill="#2C2429"/>
<path d="M447.143 58.4158C447.143 58.4158 444.032 69.2118 442.483 70.2768C440.934 71.3418 418.42 64.1238 418.732 58.6878C419.044 53.2518 433.759 5.15278 437.408 4.68278C441.057 4.21278 460.168 11.1948 461.184 16.4598C462.198 21.7248 447.143 58.4158 447.143 58.4158Z" fill="#1C171A"/>
<path d="M438.913 11.3658C438.957 12.4528 439.873 13.2988 440.96 13.2548C442.047 13.2108 442.893 12.2948 442.849 11.2078C442.805 10.1208 441.889 9.27478 440.802 9.31878C439.715 9.36178 438.869 10.2788 438.913 11.3658Z" fill="#E1F0FF"/>
<path d="M451.907 67.6118C451.907 67.6118 466.899 45.0828 462.663 32.9438C458.427 20.8048 437.389 -0.87022 457.662 30.7758C457.662 30.7758 418.544 -1.76422 452.791 35.3138C452.791 35.3138 410.533 6.53178 449.436 40.9788C449.436 40.9788 413.342 24.2728 447.707 49.4158C447.707 49.4158 428.913 80.1698 451.907 67.6118Z" fill="#FFD2C0"/>
<path d="M277.579 160.403C277.579 160.403 262.205 192.762 217.691 176.795C173.177 160.828 161.473 195.509 161.473 195.509L207.791 220.774L238.308 210.248L319.27 200.277L344.414 183.993L315.732 134.281L277.579 160.403Z" fill="#2C2429"/>
<path d="M321.699 198.705L344.414 183.993L315.732 134.281L292.723 150.035C304.537 164.803 313.717 181.573 321.699 198.705Z" fill="#1C171A"/>
<path d="M251.847 58.9568C251.847 58.9568 213.27 48.6258 205.437 83.0008C196.45 122.439 228.123 162.694 261.339 150.49C288.503 140.51 280.638 66.8738 251.847 58.9568Z" fill="#FFD2C0"/>
<path d="M208.51 114.384C208.51 114.384 198.43 100.504 192.656 109.224C186.882 117.944 205.245 137.03 213.844 128.057C222.443 119.085 208.51 114.384 208.51 114.384Z" fill="#FFD2C0"/>
<path d="M211.631 125.823C211.057 125.957 210.461 126.047 209.85 126.033C209.241 126.022 208.599 125.941 207.969 125.567C207.809 125.488 207.673 125.333 207.526 125.207C207.385 125.072 207.291 124.878 207.187 124.699C207.098 124.515 207.075 124.312 207.027 124.112C206.981 123.908 207.022 123.734 207.022 123.54C207.024 123.142 207.169 122.853 207.249 122.499C207.374 122.196 207.512 121.899 207.657 121.602L207.654 122.469C207.039 121.612 206.353 120.773 205.717 119.921C205.074 119.069 204.386 118.254 203.727 117.426C203.062 116.602 202.368 115.808 201.656 115.052C200.96 114.284 200.224 113.555 199.453 112.976C199.069 112.691 198.686 112.412 198.32 112.258C197.951 112.091 197.648 112.047 197.458 112.098C197.401 112.094 197.358 112.137 197.305 112.158L197.262 112.172L197.251 112.175L197.248 112.176C197.405 112.036 197.289 112.14 197.323 112.109L197.313 112.117L197.274 112.15L197.12 112.283L196.812 112.549C196.689 112.645 196.715 112.688 196.651 112.755L196.504 112.939L196.388 113.206C196.279 113.374 196.282 113.594 196.22 113.795C196.184 114.006 196.181 114.235 196.172 114.464C196.202 114.698 196.193 114.937 196.251 115.179C196.346 115.66 196.467 116.16 196.651 116.649C197.011 117.629 197.478 118.606 198.029 119.554C197.186 118.847 196.427 118.022 195.817 117.066C195.5 116.595 195.229 116.08 195.022 115.523C194.81 114.968 194.67 114.358 194.65 113.702C194.681 113.371 194.662 113.034 194.783 112.703L194.933 112.203C195.008 112.035 195.112 111.864 195.21 111.696C195.305 111.546 195.43 111.323 195.515 111.242L195.785 110.938L195.92 110.786L195.954 110.748L195.962 110.738L196.054 110.657L196.086 110.633L196.216 110.54C196.393 110.42 196.569 110.298 196.781 110.233C197.619 109.909 198.453 110.066 199.081 110.286C199.73 110.516 200.269 110.825 200.758 111.175C202.702 112.576 204.127 114.287 205.48 116.042C206.163 116.913 206.759 117.842 207.364 118.758C207.975 119.675 208.499 120.633 209.041 121.605L209.293 122.057L209.038 122.472C208.906 122.686 208.759 122.897 208.614 123.108C208.538 123.311 208.365 123.542 208.346 123.732C208.332 123.826 208.27 123.942 208.283 124.025C208.296 124.107 208.27 124.207 208.293 124.289C208.335 124.36 208.325 124.459 208.38 124.537C208.444 124.609 208.471 124.71 208.562 124.78C208.652 124.848 208.72 124.942 208.832 125.002C208.942 125.062 209.042 125.139 209.164 125.191C209.404 125.301 209.66 125.405 209.929 125.488C210.471 125.644 211.045 125.76 211.631 125.823Z" fill="#FFA076"/>
<path d="M180.884 57.5008C180.884 57.5008 193.278 43.7468 208.37 41.6598C208.37 41.6598 250.177 34.1458 251.012 59.1918C251.847 84.2368 249.342 90.8118 213.861 103.958C213.861 103.958 212.887 109.811 213.444 122.751C213.444 122.751 204.439 105.108 196.636 107.375C184.821 110.808 200.218 133.838 212.675 129.075C212.675 129.075 241.829 156.453 225.55 171.898C209.27 187.343 195.508 167.966 184.155 182.052C184.155 182.052 172.075 172.781 181.675 149.405C191.275 126.027 153.334 96.1378 180.884 57.5008Z" fill="#EFA760"/>
<path d="M236.594 127.165L269.763 120.39C269.763 120.39 262.406 153.177 236.594 127.165Z" fill="#FF6666"/>
<path d="M253.179 96.5658L254.309 98.9328L254.883 100.09C255.063 100.477 255.265 100.854 255.464 101.231C255.86 101.983 256.24 102.737 256.678 103.454C256.902 103.809 257.08 104.189 257.313 104.534L257.969 105.592L258.667 106.611C258.887 106.96 259.156 107.267 259.396 107.597C259.871 108.265 260.43 108.845 260.953 109.46L261.809 110.303C262.082 110.602 262.409 110.824 262.71 111.087C263.019 111.338 263.314 111.615 263.655 111.816C263.987 112.033 264.317 112.258 264.645 112.496L266.007 113.486L264.817 114.259C263.781 114.932 262.723 115.575 261.647 116.194C260.557 116.795 259.471 117.402 258.308 117.908C259.104 116.921 259.978 116.036 260.847 115.145C261.73 114.272 262.631 113.422 263.555 112.603L263.727 114.366C263.304 114.173 262.884 113.966 262.466 113.752C262.032 113.56 261.656 113.285 261.271 113.018C260.894 112.745 260.479 112.507 260.149 112.18L259.111 111.247L258.182 110.22C257.863 109.882 257.605 109.504 257.334 109.135C256.771 108.408 256.326 107.614 255.869 106.83L255.267 105.616C255.068 105.211 254.908 104.791 254.741 104.375C254.572 103.959 254.429 103.535 254.29 103.11C254.147 102.687 254.001 102.267 253.903 101.83C253.676 100.968 253.481 100.102 253.363 99.2198C253.23 98.3458 253.159 97.4558 253.179 96.5658Z" fill="#FFA076"/>
<path d="M254.686 92.8998C254.686 92.8998 254.656 92.5068 254.758 91.8398C254.841 91.1668 255.069 90.2328 255.523 89.1598C255.771 88.6378 256.035 88.0558 256.421 87.4988C256.771 86.9178 257.239 86.3648 257.749 85.8048C257.984 85.5068 258.31 85.2818 258.603 85.0178C258.91 84.7678 259.195 84.4818 259.562 84.2878C259.914 84.0768 260.264 83.8518 260.631 83.6538C260.994 83.4488 261.408 83.3308 261.798 83.1698C262.583 82.8408 263.432 82.7318 264.256 82.6218C264.666 82.5358 265.076 82.5828 265.478 82.6018C265.88 82.6238 266.275 82.6438 266.66 82.6858C267.417 82.8128 268.117 83.0558 268.772 83.2518C269.422 83.4668 269.962 83.8328 270.475 84.1038C270.983 84.3918 271.428 84.6698 271.769 85.0058C272.124 85.3148 272.414 85.6078 272.651 85.8418C273.123 86.3138 273.356 86.6158 273.356 86.6158C273.356 86.6158 272.949 86.6058 272.302 86.5318C271.979 86.4928 271.59 86.4538 271.165 86.3818C270.747 86.2878 270.259 86.2668 269.747 86.2368C269.235 86.2178 268.707 86.0968 268.15 86.1128C267.595 86.1408 267.027 86.1058 266.458 86.1278C265.896 86.2378 265.315 86.2208 264.759 86.3598C264.209 86.5208 263.631 86.5718 263.106 86.8298C262.838 86.9358 262.55 86.9878 262.294 87.1288C262.039 87.2718 261.771 87.3858 261.508 87.5118C260.99 87.7788 260.49 88.0958 259.997 88.4068C259.524 88.7508 259.033 89.0618 258.606 89.4298C258.147 89.7618 257.752 90.1338 257.351 90.4588C256.586 91.1388 255.912 91.7428 255.444 92.1868C254.962 92.6408 254.686 92.8998 254.686 92.8998Z" fill="#1C171A"/>
<path d="M244.475 94.7118C244.475 94.7118 244.351 94.6788 244.119 94.6178C243.894 94.5488 243.554 94.4818 243.135 94.3748C242.725 94.2568 242.194 94.1888 241.635 94.0438C241.048 93.9598 240.416 93.8128 239.712 93.7438C239.021 93.6288 238.271 93.5798 237.493 93.5238C237.107 93.4758 236.706 93.5028 236.303 93.4968C235.899 93.5148 235.492 93.4488 235.08 93.5148C234.668 93.5578 234.253 93.5838 233.834 93.6078C233.415 93.6348 233.004 93.7598 232.584 93.8128C231.737 93.9028 230.929 94.2168 230.099 94.4298C229.677 94.5168 229.3 94.7478 228.897 94.8958C228.507 95.0758 228.09 95.1948 227.706 95.3858C226.973 95.8388 226.189 96.1868 225.477 96.6318C224.794 97.1238 224.109 97.5798 223.44 98.0108C222.824 98.5088 222.244 99.0018 221.679 99.4378C221.392 99.6558 221.117 99.8648 220.855 100.064C220.612 100.287 220.381 100.498 220.164 100.696C219.738 101.102 219.329 101.438 218.997 101.722C218.329 102.287 217.901 102.597 217.901 102.597C217.901 102.597 218.039 102.11 218.36 101.283C218.523 100.871 218.716 100.36 218.978 99.7958C219.107 99.5098 219.245 99.2068 219.39 98.8858C219.577 98.5908 219.774 98.2798 219.979 97.9558C220.405 97.3148 220.87 96.6088 221.413 95.8958C222.026 95.2438 222.693 94.5588 223.41 93.8688C223.756 93.5098 224.211 93.2588 224.623 92.9478C225.045 92.6468 225.479 92.3488 225.923 92.0598C226.383 91.7948 226.881 91.5778 227.374 91.3528C227.877 91.1498 228.35 90.8658 228.884 90.7348C229.946 90.4688 230.992 90.1138 232.075 90.0788C232.61 90.0368 233.14 89.9538 233.663 89.9818C234.186 90.0068 234.702 90.0328 235.206 90.0768C235.712 90.0938 236.194 90.2238 236.667 90.3158C237.137 90.4288 237.604 90.4858 238.031 90.6558C238.459 90.8048 238.875 90.9508 239.278 91.0918C239.673 91.2478 240.039 91.4358 240.392 91.6048C241.104 91.9238 241.691 92.3548 242.22 92.6828C242.733 93.0528 243.164 93.3828 243.494 93.6938C243.834 93.9818 244.073 94.2528 244.236 94.4288C244.402 94.6048 244.475 94.7118 244.475 94.7118Z" fill="#1C171A"/>
<path d="M261.427 102.472C261.427 102.472 261.376 102.223 261.364 101.794C261.35 101.364 261.374 100.754 261.511 100.032C261.66 99.3138 261.903 98.4778 262.41 97.6278C262.655 97.2018 262.978 96.7718 263.406 96.3778C263.825 95.9818 264.377 95.6188 265.053 95.4338C265.725 95.2538 266.462 95.2868 267.078 95.4868C267.673 95.6988 268.19 96.0068 268.564 96.3558C268.964 96.6938 269.271 97.0608 269.52 97.4198C269.779 97.7758 269.97 98.1318 270.133 98.4638C270.307 98.7898 270.401 99.1178 270.505 99.3948C270.615 99.6678 270.662 99.9288 270.712 100.137C270.807 100.555 270.831 100.804 270.831 100.804C270.831 100.804 270.611 100.67 270.278 100.416C270.115 100.29 269.917 100.138 269.691 99.9628C269.462 99.7968 269.226 99.5898 268.956 99.3978C268.693 99.1968 268.417 98.9788 268.122 98.7818C267.837 98.5728 267.528 98.3798 267.231 98.2298C266.934 98.0498 266.639 97.9818 266.389 97.9058C266.139 97.8778 265.943 97.8748 265.735 97.9348C265.321 98.0238 264.755 98.4538 264.258 98.9838C263.75 99.5078 263.291 100.114 262.878 100.636C262.453 101.181 262.099 101.635 261.851 101.953C261.593 102.28 261.427 102.472 261.427 102.472Z" fill="#1C171A"/>
<path d="M233.052 110.057C233.052 110.057 233.001 109.808 232.989 109.379C232.975 108.949 232.999 108.339 233.136 107.617C233.285 106.899 233.528 106.063 234.035 105.213C234.28 104.787 234.603 104.356 235.031 103.963C235.45 103.568 236.002 103.204 236.678 103.019C237.35 102.839 238.087 102.872 238.703 103.072C239.298 103.284 239.815 103.592 240.189 103.941C240.589 104.279 240.896 104.646 241.145 105.005C241.404 105.361 241.595 105.717 241.758 106.049C241.932 106.375 242.026 106.703 242.13 106.98C242.24 107.253 242.287 107.514 242.338 107.722C242.433 108.14 242.457 108.389 242.457 108.389C242.457 108.389 242.237 108.254 241.904 108.001C241.741 107.875 241.543 107.723 241.317 107.548C241.088 107.382 240.852 107.175 240.582 106.983C240.319 106.782 240.043 106.564 239.748 106.367C239.463 106.158 239.154 105.965 238.857 105.815C238.56 105.635 238.265 105.567 238.015 105.492C237.765 105.464 237.569 105.461 237.361 105.521C236.947 105.61 236.381 106.039 235.884 106.57C235.376 107.094 234.917 107.7 234.504 108.222C234.079 108.767 233.725 109.221 233.477 109.539C233.218 109.865 233.052 110.057 233.052 110.057Z" fill="#1C171A"/>
<path d="M262.518 133.85C267.84 128.948 269.763 120.39 269.763 120.39L236.594 127.165C237.967 128.548 239.284 129.756 240.554 130.82C246.343 125.068 255.68 128.298 262.518 133.85Z" fill="#993C3C"/>
<path d="M160.029 290.014L169.491 314.29C169.491 314.29 146.157 335.676 146.735 380.183C147.313 424.691 185.048 480.351 185.048 480.351H281.517C281.517 480.351 312.623 355.907 244.996 295.794L232.496 262.269L160.029 290.014Z" fill="#2C2429"/>
<path d="M163.848 320.955C174.202 320.992 184.564 319.958 194.417 318.169C211.954 314.985 232.127 309.043 244.967 295.716L232.497 262.27L160.029 290.015L169.491 314.291C169.491 314.291 167.088 316.501 163.848 320.955Z" fill="#1C171A"/>
<path d="M276.067 341.324C263.712 358.499 246.652 370.784 228.329 381.401C231.674 414.17 237.19 447.688 232.248 480.351H281.517C281.517 480.351 300.725 403.428 276.067 341.324Z" fill="#1C171A"/>
<path d="M126.943 155.04C126.943 155.04 141.306 184.374 128.12 195.186C114.934 205.998 100.503 221.236 119.352 234.789C138.201 248.342 204.594 220.232 203.574 196.249C202.554 172.266 185.682 190.261 175.249 182.81C166.995 176.914 168.165 150.786 161.674 139.248C155.183 127.71 126.943 155.04 126.943 155.04Z" fill="#F75F41"/>
<path d="M155.132 182.775C161.499 183.107 167.308 182.025 172.816 180.112C167.166 171.245 167.439 149.496 161.674 139.248C155.183 127.711 126.943 155.04 126.943 155.04C126.943 155.04 131.599 164.56 133.173 174.751C140.043 179.077 147.471 182.376 155.132 182.775Z" fill="#C93D27"/>
<path d="M110.051 94.2668C110.051 94.2668 113.917 111.445 97.6077 107.351C97.6077 107.351 97.8737 110.717 95.0627 111.937C92.2517 113.156 92.6447 108.08 92.6447 108.08C92.6447 108.08 85.7817 115.564 80.5497 111.108C75.3177 106.652 78.8677 98.6108 78.8677 98.6108C78.8677 98.6108 77.0847 105.997 68.7457 104.034C60.4067 102.072 57.6097 91.7008 62.4577 86.0248C62.4577 86.0248 57.9157 89.0638 53.8097 84.1208C49.8057 79.3018 47.3267 70.4028 57.3367 67.6218C57.5937 67.5508 57.8587 67.4828 58.1327 67.4198C69.0647 64.8968 53.2967 72.2158 52.5747 64.0038C51.8527 55.7918 62.9257 60.3548 59.8257 61.2988C56.7257 62.2428 53.9447 56.1958 57.2767 52.1138C60.6087 48.0318 65.4807 51.8798 65.4807 51.8798C65.4807 51.8798 56.6707 48.6988 62.9557 38.3288C69.2397 27.9588 79.6017 37.0318 79.6017 37.0318C79.6017 37.0318 74.4127 32.0698 79.0997 27.7198C83.7867 23.3698 86.3487 32.5418 86.3487 32.5418C86.3487 32.5418 84.0767 23.6448 93.1167 21.0838C102.157 18.5238 104.459 30.5728 104.459 30.5728C104.459 30.5728 103.112 18.9128 112.821 19.5828C122.53 20.2538 124.751 34.4818 119.92 35.7648C115.089 37.0488 122.567 24.9588 127.29 27.8938C132.013 30.8288 122.174 41.5568 123.251 37.3388C124.328 33.1208 130.807 30.4598 137.116 38.5358C143.425 46.6118 134.131 49.2788 134.131 49.2788C134.131 49.2788 138.704 43.4178 141.71 46.7958C144.716 50.1738 136.138 52.6548 136.138 52.6548C136.138 52.6548 145.943 50.6688 148.17 61.0368C150.397 71.4048 135.778 69.4128 135.778 69.4128C135.778 69.4128 143.866 70.4588 142.694 73.7168C141.522 76.9748 134.385 73.3178 134.385 73.3178C134.385 73.3178 137.801 78.3468 134.257 83.7558C127.588 93.9358 118.061 84.2798 118.061 84.2798L110.051 94.2668Z" fill="#1C171A"/>
<path d="M126.713 99.1884C131.994 93.9078 131.994 85.3463 126.713 80.0656C121.432 74.785 112.871 74.785 107.59 80.0656C102.31 85.3463 102.31 93.9078 107.59 99.1885C112.871 104.469 121.432 104.469 126.713 99.1884Z" fill="#EFA760"/>
<path d="M134.042 79.5088C134.042 79.5088 93.4258 91.7368 111.967 137.328C118.625 153.698 128.647 162.066 136.219 167.801C150.511 178.626 174.984 176.613 184.588 153.809C189.884 141.232 193.245 64.9058 134.042 79.5088Z" fill="#F75F41"/>
<path d="M109.631 132.155C109.631 132.155 92.2556 99.6988 122.602 80.7738C151.492 62.7558 170.909 85.1738 173.315 88.0108C173.315 88.0108 138.997 77.6608 117.111 105.665C117.111 105.665 124.131 113.779 117.153 123.838C117.153 123.838 129.743 136.751 122.024 139.241C114.305 141.731 115.666 132.155 109.631 132.155Z" fill="#2C2429"/>
<path d="M118.387 141.682C118.387 141.682 109.328 123.983 100.978 135.504C92.6279 147.025 121.393 165.727 123.827 153.464C125.693 144.057 118.387 141.682 118.387 141.682Z" fill="#F75F41"/>
<path d="M120.792 154.137C120.02 154.372 119.216 154.515 118.378 154.527C117.958 154.532 117.525 154.507 117.082 154.384C116.645 154.263 116.162 154.049 115.783 153.603C115.6 153.379 115.46 153.107 115.386 152.827C115.31 152.545 115.3 152.266 115.314 152.004C115.344 151.472 115.501 151.03 115.661 150.598C116.003 149.754 116.459 149.026 116.954 148.344L116.76 149.303C116.291 148.078 115.725 146.832 115.179 145.621C114.621 144.407 113.99 143.236 113.341 142.103C112.674 140.987 111.965 139.902 111.149 139.011C110.751 138.552 110.313 138.175 109.877 137.868C109.441 137.557 108.997 137.346 108.571 137.283C108.147 137.206 107.716 137.24 107.253 137.4C106.827 137.534 106.189 137.947 105.862 138.219C105.452 138.556 105.118 138.931 104.912 139.386C104.7 139.837 104.614 140.364 104.627 140.935C104.633 142.092 105.096 143.341 105.655 144.541C106.245 145.736 106.949 146.915 107.753 148.051C106.615 147.243 105.577 146.274 104.691 145.149C103.799 144.03 103.036 142.736 102.715 141.149C102.571 140.358 102.592 139.48 102.851 138.637C103.108 137.794 103.6 137.021 104.202 136.433C104.342 136.278 104.52 136.138 104.692 135.997C104.869 135.851 105.045 135.713 105.174 135.632L105.387 135.486L105.493 135.413L105.546 135.377L105.664 135.309L106.245 135.008C107.049 134.644 108.015 134.448 108.955 134.565C109.899 134.676 110.738 135.06 111.436 135.514C112.135 135.977 112.739 136.514 113.253 137.084C114.293 138.225 115.087 139.466 115.773 140.738C116.464 142.006 117.012 143.324 117.51 144.647C118.021 145.973 118.411 147.307 118.757 148.708L118.902 149.295L118.564 149.668C118.064 150.219 117.575 150.777 117.206 151.354C117.037 151.639 116.874 151.937 116.815 152.198C116.755 152.463 116.735 152.67 116.823 152.869C116.912 153.07 117.139 153.281 117.438 153.439C117.738 153.596 118.09 153.722 118.457 153.818C119.197 154.002 119.99 154.095 120.792 154.137Z" fill="#C93D27"/>
<path d="M162.84 117.921C163.639 118.605 164.366 119.366 165.048 120.158C165.381 120.559 165.737 120.949 166.046 121.369C166.364 121.783 166.681 122.2 166.985 122.625C167.606 123.468 168.167 124.35 168.712 125.242C169.254 126.136 169.759 127.051 170.236 127.982C170.487 128.441 170.695 128.921 170.922 129.392C171.146 129.864 171.373 130.336 171.565 130.822C171.979 131.782 172.362 132.755 172.706 133.743C173.066 134.725 173.361 135.729 173.651 136.733C173.941 137.737 174.162 138.761 174.391 139.778L174.631 140.842L173.712 141.156C172.08 141.714 170.421 142.204 168.762 142.695C167.09 143.153 165.421 143.62 163.699 143.955C165.171 143.001 166.696 142.179 168.218 141.348C169.753 140.549 171.288 139.751 172.849 139.019L172.17 140.397C171.8 139.451 171.479 138.495 171.124 137.551C170.754 136.611 170.433 135.657 170.048 134.725C169.338 132.84 168.564 130.982 167.795 129.119L166.605 126.333L165.385 123.545C164.983 122.608 164.545 121.69 164.131 120.747L162.84 117.921Z" fill="#C93D27"/>
<path d="M145.689 150.851L179.991 145.696C179.991 145.696 168.759 169.051 145.689 150.851Z" fill="white"/>
<path d="M164.955 112.021C164.955 112.021 164.873 111.625 164.899 110.955C164.92 110.283 165.045 109.331 165.467 108.253C165.886 107.18 166.608 105.958 167.833 104.902C168.45 104.384 169.187 103.907 170.036 103.576C170.886 103.246 171.828 103.064 172.765 103.046C173.694 103.067 174.62 103.192 175.425 103.496L176.028 103.711L176.578 103.988C176.949 104.165 177.278 104.37 177.587 104.594C177.906 104.808 178.196 105.026 178.454 105.272C178.717 105.512 178.98 105.732 179.189 105.988C179.405 106.239 179.619 106.472 179.808 106.713C179.981 106.966 180.152 107.203 180.303 107.44C180.617 107.905 180.831 108.375 181.022 108.786C181.219 109.192 181.331 109.586 181.429 109.901C181.621 110.535 181.675 110.927 181.675 110.927C181.675 110.927 181.274 110.835 180.672 110.619C180.377 110.514 180.019 110.386 179.608 110.239C179.207 110.098 178.788 109.906 178.322 109.747C177.87 109.564 177.393 109.382 176.906 109.211C176.664 109.114 176.424 109.032 176.177 108.957C175.929 108.88 175.696 108.778 175.45 108.727C174.97 108.58 174.494 108.468 174.055 108.397C173.607 108.316 173.199 108.288 172.802 108.29C172.407 108.276 172.031 108.344 171.632 108.399C171.239 108.486 170.827 108.609 170.398 108.766C169.547 109.102 168.659 109.601 167.861 110.102C167.063 110.603 166.346 111.092 165.814 111.441C165.293 111.803 164.955 112.021 164.955 112.021Z" fill="#1C171A"/>
<path d="M153.657 114.634C153.657 114.634 153.525 114.611 153.276 114.568C153.038 114.514 152.667 114.474 152.236 114.378C151.389 114.233 150.178 114.025 148.726 113.775C148.024 113.676 147.284 113.553 146.515 113.478C145.749 113.387 144.957 113.325 144.167 113.299C143.373 113.258 142.585 113.298 141.81 113.343C141.036 113.412 140.286 113.529 139.557 113.705C138.836 113.894 138.127 114.111 137.453 114.424C136.772 114.716 136.119 115.089 135.476 115.485C134.846 115.902 134.226 116.346 133.649 116.825C133.335 117.037 133.089 117.317 132.805 117.548C132.52 117.78 132.253 118.02 132.009 118.269C131.497 118.747 131.011 119.201 130.601 119.634C130.177 120.057 129.767 120.422 129.469 120.751C128.845 121.394 128.417 121.756 128.417 121.756C128.417 121.756 128.376 121.219 128.43 120.287C128.448 119.818 128.508 119.255 128.636 118.619C128.738 117.973 128.937 117.267 129.204 116.499C129.46 115.729 129.847 114.922 130.321 114.089C130.807 113.262 131.42 112.424 132.173 111.632C132.941 110.858 133.822 110.091 134.864 109.514C135.873 108.877 137.039 108.474 138.203 108.147C139.385 107.892 140.584 107.746 141.741 107.801C142.892 107.847 144.005 108.014 145.018 108.311C147.064 108.862 148.74 109.811 150.04 110.747C151.335 111.701 152.251 112.675 152.828 113.412C153.126 113.766 153.321 114.091 153.461 114.298C153.597 114.51 153.657 114.634 153.657 114.634Z" fill="#1C171A"/>
<path d="M179.49 121.349C180.007 123.884 179.536 126.12 178.437 126.344C177.338 126.568 176.029 124.695 175.511 122.16C174.994 119.625 175.465 117.389 176.564 117.165C177.663 116.941 178.972 118.815 179.49 121.349Z" fill="#1C171A"/>
<path d="M150.915 126.498C151.432 129.033 150.961 131.269 149.862 131.493C148.764 131.717 147.454 129.844 146.936 127.309C146.419 124.774 146.89 122.538 147.989 122.314C149.088 122.09 150.398 123.963 150.915 126.498Z" fill="#1C171A"/>
<path d="M130.675 226.674C130.675 226.674 159.166 294.862 134.092 314.981C109.018 335.099 104.68 220.775 104.68 220.775L130.675 226.674Z" fill="#C93D27"/>
<path d="M119.056 204.502C119.056 204.502 169.3 233.224 190.326 183.744C190.326 183.744 209.716 174.387 227.88 214.392C241.38 244.124 246.007 289.848 246.007 289.848C246.007 289.848 195.95 311.002 153.657 311.077C153.657 311.077 142.366 273.685 138.412 252.76L149.39 257.55C149.39 257.55 127.041 269.833 103.632 259.37C103.632 259.37 90.9437 220.6 119.056 204.502Z" fill="#EFA760"/>
<path d="M216.49 274.324C208.098 274.662 199.71 274.44 191.317 274.306C183.661 274.184 176.051 274.285 168.447 273.19C158.49 271.756 149.274 268.159 140.636 263.158C145.513 284.107 153.657 311.077 153.657 311.077C195.951 311.002 246.007 289.848 246.007 289.848C246.007 289.848 245.167 281.55 243.159 269.727C234.621 272.578 225.683 273.954 216.49 274.324Z" fill="#E08D53"/>
<path d="M130.975 192.167C130.975 192.167 125.78 187.666 110.927 206.51C104.408 214.782 134.322 250.806 114.401 212.683C114.401 212.683 150.122 248.455 119.425 206.839C119.425 206.839 161.854 252.184 124.285 202.375C124.285 202.375 172.672 226.734 127.756 196.654L130.975 192.167Z" fill="#FFD2C0"/>
<path d="M83.0615 197.372C83.0615 197.372 54.1095 130.623 70.5645 190.79C70.5645 190.79 34.3415 143.174 65.0715 195.195C65.0715 195.195 58.3165 193.77 59.8385 199.946C59.8385 199.946 53.9895 201.853 59.4475 211.278C64.9065 220.703 111.682 328.154 133.395 316.758C151.393 307.312 136.235 275.267 117.108 245.33C101.778 221.336 83.0615 197.372 83.0615 197.372Z" fill="#F75F41"/>
<path d="M65.9567 196.665C67.9527 197.903 69.8067 199.352 71.5527 200.965C72.4107 201.789 73.2367 202.659 73.9807 203.657C74.3457 204.162 74.6797 204.709 74.9517 205.338C75.2087 205.962 75.4447 206.718 75.2667 207.634C75.2267 207.856 75.1257 208.083 75.0347 208.299C74.8927 208.514 74.8317 208.676 74.5917 208.919C74.5227 209.052 73.8627 209.57 73.4777 209.66C72.5737 209.982 71.7667 209.836 71.0867 209.672C69.7227 209.294 68.6427 208.656 67.6097 207.978C66.5927 207.283 65.6487 206.53 64.7417 205.744C63.8317 204.952 62.9677 204.159 62.1277 203.256L64.0737 201.568C64.7407 202.429 65.3667 203.279 65.9897 204.154C66.6137 205.023 67.2127 205.912 67.7727 206.833C68.3367 207.753 68.8787 208.691 69.3717 209.683C69.6187 210.18 69.8427 210.697 70.0357 211.247C70.2177 211.809 70.4037 212.379 70.4097 213.151C70.3787 213.548 70.3407 214.064 69.8857 214.543C69.6837 214.737 69.3937 214.928 69.1727 214.974L68.9937 215.024L68.9037 215.046L68.8587 215.056L68.7297 215.071H68.7177H68.5197L68.1247 215.07C67.9737 215.061 67.7737 215.018 67.6017 214.987C67.4287 214.95 67.2377 214.917 67.0857 214.867L66.6647 214.703C66.3777 214.602 66.1217 214.467 65.8717 214.329C65.6127 214.199 65.3717 214.054 65.1417 213.897C64.6657 213.6 64.2307 213.269 63.8087 212.922C62.1417 211.525 60.7037 209.944 59.4517 208.227C60.2627 208.91 61.0997 209.554 61.9367 210.182C62.7847 210.796 63.6257 211.412 64.5147 211.923C64.9597 212.172 65.3947 212.438 65.8467 212.64C66.0687 212.754 66.2937 212.853 66.5197 212.93C66.7447 213.02 66.9677 213.104 67.1887 213.147L67.5177 213.231C67.6187 213.25 67.6927 213.242 67.7777 213.254C67.8667 213.259 67.9237 213.283 68.0347 213.285L68.4287 213.249L68.6257 213.231L68.6377 213.23L68.6437 213.229C68.4217 213.254 68.5827 213.235 68.5327 213.24L68.5357 213.236L68.5407 213.229C68.5437 213.225 68.5507 213.221 68.5507 213.221C68.5907 213.217 68.5087 213.216 68.5017 213.247C68.4307 213.337 68.4467 213.285 68.4417 213.17C68.4107 212.886 68.2607 212.439 68.0697 212.02C67.8687 211.592 67.6367 211.159 67.3967 210.723C66.9027 209.854 66.3427 208.995 65.7577 208.15C64.5697 206.475 63.3507 204.77 62.0587 203.177L64.0047 201.489C64.7777 202.265 65.6007 203.076 66.4347 203.824C67.2727 204.577 68.1387 205.292 69.0317 205.927C69.9137 206.557 70.8447 207.159 71.7207 207.442C72.1477 207.581 72.5547 207.631 72.7617 207.556C72.8207 207.538 72.8737 207.522 72.8637 207.528C72.8417 207.585 72.9907 207.455 73.0947 207.36C73.0717 207.407 73.1377 207.298 73.1717 207.283C73.1867 207.23 73.2287 207.196 73.2447 207.134C73.3307 206.907 73.3027 206.473 73.1517 206.019C73.0057 205.562 72.7727 205.085 72.5037 204.615C71.9687 203.667 71.2987 202.745 70.5807 201.858C69.8767 200.956 69.1137 200.087 68.3377 199.226C67.5627 198.365 66.7697 197.509 65.9567 196.665Z" fill="#C93D27"/>
<path d="M73.2427 197.872C73.2427 197.872 83.4617 186.64 89.6167 192.636C95.7717 198.632 98.1227 214.328 88.7797 216.898C88.7797 216.898 73.0397 220.521 80.5607 203.66C80.5607 203.66 62.3657 211.395 73.2427 197.872Z" fill="#F75F41"/>
<path d="M93.8456 210.302L94.1776 212.206L93.8716 212.158C94.2326 210.985 94.4376 209.789 94.4986 208.583C94.5216 207.374 94.4856 206.17 94.2866 204.98C94.0926 203.794 93.8436 202.618 93.4716 201.479C93.1316 200.332 92.6516 199.234 92.1406 198.169C91.6186 197.107 91.0066 196.102 90.3186 195.173C89.9486 194.735 89.6046 194.269 89.1926 193.889L88.8956 193.591L88.8216 193.516L88.8026 193.497L88.7936 193.488C88.7806 193.475 88.8806 193.568 88.8326 193.524L88.7876 193.487L88.6076 193.34L88.2486 193.046L87.9636 192.869C87.1766 192.348 86.1756 192.128 85.1746 192.165C84.1556 192.234 83.0996 192.521 82.0796 192.991C80.0226 193.899 78.0806 195.308 76.3106 196.88C75.8686 197.275 75.4346 197.682 75.0156 198.099L74.4026 198.725L74.3316 198.8L74.3016 198.832C74.4446 198.661 74.3366 198.791 74.3656 198.756L74.3566 198.767L74.3386 198.79L74.1946 198.973L73.9076 199.338C73.5066 199.832 73.1716 200.3 72.8386 200.766C72.5196 201.237 72.1746 201.729 71.9186 202.211C71.7786 202.454 71.6426 202.696 71.5456 202.931C71.4226 203.173 71.3406 203.4 71.2756 203.615C71.1296 204.047 71.1776 204.38 71.1746 204.304C71.1406 204.298 71.1636 204.298 71.2536 204.356C71.3556 204.406 71.5346 204.458 71.7516 204.487C72.1906 204.544 72.7336 204.524 73.2816 204.469C74.3936 204.336 75.5546 204.067 76.7016 203.736C77.8436 203.403 79.0106 203.017 80.1146 202.609L82.7716 201.628L81.6056 204.127C81.2376 204.916 80.8716 205.707 80.5626 206.513C80.3906 206.913 80.2756 207.322 80.1276 207.727C79.9816 208.133 79.8956 208.545 79.7666 208.953C79.6716 209.362 79.5686 209.774 79.5046 210.185C79.4426 210.596 79.3856 211.008 79.3796 211.414C79.3536 211.823 79.3816 212.225 79.4346 212.615C79.4856 213.008 79.5836 213.387 79.7246 213.745C79.8676 214.101 80.0396 214.449 80.2816 214.751C80.5036 215.07 80.8006 215.334 81.1156 215.581C81.7526 216.076 82.5516 216.387 83.3786 216.618C84.2106 216.843 85.0896 216.962 85.9756 216.996C86.8626 217.045 87.7616 217.026 88.6576 216.926C86.9216 217.41 85.0866 217.658 83.2216 217.425C82.7546 217.374 82.2906 217.266 81.8296 217.127C81.3706 216.98 80.9176 216.791 80.4886 216.538C80.0646 216.28 79.6456 215.983 79.3016 215.602C78.9406 215.238 78.6456 214.806 78.4096 214.35C78.1786 213.892 78.0076 213.407 77.8966 212.917C77.7826 212.429 77.7076 211.93 77.6916 211.442C77.6556 210.948 77.6776 210.465 77.7066 209.982C77.7386 209.5 77.8116 209.029 77.8786 208.555C78.2216 206.684 78.8296 204.914 79.5186 203.198L81.0096 204.716C79.8236 205.253 78.6596 205.711 77.4356 206.11C76.2176 206.511 74.9716 206.861 73.6296 207.075C72.9496 207.169 72.2496 207.239 71.4556 207.173C71.0576 207.134 70.6246 207.057 70.1576 206.865C69.7006 206.66 69.1576 206.317 68.8366 205.752C68.4876 205.215 68.4046 204.608 68.4086 204.132C68.3916 203.861 68.4446 203.674 68.4746 203.452C68.5066 203.231 68.5496 203.023 68.6126 202.848C68.7216 202.467 68.8516 202.113 69.0036 201.799C69.1426 201.46 69.3046 201.16 69.4696 200.863C69.7906 200.249 70.1536 199.718 70.5206 199.161C70.9006 198.614 71.2836 198.073 71.6576 197.6L71.9396 197.231L72.0806 197.047L72.1896 196.914L72.2386 196.861L72.3256 196.767C72.5526 196.522 72.7836 196.296 73.0156 196.07C73.4806 195.619 73.9566 195.185 74.4426 194.761C76.3976 193.085 78.5156 191.539 81.0206 190.489C82.2706 189.976 83.6516 189.628 85.1106 189.594C86.5766 189.595 88.0996 189.973 89.3546 190.878L89.8336 191.228L90.1746 191.544L90.3446 191.702L90.3876 191.741L90.4476 191.797L90.4576 191.809L90.4786 191.833L90.5626 191.928L90.8986 192.309C91.3656 192.805 91.7296 193.363 92.1216 193.899C92.8406 195.01 93.4446 196.171 93.9406 197.368C94.8776 199.779 95.4676 202.307 95.5636 204.864C95.6256 206.14 95.5336 207.422 95.3446 208.68C95.0986 209.932 94.7386 211.162 94.1646 212.288L93.8636 212.879L93.8586 212.24L93.8456 210.302Z" fill="#C93D27"/>
</svg>
