<?xml version="1.0" encoding="utf-8"?>
<!-- Generator: Adobe Illustrator 27.5.0, SVG Export Plug-In . SVG Version: 6.00 Build 0)  -->
<svg version="1.1" xmlns="http://www.w3.org/2000/svg" xmlns:xlink="http://www.w3.org/1999/xlink" x="0px" y="0px"
	 viewBox="0 0 3710 3710" style="enable-background:new 0 0 3710 3710;" xml:space="preserve">
<g id="Background">
	<g>
		<g>
			<rect style="fill:#FFFFFF;" width="3710" height="3710"/>
		</g>
	</g>
</g>
<g id="Illustration">
	<g>
		<path style="fill:#F4F7FA;" d="M2924.371,2911.077c-75.481,77.804-143.019,123.539-194.728,158.066
			c-504.312,336.733-1080.795,239.679-1259.029,206.506c-287.559-53.521-530.299-91.278-738.856-279.7
			c-473.904-428.154-450.854-1321.314-88.734-1874.587c42.937-65.602,404.509-601.565,982.24-677.086
			c14.13-1.847,24.674-2.899,33.908-3.877c89.374-9.463,643.205-59.405,1094.798,318.941
			c64.644,54.158,168.674,151.846,265.143,300.835C3371.851,1604.948,3372.968,2448.681,2924.371,2911.077z"/>
		<g>
			<linearGradient id="SVGID_1_" gradientUnits="userSpaceOnUse" x1="1844.014" y1="1858.2168" x2="1445.552" y2="2935.5383">
				<stop  offset="0" style="stop-color:#FCB148"/>
				<stop  offset="0.0521" style="stop-color:#FDBA46"/>
				<stop  offset="0.1424" style="stop-color:#FFC244"/>
				<stop  offset="0.3183" style="stop-color:#FFC444"/>
				<stop  offset="0.4849" style="stop-color:#FDB946"/>
				<stop  offset="0.7754" style="stop-color:#F99C4D"/>
				<stop  offset="0.8658" style="stop-color:#F8924F"/>
				<stop  offset="1" style="stop-color:#F8924F"/>
			</linearGradient>
			<path style="fill:url(#SVGID_1_);" d="M436.894,2191.651c131.51-7.038,264.283-2.822,394.366,20.117
				c32.491,5.775,64.806,12.479,96.804,20.572c16.09,3.553,31.908,8.398,47.777,12.859c7.919,2.303,15.877,4.427,23.747,6.884
				l23.481,7.827c62.571,20.776,123.676,46.011,181.972,76.585c29.279,14.978,57.748,31.527,85.518,49.073
				c27.762,17.563,54.846,36.151,81.001,55.894c26.167,19.727,51.35,40.643,75.788,62.255
				c24.423,21.628,48.024,44.083,70.633,67.341c45.235,46.513,87.3,95.463,127.101,145.247
				c39.824,49.723,77.895,100.124,117.331,147.014c19.779,23.33,39.897,45.837,61.392,65.277
				c21.421,19.465,44.046,36.004,67.712,46.546c23.682,10.467,48.292,14.694,73.965,12.486
				c25.695-2.337,50.287-10.777,73.348-24.465c11.536-6.818,22.699-14.862,33.468-23.85c10.73-9.066,20.974-19.128,30.931-29.731
				c19.923-21.215,38.377-44.976,56.21-69.631c35.205-49.788,68.089-103.209,102.27-156.866
				c34.447-53.526,70.207-107.605,111.828-158.95c41.401-51.374,88.807-100.221,144.31-141.501
				c27.761-20.563,57.468-39.103,88.744-55.137c31.364-15.824,64.227-29.174,98.009-39.636
				c33.771-10.552,68.406-18.021,103.482-23.136c17.549-2.446,35.208-4.466,52.987-5.69c17.763-1.186,35.714-1.702,53.609-1.722
				l1.587-0.002c44.437-0.051,80.503,35.933,80.552,80.371c0.052,44.438-35.932,80.504-80.371,80.554
				c-5.048,0.006-10.423-0.55-15.217-1.434c-53.689-10.275-110.305-10.834-164.953-1.358c-13.617,2.523-27.24,5.313-40.615,9.044
				c-3.348,0.919-6.729,1.77-10.046,2.796l-9.938,3.168c-6.69,1.973-13.136,4.606-19.748,6.879
				c-26.186,9.754-51.419,22.45-75.907,37.016c-12.166,7.436-24.183,15.261-35.803,23.84c-11.738,8.39-23.089,17.502-34.347,26.825
				c-11.174,9.46-22.114,19.296-32.732,29.641c-5.392,5.062-10.544,10.456-15.842,15.669c-5.141,5.42-10.411,10.688-15.466,16.24
				c-20.499,21.894-39.813,45.284-58.72,69.354c-18.974,24.009-37.072,49.075-55.07,74.492
				c-36.229,50.751-70.711,103.863-110.056,155.631c-19.593,25.956-40.308,51.693-63.99,75.949
				c-23.64,24.141-50.089,47.288-81.424,65.547c-15.618,9.097-32.412,16.875-50.06,22.66c-17.642,5.815-36.066,9.544-54.598,11.173
				c-18.533,1.667-37.656,1.102-56.392-2.004c-18.744-3.072-37.001-8.663-53.997-16.08c-34.041-15.034-62.684-36.484-87.918-59.126
				c-25.245-22.806-47.654-46.938-68.867-71.378c-42.349-48.917-80.611-98.784-120.831-146.3
				c-39.969-47.652-80.985-93.589-125.126-135.857c-87.711-84.932-187.632-155.411-297.433-205.02
				c-109.555-50.031-227.337-80.237-346.832-91.733c-59.768-5.796-119.989-6.916-180.036-3.98
				c-60.062,3.004-119.925,10.131-179.284,20.769c-43.592,7.812-85.261-21.192-93.073-64.783
				c-7.812-43.591,21.193-85.26,64.783-93.073c3.147-0.564,6.284-0.936,9.4-1.125L436.894,2191.651z"/>
			
				<linearGradient id="SVGID_00000085939919597274806510000002041444279615295877_" gradientUnits="userSpaceOnUse" x1="2916.3596" y1="2328.9543" x2="3285.8118" y2="2328.9543">
				<stop  offset="0" style="stop-color:#FCB148"/>
				<stop  offset="0.0521" style="stop-color:#FDBA46"/>
				<stop  offset="0.1424" style="stop-color:#FFC244"/>
				<stop  offset="0.3183" style="stop-color:#FFC444"/>
				<stop  offset="0.4849" style="stop-color:#FDB946"/>
				<stop  offset="0.7754" style="stop-color:#F99C4D"/>
				<stop  offset="0.8658" style="stop-color:#F8924F"/>
				<stop  offset="1" style="stop-color:#F8924F"/>
			</linearGradient>
			<path style="fill:url(#SVGID_00000085939919597274806510000002041444279615295877_);" d="M2959.306,2136.27l301.435,143.795
				c31.055,14.814,33.808,51.92,5.189,69.933l-270.04,169.965c-23.74,14.942-55.361-6.648-43.315-29.573l45.965-87.476
				c22.889-43.562,19.421-93.864-9.298-134.855l-68.668-98.011C2905.529,2148.575,2933.664,2124.038,2959.306,2136.27z"/>
		</g>
		<g>
			
				<linearGradient id="SVGID_00000057144066540747992840000005748807366498833319_" gradientUnits="userSpaceOnUse" x1="1826.3966" y1="1016.769" x2="2640.1392" y2="3112.769">
				<stop  offset="0" style="stop-color:#311944"/>
				<stop  offset="1" style="stop-color:#893976"/>
			</linearGradient>
			<path style="fill:url(#SVGID_00000057144066540747992840000005748807366498833319_);" d="M2749.026,1309.009
				c0,339.159-479.497,967.199-699.394,1237.62c-55.006,67.644-158.138,70.258-213.473,5.144
				c-223.527-263.033-724.167-891.727-724.167-1241.492c0-452.054,375.295-813.119,831.118-806.562
				C2391.247,510.165,2749.026,870.662,2749.026,1309.009z"/>
			
				<linearGradient id="SVGID_00000092429379066254348500000003593759782240333209_" gradientUnits="userSpaceOnUse" x1="2157.9795" y1="2614.3408" x2="1620.4475" y2="3430.2385">
				<stop  offset="0" style="stop-color:#311944"/>
				<stop  offset="1" style="stop-color:#893976"/>
			</linearGradient>
			<path style="fill:url(#SVGID_00000092429379066254348500000003593759782240333209_);" d="M2109.848,2936.038
				c0,90.691-74.522,166.786-166.738,169.974c-92.537,3.199-167.791-68.183-167.791-159.446
				c0-91.263,75.253-167.382,167.791-170.007C2035.326,2773.942,2109.848,2845.347,2109.848,2936.038z"/>
			
				<linearGradient id="SVGID_00000088126381628349024260000012932116112156558991_" gradientUnits="userSpaceOnUse" x1="1855.3445" y1="1016.769" x2="2669.0869" y2="3112.769">
				<stop  offset="0" style="stop-color:#FF9085"/>
				<stop  offset="1" style="stop-color:#FB6FBB"/>
			</linearGradient>
			<path style="fill:url(#SVGID_00000088126381628349024260000012932116112156558991_);" d="M2777.974,1309.009
				c0,339.159-479.497,967.199-699.395,1237.62c-55.006,67.644-158.138,70.258-213.473,5.144
				c-223.528-263.033-724.168-891.727-724.168-1241.492c0-452.054,375.295-813.119,831.118-806.562
				C2420.195,510.165,2777.974,870.662,2777.974,1309.009z"/>
			<path style="fill:#FFFFFF;" d="M2424.563,1309.284c0,246.123-201.637,447.507-452.505,449.823
				c-253.259,2.338-460.343-198.727-460.343-449.113s207.084-451.773,460.343-449.829
				C2222.926,862.091,2424.563,1063.161,2424.563,1309.284z"/>
			<g style="opacity:0.3;">
				
					<linearGradient id="SVGID_00000159459069463200658710000007850840662805248384_" gradientUnits="userSpaceOnUse" x1="1566.1223" y1="1129.2382" x2="2380.0525" y2="3225.7214">
					<stop  offset="0" style="stop-color:#FF9085"/>
					<stop  offset="1" style="stop-color:#FB6FBB"/>
				</linearGradient>
				<path style="fill:url(#SVGID_00000159459069463200658710000007850840662805248384_);" d="M1968.441,2218.365
					c51.876-337.344,276.293-447.159,237.91-763.34c-44.337-365.212-373.687-464.24-381.685-791.534
					c-1.288-52.701,6.011-103.411,19.768-151.858c-396.283,55.198-703.495,389.915-703.495,798.649
					c0,349.765,500.64,978.459,724.167,1241.492c32.583,38.343,81.762,53.177,127.912,45.095
					C1953.344,2450.325,1952.142,2324.362,1968.441,2218.365z"/>
			</g>
			
				<linearGradient id="SVGID_00000020393152986199529600000010040278000815435682_" gradientUnits="userSpaceOnUse" x1="2186.9272" y1="2614.3408" x2="1649.3954" y2="3430.2385">
				<stop  offset="0" style="stop-color:#FF9085"/>
				<stop  offset="1" style="stop-color:#FB6FBB"/>
			</linearGradient>
			<path style="fill:url(#SVGID_00000020393152986199529600000010040278000815435682_);" d="M2138.795,2936.038
				c0,90.691-74.522,166.786-166.738,169.974c-92.537,3.199-167.791-68.183-167.791-159.446
				c0-91.263,75.253-167.382,167.791-170.007C2064.274,2773.942,2138.795,2845.347,2138.795,2936.038z"/>
		</g>
		<g>
			
				<linearGradient id="SVGID_00000000203750973510691790000003718106045048998829_" gradientUnits="userSpaceOnUse" x1="1400.4281" y1="2111.2002" x2="1368.1111" y2="2198.5754" gradientTransform="matrix(0.9828 0.1845 -0.1845 0.9828 -261.3919 -555.3049)">
				<stop  offset="0" style="stop-color:#FFC444"/>
				<stop  offset="0.9964" style="stop-color:#F36F56"/>
			</linearGradient>
			<path style="fill:url(#SVGID_00000000203750973510691790000003718106045048998829_);" d="M708.092,1767.572
				c0,0-1.406,31.977,9.143,43.115s17.633,46.853-2.216,54.66c-19.849,7.807-52.242-15.508-55.64-21.891
				c-3.398-6.383,11.071-3.888,18.127-4.751c7.056-0.863-5.495-31.944-3.271-49.911
				C676.458,1770.826,708.092,1767.572,708.092,1767.572z"/>
			
				<linearGradient id="SVGID_00000154385026395407608190000008147172360501430441_" gradientUnits="userSpaceOnUse" x1="2737.2549" y1="1690.658" x2="2708.0725" y2="1769.558" gradientTransform="matrix(0.9828 0.1845 -0.1845 0.9828 -261.3919 -555.3049)">
				<stop  offset="0" style="stop-color:#FFC444"/>
				<stop  offset="0.9964" style="stop-color:#F36F56"/>
			</linearGradient>
			<path style="fill:url(#SVGID_00000154385026395407608190000008147172360501430441_);" d="M2068.768,1680.55
				c1.735-3.121,16.099-24.555,15.617-46.476c-0.482-21.922,3.541-18.869,6.939-12.486c3.398,6.383,5.63-12.731,29.385-7.124
				c23.755,5.608-3.2,47.658-33.887,75.22L2068.768,1680.55z"/>
			
				<linearGradient id="SVGID_00000075845445978302457990000007481541040163239322_" gradientUnits="userSpaceOnUse" x1="2470.1577" y1="1586.6353" x2="1982.2753" y2="2905.7229" gradientTransform="matrix(0.9828 0.1845 -0.1845 0.9828 -261.3919 -555.3049)">
				<stop  offset="0" style="stop-color:#AA80F9"/>
				<stop  offset="0.9964" style="stop-color:#6165D7"/>
			</linearGradient>
			<path style="fill:url(#SVGID_00000075845445978302457990000007481541040163239322_);" d="M1511.755,1430.696
				c45.999-6.099,105.951-5.616,153.909,28.887c99.646,71.689,56.73,224.932,134.968,273.3
				c39.489,24.412,112.724,23.89,259.583-73.621c15.291,11.041,30.58,22.081,45.87,33.122
				c-3.81,10.878-71.608,194.867-249.986,233.624c-156.587,34.023-330.069-58.718-402.229-229.085
				C1473.165,1608.18,1492.46,1519.438,1511.755,1430.696z"/>
			
				<linearGradient id="SVGID_00000119092618559753408320000012336974492813432241_" gradientUnits="userSpaceOnUse" x1="2364.4407" y1="3136.7939" x2="2437.3547" y2="3136.7939" gradientTransform="matrix(-0.9828 -0.1845 -0.1845 0.9828 4399.5366 319.0014)">
				<stop  offset="0" style="stop-color:#FFC444"/>
				<stop  offset="0.9964" style="stop-color:#F36F56"/>
			</linearGradient>
			<path style="fill:url(#SVGID_00000119092618559753408320000012336974492813432241_);" d="M1429.452,2930.388
				c1.252,1.211,20.684,41.345,28.141,66.594l35.668-11.323c0,0-17.044-9.931-19.596-46.971
				C1471.113,2901.645,1429.452,2930.388,1429.452,2930.388z"/>
			
				<linearGradient id="SVGID_00000106111734363102546370000013509449032251619721_" gradientUnits="userSpaceOnUse" x1="2276.376" y1="3157.4387" x2="2405.8816" y2="3157.4387" gradientTransform="matrix(-0.9828 -0.1845 -0.1845 0.9828 4399.5366 319.0014)">
				<stop  offset="0" style="stop-color:#444B8C"/>
				<stop  offset="0.9964" style="stop-color:#26264F"/>
			</linearGradient>
			<path style="fill:url(#SVGID_00000106111734363102546370000013509449032251619721_);" d="M1499.552,3026.691
				c0,0-21.599,3.059-30.167,2.088l-0.864-0.098c-4.846-0.549-9.086-3.52-11.23-7.901c-3.736-7.636-9.05-19.134-8.655-21.994
				c0.605-4.378,14.002-11.085,25.177-12.981c11.175-1.895,14.594-6.604,36.875-18.447c22.28-11.843,58.465-24.077,71.138-7.052
				C1594.497,2977.333,1573.726,3009.921,1499.552,3026.691z"/>
			
				<linearGradient id="SVGID_00000181074012577319703230000016385386657688132489_" gradientUnits="userSpaceOnUse" x1="2359.2197" y1="3110.2827" x2="2344.8899" y2="3143.4055" gradientTransform="matrix(-0.9828 -0.1845 -0.1845 0.9828 4399.5366 319.0014)">
				<stop  offset="0" style="stop-color:#444B8C"/>
				<stop  offset="0.9964" style="stop-color:#26264F"/>
			</linearGradient>
			<path style="fill:url(#SVGID_00000181074012577319703230000016385386657688132489_);" d="M1570.175,2960.436
				c-18.092,3.542-26.723,21.531-59.536,35.271c-18.624,7.796-40.94,13.977-56.765,17.867c-2.886-6.3-5.52-12.746-5.238-14.788
				c0.605-4.378,14.002-11.084,25.177-12.978c11.176-1.898,14.595-6.608,36.875-18.449c22.28-11.841,58.465-24.075,71.137-7.052
				c3.229,4.337,4.272,9.689,2.829,15.528C1583.16,2967.093,1579.384,2958.632,1570.175,2960.436z"/>
			
				<linearGradient id="SVGID_00000083807000271041998030000016773700969050207108_" gradientUnits="userSpaceOnUse" x1="2700.3994" y1="2400.4534" x2="2304.1096" y2="3088.1331" gradientTransform="matrix(-0.9828 -0.1845 -0.1845 0.9828 4399.5366 319.0014)">
				<stop  offset="0" style="stop-color:#311944"/>
				<stop  offset="1" style="stop-color:#893976"/>
			</linearGradient>
			<path style="fill:url(#SVGID_00000083807000271041998030000016773700969050207108_);" d="M1415.421,1941.728
				c32.385,114.469,61.802,250.284,78.273,404.335c24.538,229.488,12.879,429.594-8.231,586.181
				c-20.033,4.186-40.067,8.377-60.099,12.563c-32.161-30.137-78.062-81.193-105.095-155.141
				c-44.311-121.209,11.794-167.924-16.24-308.969c-27.176-136.734-91.462-150.998-121.548-299.774
				c-17.946-88.75-11.534-165.081-3.847-214.179C1257.563,1958.406,1336.491,1950.067,1415.421,1941.728z"/>
			
				<linearGradient id="SVGID_00000119095223635466749650000000963413740776800956_" gradientUnits="userSpaceOnUse" x1="2746.1379" y1="2426.813" x2="2349.8472" y2="3114.4941" gradientTransform="matrix(-0.9828 -0.1845 -0.1845 0.9828 4399.5366 319.0014)">
				<stop  offset="0" style="stop-color:#311944"/>
				<stop  offset="1" style="stop-color:#893976"/>
			</linearGradient>
			<path style="opacity:0.3;fill:url(#SVGID_00000119095223635466749650000000963413740776800956_);" d="M1307.538,1953.124
				c-29.931,48.333-35.673,87.809-33.29,117.966c7.931,100.39,108.022,129.902,112.262,241.302
				c2.846,74.758-41.418,82.863-33.68,161.395c8.21,83.334,59.549,89.381,71.974,176.142c9.768,68.201-18.332,89.783-25.604,181.547
				c-2.517,31.759-1.664,61.247,1.021,87.902c-28.014-30.62-59.421-73.545-79.953-129.711
				c-44.311-121.209,11.794-167.924-16.24-308.969c-27.176-136.734-91.462-150.998-121.548-299.774
				c-17.946-88.75-11.534-165.081-3.847-214.179C1221.602,1962.204,1264.57,1957.667,1307.538,1953.124z"/>
			
				<linearGradient id="SVGID_00000168800740534365057860000011324590735625457794_" gradientUnits="userSpaceOnUse" x1="3428.03" y1="3005.9551" x2="3487.9663" y2="3005.9551" gradientTransform="matrix(-0.9828 -0.1845 -0.1845 0.9828 4399.5366 319.0014)">
				<stop  offset="0" style="stop-color:#444B8C"/>
				<stop  offset="0.9964" style="stop-color:#26264F"/>
			</linearGradient>
			<path style="fill:url(#SVGID_00000168800740534365057860000011324590735625457794_);" d="M453.376,2555.699
				c0,0-14.734,2.59-24.451,20.673c-9.716,18.079-14.723,99.876-9.714,121.145c5.007,21.269,31.503,21.393,41.781,7.842
				c10.276-13.547,19.505-121.322,19.505-121.322L453.376,2555.699z"/>
			
				<linearGradient id="SVGID_00000013904227817949987750000015483756462945865109_" gradientUnits="userSpaceOnUse" x1="3194.9082" y1="2251.6116" x2="2930.155" y2="2846.0583" gradientTransform="matrix(-0.9828 -0.1845 -0.1845 0.9828 4399.5366 319.0014)">
				<stop  offset="0" style="stop-color:#311944"/>
				<stop  offset="1" style="stop-color:#893976"/>
			</linearGradient>
			<path style="fill:url(#SVGID_00000013904227817949987750000015483756462945865109_);" d="M1398.331,1987.651
				c-75.937,70.723-131.09,134.015-167.366,178.655c-76.646,94.318-99.171,142.477-184.601,227.468
				c-79.11,78.703-126.225,103.495-145.313,112.822c-46.039,22.493-81.908,29.718-173.801,46.065
				c-80.297,14.283-165.217,28.745-254.482,43.121c-15.09-1.112-20.101-8.657-21.648-22.82c13.361-63.613,39.903-99,60.177-119.085
				c43.27-42.87,78.632-36.491,197.945-91.34c63.62-29.243,96.037-44.441,125.811-72.539
				c14.323-13.516,38.429-39.099,88.571-143.334c20.548-42.713,46.519-100.822,72.591-172.068
				C1130.255,1978.947,1264.293,1983.299,1398.331,1987.651z"/>
			
				<linearGradient id="SVGID_00000035510579538728962780000013369118006022847903_" gradientUnits="userSpaceOnUse" x1="2111.6399" y1="1454.0537" x2="1623.7618" y2="2773.1292" gradientTransform="matrix(0.9828 0.1845 -0.1845 0.9828 -261.3919 -555.3049)">
				<stop  offset="0" style="stop-color:#AA80F9"/>
				<stop  offset="0.9964" style="stop-color:#6165D7"/>
			</linearGradient>
			<path style="fill:url(#SVGID_00000035510579538728962780000013369118006022847903_);" d="M1665.712,1460.891
				c-48.123-35.349-127.984-84.514-237.014-112.122c-157.238-39.814-288.999-12.983-352.536,4.534
				c-24.287,43.038-28.823,77.198-28.047,101.211c0.581,17.938,3.795,41.849,2.459,81.692c-0.354,10.554-1.458,22.379-3.876,36.83
				c-14.79,88.416-48.79,95.855-85.082,207.553c-29.876,91.955-16.214,115.779-51.085,149.85
				c-25.022,24.448-53.845,33.471-77.689,74.552c-7.894,13.602-27.54,47.453-16.094,61.764
				c18.335,22.932,86.649-41.562,189.884-32.73c55.058,4.714,59.786,25.126,117.808,24.96c63.331-0.181,63.51-24.512,122.98-25.346
				c58.95-0.826,72.344,22.892,161.237,28.838c37.398,2.502,56.098,3.753,69.406-4.249c43.051-25.882,24.812-96.878,37.437-200.745
				c9.275-76.293,26.274-96.896,50.292-163.883c15.66-43.68,15.467-54.032,27.149-89.36
				C1604.721,1568.619,1625.675,1518.544,1665.712,1460.891z"/>
			<g>
				
					<linearGradient id="SVGID_00000130637571368101758280000000807233446992849847_" gradientUnits="userSpaceOnUse" x1="3669.4019" y1="-1384.658" x2="3678.7874" y2="-1634.6555" gradientTransform="matrix(0.9136 0.4067 -0.4067 0.9136 -2546.4451 1222.778)">
					<stop  offset="0" style="stop-color:#FFC444"/>
					<stop  offset="0.9964" style="stop-color:#F36F56"/>
				</linearGradient>
				<path style="fill:url(#SVGID_00000130637571368101758280000000807233446992849847_);" d="M1431.901,1266.225
					c-9.658,14.652-7.129,48.056-36.908,61.17c-26.21,11.543-32.822,12.544-43.511,12.631c-26.634,0.217-37.182-5.666-39.215-1.841
					c-4.568,8.59,46.63,60.14,115.151,70.374c39.824,5.948,95.862-20.606,83.975-27.024c-55.423-29.924-64.11-41.992-29.844-91.375
					C1463.652,1281.439,1449.797,1274.946,1431.901,1266.225z"/>
				<g>
					
						<linearGradient id="SVGID_00000102545043151237014640000014932316125969497270_" gradientUnits="userSpaceOnUse" x1="-865.9711" y1="-921.4709" x2="-924.6588" y2="-1070.5271" gradientTransform="matrix(-0.9929 0.1195 0.1195 0.9929 671.9782 2385.1931)">
						<stop  offset="0" style="stop-color:#311944"/>
						<stop  offset="1" style="stop-color:#6B3976"/>
					</linearGradient>
					<path style="fill:url(#SVGID_00000102545043151237014640000014932316125969497270_);" d="M1496.189,1248.348
						c6.73-10.559,5.658-27.088-4.086-36.201c-8.389-7.844-20.399-7.377-27.594-7.101c-20.873,0.807-46.247,12.674-53.7,31.75
						c-4.42,11.315,9.274,31.442,11.465,35.099c2.481,4.136,6.37,5.102,10.149,7.943c5.237,3.943,13.442,10.225,26.856,20.771
						c0.611-3.796,1.638-8.535,3.481-13.781c0.709-2.018,3.577-9.913,8.382-16.822
						C1480.761,1256.172,1489.805,1258.366,1496.189,1248.348z"/>
					
						<linearGradient id="SVGID_00000000196851453925008160000016742662867122570887_" gradientUnits="userSpaceOnUse" x1="2485.2351" y1="-929.6216" x2="2482.6094" y2="-718.0754" gradientTransform="matrix(0.9836 -0.1801 0.1801 0.9836 -817.9659 2615.8591)">
						<stop  offset="0" style="stop-color:#FFC444"/>
						<stop  offset="0.9964" style="stop-color:#F36F56"/>
					</linearGradient>
					<path style="fill:url(#SVGID_00000000196851453925008160000016742662867122570887_);" d="M1440.815,1292.816
						c0,0,15.544,18.755,42.447,13.043c24.04-5.105,22.842-56.175,6.412-64.609c-5.486-2.814-15.946-2.774-24.139,0.661
						c-4.842,2.03-6.345,4.2-14.319,7.377c-7.361,2.936-9.561,2.474-11.669,4.591c-2.638,2.652-4.214,8.425,1.914,22.526
						c-5.036-3.674-10.751-4.521-14.531-2.202c-0.603,0.371-2.173,1.674-2.964,3.414
						C1421.108,1283.914,1427.479,1290.461,1440.815,1292.816z"/>
				</g>
			</g>
			
				<linearGradient id="SVGID_00000180350230940292009530000003779333156362922683_" gradientUnits="userSpaceOnUse" x1="1763.4031" y1="1325.2666" x2="1275.5259" y2="2644.3401" gradientTransform="matrix(0.9828 0.1845 -0.1845 0.9828 -261.3919 -555.3049)">
				<stop  offset="0" style="stop-color:#AA80F9"/>
				<stop  offset="0.9964" style="stop-color:#6165D7"/>
			</linearGradient>
			<path style="fill:url(#SVGID_00000180350230940292009530000003779333156362922683_);" d="M1264.291,1328.091
				c-253.444-57.285-487.788,34.242-574.054,204.029c-51.666,101.686-38.102,207.597-25.207,264.903
				c19.671-1.415,39.342-2.829,59.012-4.244c23.64-66.049,67.625-154.264,151.358-186.074
				c101.912-38.718,182.763,36.49,266.943-1.986C1190.566,1582.679,1247.259,1519.96,1264.291,1328.091z"/>
			<g style="opacity:0.3;">
				
					<linearGradient id="SVGID_00000163784366411163365610000000164212711068993196_" gradientUnits="userSpaceOnUse" x1="2093.4163" y1="1270.5437" x2="1434.0564" y2="3053.2542" gradientTransform="matrix(0.9828 0.1845 -0.1845 0.9828 -261.3919 -555.3049)">
					<stop  offset="0" style="stop-color:#AA80F9"/>
					<stop  offset="0.9964" style="stop-color:#6165D7"/>
				</linearGradient>
				<path style="fill:url(#SVGID_00000163784366411163365610000000164212711068993196_);" d="M1438.297,2004.887
					c-58.271-37.731-54.224-101.479-107.318-117.662c-63.356-19.311-104.116,60.797-171.887,46.505
					c-60.906-12.844-117.145-96.345-109.347-166.803c14.664-132.51,253.504-197.931,240.536-232.411
					c-5.782-15.376-52.416-0.068-132.021-6.025c-138.343-10.353-157.301-68.543-240.37-58.243
					c-96.725,11.993-172.969,103.529-204.974,182.824c-22.642,56.098-23.872,107.857-21.157,142.029
					c10.762-0.773,21.524-1.547,32.284-2.321c23.64-66.049,67.626-154.264,151.359-186.074
					c59.854-22.739,112.438-6.191,162.704,3.553c-17.233,56.287-46.052,76.65-76.49,170.331
					c-29.876,91.956-16.214,115.779-51.086,149.85c-25.022,24.448-53.844,33.472-77.688,74.553
					c-7.895,13.602-27.54,47.454-16.094,61.764c18.334,22.932,86.649-41.562,189.883-32.73
					c55.058,4.714,59.785,25.126,117.808,24.961c63.33-0.181,63.51-24.512,122.98-25.346c58.949-0.826,72.343,22.892,161.237,28.838
					c37.397,2.501,56.098,3.752,69.406-4.249c11.94-7.178,19.154-17.84,23.63-31.698
					C1478.971,2024.014,1457.468,2017.3,1438.297,2004.887z"/>
			</g>
		</g>
	</g>
</g>
</svg>
