<svg width="1024" height="1143" viewBox="0 0 1024 1143" fill="none" xmlns="http://www.w3.org/2000/svg">
<g clip-path="url(#clip0_1225_6)">
<path d="M1082.22 182.819C1178.01 373.986 1147.71 615.289 1027.99 792.407C908.268 969.524 709.086 1084.2 499.641 1125.95C350.131 1155.76 189.289 1149.69 52.6804 1081.93C-83.9283 1014.17 -191.349 877.85 -199.541 725.386C-202.636 667.797 -190.441 606.649 -152.07 563.65C-90.8031 494.992 13.7867 492.572 105.682 495.408C197.578 498.24 302.101 496.092 363.666 427.702C410.972 375.154 417.938 298.928 442.864 232.723C485.249 120.153 587.51 32.2572 705.032 7.37888C721.355 3.92263 737.898 1.69789 754.516 0.661014C883.774 -7.42258 1006.37 59.1958 1074.18 169.712L1082.22 182.819Z" fill="#F2E4E4"/>
</g>
<defs>
<clipPath id="clip0_1225_6">
<rect width="1024" height="1143" fill="white"/>
</clipPath>
</defs>
</svg>
