<svg width="292" height="202" viewBox="0 0 292 202" fill="none" xmlns="http://www.w3.org/2000/svg">
<path d="M170.755 166.091H287.52L291.276 92H167L170.755 166.091Z" fill="#EBEBEB"/>
<path d="M175.194 100.649H280.128L278.535 125.46H176.56L175.194 100.649Z" stroke="#DBDBDB" stroke-miterlimit="10"/>
<path d="M178.409 132.744L179.519 155.051H277.141L278.535 132.744H178.409Z" stroke="#DBDBDB" stroke-miterlimit="10"/>
<path d="M238.971 115.388H217.973L217.29 110.096H239.654L238.971 115.388Z" stroke="#DBDBDB" stroke-miterlimit="10"/>
<path d="M238.971 146.544H217.973L217.29 141.252H239.654L238.971 146.544Z" stroke="#DBDBDB" stroke-miterlimit="10"/>
<path d="M186.948 166.09L185.815 174.162L183.534 190.38H179.075V166.09H186.948Z" fill="#EBEBEB"/>
<path d="M186.948 166.09L185.815 174.162H179.075V166.09H186.948Z" fill="#DBDBDB"/>
<path d="M271.327 166.09L272.461 174.162L274.742 190.38H279.201V166.09H271.327Z" fill="#EBEBEB"/>
<path d="M271.327 166.09L272.461 174.162H279.201V166.09H271.327Z" fill="#DBDBDB"/>
<path d="M76.1598 13.6037C76.1598 13.6037 49.2626 -32.97 12.8872 46.233C-15.4375 107.907 2.8693 176.519 68.3976 195.346C133.926 214.173 236.273 176.15 204.147 149.354C136.003 92.5122 84.283 42.1294 76.1598 13.6037Z" fill="url(#paint0_linear_20_3449)"/>
<g opacity="0.35">
<path d="M44.9302 55.5744C43.1385 61.2553 40.0606 77.1682 40.8686 95.6495C41.5892 112.136 40.0927 120.755 66.3217 132.746C75.3121 136.856 81.5297 149.899 95.2948 157.658C101.536 161.175 125.046 173.902 155.408 168.759C175.497 165.357 190.455 155.503 200.527 146.322C134.183 90.7257 84.1384 41.6203 76.1599 13.6039C76.1599 13.6039 66.332 -3.39979 50.5272 0.62553C54.3614 4.90003 58.5786 11.3855 59.8228 20.1026C61.5843 32.4404 50.8091 36.9332 44.9302 55.5744Z" fill="url(#paint1_linear_20_3449)"/>
</g>
<g opacity="0.13">
<path d="M173.279 176.612C142.288 193.724 90.5311 204.169 51.9704 175.529C16.2665 149.011 13.0856 104.6 11.8952 91.0462C9.81497 67.3594 14.4428 46.7339 21.1152 30.0971C18.4338 34.7838 15.6888 40.1327 12.8873 46.2331C-15.4374 107.907 2.86942 176.52 68.3977 195.346C132.898 213.878 233.071 177.329 205.56 150.623C197.742 159.442 187.193 168.929 173.279 176.612Z" fill="url(#paint2_linear_20_3449)"/>
</g>
<path d="M124.457 181.588C123.54 181.588 122.619 181.578 121.686 181.557C106.475 181.218 92.3879 178.114 79.8177 172.332C64.1018 165.103 50.7301 153.647 40.0736 138.282C31.0714 125.302 25.7885 110.505 24.3708 94.3027C23.2372 81.3489 24.5589 67.4745 28.2984 53.0639C34.6626 28.5397 45.9906 10.7194 46.1045 10.5426C46.1997 10.3937 46.3974 10.3501 46.5473 10.446C46.6962 10.5415 46.7392 10.7398 46.6437 10.8887C46.5307 11.0652 35.2508 28.8131 28.9142 53.2428C25.1954 67.5797 23.8819 81.3792 25.0097 94.2577C26.4192 110.343 31.6642 125.033 40.6 137.917C51.19 153.187 64.4749 164.57 80.0852 171.75C92.5754 177.495 106.577 180.579 121.701 180.917C147.46 181.492 167.802 173.788 168.005 173.71C168.169 173.646 168.355 173.729 168.419 173.895C168.482 174.059 168.4 174.245 168.234 174.309C168.038 174.384 149.017 181.587 124.457 181.588Z" fill="#FFA6A4"/>
<path d="M247.47 189.137C251.248 189.256 254.734 188.875 256.714 191.681C258.347 193.994 258.13 196.287 256.538 198.6C254.531 201.515 251.064 201.426 247.15 201.657C241.978 201.963 229.63 196.012 229.63 196.012L232.289 193.353C232.289 193.353 242.114 188.968 247.47 189.137Z" fill="#584F4F"/>
<path d="M231.15 196.961C191.17 172.929 191.833 142.933 131.245 139.118C70.6557 135.303 187.085 117.275 187.085 117.275C187.085 117.275 209.296 133.132 219.184 147.095C229.987 162.349 237.418 191.35 237.418 191.35L231.15 196.961Z" fill="url(#paint3_linear_20_3449)"/>
<path d="M218.22 106.708C221.998 106.831 225.486 106.378 227.456 109.604C229.079 112.263 228.854 114.907 227.252 117.579C225.234 120.946 221.767 120.857 217.851 121.139C212.678 121.511 205.227 117.016 205.227 117.016L205.368 111.51C205.368 111.51 212.865 106.535 218.22 106.708Z" fill="#584F4F"/>
<path d="M207.136 116.515C205.741 126.741 185.683 124.253 176.449 128.861L180.017 103.869L205.907 107.865C205.907 107.865 207.597 113.135 207.136 116.515Z" fill="url(#paint4_linear_20_3449)"/>
<path d="M96.2965 152.668C76.3534 143.323 74.0742 136.714 74.0742 136.714C85.7937 131.596 114.924 120.218 126.876 115.67C156.384 104.442 173.6 97.0176 182.526 104.045C191.453 111.073 200 100.398 186.705 123.608C173.41 146.819 116.24 162.014 96.2965 152.668Z" fill="#532C61"/>
<path d="M146.145 76.5162C145.002 59.3077 120.426 43.6103 113.251 39.3807C112.096 38.7002 110.662 38.9265 109.764 39.9213C104.456 45.804 87.3463 66.2047 89.9657 82.1128C92.9931 100.499 104.53 119.171 122.981 116.563C140.87 114.034 147.343 94.5435 146.145 76.5162Z" fill="#92BC83"/>
<path d="M126.686 116.05C102.374 132.194 77.113 133.27 74.264 137.132C39.886 105.793 39.246 65.4338 51.5917 46.2504C63.9374 27.0671 79.1321 39.6027 97.3658 36.7537C111.953 34.4745 114.207 42.1352 113.51 46.2504C104.393 60.6854 116.873 99.5254 126.686 116.05Z" fill="#7FB16D"/>
<path d="M83.8572 20.0584C84.1916 21.8368 85.8794 31.3771 81.9345 33.7215C81.0792 34.2298 79.4541 34.4922 76.2036 35.0169C74.0757 35.3604 72.2922 35.2094 71.0353 35.3277C71.176 36.924 71.6469 39.878 73.4243 42.2808C78.407 49.0164 88.7743 47.5672 90.2535 47.3361C95.4704 46.5213 99.117 43.8341 100.376 42.8845C102.293 41.4387 105.84 37.9634 106.743 36.8472C104.757 35.8254 100.227 36.7656 97.5252 35.8589C95.5064 35.1815 93.6072 34.6867 91.8779 34.3223C91.6384 32.4814 91.3989 30.6406 91.1592 28.7997C88.7251 25.8861 86.2913 22.9722 83.8572 20.0584Z" fill="#FCC9A7"/>
<path d="M82.6576 23.913C82.6576 23.913 84.4737 30.2789 91.2047 31.6753C97.2313 32.9256 101.766 19.8889 98.7632 16.0268C97.7615 14.7384 95.3428 13.6502 93.1293 13.6583C91.8221 13.6629 91.2719 14.0539 89.1356 14.0202C87.1652 13.9891 86.702 13.6418 86.018 13.9556C85.1621 14.3482 84.258 15.6401 84.3448 19.8417C83.5314 18.3859 82.297 17.5724 81.2111 17.7606C81.0378 17.7907 80.5548 17.9551 80.2104 18.3109C78.9638 19.5984 79.8135 21.9176 82.6576 23.913Z" fill="#FCC9A7"/>
<path fill-rule="evenodd" clip-rule="evenodd" d="M99.9643 17.1794C101.956 18.5582 104.241 18.9821 105.081 14.7114C105.943 10.3289 102.543 9.2064 99.2024 9.10802C95.094 4.36662 88.3797 5.15722 88.3797 5.15722C78.0764 7.45996 82.1206 21.0824 82.1206 21.0824L86.2848 19.3945L89.4205 18.201L88.4571 20.3976L89.2932 20.784C90.035 21.1341 91.4218 21.3214 91.8332 20.6034L92.9148 18.7094C95.4921 18.8574 97.1382 16.9521 98.0122 15.4968C98.4486 15.9407 98.9574 16.4152 99.5001 16.8377C99.5083 17.005 99.5106 17.1759 99.5058 17.3492C99.6705 17.3052 99.8231 17.2481 99.9643 17.1794Z" fill="url(#paint5_linear_20_3449)"/>
<path d="M102.751 129.705L117.641 133.943C118.704 134.245 119.848 133.939 120.617 133.145L138.485 114.704C140.77 112.346 138.15 108.558 135.137 109.864L102.379 124.067C99.7932 125.188 100.04 128.933 102.751 129.705Z" fill="#484848"/>
<path d="M103.564 128.689L117.769 132.732C118.962 133.071 120.24 132.642 120.986 131.652L131.367 117.884C133.191 115.464 130.686 112.174 127.868 113.288L103.282 123.013C100.616 124.068 100.806 127.904 103.564 128.689Z" fill="#737373"/>
<path d="M97.7716 125.697C94.5162 125.535 89.5963 127.355 89.5963 127.355L86.23 128.775V123.803C86.23 123.803 89.5086 123.106 91.5199 122.383C95.0324 121.119 96.3074 116.992 99.9357 117.884C103.549 118.772 106.997 122.494 105.706 125.934C105.444 126.633 105.754 125.874 105.226 126.408C103.397 128.254 100.387 125.828 97.7716 125.697Z" fill="#FCC9A7"/>
<path d="M3.41897 112.821C1.74159 87.3738 14.8846 62.9207 36.3767 49.1929C48.5304 41.4299 70.7547 35.7076 70.7547 35.7076C65.1917 57.7372 40.836 78.2528 46.534 95.5368C52.232 112.821 86.6101 120.798 86.6101 120.798C88.4999 125.1 93.4477 120.228 89.8389 128.965C86.2302 137.702 5.71828 147.703 3.41897 112.821Z" fill="url(#paint6_linear_20_3449)"/>
<path d="M109.329 101.174C108.684 98.4885 110.338 95.7892 113.024 95.1447L161.288 83.5594C163.973 82.9148 166.673 84.5691 167.317 87.2542L174.186 115.87C174.831 118.555 173.176 121.254 170.491 121.899L122.226 133.484C119.541 134.129 116.842 132.474 116.197 129.789L109.329 101.174Z" fill="#484848"/>
<path fill-rule="evenodd" clip-rule="evenodd" d="M113.024 95.1447C110.338 95.7892 108.684 98.4885 109.329 101.174L114.941 124.557C122.51 120.329 138.103 113.97 148.783 117.733C158.015 120.985 166.774 112.816 171.786 105.87L167.317 87.2542C166.673 84.5691 163.973 82.9148 161.288 83.5594L113.024 95.1447Z" fill="#595959"/>
<path d="M265.751 92.7463H254.524C252.997 92.7463 251.644 91.578 251.172 89.8526L246.411 72.4409C246.216 71.7284 246.634 70.988 247.262 70.9301C255.931 70.1318 264.515 70.1309 273.014 70.9278C273.642 70.9866 274.059 71.7266 273.864 72.4382L269.103 89.8522C268.631 91.578 267.278 92.7463 265.751 92.7463Z" fill="#B993B1"/>
<path d="M272.868 72.1944C272.868 72.6577 267.203 73.0331 260.214 73.0331C253.226 73.0331 247.561 72.6577 247.561 72.1944C247.561 71.7311 253.226 71.3557 260.214 71.3557C267.203 71.3557 272.868 71.7315 272.868 72.1944Z" fill="#18285D"/>
<path d="M274.545 48.6627C269.991 47.463 263.034 56.9144 260.921 66.1292V52.7035C261.983 50.82 264.008 47.9861 267.685 44.9918C273.402 40.3351 278.666 34.3592 274.104 33.1577C269.829 32.0317 263.436 40.2933 260.921 48.9334V31.6923C261.658 30.5488 262.864 29.0483 264.794 27.4769C268.397 24.5419 271.714 20.7759 268.839 20.0185C266.345 19.3612 262.705 23.7778 260.921 28.7587V23.1707C261.216 21.4422 261.633 18.9733 262.776 16.4491C265.426 10.6008 266.858 4.57506 263.364 5.02359C259.866 5.47212 257.598 15.8883 259.511 23.8846V26.7603C258.219 20.9083 253.787 14.8481 250.893 15.61C248.019 16.3674 251.336 20.1334 254.939 23.0684C257.682 25.3025 258.966 27.3933 259.511 28.518V42.1C257.439 32.839 250.432 23.2803 245.855 24.4862C241.293 25.6877 246.556 31.664 252.274 36.3203C256.595 39.8394 258.635 43.1367 259.511 44.9303V61.2174C257.296 52.1256 250.469 42.9504 245.979 44.1334C241.417 45.3349 245.329 49.7025 251.755 54.9847C256.121 58.5747 258.46 62.3632 259.511 64.4226V72.0943C260.021 72.237 260.498 72.2361 260.921 72.0943V69.0417C261.815 67.2336 263.857 63.9741 268.126 60.4981C273.843 55.8404 279.106 49.8641 274.545 48.6627Z" fill="#FFAA0C"/>
<defs>
<linearGradient id="paint0_linear_20_3449" x1="51.3933" y1="27.4309" x2="211.036" y2="368.463" gradientUnits="userSpaceOnUse">
<stop stop-color="#FFC444"/>
<stop offset="0.9964" stop-color="#F36F56"/>
</linearGradient>
<linearGradient id="paint1_linear_20_3449" x1="69.7206" y1="18.8517" x2="229.363" y2="359.883" gradientUnits="userSpaceOnUse">
<stop stop-color="#FF9085"/>
<stop offset="1" stop-color="#FB6FBB"/>
</linearGradient>
<linearGradient id="paint2_linear_20_3449" x1="51.3932" y1="27.431" x2="211.036" y2="368.464" gradientUnits="userSpaceOnUse">
<stop stop-color="#FF9085"/>
<stop offset="1" stop-color="#FB6FBB"/>
</linearGradient>
<linearGradient id="paint3_linear_20_3449" x1="175.594" y1="117.275" x2="175.594" y2="200.656" gradientUnits="userSpaceOnUse">
<stop stop-color="#6B3976"/>
<stop offset="1" stop-color="#C76ADC"/>
</linearGradient>
<linearGradient id="paint4_linear_20_3449" x1="189.144" y1="102.573" x2="192.553" y2="126.574" gradientUnits="userSpaceOnUse">
<stop stop-color="#663672"/>
<stop offset="1" stop-color="#C166D8"/>
</linearGradient>
<linearGradient id="paint5_linear_20_3449" x1="99.2" y1="9.03854" x2="99.7362" y2="18.2945" gradientUnits="userSpaceOnUse">
<stop stop-color="#0B1226"/>
<stop offset="1" stop-color="#29428C"/>
</linearGradient>
<linearGradient id="paint6_linear_20_3449" x1="40.5552" y1="35.7076" x2="40.5552" y2="134.093" gradientUnits="userSpaceOnUse">
<stop stop-color="#7FB16D"/>
<stop offset="1" stop-color="#B8D1AF"/>
</linearGradient>
</defs>
</svg>
