<svg width="512" height="512" viewBox="0 0 512 512" fill="none" xmlns="http://www.w3.org/2000/svg">
<rect width="512" height="512" fill="white"/>
<path d="M329 311C340.046 311 349 319.954 349 331C349 342.046 340.046 351 329 351H179C167.954 351 159 342.046 159 331C159 319.954 167.954 311 179 311H329Z" fill="#1D1D1B"/>
<path d="M352 237C363.046 237 372 245.954 372 257C372 268.046 363.046 277 352 277H155C143.954 277 135 268.046 135 257C135 245.954 143.954 237 155 237H352Z" fill="#1D1D1B"/>
<path d="M329 163C340.046 163 349 171.954 349 183C349 194.046 340.046 203 329 203H179C167.954 203 159 194.046 159 183C159 171.954 167.954 163 179 163H329Z" fill="#1D1D1B"/>
<path fill-rule="evenodd" clip-rule="evenodd" d="M348 24C425.32 24 488 86.6801 488 164V348C488 425.32 425.32 488 348 488H160C82.6801 488 20 425.32 20 348V164C20 86.6801 82.6801 24 160 24H348ZM158.707 64.0078C104.074 64.7001 60 109.203 60 164V348C60 403.228 104.772 448 160 448H348C402.797 448 447.3 403.925 447.992 349.292L448 348V164C448 109.203 403.925 64.6996 349.292 64.0078L348 64H160L158.707 64.0078Z" fill="#1D1D1B"/>
</svg>
