<svg width="512" height="512" viewBox="0 0 512 512" fill="none" xmlns="http://www.w3.org/2000/svg">
<rect width="512" height="512" fill="white"/>
<path d="M125.045 288.955C130.344 288.955 134.57 290.495 137.721 293.574C140.943 296.654 142.555 300.485 142.555 305.068C142.555 309.652 140.943 313.483 137.721 316.562C134.57 319.642 130.344 321.182 125.045 321.182C119.745 321.182 115.484 319.642 112.262 316.562C109.111 313.483 107.535 309.652 107.535 305.068C107.535 300.485 109.111 296.654 112.262 293.574C115.484 290.495 119.745 288.955 125.045 288.955Z" fill="#1D1D1B"/>
<path d="M206.041 320H173.922V163.594H206.041V320Z" fill="#1D1D1B"/>
<path fill-rule="evenodd" clip-rule="evenodd" d="M371.471 320H337.096L326.249 287.021H270.034L259.215 320H224.947L283.062 163.594H313.033L371.471 320ZM278.316 261.777H317.945L298.105 201.46L278.316 261.777Z" fill="#1D1D1B"/>
<path fill-rule="evenodd" clip-rule="evenodd" d="M254 24C383.235 24 488 127.87 488 256C488 384.13 383.235 488 254 488C124.765 488 20 384.13 20 256C20 127.87 124.765 24 254 24ZM254 64C146.532 64 60 150.284 60 256C60 361.716 146.532 448 254 448C361.468 448 448 361.716 448 256C448 150.284 361.468 64 254 64Z" fill="#1D1D1B"/>
</svg>
