<svg
  width="24"
  height="24"
  viewBox="0 0 24 24"
  fill="none"
  xmlns="http://www.w3.org/2000/svg"
>
<rect width="24" height="24" fill="white" />
<path
    d="M20 12C20 8.22877 20 6.34315 18.8284 5.17157C17.6569 4 15.7712 4 12 4C8.2288 4 6.34316 4 5.17154 5.17157C4 6.34315 4 8.22877 4 12C4 15.7712 4 17.6568 5.17154 18.8285C6.34316 20 8.2288 20 12 20C15.7712 20 17.6569 20 18.8284 18.8285C20 17.6568 20 15.7712 20 12Z"
    stroke="#3F3F3F"
    stroke-width="2"
  />
<path
    d="M7.25 15.0909C7.0303 15.0909 6.84186 15.0142 6.68466 14.8608C6.52936 14.7055 6.45265 14.517 6.45455 14.2955C6.45265 14.0795 6.52936 13.8949 6.68466 13.7415C6.84186 13.5881 7.0303 13.5114 7.25 13.5114C7.45833 13.5114 7.64205 13.5881 7.80114 13.7415C7.96212 13.8949 8.04356 14.0795 8.04545 14.2955C8.04356 14.4432 8.00473 14.5777 7.92898 14.6989C7.85511 14.8182 7.75852 14.9138 7.6392 14.9858C7.51989 15.0559 7.39015 15.0909 7.25 15.0909ZM10.4545 9.18182V15H8.875V9.18182H10.4545ZM12.7145 15H11.0099L12.9304 9.18182H15.0895L17.0099 15H15.3054L14.0327 10.7841H13.9872L12.7145 15ZM12.3963 12.7045H15.6009V13.8864H12.3963V12.7045Z"
    fill="#3F3F3F"
  />
</svg>
