<svg width="512" height="512" viewBox="0 0 512 512" fill="none" xmlns="http://www.w3.org/2000/svg">
<rect width="512" height="512" fill="white"/>
<path fill-rule="evenodd" clip-rule="evenodd" d="M333.827 50C417.971 50.0004 486.329 117.488 487.724 201.268C497.307 352.336 254.003 461 254.003 461C253.494 460.773 10.5943 352.129 20.2823 201.166C21.7306 117.433 90.0758 50.0005 174.186 50C203.407 50 230.73 58.1366 254.003 72.2706C277.277 58.1351 304.604 50.0002 333.827 50ZM333.827 111.37C316.152 111.37 299.81 116.257 285.881 124.717L254.003 144.081L222.125 124.717C208.193 116.256 191.855 111.37 174.186 111.37C123.633 111.371 82.5403 151.905 81.6698 202.227L81.6398 203.665L81.5499 205.097C80.2593 225.22 87.0685 246.966 103.427 270.938C119.95 295.15 144.101 318.377 171.044 339.189C197.683 359.765 224.994 376.405 245.873 387.967C248.722 389.545 251.436 391.02 253.997 392.39C256.556 391.021 259.274 389.556 262.121 387.979C282.991 376.422 310.293 359.787 336.926 339.219C363.864 318.415 388.014 295.193 404.543 270.986C420.911 247.015 427.733 225.27 426.457 205.151L426.361 203.719L426.343 202.287C425.503 151.933 384.396 111.37 333.827 111.37Z" fill="url(#paint0_linear_1789_30)"/>
<defs>
<linearGradient id="paint0_linear_1789_30" x1="254" y1="50" x2="254" y2="461" gradientUnits="userSpaceOnUse">
<stop stop-color="#DC6FA3"/>
<stop offset="1" stop-color="#763B58"/>
</linearGradient>
</defs>
</svg>
