<svg
  width="24"
  height="24"
  viewBox="0 0 24 24"
  fill="none"
  xmlns="http://www.w3.org/2000/svg"
>
<rect width="24" height="24" fill="white" />
<path
    d="M20 12C20 8.22877 20 6.34315 18.8284 5.17157C17.6569 4 15.7712 4 12 4C8.2288 4 6.34316 4 5.17154 5.17157C4 6.34315 4 8.22877 4 12C4 15.7712 4 17.6568 5.17154 18.8285C6.34316 20 8.2288 20 12 20C15.7712 20 17.6569 20 18.8284 18.8285C20 17.6568 20 15.7712 20 12Z"
    stroke="#3F3F3F"
    stroke-width="2"
  />
<path d="M8 9.5H16" stroke="#3F3F3F" stroke-width="2" stroke-linecap="round" />
<path d="M8 14H16" stroke="#3F3F3F" stroke-width="2" stroke-linecap="round" />
</svg>
