<svg
  width="24"
  height="24"
  viewBox="0 0 24 24"
  fill="none"
  xmlns="http://www.w3.org/2000/svg"
>
<rect width="24" height="24" fill="white" />
<path
    d="M4.10825 13.995C3.93104 15.1226 4.72331 15.9052 5.69336 16.2952C9.41232 17.7905 14.5876 17.7905 18.3066 16.2952C19.2766 15.9052 20.0689 15.1226 19.8917 13.995C19.7828 13.3021 19.2443 12.7251 18.8453 12.1617C18.3227 11.4146 18.2708 10.5997 18.2707 9.73284C18.2707 6.38258 15.4632 3.66666 12 3.66666C8.53676 3.66666 5.72926 6.38258 5.72926 9.73284C5.72917 10.5997 5.67725 11.4146 5.15466 12.1617C4.75568 12.7251 4.21716 13.3021 4.10825 13.995Z"
    stroke="#333333"
    stroke-width="2"
    stroke-linecap="round"
    stroke-linejoin="round"
  />
<path
    d="M9.5 19.5C10.1634 20.0183 11.0396 20.3333 12 20.3333C12.9604 20.3333 13.8366 20.0183 14.5 19.5"
    stroke="#333333"
    stroke-width="2"
    stroke-linecap="round"
    stroke-linejoin="round"
  />
</svg>
