<svg width="512" height="512" viewBox="0 0 512 512" fill="none" xmlns="http://www.w3.org/2000/svg">
<rect width="512" height="512" fill="white"/>
<path fill-rule="evenodd" clip-rule="evenodd" d="M257.024 254.015C384.865 255.224 488 333.026 488 428.825L487.995 429.95C487.187 524.238 384.362 475.496 257.024 474.726L254 474.717C125.27 474.717 20.8192 524.983 20.0049 429.95L20 428.825C20 332.272 124.765 254 254 254L257.024 254.015ZM254 294C197.165 294 147.261 311.262 112.478 337.249C77.7012 363.231 60 396.028 60 428.825C60 437.494 61.205 441.929 61.9336 443.765C62.1388 444.282 62.3021 444.579 62.3867 444.72C63.3702 445.368 69.2028 448.247 87.9736 447.982C106.542 447.721 128.973 444.787 158.316 441.39C186.538 438.123 219.244 434.717 254 434.717C288.756 434.717 321.462 438.123 349.684 441.39C379.027 444.787 401.458 447.721 420.026 447.982C438.793 448.247 444.627 445.369 445.612 444.72C445.697 444.579 445.861 444.282 446.066 443.765C446.795 441.929 448 437.494 448 428.825C448 396.028 430.299 363.231 395.522 337.249C360.739 311.262 310.835 294 254 294Z" fill="#353535"/>
<path fill-rule="evenodd" clip-rule="evenodd" d="M256.5 24C312.557 24 358 69.4431 358 125.5C358 181.557 312.557 227 256.5 227C200.443 227 155 181.557 155 125.5C155 69.4431 200.443 24 256.5 24ZM256.5 64C222.534 64 195 91.5345 195 125.5C195 159.466 222.534 187 256.5 187C290.466 187 318 159.466 318 125.5C318 91.5345 290.466 64 256.5 64Z" fill="#353535"/>
</svg>
